<svg width="3310" height="2011" viewBox="0 0 3310 2011" fill="none" xmlns="http://www.w3.org/2000/svg">
<g clip-path="url(#clip0_349_1128)">
<path d="M377.65 1377C404.65 1401 436.65 1420 473.65 1434C510.65 1448 551.15 1455 595.15 1455C667.15 1455 727.15 1435.5 775.15 1396.5C823.15 1357.5 847.15 1304 847.15 1236C847.15 1178 825.65 1130.5 782.65 1093.5C740.65 1056.5 679.15 1038 598.15 1038H449.65L541.15 510H1058.65L1037.65 631.5H647.65L598.15 916.5H626.65C708.65 916.5 776.65 930.5 830.65 958.5C884.65 985.5 925.15 1022 952.15 1068C979.15 1113 992.65 1162.5 992.65 1216.5C992.65 1287.5 975.65 1350.5 941.65 1405.5C907.65 1459.5 860.15 1502 799.15 1533C739.15 1563 668.65 1578 587.65 1578C527.65 1578 472.15 1570.5 421.15 1555.5C371.15 1539.5 329.65 1518.5 296.65 1492.5L377.65 1377ZM1520.29 1578C1420.29 1578 1343.79 1543 1290.79 1473C1238.79 1402 1212.79 1306 1212.79 1185C1212.79 1101 1221.79 1018 1239.79 936C1257.79 853 1285.29 778.5 1322.29 712.5C1359.29 645.5 1406.29 592 1463.29 552C1521.29 512 1589.29 492 1667.29 492C1767.29 492 1843.29 527.5 1895.29 598.5C1948.29 668.5 1974.79 764 1974.79 885C1974.79 969 1965.79 1052.5 1947.79 1135.5C1929.79 1217.5 1902.29 1292 1865.29 1359C1828.29 1425 1780.79 1478 1722.79 1518C1665.79 1558 1598.29 1578 1520.29 1578ZM1535.29 1455C1583.29 1455 1625.29 1439.5 1661.29 1408.5C1698.29 1376.5 1729.29 1333.5 1754.29 1279.5C1779.29 1225.5 1797.79 1164 1809.79 1095C1822.79 1025 1829.29 952 1829.29 876C1829.29 792 1814.29 727.5 1784.29 682.5C1755.29 637.5 1711.29 615 1652.29 615C1604.29 615 1561.79 631 1524.79 663C1488.79 694 1458.29 736.5 1433.29 790.5C1408.29 844.5 1389.29 906.5 1376.29 976.5C1364.29 1045.5 1358.29 1118 1358.29 1194C1358.29 1278 1373.29 1342.5 1403.29 1387.5C1433.29 1432.5 1477.29 1455 1535.29 1455ZM2413.94 1578C2313.94 1578 2237.44 1543 2184.44 1473C2132.44 1402 2106.44 1306 2106.44 1185C2106.44 1101 2115.44 1018 2133.44 936C2151.44 853 2178.94 778.5 2215.94 712.5C2252.94 645.5 2299.94 592 2356.94 552C2414.94 512 2482.94 492 2560.94 492C2660.94 492 2736.94 527.5 2788.94 598.5C2841.94 668.5 2868.44 764 2868.44 885C2868.44 969 2859.44 1052.5 2841.44 1135.5C2823.44 1217.5 2795.94 1292 2758.94 1359C2721.94 1425 2674.44 1478 2616.44 1518C2559.44 1558 2491.94 1578 2413.94 1578ZM2428.94 1455C2476.94 1455 2518.94 1439.5 2554.94 1408.5C2591.94 1376.5 2622.94 1333.5 2647.94 1279.5C2672.94 1225.5 2691.44 1164 2703.44 1095C2716.44 1025 2722.94 952 2722.94 876C2722.94 792 2707.94 727.5 2677.94 682.5C2648.94 637.5 2604.94 615 2545.94 615C2497.94 615 2455.44 631 2418.44 663C2382.44 694 2351.94 736.5 2326.94 790.5C2301.94 844.5 2282.94 906.5 2269.94 976.5C2257.94 1045.5 2251.94 1118 2251.94 1194C2251.94 1278 2266.94 1342.5 2296.94 1387.5C2326.94 1432.5 2370.94 1455 2428.94 1455Z" fill="#CC8000"/>
<path d="M377.65 1377L398.245 1353.83L372.244 1330.72L352.269 1359.2L377.65 1377ZM473.65 1434L484.62 1405.01L484.62 1405.01L473.65 1434ZM775.15 1396.5L755.601 1372.44L755.601 1372.44L775.15 1396.5ZM782.65 1093.5L762.158 1116.76L762.293 1116.88L762.43 1117L782.65 1093.5ZM449.65 1038L419.105 1032.71L412.816 1069H449.65V1038ZM541.15 510V479H515.06L510.605 504.707L541.15 510ZM1058.65 510L1089.2 515.28L1095.47 479H1058.65V510ZM1037.65 631.5V662.5H1063.75L1068.2 636.78L1037.65 631.5ZM647.65 631.5V600.5H621.57L617.107 626.195L647.65 631.5ZM598.15 916.5L567.607 911.195L561.301 947.5H598.15V916.5ZM830.65 958.5L816.38 986.02L816.582 986.125L816.786 986.227L830.65 958.5ZM952.15 1068L925.415 1083.69L925.491 1083.82L925.568 1083.95L952.15 1068ZM941.65 1405.5L967.883 1422.02L967.951 1421.91L968.018 1421.8L941.65 1405.5ZM799.15 1533L813.013 1560.73L813.104 1560.68L813.194 1560.64L799.15 1533ZM421.15 1555.5L411.702 1585.03L412.051 1585.14L412.403 1585.24L421.15 1555.5ZM296.65 1492.5L271.269 1474.7L254.435 1498.71L277.465 1516.85L296.65 1492.5ZM357.055 1400.17C387.138 1426.91 422.479 1447.78 462.679 1462.99L484.62 1405.01C450.82 1392.22 422.162 1375.09 398.245 1353.83L357.055 1400.17ZM462.679 1462.99C503.556 1478.46 547.821 1486 595.15 1486V1424C554.479 1424 517.743 1417.54 484.62 1405.01L462.679 1462.99ZM595.15 1486C673.044 1486 740.291 1464.77 794.698 1420.56L755.601 1372.44C714.009 1406.23 661.256 1424 595.15 1424V1486ZM794.698 1420.56C850.725 1375.04 878.15 1312.28 878.15 1236H816.15C816.15 1295.72 795.574 1339.96 755.601 1372.44L794.698 1420.56ZM878.15 1236C878.15 1169.2 852.888 1113.04 802.869 1070L762.43 1117C798.412 1147.96 816.15 1186.8 816.15 1236H878.15ZM803.142 1070.24C753.406 1026.42 683.376 1007 598.15 1007V1069C674.924 1069 727.893 1086.58 762.158 1116.76L803.142 1070.24ZM598.15 1007H449.65V1069H598.15V1007ZM480.195 1043.29L571.695 515.293L510.605 504.707L419.105 1032.71L480.195 1043.29ZM541.15 541H1058.65V479H541.15V541ZM1028.1 504.72L1007.1 626.22L1068.2 636.78L1089.2 515.28L1028.1 504.72ZM1037.65 600.5H647.65V662.5H1037.65V600.5ZM617.107 626.195L567.607 911.195L628.693 921.805L678.193 636.805L617.107 626.195ZM598.15 947.5H626.65V885.5H598.15V947.5ZM626.65 947.5C705.334 947.5 768.052 960.962 816.38 986.02L844.92 930.98C785.247 900.038 711.966 885.5 626.65 885.5V947.5ZM816.786 986.227C866.151 1010.91 901.839 1043.53 925.415 1083.69L978.885 1052.31C948.461 1000.47 903.149 960.09 844.513 930.773L816.786 986.227ZM925.568 1083.95C949.59 1123.99 961.65 1167.95 961.65 1216.5H1023.65C1023.65 1157.05 1008.71 1102.01 978.732 1052.05L925.568 1083.95ZM961.65 1216.5C961.65 1282.33 945.961 1339.57 915.281 1389.2L968.018 1421.8C1005.34 1361.43 1023.65 1292.67 1023.65 1216.5H961.65ZM915.417 1388.98C884.617 1437.9 841.487 1476.71 785.105 1505.36L813.194 1560.64C878.812 1527.29 930.683 1481.1 967.883 1422.02L915.417 1388.98ZM785.286 1505.27C730.394 1532.72 664.824 1547 587.65 1547V1609C672.476 1609 747.906 1593.28 813.013 1560.73L785.286 1505.27ZM587.65 1547C530.236 1547 477.718 1539.82 429.897 1525.76L412.403 1585.24C466.581 1601.18 525.063 1609 587.65 1609V1547ZM430.598 1525.97C383.28 1510.83 345.3 1491.36 315.835 1468.15L277.465 1516.85C314 1545.64 359.019 1568.17 411.702 1585.03L430.598 1525.97ZM322.03 1510.3L403.03 1394.8L352.269 1359.2L271.269 1474.7L322.03 1510.3ZM1290.79 1473L1265.78 1491.32L1265.93 1491.52L1266.08 1491.71L1290.79 1473ZM1239.79 936L1270.07 942.647L1270.08 942.608L1270.09 942.57L1239.79 936ZM1322.29 712.5L1349.33 727.659L1349.38 727.573L1349.43 727.486L1322.29 712.5ZM1463.29 552L1445.69 526.48L1445.59 526.552L1445.49 526.625L1463.29 552ZM1895.29 598.5L1870.28 616.817L1870.43 617.016L1870.58 617.213L1895.29 598.5ZM1947.79 1135.5L1978.07 1142.15L1978.08 1142.11L1978.09 1142.07L1947.79 1135.5ZM1865.29 1359L1892.33 1374.16L1892.38 1374.07L1892.43 1373.99L1865.29 1359ZM1722.79 1518L1705.19 1492.48L1705.09 1492.55L1704.99 1492.62L1722.79 1518ZM1661.29 1408.5L1681.52 1431.99L1681.55 1431.97L1681.57 1431.95L1661.29 1408.5ZM1809.79 1095L1779.31 1089.34L1779.28 1089.51L1779.25 1089.69L1809.79 1095ZM1784.29 682.5L1758.24 699.293L1758.37 699.495L1758.5 699.696L1784.29 682.5ZM1524.79 663L1545.02 686.491L1545.05 686.469L1545.07 686.447L1524.79 663ZM1433.29 790.5L1461.42 803.524L1461.42 803.524L1433.29 790.5ZM1376.29 976.5L1345.81 970.84L1345.78 971.014L1345.75 971.188L1376.29 976.5ZM1403.29 1387.5L1377.5 1404.7L1377.5 1404.7L1403.29 1387.5ZM1520.29 1547C1428.46 1547 1361.78 1515.4 1315.51 1454.29L1266.08 1491.71C1325.81 1570.6 1412.12 1609 1520.29 1609V1547ZM1315.8 1454.68C1268.92 1390.66 1243.79 1301.83 1243.79 1185H1181.79C1181.79 1310.17 1208.67 1413.34 1265.78 1491.32L1315.8 1454.68ZM1243.79 1185C1243.79 1103.23 1252.55 1022.46 1270.07 942.647L1209.51 929.353C1191.03 1013.54 1181.79 1098.77 1181.79 1185H1243.79ZM1270.09 942.57C1287.52 862.216 1314.01 790.668 1349.33 727.659L1295.25 697.341C1256.58 766.332 1228.07 843.784 1209.5 929.43L1270.09 942.57ZM1349.43 727.486C1384.38 664.199 1428.33 614.407 1481.1 577.375L1445.49 526.625C1384.26 569.593 1334.21 626.801 1295.16 697.514L1349.43 727.486ZM1480.89 577.52C1533.17 541.468 1594.88 523 1667.29 523V461C1583.71 461 1509.42 482.532 1445.69 526.48L1480.89 577.52ZM1667.29 523C1758.96 523 1824.98 554.96 1870.28 616.817L1920.3 580.183C1861.61 500.04 1775.63 461 1667.29 461V523ZM1870.58 617.213C1918.21 680.12 1943.79 768.246 1943.79 885H2005.79C2005.79 759.754 1978.38 656.88 1920.01 579.787L1870.58 617.213ZM1943.79 885C1943.79 966.767 1935.03 1048.06 1917.5 1128.93L1978.09 1142.07C1996.55 1056.94 2005.79 971.233 2005.79 885H1943.79ZM1917.51 1128.85C1900.09 1208.22 1873.58 1279.87 1838.16 1344.01L1892.43 1373.99C1931.01 1304.13 1959.49 1226.78 1978.07 1142.15L1917.51 1128.85ZM1838.25 1343.84C1803.39 1406.02 1759.01 1455.36 1705.19 1492.48L1740.39 1543.52C1802.57 1500.64 1853.19 1443.98 1892.33 1374.16L1838.25 1343.84ZM1704.99 1492.62C1653.82 1528.53 1592.72 1547 1520.29 1547V1609C1603.87 1609 1677.77 1587.47 1740.6 1543.38L1704.99 1492.62ZM1535.29 1486C1590.63 1486 1639.83 1467.89 1681.52 1431.99L1641.06 1385.01C1610.75 1411.11 1575.95 1424 1535.29 1424V1486ZM1681.57 1431.95C1722.54 1396.52 1755.97 1349.67 1782.42 1292.52L1726.16 1266.48C1702.62 1317.33 1674.05 1356.48 1641.01 1385.05L1681.57 1431.95ZM1782.42 1292.52C1808.74 1235.68 1827.95 1171.52 1840.33 1100.31L1779.25 1089.69C1767.64 1156.48 1749.85 1215.32 1726.16 1266.48L1782.42 1292.52ZM1840.27 1100.66C1853.64 1028.67 1860.29 953.772 1860.29 876H1798.29C1798.29 950.228 1791.95 1021.33 1779.31 1089.34L1840.27 1100.66ZM1860.29 876C1860.29 789.013 1844.88 717.494 1810.09 665.304L1758.5 699.696C1783.71 737.506 1798.29 794.987 1798.29 876H1860.29ZM1810.35 665.707C1774.98 610.829 1720.55 584 1652.29 584V646C1702.03 646 1735.6 664.171 1758.24 699.293L1810.35 665.707ZM1652.29 584C1596.69 584 1547.03 602.783 1504.51 639.553L1545.07 686.447C1576.56 659.217 1611.9 646 1652.29 646V584ZM1504.56 639.509C1464.48 674.026 1431.56 720.447 1405.16 777.476L1461.42 803.524C1485.02 752.553 1513.11 713.973 1545.02 686.491L1504.56 639.509ZM1405.16 777.476C1378.89 834.229 1359.2 898.778 1345.81 970.84L1406.77 982.16C1419.39 914.222 1437.7 854.771 1461.42 803.524L1405.16 777.476ZM1345.75 971.188C1333.42 1042.08 1327.29 1116.37 1327.29 1194H1389.29C1389.29 1119.63 1395.16 1048.92 1406.83 981.812L1345.75 971.188ZM1327.29 1194C1327.29 1280.99 1342.71 1352.51 1377.5 1404.7L1429.09 1370.3C1403.88 1332.49 1389.29 1275.01 1389.29 1194H1327.29ZM1377.5 1404.7C1413.73 1459.04 1467.82 1486 1535.29 1486V1424C1486.77 1424 1452.86 1405.96 1429.09 1370.3L1377.5 1404.7ZM2184.44 1473L2159.43 1491.32L2159.57 1491.52L2159.72 1491.71L2184.44 1473ZM2133.44 936L2163.72 942.647L2163.72 942.608L2163.73 942.57L2133.44 936ZM2215.94 712.5L2242.98 727.659L2243.03 727.573L2243.07 727.486L2215.94 712.5ZM2356.94 552L2339.34 526.48L2339.23 526.552L2339.13 526.625L2356.94 552ZM2788.94 598.5L2763.93 616.817L2764.07 617.016L2764.22 617.213L2788.94 598.5ZM2841.44 1135.5L2871.72 1142.15L2871.72 1142.11L2871.73 1142.07L2841.44 1135.5ZM2758.94 1359L2785.98 1374.16L2786.03 1374.07L2786.07 1373.99L2758.94 1359ZM2616.44 1518L2598.84 1492.48L2598.73 1492.55L2598.63 1492.62L2616.44 1518ZM2554.94 1408.5L2575.16 1431.99L2575.19 1431.97L2575.22 1431.95L2554.94 1408.5ZM2703.44 1095L2672.96 1089.34L2672.93 1089.51L2672.89 1089.69L2703.44 1095ZM2677.94 682.5L2651.88 699.293L2652.01 699.495L2652.14 699.696L2677.94 682.5ZM2418.44 663L2438.66 686.491L2438.69 686.469L2438.71 686.447L2418.44 663ZM2326.94 790.5L2355.07 803.524L2355.07 803.524L2326.94 790.5ZM2269.94 976.5L2239.46 970.84L2239.43 971.014L2239.39 971.188L2269.94 976.5ZM2296.94 1387.5L2271.14 1404.7L2271.14 1404.7L2296.94 1387.5ZM2413.94 1547C2322.11 1547 2255.42 1515.4 2209.15 1454.29L2159.72 1491.71C2219.45 1570.6 2305.77 1609 2413.94 1609V1547ZM2209.45 1454.68C2162.56 1390.66 2137.44 1301.83 2137.44 1185H2075.44C2075.44 1310.17 2102.31 1413.34 2159.43 1491.32L2209.45 1454.68ZM2137.44 1185C2137.44 1103.23 2146.19 1022.46 2163.72 942.647L2103.16 929.353C2084.68 1013.54 2075.44 1098.77 2075.44 1185H2137.44ZM2163.73 942.57C2181.16 862.216 2207.65 790.668 2242.98 727.659L2188.9 697.341C2150.22 766.332 2121.71 843.784 2103.14 929.43L2163.73 942.57ZM2243.07 727.486C2278.02 664.199 2321.97 614.407 2374.74 577.375L2339.13 526.625C2277.9 569.593 2227.85 626.801 2188.8 697.514L2243.07 727.486ZM2374.54 577.52C2426.81 541.468 2488.52 523 2560.94 523V461C2477.35 461 2403.06 482.532 2339.34 526.48L2374.54 577.52ZM2560.94 523C2652.6 523 2718.62 554.96 2763.93 616.817L2813.95 580.183C2755.25 500.04 2669.27 461 2560.94 461V523ZM2764.22 617.213C2811.85 680.12 2837.44 768.246 2837.44 885H2899.44C2899.44 759.754 2872.02 656.88 2813.65 579.787L2764.22 617.213ZM2837.44 885C2837.44 966.767 2828.68 1048.06 2811.14 1128.93L2871.73 1142.07C2890.19 1056.94 2899.44 971.233 2899.44 885H2837.44ZM2811.16 1128.85C2793.74 1208.22 2767.22 1279.87 2731.8 1344.01L2786.07 1373.99C2824.65 1304.13 2853.14 1226.78 2871.72 1142.15L2811.16 1128.85ZM2731.9 1343.84C2697.04 1406.02 2652.66 1455.36 2598.84 1492.48L2634.04 1543.52C2696.22 1500.64 2746.84 1443.98 2785.98 1374.16L2731.9 1343.84ZM2598.63 1492.62C2547.46 1528.53 2486.36 1547 2413.94 1547V1609C2497.51 1609 2571.41 1587.47 2634.24 1543.38L2598.63 1492.62ZM2428.94 1486C2484.28 1486 2533.47 1467.89 2575.16 1431.99L2534.71 1385.01C2504.4 1411.11 2469.6 1424 2428.94 1424V1486ZM2575.22 1431.95C2616.18 1396.52 2649.61 1349.67 2676.07 1292.52L2619.8 1266.48C2596.26 1317.33 2567.69 1356.48 2534.66 1385.05L2575.22 1431.95ZM2676.07 1292.52C2702.38 1235.68 2721.59 1171.52 2733.98 1100.31L2672.89 1089.69C2661.28 1156.48 2643.49 1215.32 2619.8 1266.48L2676.07 1292.52ZM2733.92 1100.66C2747.28 1028.67 2753.94 953.772 2753.94 876H2691.94C2691.94 950.228 2685.59 1021.33 2672.96 1089.34L2733.92 1100.66ZM2753.94 876C2753.94 789.013 2738.52 717.494 2703.73 665.304L2652.14 699.696C2677.35 737.506 2691.94 794.987 2691.94 876H2753.94ZM2703.99 665.707C2668.63 610.829 2614.2 584 2545.94 584V646C2595.68 646 2629.24 664.171 2651.88 699.293L2703.99 665.707ZM2545.94 584C2490.33 584 2440.67 602.783 2398.16 639.553L2438.71 686.447C2470.2 659.217 2505.54 646 2545.94 646V584ZM2398.21 639.509C2358.12 674.026 2325.21 720.447 2298.8 777.476L2355.07 803.524C2378.67 752.553 2406.75 713.973 2438.66 686.491L2398.21 639.509ZM2298.8 777.476C2272.53 834.229 2252.84 898.778 2239.46 970.84L2300.42 982.16C2313.03 914.222 2331.34 854.771 2355.07 803.524L2298.8 777.476ZM2239.39 971.188C2227.07 1042.08 2220.94 1116.37 2220.94 1194H2282.94C2282.94 1119.63 2288.81 1048.92 2300.48 981.812L2239.39 971.188ZM2220.94 1194C2220.94 1280.99 2236.35 1352.51 2271.14 1404.7L2322.73 1370.3C2297.52 1332.49 2282.94 1275.01 2282.94 1194H2220.94ZM2271.14 1404.7C2307.37 1459.04 2361.46 1486 2428.94 1486V1424C2380.41 1424 2346.5 1405.96 2322.73 1370.3L2271.14 1404.7Z" fill="#CC8000"/>
<path d="M2531.68 98.4735C2531.68 98.4735 2576.66 93.6178 2616.12 100.864C2655.58 108.111 2728.98 82.3408 2720.32 22.1052C2720.32 22.1052 2730.46 35.561 2729.54 50.1512C2729.54 50.1512 2740.01 33.6335 2725.46 -2.80529C2725.46 -2.80529 2768.95 17.4791 2757.57 70.2268C2757.57 70.2268 2767.26 61.6824 2769.66 52.679C2769.66 52.679 2775.99 80.176 2757.35 96.9462C2757.35 96.9462 2775.18 92.9418 2780.04 85.5575C2780.04 85.5575 2777.01 110.386 2739.94 123.431C2739.94 123.431 2754.53 124.35 2763.99 119.453C2763.99 119.453 2717.56 168.938 2662.46 154.114C2607.37 139.291 2614.92 131.549 2570.19 126.535C2528.57 121.868 2531.68 98.4735 2531.68 98.4735Z" fill="#D49D59"/>
<path d="M2471.26 282.565C2471.26 282.565 2481.89 327.545 2529.14 345.897C2556.19 356.404 2577.79 367.231 2585.07 380.117C2592.35 393.002 2609.45 432.062 2607.68 439.385C2605.91 446.71 2592.61 467.388 2606.15 477.774C2619.69 488.159 2642.53 455.561 2645.73 450.225C2648.93 444.89 2640.48 424.79 2638.39 405.134C2636.3 385.479 2629.48 329.935 2624.22 322.645C2618.96 315.355 2600.78 308.316 2599.36 288.183C2597.93 268.05 2592.73 213.353 2575.59 185.408C2558.46 157.465 2468.96 189.838 2471.26 282.565Z" fill="#BB833E"/>
<path d="M2192.97 338.264C2204.59 371.904 2246.56 388.008 2265.76 415.574C2284.97 443.139 2309.57 474.407 2325.27 512.416C2312.73 520.715 2314.55 544.854 2322.91 550.953C2336.06 554.959 2363.42 523.704 2366.08 517.306C2367.4 512.997 2345.53 472.89 2340.14 461.599C2336.39 453.761 2333.51 354.902 2256.99 306.939C2230.83 290.539 2174.8 285.649 2192.97 338.264Z" fill="#BB833E"/>
<path d="M2142.48 110.113C2142.48 110.113 2169.68 145.164 2200.87 153.32C2232.05 161.476 2259.81 148.52 2302.13 150.977C2344.44 153.435 2411.83 139.45 2452.28 120.349C2492.74 101.249 2555.1 84.0294 2593.19 116.561C2631.28 149.092 2646.01 212.042 2574.58 245.835C2506.43 278.08 2507.56 261.834 2436.42 298.54C2330.15 353.371 2243.04 407.442 2178.76 342.193C2140.57 303.43 2153.55 277.067 2122.53 229.804C2117.45 222.056 2093.01 186.696 2085.14 177.677L2142.48 110.113Z" fill="#D49D59"/>
<path d="M2218.29 302.57C2218.29 302.57 2225.42 313.799 2231.8 329.733C2238.17 345.666 2266.41 389.823 2275.82 408.942C2285.23 428.062 2285.85 521.998 2283.12 541.576C2275.54 549.012 2258.31 552.03 2263.93 568.267C2269.54 584.503 2317.69 563.225 2320.43 561.337C2324.82 557.197 2322.88 539.748 2321.82 521.689C2320.75 503.631 2333.64 454.46 2336.68 426.84C2339.71 399.221 2341.37 370.386 2333.02 347.321C2324.67 324.255 2323 287.076 2323.75 273.569C2324.51 260.063 2253.49 258.556 2218.29 302.57Z" fill="#D49D59"/>
<path d="M2332.72 348.94C2333.41 348.662 2333.77 347.882 2333.51 347.174C2325.38 324.707 2323.51 288.414 2324.32 273.975C2324.37 273.208 2323.78 272.55 2323.01 272.507C2322.25 272.463 2321.59 273.051 2321.54 273.819C2320.72 288.455 2322.62 325.275 2330.89 348.122C2331.16 348.844 2331.95 349.219 2332.68 348.957C2332.69 348.951 2332.71 348.945 2332.72 348.94Z" fill="#C8744B"/>
<path d="M2257.82 375.479C2257.89 375.449 2257.97 375.412 2258.04 375.368C2258.69 374.962 2258.89 374.102 2258.48 373.45C2249.14 358.445 2240.75 341.247 2234.02 327.428C2230.53 320.27 2227.52 314.088 2225.28 310.151C2224.91 309.482 2224.04 309.25 2223.39 309.628C2222.72 310.007 2222.49 310.857 2222.87 311.527C2225.06 315.387 2228.05 321.532 2231.52 328.649C2238.28 342.524 2246.7 359.794 2256.12 374.922C2256.48 375.504 2257.2 375.725 2257.82 375.479Z" fill="#C8744B"/>
<path d="M2469.98 155.297C2469.98 155.297 2490.38 191.857 2483.91 227.173C2477.45 262.488 2478.59 296.49 2503.33 318.056C2528.07 339.622 2545.14 351.878 2554.72 371.672C2564.29 391.465 2571.98 444.025 2567.66 454.62C2563.34 465.213 2550.25 471.347 2557.41 488.392C2564.58 505.438 2581.97 493.111 2594.44 488.492C2606.92 483.871 2605.11 460.185 2604.92 443.339C2604.73 426.492 2604.3 377.775 2605.48 359.724C2606.67 341.673 2596.8 342.061 2589.13 332.752C2581.45 323.442 2580.67 303.708 2592.76 289.222C2604.85 274.735 2679 170.828 2604.58 113.111C2524.37 50.9125 2469.98 155.297 2469.98 155.297Z" fill="#D49D59"/>
<path d="M2484.07 231.505C2484.16 231.542 2484.26 231.57 2484.36 231.588C2485.12 231.718 2485.84 231.209 2485.97 230.452C2486.12 229.598 2486.27 228.744 2486.42 227.891C2492.9 192.49 2472.55 155.454 2472.34 155.084C2471.96 154.41 2471.12 154.173 2470.45 154.546C2469.78 154.921 2469.54 155.768 2469.91 156.44C2470.11 156.801 2489.98 192.988 2483.69 227.388C2483.53 228.251 2483.37 229.115 2483.23 229.982C2483.11 230.636 2483.48 231.264 2484.07 231.505Z" fill="#C8744B"/>
<path d="M2030.19 153.7C2030.19 153.7 2028.04 171.568 2013.03 186.017C1998.02 200.466 2014.83 210.082 2020.42 214.269C2026.01 218.456 2032.78 219.946 2036.42 219.562C2036.42 219.562 2046.52 224.742 2057.29 218.827C2068.06 212.911 2109.81 187.185 2119.44 181.021C2119.44 181.021 2070.86 149.036 2030.19 153.7Z" fill="#D49D59"/>
<path d="M2143.07 80.1762C2167.3 113.27 2157.05 159.881 2121.17 179.754C2091.58 196.143 2053.74 187.823 2033.76 160.531C2009.52 127.436 2019.78 80.8225 2055.66 60.95C2085.25 44.562 2123.09 52.8835 2143.07 80.1762Z" fill="#D49D59"/>
<path d="M2030.19 153.7C2030.19 153.7 2028.04 171.568 2013.03 186.017C1998.02 200.466 2014.83 210.082 2020.42 214.269C2026.01 218.456 2032.78 219.946 2036.42 219.562C2036.42 219.562 2046.52 224.742 2057.29 218.827C2068.06 212.911 2109.81 187.185 2119.44 181.021C2119.44 181.021 2070.86 149.036 2030.19 153.7Z" fill="#D49D59"/>
<path d="M2145.96 156.623C2152.38 146.527 2156.15 134.771 2156.69 122.29C2156.72 121.394 2156.03 120.637 2155.13 120.598C2154.24 120.56 2153.48 121.254 2153.44 122.15C2152.44 145.41 2139.66 166.045 2119.26 177.347C2119.1 177.431 2118.13 178.038 2113.63 180.83C2108.66 183.922 2100.89 188.755 2092.55 193.905C2091.79 194.377 2091.55 195.377 2092.03 196.14C2092.5 196.902 2093.5 197.138 2094.26 196.667C2102.59 191.515 2110.37 186.68 2115.35 183.587C2118.42 181.677 2120.64 180.297 2120.85 180.175C2131.29 174.39 2139.84 166.264 2145.96 156.623Z" fill="#C8744B"/>
<path d="M2036.35 219.459C2037.9 218.157 2039.44 216.844 2040.96 215.506C2041.72 214.846 2042.47 214.169 2043.21 213.492L2044.33 212.48L2045.43 211.452C2045.77 211.116 2046.32 210.566 2046.66 210.229C2046.95 209.924 2047.25 209.621 2047.53 209.305C2047.88 208.942 2048.23 208.59 2048.59 208.25C2048.95 207.905 2049.31 207.572 2049.69 207.252C2050.08 206.939 2050.45 206.608 2050.84 206.293L2052 205.353C2052.39 205.036 2052.81 204.738 2053.21 204.426C2053.61 204.116 2054.02 203.801 2054.48 203.513L2054.67 203.658C2054.51 204.167 2054.29 204.647 2054.07 205.135C2053.85 205.616 2053.57 206.054 2053.3 206.506C2053.03 206.96 2052.72 207.375 2052.4 207.79C2052.09 208.203 2051.76 208.615 2051.42 208.996C2051.07 209.38 2050.72 209.755 2050.34 210.11C2049.96 210.454 2049.57 210.785 2049.16 211.106C2048.76 211.426 2048.34 211.722 2047.93 212.03L2046.7 212.95L2045.47 213.868L2044.23 214.765C2043.39 215.345 2042.55 215.922 2041.7 216.482C2039.99 217.592 2038.27 218.675 2036.49 219.662L2036.35 219.459Z" fill="#1F3148"/>
<path d="M2017.24 211.979C2017.3 210.339 2017.56 208.347 2018.31 206.405C2019.98 202.035 2023.05 189.469 2013.86 185.188C2013.58 185.464 2013.31 185.741 2013.03 186.015C2000.3 198.264 2010.45 207.039 2017.24 211.979Z" fill="#1F3148"/>
<path d="M2053.57 146.706C2055.65 150.966 2055.32 155.401 2052.84 156.613C2050.35 157.826 2046.65 155.357 2044.57 151.098C2042.5 146.839 2042.82 142.403 2045.31 141.19C2047.79 139.978 2051.49 142.448 2053.57 146.706Z" fill="#1F3148"/>
<path d="M2060.16 91.2123C2059.71 93.219 2061.73 94.8734 2063.61 94.0508C2068.83 91.7728 2077.86 89.2129 2084.6 94.6619C2094.64 102.789 2100.25 117.632 2104.68 135.171C2109.1 152.712 2116.48 170.308 2128.43 161.695C2140.38 153.083 2162.75 129.159 2163.66 116.934C2164.58 104.711 2139.95 81.4664 2121.18 67.2795C2112.02 60.3545 2099.14 55.7419 2087.26 60.163C2076.03 64.3419 2063.53 76.2583 2060.16 91.2123Z" fill="#BB833E"/>
<path d="M1472.4 781.346C1472.4 781.346 1438.56 756.736 1472.01 716.656C1505.45 676.575 1579.62 619.387 1602.93 602.395C1626.25 585.402 1650.7 611.092 1637.36 636.877C1624.03 662.663 1550.04 740.928 1531.55 759.373C1513.07 777.819 1490.53 792.994 1472.4 781.346Z" fill="#F8C4B8"/>
<path d="M1456.28 760.876C1456.28 760.876 1452.62 740.427 1464.29 723.783C1475.97 707.139 1504.23 679.246 1522.09 662.886C1539.95 646.526 1582.67 615.234 1591.97 607.534C1601.27 599.835 1623.26 584.271 1637.54 600.825C1651.82 617.378 1647.6 633.26 1630.2 656.769C1612.79 680.278 1537.92 757.463 1525.93 768.533C1513.95 779.602 1492.86 793.567 1475.22 786.162C1458.82 779.278 1456.28 760.876 1456.28 760.876Z" fill="#FDCF87"/>
<path d="M1642.13 622.005C1641.53 610.727 1634.03 600.979 1623.43 597.103C1594.65 586.583 1518.96 561.386 1490.28 557.943C1456.36 553.873 1460.51 575.615 1485.29 587.356C1510.08 599.097 1528.71 609.981 1546.5 619.381C1575.44 634.681 1599.18 651.431 1616.91 652.704C1629.32 653.594 1643.01 638.891 1642.13 622.005Z" fill="#F8C4B8"/>
<path d="M1433.24 545.662C1431.05 551.704 1444.6 562.657 1448.67 565.779C1448.67 565.779 1450.62 567.67 1451.09 568.973C1451.51 570.355 1448.29 569.319 1443.16 568.502C1440.87 567.01 1438.56 565.61 1436.49 564.678C1428.48 561.052 1424.21 561.613 1424.37 564.537C1424.52 567.461 1433.68 572.33 1440.4 577.376C1441.63 578.3 1444.32 579.918 1444.32 579.918C1452.81 582.019 1462.03 587.075 1475.71 585.231C1478.03 585.131 1482.43 585.148 1488.15 586.346C1507.9 593.634 1519.52 575.244 1503.89 564.927C1500.66 562.795 1485.73 542.962 1478.18 538.218C1472.56 534.842 1468.07 530.625 1465.66 528.724C1461.1 525.131 1435.82 538.567 1433.24 545.662Z" fill="#F8C4B8"/>
<path d="M1449.82 566.714C1453.94 566.242 1456.82 563.029 1460.15 560.917C1465.66 557.29 1472.39 556.131 1478.74 555.646C1472.2 553.443 1464.96 556.144 1459.58 560.068C1456.55 562.474 1453.24 565.674 1449.82 566.714Z" fill="#E19787"/>
<path d="M1492.44 590.846L1506.26 560.87C1506.26 560.87 1512.6 556.397 1523.89 554.836C1535.19 553.275 1561.03 570.082 1572.74 573.06C1584.45 576.038 1631.66 578.252 1644.52 608.74C1657.38 639.229 1630.75 652.452 1623.69 655.486C1616.62 658.52 1599.46 657.949 1582.41 648.885C1565.36 639.821 1537.94 620.382 1531.37 617.319C1524.8 614.255 1495.73 608.372 1492.44 590.846Z" fill="#FDCF87"/>
<path d="M1625.02 655.084C1625.22 655.755 1624.89 656.488 1624.23 656.771C1616.08 660.269 1597.69 658.59 1581.01 649.724C1580.33 649.361 1580.08 648.517 1580.44 647.835C1580.8 647.154 1581.65 646.896 1582.33 647.257C1599.69 656.491 1616.94 656.861 1623.13 654.204C1623.84 653.899 1624.66 654.227 1624.97 654.936C1624.99 654.985 1625 655.034 1625.02 655.084Z" fill="#F5AB55"/>
<path d="M1482.74 585.488C1483.99 583.464 1493.14 567.35 1496.14 556.874C1498.46 554.711 1506.02 557.878 1506.42 561.13C1506.81 564.383 1494.57 591.517 1494.57 591.517C1494.57 591.517 1494.27 593.837 1491.54 594.398C1490.2 594.671 1482.43 589.894 1482.57 586.008C1482.58 585.823 1482.64 585.646 1482.74 585.488Z" fill="#FDCF87"/>
<path d="M1507.7 560.437C1507.71 560.459 1507.71 560.481 1507.72 560.504C1507.76 560.655 1507.78 560.807 1507.8 560.959C1508.22 564.339 1498.15 586.885 1495.06 593.714C1494.74 594.417 1493.91 594.727 1493.21 594.409C1492.5 594.091 1492.19 593.264 1492.51 592.561C1498.74 578.806 1505.13 563.345 1505.03 561.283C1505.03 561.261 1505.02 561.222 1505.01 561.183C1504.82 560.435 1505.28 559.676 1506.02 559.488C1506.75 559.306 1507.48 559.729 1507.7 560.437Z" fill="#F5AB55"/>
<path d="M1437.83 517.162C1437.83 517.162 1438.69 512.948 1444.68 514.112C1451.25 516.58 1458.7 521.009 1464.44 527.796C1463.24 533.664 1456.85 530.653 1456.85 530.653C1456.85 530.653 1461.03 536.142 1458.93 539.313C1457.82 540.988 1453.11 541.415 1450.85 540.59C1450.85 540.59 1452.15 545.825 1450.49 547.271C1448.82 548.716 1443.8 548.329 1443.8 548.329C1443.8 548.329 1445.49 551.968 1440.67 554.207C1435.85 556.445 1424.7 543.812 1422.71 539.762C1419.92 534.054 1419.75 529.847 1425.3 532.044C1425.3 532.044 1408.69 513.168 1431.37 522.145C1431.37 522.145 1426.12 511.918 1437.83 517.162Z" fill="#F8C4B8"/>
<path d="M1453.74 531.359C1448.57 526.632 1444.19 520.532 1437.92 517.358C1441.96 522.953 1448.55 527.544 1453.74 531.359Z" fill="#E19787"/>
<path d="M1450.85 540.59C1444.55 534.481 1438.82 526.765 1431.37 522.145C1436.49 529.097 1444.52 535.387 1450.85 540.59Z" fill="#E19787"/>
<path d="M1443.79 548.327C1436.7 541.642 1430.14 533.323 1421.91 528.134C1427.83 535.683 1436.69 542.549 1443.79 548.327Z" fill="#E19787"/>
<path d="M1415.3 975.681C1415.3 975.681 1462.35 966.69 1482.17 1004.9C1501.99 1043.1 1500.16 1301.4 1496.44 1328.22C1492.73 1355.03 1439.06 1363.84 1422.64 1322.42C1406.22 1280.99 1361.44 1087.15 1360.18 1058.9C1358.93 1030.66 1368.74 989.17 1415.3 975.681Z" fill="#F8C4B8"/>
<path d="M1484.29 998.709C1484.29 998.709 1493.97 1030.13 1498.98 1096.36C1503.98 1162.58 1501.7 1300.65 1499.19 1335.09C1496.68 1369.54 1450.36 1361 1431.55 1343.5C1412.74 1326 1381.27 1202.29 1374.64 1170.11C1368 1137.93 1351.8 1064.89 1360.36 1024.13C1370.56 975.56 1435.99 936.136 1484.29 998.709Z" fill="#7B5F3D"/>
<path d="M1497.29 1317.73C1497.29 1317.73 1481.34 1586.41 1479.01 1602.04C1476.67 1617.66 1445.4 1629.88 1439.2 1600.3C1433 1570.72 1424.8 1517.81 1419.87 1485.92C1414.94 1454.03 1411.85 1358.12 1419.78 1321.81C1427.7 1285.5 1492.57 1271.14 1497.29 1317.73Z" fill="#F8C4B8"/>
<path d="M1479.92 1592.4C1479.92 1592.4 1477.6 1608.2 1493.62 1614.42C1509.63 1620.64 1567.37 1625.82 1572.28 1641.26C1577.19 1656.69 1540.39 1658.38 1525.47 1658.91C1510.56 1659.43 1493.11 1654.3 1473.92 1654.66C1454.86 1655.02 1432.02 1656.89 1428.3 1645.13C1424.57 1633.37 1440.13 1610.3 1438 1583.76C1435.86 1557.22 1479.53 1560.18 1479.92 1592.4Z" fill="#F8C4B8"/>
<path d="M1431.21 1557.42C1431.21 1557.42 1435.54 1586.73 1434.75 1598.41C1433.95 1610.08 1427.7 1629.62 1426.87 1636.89C1426.04 1644.15 1426.36 1652.13 1436.22 1654.48C1453.16 1658.54 1478.59 1655.4 1497.11 1657.97C1515.63 1660.55 1544.18 1661.74 1562.83 1655.3C1569.26 1652.46 1574.21 1648.03 1574.35 1644.2C1574.48 1640.36 1571.3 1632.58 1547.93 1626.19C1524.55 1619.8 1498.2 1616.19 1489.97 1610.14C1481.75 1604.09 1480.88 1596.01 1483.14 1559.25C1483.14 1559.25 1472.56 1560.03 1458.95 1559.55C1445.35 1559.07 1431.21 1557.42 1431.21 1557.42Z" fill="#DEB199"/>
<path d="M1421.95 1651.3C1421.95 1651.3 1420.8 1656.63 1421.33 1663.36C1421.33 1663.36 1437.09 1667.95 1468.02 1666.93L1468.55 1662.72C1468.55 1662.72 1498.02 1664.92 1510.25 1666.31C1522.48 1667.7 1548.53 1666.36 1557.78 1664.96C1567.04 1663.56 1576.65 1655.02 1577.88 1652.77C1579.11 1650.51 1576.7 1648.12 1576.7 1648.12L1421.95 1651.3Z" fill="#AB6944"/>
<path d="M1433.66 1606.57C1435.97 1608.25 1450.1 1617.76 1476.01 1619.8C1476.22 1619.82 1476.42 1619.67 1476.46 1619.46C1476.73 1617.92 1477.81 1612.11 1479.03 1610.33C1480.45 1608.27 1486.73 1604.27 1488.67 1603.76C1490.6 1603.26 1499.5 1612.01 1521.38 1617.39C1543.23 1622.76 1562.65 1626.32 1572.24 1632.21C1572.26 1632.22 1572.28 1632.24 1572.3 1632.25C1575.27 1634.69 1576.88 1642.96 1576.7 1648.12C1577 1650.62 1571.63 1655.73 1560.77 1659.07C1547.49 1663.16 1519.58 1662.99 1495.29 1660.6C1475.32 1658.63 1429.22 1661.31 1422.02 1651.41C1421.97 1651.33 1421.94 1651.25 1421.94 1651.16C1421.81 1645.53 1425.24 1617.95 1433.07 1606.67C1433.2 1606.48 1433.47 1606.44 1433.66 1606.57Z" fill="#B97650"/>
<path d="M1476.39 1619.83C1488.63 1623.73 1500.93 1627.84 1513.34 1631.1C1526.86 1634.65 1540.83 1635.62 1554.4 1638.94C1555.56 1639.29 1557.27 1639.26 1558.25 1640C1561.69 1645.5 1560.57 1652.85 1560.77 1659.07C1559.85 1653.21 1560.42 1646.09 1557.09 1641.12C1545.49 1639.21 1533.84 1637.4 1522.22 1635.63C1506.39 1632.22 1491.16 1626.38 1476.39 1619.83Z" fill="#AB6944"/>
<path d="M1557.21 1640.33C1562 1636.96 1567.11 1634.5 1572.62 1632.55C1569.04 1637.27 1563.11 1640.12 1557.21 1640.33Z" fill="#AB6944"/>
<path d="M1410.28 1297.85C1410.28 1297.85 1402.48 1310.96 1408.67 1318.95C1408.67 1318.95 1399.34 1457.2 1430.8 1577.16C1430.8 1577.16 1458.28 1589.36 1486.49 1581.14C1486.49 1581.14 1497.55 1381.66 1499.13 1336.82C1500.71 1291.98 1488.05 1271.67 1464.47 1266.96C1440.89 1262.24 1416.75 1273.48 1410.28 1297.85Z" fill="#7B5F3D"/>
<path d="M1493.89 911.304C1493.89 911.304 1490.8 948.084 1489.44 970.128C1488.08 992.173 1491.87 1045.91 1432.67 1077.64C1379.3 1106.24 1328.14 1077.17 1318.28 1062.59C1303.19 1040.28 1301.96 1008.65 1309.18 976.546C1316.4 944.447 1331.74 912.834 1328.93 859.519C1326.11 806.205 1503.61 814.072 1493.89 911.304Z" fill="#F8C4B8"/>
<path d="M1319.03 933.592C1319.03 933.592 1303.8 976.416 1298.58 1010C1298.58 1010 1290.62 1061.81 1339.69 1082.25C1388.75 1102.68 1429.35 1087.43 1448.52 1072.85C1471.29 1055.52 1486.94 1027.87 1490.32 997.479C1491.62 985.759 1491.42 949.744 1491.42 949.744L1319.03 933.592Z" fill="#7B5F3D"/>
<path d="M1415.26 1089.95C1414.64 1089.95 1414.07 1089.54 1413.91 1088.91C1413.71 1088.17 1414.15 1087.4 1414.9 1087.21C1427.17 1083.98 1438.81 1078.48 1447.67 1071.73C1452.6 1067.98 1457.26 1063.68 1461.51 1058.96C1462.02 1058.39 1462.9 1058.34 1463.48 1058.86C1464.05 1059.37 1464.1 1060.25 1463.58 1060.83C1459.22 1065.68 1454.43 1070.1 1449.36 1073.96C1440.21 1080.92 1428.23 1086.59 1415.61 1089.91C1415.49 1089.94 1415.37 1089.95 1415.26 1089.95Z" fill="#3C2810"/>
<path d="M1466.6 947.419L1447.25 945.605L1444.21 1031.83C1444.21 1031.83 1456.72 1019.89 1459.75 1015.4C1462.27 1011.67 1465.55 963.79 1466.6 947.419Z" fill="#3C2810"/>
<path d="M1491.4 964.94C1491.46 956.411 1491.42 949.744 1491.42 949.744L1319.03 933.592C1319.03 933.592 1317.12 938.963 1314.42 947.387C1338.65 953.943 1426.06 975.516 1491.4 964.94Z" fill="#3C2810"/>
<path d="M1460.54 960.454C1460.45 962.994 1458.32 964.98 1455.78 964.891C1453.24 964.801 1451.25 962.669 1451.34 960.129C1451.43 957.589 1453.56 955.603 1456.1 955.692C1458.64 955.782 1460.63 957.914 1460.54 960.454Z" fill="#7B5F3D"/>
<path d="M1376.17 969.855C1376.17 969.855 1431.24 977.38 1424.45 1045.23C1417.67 1113.09 1370.5 1321.52 1357.97 1344.51C1345.45 1367.49 1291.49 1361.2 1287.44 1309.8C1283.4 1258.41 1288.08 1104.69 1297.09 1041.61C1306.67 974.505 1334.64 963.997 1376.17 969.855Z" fill="#F8C4B8"/>
<path d="M1300.96 997.133C1300.96 997.133 1292.87 1022.46 1288.11 1075.82C1283.35 1129.19 1280.08 1295.42 1280.08 1295.42C1280.08 1295.42 1268.09 1300.75 1274.45 1316.23C1274.45 1316.23 1273.78 1359.66 1325.75 1363.22C1338.4 1363.67 1356.76 1357.12 1365.46 1338.72C1374.17 1320.32 1410.92 1151.53 1413.73 1136.95C1416.55 1122.37 1429.41 1059.8 1430.23 1028.17C1430.23 1028.17 1428.74 972.789 1373.14 966.007C1310.09 958.316 1300.96 997.133 1300.96 997.133Z" fill="#7B5F3D"/>
<path d="M1391.13 1240.74C1391.03 1240.74 1390.92 1240.73 1390.82 1240.71C1390.07 1240.53 1389.6 1239.79 1389.77 1239.03C1400.55 1192.19 1410.88 1144.34 1412.36 1136.69C1412.62 1135.37 1412.96 1133.66 1413.36 1131.61C1416.32 1116.58 1422.47 1085.31 1426.11 1057.9C1426.21 1057.13 1426.91 1056.6 1427.67 1056.7C1428.44 1056.8 1428.98 1057.5 1428.87 1058.26C1425.23 1085.76 1419.06 1117.09 1416.1 1132.15C1415.7 1134.19 1415.36 1135.9 1415.11 1137.22C1413.62 1144.89 1403.27 1192.79 1392.49 1239.66C1392.35 1240.31 1391.77 1240.74 1391.13 1240.74Z" fill="#3C2810"/>
<path d="M1378.77 961.455C1378.77 961.455 1372.33 997.06 1320.05 1010.76C1320.05 1010.76 1360.01 991.444 1365.48 958.828L1378.77 961.455Z" fill="#3C2810"/>
<path d="M1363.87 1328.62C1363.87 1328.62 1298.75 1586.73 1291.56 1602.16C1284.38 1617.59 1258.8 1621.47 1256.36 1592.22C1253.91 1562.97 1259.35 1467.05 1260.12 1434.13C1261.73 1365.33 1274.76 1324.02 1287.02 1303.41C1301.96 1278.28 1373.63 1261.97 1363.87 1328.62Z" fill="#F8C4B8"/>
<path d="M1296.24 1587.83C1296.24 1587.83 1293.01 1608.74 1311.02 1613.7C1329.03 1618.67 1374.51 1632.18 1380.44 1641.64C1386.38 1651.11 1369.51 1658.57 1353.48 1660.17C1337.44 1661.77 1302.27 1656.22 1278.11 1654.96C1253.96 1653.71 1247.04 1649.13 1245.1 1642.67C1241.71 1631.35 1256.8 1610.51 1256.36 1592.22C1255.64 1562.22 1297.09 1555.24 1296.24 1587.83Z" fill="#F8C4B8"/>
<path d="M1254.85 1553.83C1254.85 1553.83 1254.59 1581.6 1253.98 1590.79C1253.37 1599.97 1253.25 1607.45 1250.26 1614.68C1247.27 1621.92 1243.68 1633.88 1243.47 1639.77C1243.26 1645.66 1247.49 1652.29 1259.79 1654.45C1272.09 1656.61 1299.83 1657.59 1317.76 1659.23C1335.69 1660.87 1359.77 1663.59 1371.52 1656.81C1383.27 1650.03 1383.82 1646.59 1382.97 1642.24C1382.11 1637.9 1354.89 1626.43 1331.13 1618.69C1307.37 1610.94 1303.54 1609.51 1300.42 1603.93C1297.31 1598.36 1305.09 1557.19 1305.09 1557.19C1305.09 1557.19 1297.86 1558.37 1279.78 1556.87C1264.99 1555.64 1254.85 1553.83 1254.85 1553.83Z" fill="#DEB199"/>
<path d="M1239.99 1651.67C1239.99 1651.67 1238.94 1658.81 1239 1663.61C1239 1663.61 1265.66 1670.2 1286.07 1666.75L1286.27 1663.69C1286.27 1663.69 1307.32 1665.09 1323.5 1667.32C1339.69 1669.55 1372.43 1668.47 1377.07 1668.01C1381.72 1667.55 1390.43 1660.83 1391.51 1658.98C1392.6 1657.13 1390.98 1652.5 1390.98 1652.5L1239.99 1651.67Z" fill="#AB6944"/>
<path d="M1252.04 1609.24C1252.04 1609.24 1258.57 1615.15 1263.18 1619.49C1267.79 1623.83 1276.82 1631.06 1294.67 1631.39C1296.33 1628.04 1296.52 1620.85 1298.15 1618.07C1299.78 1615.3 1307.05 1610.02 1309.67 1609.61C1312.29 1609.21 1335.46 1620.6 1361.8 1627.54C1388.15 1634.48 1388.57 1636.78 1390.14 1639.19C1391.71 1641.6 1391.42 1650.23 1390.98 1652.51C1390.54 1654.78 1385.61 1659.64 1376.75 1662.8C1370.73 1664.94 1337.12 1664.77 1310.66 1661.09C1290.95 1658.34 1257.86 1660.36 1239.99 1651.67C1238.19 1648.38 1240.09 1632.94 1242.94 1624.77C1245.79 1616.6 1250.42 1607.69 1252.04 1609.24Z" fill="#B97650"/>
<path d="M1294.67 1631.39C1322.15 1637.37 1349.58 1644.37 1377.4 1648.62C1349.14 1647.7 1321.29 1640.58 1294.67 1631.39Z" fill="#AB6944"/>
<path d="M1376.75 1662.8C1376.02 1658.03 1375.69 1653.2 1376.22 1648.41C1379.57 1643.99 1385.24 1641.64 1390.14 1639.19C1386.55 1642.89 1382.29 1645.79 1378.47 1649.18C1378.25 1652.77 1377.69 1658.53 1376.75 1662.8Z" fill="#AB6944"/>
<path d="M1274.36 1314.79C1274.36 1314.79 1259.67 1351.83 1254.82 1428.07C1249.98 1504.3 1251.61 1580.34 1251.61 1580.34C1251.61 1580.34 1274.04 1593.22 1303.94 1589.96C1303.94 1589.96 1358.96 1363.96 1366.91 1334.46C1366.91 1334.46 1378.94 1291.13 1345.63 1281.04C1312.31 1270.94 1285.2 1288.98 1274.36 1314.79Z" fill="#7B5F3D"/>
<path d="M1372.03 674.679C1403.22 670.57 1427.81 675.695 1456.7 685.274C1476.02 691.681 1494.23 700.673 1503.22 714.225C1519 738.016 1511.93 792.319 1506.75 818.698C1501.58 845.077 1496.4 900.442 1493.58 914.608C1490.75 928.775 1426.76 944.374 1388.26 937.183C1358.74 931.669 1332.08 920.717 1329.18 893.406C1325.75 861.19 1323.33 811.607 1319.46 782.513C1315.51 752.771 1318.26 718.579 1324.35 692.892C1326.41 684.187 1327.25 686.277 1339.72 681.347C1348.2 677.993 1363.82 675.761 1372.03 674.679Z" fill="#F8C4B8"/>
<path d="M1451.88 652.601C1451.88 652.601 1445.82 680.949 1449.82 695.145C1453.81 709.341 1430.72 713.621 1416.68 710.996C1402.63 708.37 1382.43 696.654 1382.92 679.257C1383.41 661.859 1392.64 670.112 1398.88 623.7C1403.76 587.394 1462.13 617.802 1451.88 652.601Z" fill="#F8C4B8"/>
<path d="M1382.3 673.639C1382.3 673.639 1410.2 702.539 1446.08 709.273C1446.08 709.273 1447.67 688.751 1447.76 682.135C1447.76 682.135 1470.02 687.525 1480.93 692.226C1481.48 692.461 1482.04 692.715 1482.61 692.986C1499.73 701.067 1511.34 717.545 1513.96 736.291C1515.09 744.326 1515.89 752.854 1515.64 759.888C1514.95 779.434 1510.09 820.317 1505.87 842.04C1501.65 863.764 1497.44 893.259 1497.92 904.212C1498.4 915.165 1499.15 950.878 1491.05 952.032C1482.95 953.186 1382.78 953.682 1319.03 933.591C1315.95 930.892 1318.01 921.468 1319.69 914.62C1321.37 907.771 1322.74 885.372 1322.41 870.107C1322.09 854.842 1318.1 826.345 1316.12 795.634C1313.89 761.019 1298.94 720.993 1314.23 687.092C1327.5 681.091 1360.71 673.741 1382.3 673.639Z" fill="#FDCF87"/>
<path d="M1511.64 790.849C1511.6 790.849 1511.55 790.847 1511.5 790.841C1510.73 790.761 1510.17 790.073 1510.25 789.306C1511.5 777.494 1512.29 767.535 1512.53 760.503C1512.75 754.424 1512.19 746.566 1510.87 737.149C1508.26 718.503 1496.83 702.714 1480.31 694.913C1475.34 692.747 1467.5 690.45 1467.42 690.427C1466.68 690.211 1466.25 689.436 1466.47 688.696C1466.68 687.955 1467.46 687.53 1468.2 687.746C1468.53 687.841 1476.3 690.114 1481.46 692.37C1498.88 700.591 1510.89 717.18 1513.63 736.762C1514.98 746.339 1515.55 754.36 1515.33 760.602C1515.08 767.696 1514.28 777.723 1513.03 789.599C1512.96 790.316 1512.35 790.849 1511.64 790.849Z" fill="#F5AB55"/>
<path d="M1462.82 689.25L1464.48 686.626C1455.74 684.067 1447.76 682.135 1447.76 682.135C1447.67 688.75 1446.08 709.272 1446.08 709.272C1410.2 702.539 1382.3 673.639 1382.3 673.639C1375.8 673.669 1368.38 674.348 1361.1 675.389C1362.43 676.577 1377.58 690.149 1383.13 693.264C1382.9 699.9 1381.89 703.096 1386.34 709.179C1390.8 715.262 1432.43 736.303 1432.43 736.303C1432.43 736.303 1436.91 716.349 1445.48 712.521C1454.06 708.694 1472.57 723.532 1472.57 723.532C1472.57 723.532 1477.01 704.654 1462.82 689.25Z" fill="#F5AB55"/>
<path d="M1332.63 849.746C1345.59 879.943 1371.71 903.05 1401.52 916.066C1370.57 905.412 1343.26 881.108 1332.63 849.746Z" fill="#F5AB55"/>
<path d="M1340.06 871.594C1347.58 891.209 1358.65 910.377 1376.26 922.515C1357.13 912.512 1345.13 892.042 1340.06 871.594Z" fill="#F5AB55"/>
<path d="M1468.31 895.11C1478.13 886.799 1487.96 878.456 1495.6 868.012C1490.1 879.838 1479.56 888.884 1468.31 895.11Z" fill="#F5AB55"/>
<path d="M1476.4 898.417C1483.44 892.497 1488.71 884.981 1493.12 876.99C1491.08 886.016 1484.94 894.573 1476.4 898.417Z" fill="#F5AB55"/>
<path d="M1446.08 709.273C1469.22 753.228 1454.79 812.446 1453.64 860.454C1449.67 890.945 1458 921.521 1454.65 951.9C1456.14 931.855 1450.79 911.008 1449.92 890.99C1448.75 870.553 1450.98 850.079 1452.21 829.703C1453.85 789.814 1463.15 747.033 1446.08 709.273Z" fill="#F5AB55"/>
<path d="M1443.78 719.553C1443.78 719.553 1453.62 733.567 1453.24 772.556C1452.99 798.573 1444.46 870.25 1443.08 881.202C1443.08 881.202 1447.77 918.368 1462.47 936.221C1462.47 936.221 1464.05 900.942 1467.62 884.734C1467.62 884.734 1471.29 808.07 1468.05 778.078C1463.52 736.25 1457.5 727.371 1449.83 718.1L1443.78 719.553Z" fill="#FFF3E8"/>
<path d="M1446.08 709.274C1441.15 708.347 1436.36 707 1431.78 705.368C1431.84 706.503 1432.96 724.003 1446.67 722.655C1460.38 721.305 1450.13 702.359 1446.74 700.373C1446.39 705.346 1446.08 709.274 1446.08 709.274Z" fill="#FFF3E8"/>
<path d="M1444.96 709.593C1444.96 709.593 1438 708.514 1430.71 730.758C1430.71 730.758 1397.65 713.758 1388.06 702.086C1386.54 697.7 1388.03 693.418 1386.75 691.873C1385.47 690.328 1367.77 681.87 1361 675.298C1361 675.298 1375.66 670.33 1385.76 667.686C1385.76 667.686 1424.12 709.858 1443.4 706.705C1445.6 705.616 1447.76 682.136 1447.76 682.136C1447.76 682.136 1447.34 680.311 1447.07 678.437C1446.81 676.564 1446.69 674.983 1446.69 674.983C1446.69 674.983 1456.38 678.828 1462.14 685.531L1459.71 688.279C1459.71 688.279 1469.13 695.445 1471.2 717.019C1471.2 717.019 1458.74 704.886 1444.96 709.593Z" fill="#FDCF87"/>
<path d="M1330.12 687.444C1330.12 687.444 1365.15 707.71 1350.93 763.704C1338.08 814.3 1316.16 864.452 1301.87 889.521C1287.59 914.59 1256.09 901.854 1257.66 872.865C1259.23 843.877 1280.91 751.916 1290.19 727.507C1299.47 703.097 1308.81 684.268 1330.12 687.444Z" fill="#F8C4B8"/>
<path d="M1251.54 874.299C1251.54 874.299 1248.55 897.31 1269.26 910.69C1276.53 914.109 1291.3 912.944 1307.37 888.409C1323.44 863.873 1352.86 774.103 1356.29 758.7C1360.63 739.175 1360.28 704.307 1343.42 693.417C1322.55 679.936 1311.9 688.339 1311.9 688.339C1311.9 688.339 1294.86 695.867 1285.06 726.069C1278.02 747.768 1270.24 790.225 1264.95 814.88L1252.44 859.932C1252.44 859.932 1246.19 864.11 1251.54 874.299Z" fill="#FDCF87"/>
<path d="M1322.52 858.44C1322.34 858.44 1322.16 858.406 1321.99 858.335C1321.28 858.041 1320.94 857.225 1321.23 856.511C1335.88 820.926 1352.29 770.213 1354.92 758.396C1356.76 750.149 1357.56 740.094 1357.11 730.809C1357.07 730.039 1357.67 729.384 1358.44 729.347C1359.21 729.309 1359.86 729.905 1359.9 730.675C1360.36 740.198 1359.54 750.524 1357.65 759.003C1355 770.898 1338.52 821.864 1323.81 857.575C1323.59 858.114 1323.07 858.44 1322.52 858.44Z" fill="#F5AB55"/>
<path d="M1290.42 1034.37C1292.49 1018.94 1295.69 996.789 1299.37 977.065C1306.87 936.859 1309.18 902.295 1309.58 885.859C1309.88 883.673 1309.89 881.498 1309.63 879.377C1308.44 869.577 1301.57 860.963 1291.5 858.049C1278.04 854.155 1263.97 861.907 1260.08 875.365C1259.31 878.008 1259 880.674 1259.09 883.283C1259.09 883.283 1259.47 990.117 1259.63 1034.4C1259.79 1042.93 1268.95 1046.66 1274.04 1046.69C1279.22 1046.72 1289.36 1043.84 1290.42 1034.37Z" fill="#F8C4B8"/>
<path d="M1283.98 1058.18C1286.55 1055.5 1287.46 1070.67 1291.08 1078.59C1294.71 1086.52 1298.26 1088.88 1300.05 1086.59C1301.84 1084.31 1298.48 1074.69 1296.74 1066.55C1295 1058.4 1295.59 1041.92 1293.18 1032.57C1290.77 1023.24 1278.61 1008.61 1278.57 1008.54C1275.8 1004.24 1270.61 1001.83 1265.29 1002.86C1265.13 1002.9 1264.98 1002.96 1264.82 1002.99C1263.65 1010.05 1262.59 1016.66 1260.64 1019.76C1260.44 1022.53 1257.02 1040.17 1256.78 1042.48C1256.15 1048.4 1249.88 1068.98 1251.15 1072.45C1252.42 1075.92 1266.01 1097.54 1268.26 1099.18C1270.52 1100.83 1281.27 1105.58 1283.56 1106.62C1285.84 1107.67 1293.21 1111.89 1295.25 1112.98C1297.28 1114.07 1299.86 1113.81 1299.82 1109.79C1299.78 1105.78 1283.7 1087.59 1281.75 1083.02C1281.31 1081.99 1281.12 1077.61 1281.04 1071.9C1280.94 1064.23 1281.41 1060.86 1283.98 1058.18Z" fill="#F8C4B8"/>
<path d="M1293.5 1110.62C1293.5 1110.62 1289.89 1116.63 1281.16 1110.37C1281.16 1110.37 1277.02 1114.57 1269.43 1104.95C1269.43 1104.95 1264.5 1105.32 1261.42 1100.26C1259.39 1096.93 1249.86 1080.9 1248.56 1076.99C1247.26 1073.09 1255.95 1047 1255.95 1047L1276.74 1088.01L1293.5 1110.62Z" fill="#F8C4B8"/>
<path d="M1292.69 1111.57C1287.77 1105.3 1282.66 1098.68 1277.63 1092.47C1273.5 1086.66 1271.56 1079.74 1269.24 1073.01L1269.05 1073.04C1269.54 1080.8 1271.79 1088.91 1277.33 1094.62C1282.32 1100.21 1286.97 1105.44 1292.03 1110.93L1292.69 1111.57Z" fill="#E19787"/>
<path d="M1269.43 1104.95C1264.6 1095.37 1258.68 1086.16 1254.62 1076.21L1254.43 1076.27C1254.47 1081.79 1257.14 1087.06 1260.4 1091.41C1263.01 1095.42 1266.21 1100.29 1268.85 1104.2L1269.43 1104.95Z" fill="#E19787"/>
<path d="M1281.16 1110.37C1272.74 1099.88 1266.19 1088.18 1260.8 1075.85L1260.62 1075.91C1262.64 1089.62 1271.29 1099.59 1280.26 1109.54L1281.16 1110.37Z" fill="#E19787"/>
<path d="M1298.71 1008.59C1298.71 1008.59 1320.5 886.72 1308.43 865.597C1296.35 844.475 1284.23 846.663 1277.16 847.163C1270.08 847.663 1250.91 858.827 1250.55 882.847C1250.33 897.94 1252.63 986.475 1258.78 1002.46L1298.71 1008.59Z" fill="#FDCF87"/>
<path d="M1292.31 1020.75C1292.31 1020.75 1272.18 1015.01 1259.57 1016.23C1257.18 1015.72 1253.83 1003.24 1257.67 1000.52C1259.69 999.667 1290.02 1000.94 1300.21 1008.64C1301.33 1009.59 1294.57 1020.85 1292.31 1020.75Z" fill="#FDCF87"/>
<path d="M1298.94 1009.17C1298.69 1009.17 1298.44 1009.11 1298.21 1008.96C1288.48 1002.95 1265.21 1001.4 1259.15 1001.73C1258.39 1001.77 1257.72 1001.18 1257.68 1000.41C1257.64 999.642 1258.23 998.984 1259 998.942C1264.3 998.655 1288.85 999.896 1299.68 1006.59C1300.33 1006.99 1300.53 1007.85 1300.13 1008.51C1299.87 1008.94 1299.41 1009.17 1298.94 1009.17Z" fill="#F5AB55"/>
<path d="M1465.4 519.008C1465.4 519.008 1476.04 539.613 1477.04 567.022L1449.19 522.766L1465.4 519.008Z" fill="#101D3C"/>
<path d="M1395.12 493.974C1395.12 493.974 1441.74 483.412 1460.94 522.044C1480.15 560.676 1496 634.704 1468.48 650.918C1445.71 664.339 1405.61 651.632 1382.52 630.943C1358.23 609.171 1342.53 576.998 1344.9 548.555C1346.97 523.652 1358.52 502.459 1395.12 493.974Z" fill="#F8C4B8"/>
<path d="M1468.22 651.283C1458.78 659.077 1445.54 660.359 1433.74 659.002C1414.48 656.434 1394.55 646.653 1382.16 631.517L1382.41 631.239C1385.31 633.799 1388.39 636.153 1391.59 638.323C1409.86 650.604 1435.18 659.83 1457.27 655.071C1461.03 654.219 1464.69 652.879 1468.04 650.963L1468.22 651.283Z" fill="#F1B3A1"/>
<path d="M1468.15 593.227C1469.56 595.524 1476.55 595.782 1482.31 595.641C1481.78 590.894 1481.05 586.047 1480.14 581.172C1473.25 583.667 1465.16 585.952 1468.15 593.227Z" fill="#F1B3A1"/>
<path d="M1446.89 596.42C1446.89 596.42 1442.87 591.996 1430.96 596.588C1424.34 599.143 1417.01 601.709 1419.19 607.797C1421.24 615.963 1456.24 606.89 1446.89 596.42Z" fill="#F1B3A1"/>
<path d="M1428.56 585.469C1429.68 588.745 1432.65 590.698 1435.19 589.831C1437.74 588.965 1438.9 585.606 1437.79 582.331C1436.67 579.056 1433.71 577.103 1431.16 577.97C1428.61 578.836 1427.45 582.194 1428.56 585.469Z" fill="#121D3E"/>
<path d="M1460.15 574.756C1461.25 577.992 1464.17 579.925 1466.68 579.073C1469.18 578.221 1470.32 574.907 1469.22 571.671C1468.12 568.435 1465.2 566.502 1462.69 567.354C1460.19 568.207 1459.05 571.519 1460.15 574.756Z" fill="#121D3E"/>
<path d="M1467.53 624.993C1467.36 625.092 1467.15 625.138 1466.94 625.111C1466.89 625.105 1462.18 624.555 1459.05 627.635C1458.67 628.005 1458.07 627.999 1457.7 627.623C1457.33 627.248 1457.33 626.643 1457.71 626.275C1461.52 622.533 1466.95 623.188 1467.18 623.218C1467.7 623.286 1468.07 623.764 1468 624.287C1467.96 624.595 1467.78 624.85 1467.53 624.993Z" fill="#F1B3A1"/>
<path d="M1437.76 565.858C1437.76 565.858 1440.83 565.271 1441.4 567.448C1442.03 569.861 1442.54 570.995 1441.18 571.774C1439.83 572.554 1430.42 573.576 1422.78 574.932C1415.06 576.303 1411.76 577.351 1411.14 576.644C1410.52 575.937 1416.54 571.077 1424.19 569.03C1432.27 566.87 1430.79 567.143 1437.76 565.858Z" fill="#101D3C"/>
<path d="M1467.23 557.067C1467.23 557.053 1461.09 558.718 1459.55 559.259C1458.58 559.597 1457.34 560.061 1455.09 560.889C1455.09 560.889 1452.15 561.95 1452.78 564.112C1453.47 566.509 1453.61 567.744 1455.17 567.723C1456.64 567.704 1472.61 560.208 1473.72 559.75C1475.45 559.035 1475.78 558.732 1475.88 558.191C1476.04 557.346 1473.52 555.693 1467.23 557.067Z" fill="#101D3C"/>
<path d="M1463.07 601.7C1463.54 601.43 1463.97 601.14 1464.33 600.827C1466.6 598.864 1465.25 596.799 1463.94 594.802C1463.69 594.414 1463.4 593.975 1463.1 593.495C1455.03 580.53 1451.71 573.959 1451.67 573.895C1451.27 573.098 1450.3 572.778 1449.51 573.178C1448.71 573.578 1448.39 574.549 1448.79 575.344C1448.92 575.614 1452.2 582.089 1460.36 595.201C1460.68 595.712 1460.98 596.166 1461.24 596.567C1461.65 597.197 1462.15 597.965 1462.28 598.327C1462.26 598.344 1462.24 598.363 1462.22 598.386C1460.83 599.585 1456.98 600.664 1454.87 601.062C1454 601.227 1453.42 602.072 1453.59 602.947C1453.75 603.823 1454.59 604.399 1455.47 604.234C1456.02 604.131 1460.28 603.291 1463.07 601.7Z" fill="#E19787"/>
<path d="M1470.18 615.853C1469.91 616.006 1469.59 616.085 1469.26 616.062C1467.03 615.907 1464.82 616.081 1462.68 616.583C1457.85 617.718 1454.36 620.296 1452.29 622.262C1451.65 622.875 1450.61 622.851 1449.99 622.199C1449.37 621.547 1449.4 620.521 1450.05 619.904C1453.44 616.696 1457.55 614.449 1461.94 613.421C1464.4 612.845 1466.94 612.643 1469.49 612.82C1470.38 612.882 1471.05 613.66 1470.99 614.554C1470.95 615.116 1470.63 615.592 1470.18 615.853Z" fill="#E19787"/>
<path d="M1356.6 507.815C1356.6 507.815 1379.48 482.001 1414.13 485.715C1417.19 486.043 1420.28 486.682 1423.37 487.521C1425.87 487.607 1433.61 488.028 1437.52 489.984C1437.52 489.984 1434.83 490.083 1432.72 490.718C1444.09 495.353 1454.64 502.293 1462.03 508.543C1464.33 509.293 1467.55 509.74 1470.31 507.903C1470.31 507.903 1469.51 511.794 1466.78 512.355C1469.66 514.25 1472.24 514.958 1475.4 514.948C1475.4 514.948 1469.43 527.511 1447.85 527.185C1447.85 527.185 1435.57 543.187 1415.05 540.762C1401.28 539.134 1397.5 534.69 1386.69 537.741C1386.69 537.741 1386.43 544.623 1388.42 551.504C1390.41 558.384 1398.22 579.744 1393.98 591.752C1389.75 603.76 1386.11 605.099 1388.34 616.504C1393.52 642.976 1386.36 650.628 1386.84 652.823C1384.69 652.351 1380.98 650.263 1371.73 636.73C1362.47 623.197 1345.73 603.907 1337.13 577.541C1328.53 551.176 1332.25 517.776 1356.6 507.815Z" fill="#182B4F"/>
<path d="M1432.72 490.717C1428.99 489.325 1424.35 489.4 1420.98 491.672C1424.96 491.505 1428.8 491.49 1432.72 490.717Z" fill="#101D3C"/>
<path d="M1447.84 527.184C1440.39 526.735 1432.62 526.17 1426.16 522.066C1431.33 528.053 1440.54 528.977 1447.84 527.184Z" fill="#101D3C"/>
<path d="M1466.78 512.354C1460.76 511.042 1454.57 509.866 1448.65 508.129C1453.66 511.866 1460.68 513.222 1466.78 512.354Z" fill="#101D3C"/>
<path d="M1365.95 532.668C1354.99 544.736 1355.22 563.865 1363.4 577.375C1357.41 562.87 1357 546.053 1365.95 532.668Z" fill="#101D3C"/>
<path d="M1386.69 537.741C1386.69 537.741 1359.61 528.929 1356.6 507.815C1356.6 507.815 1363.85 523.835 1386.69 537.741Z" fill="#101D3C"/>
<path d="M1398.51 600.489C1398.51 600.489 1392.2 579.04 1379.35 582.599C1366.49 586.157 1371.76 604.116 1383.4 613.392C1389.91 618.584 1405.11 623.103 1398.51 600.489Z" fill="#F8C4B8"/>
<path d="M1379.29 597.799C1381.71 596.783 1384.2 597.181 1386.14 597.864C1384.68 595.716 1382.65 593.945 1379.79 593.62C1379.05 593.536 1378.53 592.872 1378.61 592.135C1378.69 591.4 1379.35 590.872 1380.09 590.954C1390.28 592.111 1392.09 606.159 1392.16 606.757C1392.25 607.492 1391.73 608.16 1390.99 608.249C1390.98 608.251 1390.97 608.252 1390.95 608.253C1390.23 608.32 1389.59 607.802 1389.5 607.079C1389.49 607.025 1389.18 604.629 1388.16 601.871C1388.13 601.853 1388.1 601.848 1388.07 601.827C1388.03 601.798 1383.84 598.806 1380.32 600.275C1379.64 600.561 1378.85 600.239 1378.57 599.556C1378.28 598.873 1378.6 598.086 1379.29 597.799Z" fill="#E19787"/>
</g>
<defs>
<clipPath id="clip0_349_1128">
<rect width="3310" height="2011" fill="white"/>
</clipPath>
</defs>
</svg>
