<svg width="512" height="512" viewBox="0 0 512 512" fill="none" xmlns="http://www.w3.org/2000/svg">
<path d="M275.563 330.429H236.459C211.947 330.429 192.021 311.677 192.021 288.616V222.93C192.021 199.869 211.968 181.096 236.459 181.096H275.563C300.075 181.096 320 199.869 320 222.93V288.616C320 311.677 300.032 330.429 275.563 330.429ZM465.856 138.877C447.189 141.885 373.675 164.669 330.581 188.52C337.344 198.44 341.333 210.237 341.333 222.93V245.096H362.667C365.496 245.096 368.209 246.22 370.209 248.22C372.21 250.22 373.333 252.933 373.333 255.762C373.333 258.591 372.21 261.304 370.209 263.305C368.209 265.305 365.496 266.429 362.667 266.429H341.333V288.616C341.333 301.458 337.301 313.384 330.368 323.346C373.44 347.24 447.147 370.066 465.856 373.096C467.883 373.416 469.845 373.565 471.787 373.565C482.581 373.565 492.8 368.893 500.587 360.445C507.84 352.53 512 342.12 512 331.858V180.093C512 155.88 489.856 135.016 465.856 138.877ZM170.667 288.616V266.429H149.333C146.504 266.429 143.791 265.305 141.791 263.305C139.79 261.304 138.667 258.591 138.667 255.762C138.667 252.933 139.79 250.22 141.791 248.22C143.791 246.22 146.504 245.096 149.333 245.096H170.667V222.93C170.667 210.237 174.677 198.44 181.419 188.52C138.347 164.669 64.8107 141.864 46.144 138.877C22.1867 135.016 0.0213333 155.88 0 180.114V331.858C0 354.109 18.7947 373.565 40.2133 373.565C42.1547 373.565 44.1387 373.437 46.144 373.117C64.8533 370.109 138.581 347.261 181.611 323.368C174.506 313.17 170.687 301.044 170.667 288.616Z" fill="#DDDDDD"/>
</svg>
