<svg width="1122" height="1009" viewBox="0 0 1122 1009" fill="none" xmlns="http://www.w3.org/2000/svg">
<rect width="1122" height="1009" fill="white"/>
<path d="M318.75 290.513C318.75 290.513 353.458 425.849 507.167 425.849C660.875 425.849 694.167 290.513 694.167 290.513" stroke="#3E012E" stroke-width="50"/>
<path d="M376.47 388.471C376.47 388.471 317.392 446.214 313.288 595.897C309.185 745.58 293.302 939.079 357.758 942.021" stroke="#3E012E" stroke-width="50"/>
<path d="M302.691 691.597C302.691 691.597 204.779 700.326 176.996 786.877C149.212 873.429 210.138 939.724 274.61 942.039" stroke="#3E012E" stroke-width="50"/>
<path d="M734.351 473.835C736.808 487.422 727.785 500.428 714.198 502.884C700.611 505.341 687.606 496.318 685.149 482.731L734.351 473.835ZM647.417 384.221C659.397 362.278 659.407 362.283 659.417 362.289C659.421 362.291 659.432 362.297 659.439 362.301C659.454 362.309 659.469 362.317 659.485 362.326C659.518 362.344 659.554 362.364 659.593 362.386C659.67 362.429 659.76 362.479 659.862 362.537C660.066 362.652 660.318 362.796 660.616 362.971C661.21 363.319 661.988 363.786 662.924 364.376C664.797 365.555 667.317 367.23 670.299 369.429C676.25 373.817 684.132 380.356 692.404 389.281C708.996 407.183 727.309 434.884 734.351 473.835L685.149 482.731C680.15 455.077 667.297 435.747 655.732 423.269C649.926 417.005 644.483 412.516 640.627 409.674C638.707 408.258 637.204 407.268 636.278 406.685C635.817 406.394 635.502 406.207 635.354 406.12C635.28 406.077 635.248 406.059 635.261 406.066C635.268 406.07 635.285 406.08 635.314 406.096C635.329 406.104 635.346 406.114 635.367 406.125C635.377 406.131 635.388 406.137 635.4 406.143C635.405 406.146 635.415 406.151 635.418 406.153C635.427 406.158 635.437 406.163 647.417 384.221Z" fill="#3E012E"/>
<path d="M215.333 175.016C215.333 175.016 373.292 64.4796 509.292 64.4796C645.292 64.4796 789.083 175.016 789.083 175.016" stroke="#3E012E" stroke-width="50"/>
<path d="M347.088 106.122C347.088 106.122 342.125 357.118 279.64 287.862C217.155 218.606 165.164 175.943 271.292 140.296" stroke="#3E012E" stroke-width="50"/>
<path d="M664.283 106.123C664.283 106.123 669.246 357.118 731.73 287.862C794.215 218.606 837.858 173.108 731.73 137.462" stroke="#3E012E" stroke-width="50"/>
<ellipse cx="440.583" cy="187.062" rx="28.3333" ry="28.3427" fill="#3E012E"/>
<ellipse cx="580.833" cy="187.062" rx="28.3333" ry="28.3427" fill="#3E012E"/>
<path d="M251.458 943.103H832.292" stroke="#3E012E" stroke-width="50" stroke-linecap="round"/>
<path d="M463.25 672.431V926.806" stroke="#3E012E" stroke-width="50" stroke-linecap="round"/>
<path d="M560.833 493.871C560.833 523.922 536.483 548.271 506.458 548.271C476.434 548.271 452.083 523.922 452.083 493.871C452.083 463.821 476.434 439.472 506.458 439.472C536.483 439.472 560.833 463.821 560.833 493.871Z" stroke="#3E012E" stroke-width="40"/>
<path d="M627.837 725.104C627.837 725.104 603.631 740.184 582.748 812.874C561.864 885.565 597.443 938.23 652.903 940.225" stroke="#3E012E" stroke-width="50"/>
<path d="M788.898 725.104C788.898 725.104 814.121 743.841 835.004 816.532C855.888 889.222 819.291 938.23 763.832 940.225" stroke="#3E012E" stroke-width="50"/>
<path d="M615.542 688.728C615.542 688.728 637.792 746.83 708.125 746.83C778.459 746.83 804.667 688.728 804.667 688.728" stroke="#3E012E" stroke-width="35" stroke-linecap="round"/>
<path d="M606.333 624.957C606.333 624.957 626.369 549.848 707.726 549.848C789.083 549.848 810.333 624.957 810.333 624.957" stroke="#3E012E" stroke-width="35" stroke-linecap="round"/>
<path d="M680 863.035V935.309M746.583 863.035V935.309" stroke="#3E012E" stroke-width="50" stroke-linecap="round"/>
<path d="M743.666 778.007C743.666 796.126 729.272 810.521 711.875 810.521C694.477 810.521 680.083 796.126 680.083 778.007C680.083 759.888 694.477 745.493 711.875 745.493C729.272 745.493 743.666 759.888 743.666 778.007Z" stroke="#3E012E" stroke-width="20"/>
<path d="M610.583 598.031V504.353C610.583 495.472 621.297 490.998 627.613 497.241L670.083 539.22" stroke="#3E012E" stroke-width="25" stroke-linecap="round"/>
<path d="M807.5 598.031V504.765C807.5 495.826 796.666 491.378 790.385 497.738L749.417 539.22" stroke="#3E012E" stroke-width="25" stroke-linecap="round"/>
<path d="M807.5 633.459L861.333 619.288" stroke="#3E012E" stroke-width="15" stroke-linecap="round"/>
<path d="M810.506 658.179L863.764 667.018" stroke="#3E012E" stroke-width="15" stroke-linecap="round"/>
<path d="M604.196 658.179L550.939 667.018" stroke="#3E012E" stroke-width="15" stroke-linecap="round"/>
<path d="M606.333 633.459L553.916 619.288" stroke="#3E012E" stroke-width="15" stroke-linecap="round"/>
<ellipse cx="668.666" cy="632.042" rx="15.5833" ry="15.5885" fill="#3E012E"/>
<ellipse cx="742.333" cy="632.042" rx="15.5833" ry="15.5885" fill="#3E012E"/>
<path d="M820.25 930.906C820.25 930.906 926.031 939.52 897.007 826.954C867.982 714.389 960.673 723.774 954.541 753.824" stroke="#3E012E" stroke-width="50" stroke-linecap="round"/>
<path d="M472.057 242.767C478.442 275.794 499.918 290.658 509.976 290.658C520.034 290.658 535.808 275.016 544.195 242.767C548.312 226.94 529.474 222.909 509.976 222.518C489.746 222.113 468.805 225.949 472.057 242.767Z" fill="#3E012E" stroke="#3E012E"/>
<path d="M529.631 325.714L533.88 313.076L529.631 325.714ZM583.394 308.657C585.798 301.697 582.837 294.352 576.78 292.252C570.723 290.151 563.865 294.091 561.461 301.051L583.394 308.657ZM509.48 276.359C497.934 274.749 497.933 274.754 497.932 274.759C497.932 274.761 497.931 274.767 497.93 274.771C497.929 274.779 497.927 274.788 497.925 274.797C497.922 274.816 497.918 274.838 497.914 274.861C497.905 274.909 497.895 274.966 497.883 275.034C497.86 275.168 497.83 275.342 497.796 275.552C497.728 275.971 497.642 276.539 497.548 277.237C497.361 278.63 497.141 280.56 496.982 282.879C496.667 287.464 496.571 293.833 497.543 300.689C499.492 314.426 506.167 331.921 525.382 338.352L533.88 313.076C525.485 310.267 522.085 303.084 520.861 294.453C520.247 290.126 520.289 285.888 520.511 282.664C520.619 281.077 520.767 279.801 520.879 278.964C520.936 278.547 520.982 278.244 521.01 278.072C521.024 277.985 521.033 277.932 521.036 277.915C521.038 277.906 521.038 277.905 521.036 277.914C521.036 277.919 521.034 277.926 521.033 277.935C521.032 277.939 521.031 277.944 521.03 277.95C521.029 277.953 521.029 277.958 521.028 277.959C521.027 277.964 521.026 277.969 509.48 276.359ZM525.382 338.352C540.757 343.496 553.916 343.107 564.688 335.942C575.163 328.974 580.327 317.538 583.394 308.657L561.461 301.051C558.971 308.259 556.541 311.872 553.911 313.622C551.576 315.175 546.116 317.17 533.88 313.076L525.382 338.352Z" fill="#3E012E"/>
<path d="M487.459 327.606L483.21 314.968L487.459 327.606ZM433.696 310.55C431.292 303.589 434.253 296.244 440.31 294.144C446.367 292.044 453.225 295.983 455.629 302.944L433.696 310.55ZM507.61 278.251C519.156 276.641 519.157 276.647 519.158 276.652C519.158 276.654 519.159 276.66 519.16 276.664C519.161 276.672 519.163 276.681 519.165 276.69C519.168 276.709 519.172 276.73 519.176 276.754C519.185 276.802 519.195 276.859 519.207 276.926C519.23 277.061 519.26 277.234 519.293 277.444C519.361 277.864 519.448 278.432 519.542 279.13C519.729 280.523 519.949 282.453 520.108 284.771C520.423 289.357 520.519 295.726 519.547 302.582C517.598 316.319 510.923 333.814 491.707 340.244L483.21 314.968C491.604 312.159 495.005 304.977 496.229 296.346C496.843 292.019 496.801 287.781 496.579 284.556C496.47 282.97 496.323 281.693 496.21 280.856C496.154 280.439 496.107 280.136 496.08 279.964C496.066 279.878 496.057 279.825 496.053 279.807C496.052 279.798 496.052 279.798 496.053 279.807C496.054 279.811 496.055 279.818 496.057 279.827C496.058 279.832 496.059 279.837 496.06 279.843C496.06 279.845 496.061 279.85 496.062 279.852C496.062 279.856 496.063 279.861 507.61 278.251ZM491.707 340.244C476.333 345.389 463.174 344.999 452.402 337.834C441.926 330.867 436.763 319.431 433.696 310.55L455.629 302.944C458.119 310.151 460.549 313.765 463.179 315.515C465.513 317.067 470.974 319.063 483.21 314.968L491.707 340.244Z" fill="#3E012E"/>
<path d="M690.913 657.904C693.702 672.33 703.082 678.822 707.476 678.822C711.869 678.822 718.759 671.99 722.422 657.904C724.22 650.991 715.992 649.231 707.476 649.06C698.639 648.883 689.493 650.559 690.913 657.904Z" fill="#3E012E" stroke="#3E012E"/>
<path d="M739.139 686.544C740.101 683.76 738.917 680.822 736.494 679.982C734.071 679.142 731.328 680.718 730.366 683.502L739.139 686.544ZM707.259 672.577C702.64 671.933 702.64 671.935 702.64 671.937C702.639 671.938 702.639 671.94 702.639 671.942C702.638 671.945 702.637 671.949 702.637 671.952C702.635 671.96 702.634 671.969 702.632 671.979C702.628 671.998 702.624 672.023 702.619 672.051C702.609 672.107 702.597 672.181 702.582 672.27C702.553 672.449 702.516 672.692 702.476 672.992C702.395 673.59 702.301 674.421 702.232 675.42C702.097 677.398 702.055 680.141 702.474 683.089C703.311 688.995 706.167 696.447 714.361 699.189L717.76 689.079C713.894 687.785 712.349 684.458 711.801 680.595C711.526 678.658 711.545 676.768 711.644 675.334C711.692 674.628 711.758 674.058 711.809 673.683C711.834 673.495 711.855 673.358 711.868 673.278C711.874 673.239 711.879 673.213 711.88 673.203C711.881 673.198 711.881 673.197 711.881 673.2C711.881 673.201 711.88 673.204 711.88 673.207C711.879 673.209 711.879 673.211 711.879 673.213C711.878 673.214 711.878 673.216 711.878 673.217C711.878 673.219 711.877 673.221 707.259 672.577ZM714.361 699.189C721.018 701.417 726.624 701.217 731.174 698.191C735.605 695.243 737.81 690.392 739.139 686.544L730.366 683.502C729.268 686.681 728.157 688.403 726.863 689.263C725.689 690.044 723.162 690.886 717.76 689.079L714.361 699.189Z" fill="#3E012E"/>
<path d="M674.561 687.371C673.599 684.587 674.784 681.649 677.206 680.809C679.629 679.969 682.372 681.545 683.334 684.329L674.561 687.371ZM706.441 673.404C711.06 672.76 711.06 672.762 711.061 672.764C711.061 672.765 711.061 672.767 711.062 672.769C711.062 672.772 711.063 672.776 711.064 672.78C711.065 672.787 711.067 672.796 711.068 672.806C711.072 672.826 711.076 672.85 711.081 672.878C711.091 672.935 711.103 673.008 711.118 673.098C711.147 673.276 711.184 673.52 711.224 673.819C711.305 674.417 711.399 675.248 711.468 676.248C711.604 678.225 711.645 680.968 711.227 683.916C710.389 689.822 707.534 697.274 699.339 700.016L695.94 689.906C699.806 688.612 701.352 685.286 701.9 681.422C702.174 679.485 702.155 677.595 702.056 676.162C702.008 675.455 701.942 674.886 701.892 674.51C701.866 674.323 701.845 674.185 701.832 674.106C701.826 674.066 701.822 674.04 701.82 674.03C701.819 674.025 701.819 674.024 701.819 674.027C701.819 674.029 701.82 674.031 701.821 674.034C701.821 674.036 701.821 674.038 701.822 674.04C701.822 674.041 701.822 674.043 701.822 674.044C701.823 674.046 701.823 674.048 706.441 673.404ZM699.339 700.016C692.682 702.244 687.076 702.044 682.526 699.018C678.095 696.071 675.89 691.219 674.561 687.371L683.334 684.329C684.432 687.508 685.544 689.23 686.837 690.09C688.012 690.872 690.538 691.714 695.94 689.906L699.339 700.016Z" fill="#3E012E"/>
</svg>
