<svg width="586" height="650" viewBox="0 0 586 650" fill="none" xmlns="http://www.w3.org/2000/svg">
<path d="M30.0908 498.5C35.5908 479.5 81.0908 459 98.5908 463C116.091 467 116.091 471 116.091 498.5C116.091 526 116.091 620 116.091 620C116.091 620 116.091 630.5 85.5908 630.5C55.0908 630.5 53.0907 638.5 30.0908 598.5C7.09089 558.5 24.5908 517.5 30.0908 498.5Z" fill="white"/>
<path d="M347.264 487.083C371.701 515.169 420.573 517.074 441.518 487.085C462.464 457.096 509.341 582.762 463.959 616.559C418.578 650.356 363.222 646.548 327.316 616.559C291.41 586.57 322.828 458.997 347.264 487.083Z" fill="white"/>
<path d="M348.374 380.997C379.041 352.228 426.51 363.816 452.556 380.997C478.601 398.179 478.601 452.52 452.556 479.291C426.51 506.062 377.119 503.717 348.374 479.291C319.63 454.865 317.708 409.766 348.374 380.997Z" fill="white"/>
<path d="M150.689 248.891C170.848 228.43 201.814 281.659 238.887 284.322C289.457 287.955 339.967 265.024 338.959 243.066C337.951 221.108 394.315 284.133 396.635 309.274C396.635 309.274 405.09 447.957 405.09 474C405.09 500.043 401.675 635.644 401.675 635.644C401.675 635.644 185.968 648.619 150.689 632.151C115.41 615.683 116.418 510.885 117.426 439.523C118.434 368.161 130.53 269.351 150.689 248.891Z" fill="white"/>
<path d="M136.091 43.0006C155.091 23.0006 218.233 15.0006 261.412 16.5006C304.591 18.0006 346.091 20.5006 373.091 52.0005C400.091 83.5003 387.091 196.001 373.091 214.5C359.091 233 253.126 267.501 253.126 267.501C253.126 267.501 168.591 243.501 136.091 209.501C103.591 175.501 117.091 63.0006 136.091 43.0006Z" fill="white"/>
<path d="M160.834 243.625C160.834 243.625 119.132 284.371 116.235 389.995C113.338 495.619 102.127 632.161 147.625 634.237" stroke="black" stroke-width="30"/>
<path d="M108.754 457.525C108.754 457.525 39.6396 463.685 20.0279 524.76C0.416115 585.835 43.4223 632.616 88.9324 634.25" stroke="black" stroke-width="30"/>
<path d="M412.117 345.289C412.851 353.541 406.756 360.824 398.504 361.558C390.252 362.291 382.969 356.196 382.235 347.944L412.117 345.289ZM352.09 240.625C361.656 229.071 361.662 229.076 361.668 229.081C361.67 229.083 361.677 229.088 361.681 229.092C361.69 229.1 361.7 229.108 361.711 229.117C361.731 229.134 361.754 229.153 361.779 229.174C361.83 229.217 361.89 229.268 361.959 229.327C362.097 229.445 362.27 229.596 362.478 229.78C362.892 230.148 363.442 230.648 364.11 231.285C365.444 232.558 367.25 234.375 369.384 236.758C373.651 241.524 379.238 248.564 384.99 258.05C396.525 277.077 408.605 305.761 412.117 345.289L382.235 347.944C379.161 313.355 368.697 289.044 359.336 273.604C354.64 265.857 350.191 260.296 347.033 256.769C345.455 255.006 344.201 253.754 343.404 252.994C343.006 252.614 342.722 252.358 342.57 252.223C342.494 252.155 342.451 252.118 342.442 252.111C342.438 252.107 342.442 252.111 342.456 252.122C342.463 252.128 342.472 252.136 342.483 252.145C342.489 252.15 342.495 252.155 342.502 252.161C342.505 252.163 342.511 252.168 342.513 252.169C342.518 252.174 342.524 252.179 352.09 240.625Z" fill="black"/>
<path d="M92.484 172.629C136.591 221.5 140.094 44.385 140.094 44.385L86.5914 68.4998C11.6776 93.6537 48.3769 123.759 92.484 172.629Z" fill="black"/>
<path d="M92.484 172.629C136.591 221.5 140.094 44.385 140.094 44.385L86.5914 68.4998C11.6776 93.6537 48.3769 123.759 92.484 172.629Z" fill="black"/>
<path d="M411.607 172.63C367.5 221.5 363.997 44.3855 363.997 44.3855L411.607 66.5C486.521 91.6539 455.714 123.759 411.607 172.63Z" fill="black"/>
<path d="M411.607 172.63C367.5 221.5 363.997 44.3855 363.997 44.3855L411.607 66.5C486.521 91.6539 455.714 123.759 411.607 172.63Z" fill="black"/>
<path d="M120.091 174.5C120.091 174.5 144.591 270 253.091 270C361.591 270 385.091 174.5 385.091 174.5M47.091 93C47.091 93 158.591 15 254.591 15C350.591 15 452.091 93 452.091 93M140.094 44.385C140.094 44.385 136.591 221.5 92.484 172.629C48.3769 123.759 11.6776 93.6537 86.5914 68.4998L140.094 44.385ZM363.997 44.3855C363.997 44.3855 367.5 221.5 411.607 172.63C455.714 123.759 486.521 91.6539 411.607 66.5L363.997 44.3855Z" stroke="black" stroke-width="30"/>
<circle cx="206.09" cy="101.5" r="20" fill="black"/>
<circle cx="305.09" cy="101.5" r="20" fill="black"/>
<path d="M222.09 444V623.5" stroke="black" stroke-width="30" stroke-linecap="round"/>
<path d="M290.09 318C290.09 338.711 273.301 355.5 252.59 355.5C231.879 355.5 215.09 338.711 215.09 318C215.09 297.289 231.879 280.5 252.59 280.5C273.301 280.5 290.09 297.289 290.09 318Z" fill="black" stroke="black" stroke-width="30"/>
<path d="M228.307 140.808C232.815 164.114 247.974 174.602 255.074 174.603C262.173 174.603 273.308 163.565 279.229 140.808C282.134 129.64 268.837 126.795 255.074 126.52C240.794 126.234 226.012 128.941 228.307 140.808Z" fill="black" stroke="black"/>
<path d="M268.946 199.339L272.344 189.23L272.344 189.23L268.946 199.339ZM307.929 187.664C309.853 182.097 307.484 176.221 302.638 174.539C297.792 172.858 292.304 176.009 290.381 181.576L307.929 187.664ZM254.722 164.512C245.484 163.222 245.483 163.227 245.482 163.231C245.482 163.233 245.481 163.237 245.481 163.24C245.479 163.247 245.478 163.253 245.477 163.261C245.474 163.275 245.471 163.292 245.468 163.31C245.461 163.346 245.454 163.389 245.445 163.44C245.428 163.54 245.406 163.668 245.381 163.822C245.331 164.13 245.268 164.543 245.2 165.049C245.064 166.058 244.906 167.451 244.791 169.121C244.565 172.421 244.494 177.016 245.197 181.974C246.607 191.908 251.474 204.741 265.548 209.449L272.344 189.23C266.929 187.418 264.683 182.837 263.853 176.988C263.437 174.054 263.464 171.164 263.616 168.953C263.691 167.868 263.791 166.998 263.867 166.434C263.905 166.153 263.936 165.951 263.954 165.841C263.963 165.787 263.968 165.755 263.97 165.748C263.97 165.744 263.97 165.747 263.968 165.756C263.967 165.76 263.966 165.766 263.965 165.774C263.964 165.778 263.963 165.782 263.963 165.787C263.962 165.789 263.961 165.793 263.961 165.794C263.961 165.798 263.96 165.802 254.722 164.512ZM265.548 209.449C276.549 213.129 286.199 212.929 294.2 207.61C301.963 202.447 305.737 194.01 307.929 187.664L290.381 181.576C288.651 186.583 287.064 188.765 285.576 189.754C284.325 190.586 280.833 192.07 272.344 189.23L265.548 209.449Z" fill="black"/>
<path d="M239.179 200.675L235.781 190.566L235.781 190.566L239.179 200.675ZM200.196 189C198.272 183.432 200.641 177.556 205.487 175.875C210.333 174.194 215.821 177.345 217.744 182.912L200.196 189ZM253.403 165.848C262.641 164.558 262.642 164.563 262.643 164.567C262.643 164.569 262.644 164.573 262.644 164.576C262.646 164.583 262.647 164.589 262.648 164.597C262.651 164.611 262.654 164.628 262.657 164.646C262.664 164.682 262.671 164.725 262.68 164.775C262.697 164.876 262.719 165.004 262.744 165.158C262.794 165.466 262.857 165.879 262.925 166.385C263.061 167.394 263.219 168.787 263.334 170.457C263.56 173.757 263.631 178.352 262.928 183.31C261.518 193.244 256.651 206.076 242.577 210.785L235.781 190.566C241.196 188.754 243.442 184.173 244.272 178.324C244.688 175.39 244.661 172.5 244.509 170.289C244.434 169.204 244.334 168.334 244.258 167.77C244.22 167.489 244.189 167.287 244.171 167.177C244.162 167.123 244.157 167.091 244.155 167.084C244.155 167.08 244.155 167.083 244.157 167.092C244.158 167.096 244.159 167.102 244.16 167.11C244.161 167.114 244.162 167.118 244.162 167.123C244.163 167.125 244.164 167.129 244.164 167.13C244.164 167.134 244.165 167.138 253.403 165.848ZM242.577 210.785C231.576 214.465 221.926 214.265 213.925 208.945C206.162 203.783 202.388 195.346 200.196 189L217.744 182.912C219.474 187.919 221.061 190.101 222.549 191.09C223.8 191.922 227.292 193.406 235.781 190.566L242.577 210.785Z" fill="black"/>
<path d="M72.5898 635H482.59" stroke="black" stroke-width="30" stroke-linecap="round"/>
<path d="M339.279 480.612C339.279 480.612 322.193 491.253 307.452 542.547C292.711 593.841 317.825 631.004 356.973 632.411L442.011 632.411" stroke="#CC8000" stroke-width="30"/>
<path d="M452.971 480.612C452.971 480.612 470.776 493.834 485.517 545.128C500.258 596.422 474.426 631.004 435.278 632.412" stroke="#CC8000" stroke-width="30"/>
<path d="M330.602 454.943C330.602 454.943 346.308 495.943 395.955 495.943C445.602 495.943 464.102 454.943 464.102 454.943" stroke="#CC8000" stroke-width="25" stroke-linecap="round"/>
<path d="M324.102 409.943C324.102 409.943 338.244 356.943 395.673 356.943C453.102 356.943 468.102 409.943 468.102 409.943" stroke="#CC8000" stroke-width="25" stroke-linecap="round"/>
<path d="M376.102 577.943V628.943M423.102 577.943V628.943" stroke="#CC8000" stroke-width="30" stroke-linecap="round"/>
<path d="M418.102 517.943C418.102 529.148 409.213 537.943 398.602 537.943C387.99 537.943 379.102 529.148 379.102 517.943C379.102 506.739 387.99 497.943 398.602 497.943C409.213 497.943 418.102 506.739 418.102 517.943Z" fill="#CC8000" stroke="#CC8000" stroke-width="20"/>
<path d="M327.102 338.939V375.891C327.102 381.388 334.515 383.134 336.968 378.214C337.383 377.382 338.013 376.676 338.793 376.17L358.676 363.266C364.032 359.79 364.803 352.253 360.261 347.764L344.13 331.826C337.813 325.584 327.102 330.059 327.102 338.939Z" fill="#CC8000" stroke="#CC8000" stroke-width="25" stroke-linecap="round"/>
<path d="M466.102 339.351V369.66C466.102 378.587 454.681 382.301 449.43 375.083C448.881 374.328 448.22 373.66 447.47 373.104L434.35 363.365C429.467 359.74 428.922 352.633 433.196 348.307L448.988 332.322C455.27 325.964 466.102 330.412 466.102 339.351Z" fill="#CC8000" stroke="#CC8000" stroke-width="25" stroke-linecap="round"/>
<path d="M466.102 415.943L504.102 405.943" stroke="#CC8000" stroke-width="15" stroke-linecap="round"/>
<path d="M468.225 433.387L505.818 439.625" stroke="#CC8000" stroke-width="15" stroke-linecap="round"/>
<path d="M322.594 433.387L285 439.625" stroke="#CC8000" stroke-width="15" stroke-linecap="round"/>
<path d="M324.102 415.943L287.102 405.943" stroke="#CC8000" stroke-width="15" stroke-linecap="round"/>
<circle cx="368.102" cy="414.943" r="11" fill="#CC8000"/>
<circle cx="420.102" cy="414.943" r="11" fill="#CC8000"/>
<path d="M475.102 625.836C475.102 625.836 549.77 631.915 529.283 552.483C508.795 473.052 574.224 479.674 569.895 500.879" stroke="#CC8000" stroke-width="30" stroke-linecap="round"/>
<path d="M383.807 433.193C385.775 443.372 392.397 447.954 395.498 447.954C398.599 447.954 403.462 443.133 406.048 433.193C407.317 428.315 401.509 427.072 395.498 426.952C389.26 426.827 382.804 428.009 383.807 433.193Z" fill="#CC8000" stroke="#CC8000"/>
<path d="M401.557 458.758L400.368 462.296L401.557 458.758ZM417.823 453.394C418.496 451.446 417.667 449.389 415.971 448.801C414.274 448.212 412.354 449.315 411.681 451.263L417.823 453.394ZM395.344 443.546C392.111 443.095 392.11 443.096 392.11 443.098C392.11 443.098 392.11 443.1 392.11 443.101C392.109 443.103 392.109 443.106 392.108 443.109C392.107 443.114 392.106 443.12 392.105 443.127C392.102 443.141 392.099 443.158 392.096 443.178C392.089 443.218 392.08 443.269 392.07 443.332C392.05 443.458 392.023 443.63 391.995 443.841C391.938 444.262 391.872 444.848 391.823 445.552C391.728 446.946 391.699 448.879 391.993 450.957C392.584 455.119 394.596 460.366 400.368 462.296L402.746 455.22C400.005 454.303 398.911 451.944 398.523 449.212C398.329 447.842 398.342 446.506 398.412 445.493C398.446 444.994 398.493 444.591 398.529 444.325C398.546 444.193 398.561 444.096 398.571 444.039C398.575 444.011 398.578 443.993 398.579 443.986C398.58 443.982 398.58 443.981 398.58 443.983C398.58 443.984 398.579 443.986 398.579 443.988C398.579 443.989 398.578 443.991 398.578 443.992C398.578 443.993 398.578 443.994 398.578 443.995C398.577 443.996 398.577 443.998 395.344 443.546ZM400.368 462.296C405.063 463.867 409.011 463.724 412.213 461.596C415.332 459.522 416.885 456.108 417.823 453.394L411.681 451.263C410.905 453.509 410.117 454.733 409.195 455.346C408.356 455.904 406.563 456.497 402.746 455.22L400.368 462.296Z" fill="#CC8000"/>
<path d="M388.555 459.342L389.744 462.88L388.555 459.342ZM372.289 453.978C371.616 452.03 372.445 449.973 374.141 449.385C375.837 448.796 377.758 449.899 378.431 451.847L372.289 453.978ZM394.767 444.13C398.001 443.679 398.001 443.68 398.001 443.682C398.001 443.682 398.002 443.684 398.002 443.685C398.002 443.687 398.003 443.69 398.003 443.693C398.004 443.698 398.005 443.704 398.007 443.711C398.009 443.725 398.012 443.742 398.016 443.762C398.022 443.802 398.031 443.853 398.041 443.916C398.062 444.042 398.088 444.214 398.116 444.425C398.173 444.846 398.24 445.432 398.288 446.136C398.384 447.53 398.413 449.463 398.118 451.541C397.527 455.703 395.516 460.95 389.744 462.88L387.365 455.804C390.106 454.887 391.201 452.528 391.588 449.796C391.783 448.426 391.769 447.09 391.699 446.077C391.665 445.578 391.619 445.175 391.583 444.909C391.565 444.777 391.55 444.68 391.541 444.623C391.536 444.595 391.533 444.577 391.532 444.57C391.531 444.566 391.531 444.565 391.531 444.567C391.532 444.568 391.532 444.57 391.532 444.572C391.533 444.573 391.533 444.575 391.533 444.576C391.533 444.577 391.534 444.578 391.534 444.579C391.534 444.58 391.534 444.582 394.767 444.13ZM389.744 462.88C385.048 464.451 381.1 464.308 377.898 462.18C374.78 460.106 373.226 456.692 372.289 453.978L378.431 451.847C379.206 454.093 379.994 455.317 380.917 455.93C381.756 456.488 383.548 457.081 387.365 455.804L389.744 462.88Z" fill="#CC8000"/>
</svg>
