<svg width="2966" height="712" viewBox="0 0 2966 712" fill="none" xmlns="http://www.w3.org/2000/svg">
<g clip-path="url(#clip0_214_1103)">
<path d="M135.091 528.5C140.591 509.5 186.091 489 203.591 493C221.091 497 221.091 501 221.091 528.5C221.091 556 221.091 650 221.091 650C221.091 650 221.091 660.5 190.591 660.5C160.091 660.5 158.091 668.5 135.091 628.5C112.091 588.5 129.591 547.5 135.091 528.5Z" fill="white"/>
<path d="M452.264 517.083C476.701 545.169 525.573 547.074 546.518 517.085C567.464 487.096 614.341 612.762 568.959 646.559C523.578 680.356 468.222 676.548 432.316 646.559C396.41 616.57 427.828 488.997 452.264 517.083Z" fill="white"/>
<path d="M453.374 410.997C484.041 382.228 531.51 393.816 557.556 410.997C583.601 428.179 583.601 482.52 557.556 509.291C531.51 536.062 482.119 533.717 453.374 509.291C424.63 484.865 422.708 439.766 453.374 410.997Z" fill="white"/>
<path d="M255.689 278.891C275.848 258.43 306.814 311.659 343.887 314.322C394.457 317.955 444.967 295.024 443.959 273.066C442.951 251.108 499.315 314.133 501.635 339.274C501.635 339.274 510.09 477.957 510.09 504C510.09 530.043 506.675 665.644 506.675 665.644C506.675 665.644 290.968 678.619 255.689 662.151C220.41 645.683 221.418 540.885 222.426 469.523C223.434 398.161 235.53 299.351 255.689 278.891Z" fill="white"/>
<path d="M241.091 73.0006C260.091 53.0006 323.233 45.0006 366.412 46.5006C409.591 48.0006 451.091 50.5006 478.091 82.0005C505.091 113.5 492.091 226.001 478.091 244.5C464.091 263 358.126 297.501 358.126 297.501C358.126 297.501 273.591 273.501 241.091 239.501C208.591 205.501 222.091 93.0006 241.091 73.0006Z" fill="white"/>
<path d="M265.834 273.625C265.834 273.625 224.132 314.371 221.235 419.995C218.338 525.619 207.127 662.161 252.625 664.237" stroke="#444444" stroke-width="30"/>
<path d="M213.754 487.525C213.754 487.525 144.64 493.685 125.028 554.76C105.416 615.835 148.422 662.616 193.932 664.25" stroke="#444444" stroke-width="30"/>
<path d="M517.117 375.289C517.851 383.541 511.756 390.824 503.504 391.558C495.252 392.291 487.969 386.196 487.235 377.944L517.117 375.289ZM457.09 270.625C466.656 259.071 466.662 259.076 466.668 259.081C466.67 259.083 466.677 259.088 466.681 259.092C466.69 259.1 466.7 259.108 466.711 259.117C466.731 259.134 466.754 259.153 466.779 259.174C466.83 259.217 466.89 259.268 466.959 259.327C467.097 259.445 467.27 259.596 467.478 259.78C467.892 260.148 468.442 260.648 469.11 261.285C470.444 262.558 472.25 264.375 474.384 266.758C478.651 271.524 484.238 278.564 489.99 288.05C501.525 307.077 513.605 335.761 517.117 375.289L487.235 377.944C484.161 343.355 473.697 319.044 464.336 303.604C459.64 295.857 455.191 290.296 452.033 286.769C450.455 285.006 449.201 283.754 448.404 282.994C448.006 282.614 447.722 282.358 447.57 282.223C447.494 282.155 447.451 282.118 447.442 282.111C447.438 282.107 447.442 282.111 447.456 282.122C447.463 282.128 447.472 282.136 447.483 282.145C447.489 282.15 447.495 282.155 447.502 282.161C447.505 282.163 447.511 282.168 447.513 282.169C447.518 282.174 447.524 282.179 457.09 270.625Z" fill="#444444"/>
<path d="M197.484 202.629C241.591 251.5 245.094 74.385 245.094 74.385L191.591 98.4998C116.678 123.654 153.377 153.759 197.484 202.629Z" fill="#444444"/>
<path d="M197.484 202.629C241.591 251.5 245.094 74.385 245.094 74.385L191.591 98.4998C116.678 123.654 153.377 153.759 197.484 202.629Z" fill="#444444"/>
<path d="M516.607 202.63C472.5 251.5 468.997 74.3855 468.997 74.3855L516.607 96.5C591.521 121.654 560.714 153.759 516.607 202.63Z" fill="#444444"/>
<path d="M516.607 202.63C472.5 251.5 468.997 74.3855 468.997 74.3855L516.607 96.5C591.521 121.654 560.714 153.759 516.607 202.63Z" fill="#444444"/>
<path d="M225.091 204.5C225.091 204.5 249.591 300 358.091 300C466.591 300 490.091 204.5 490.091 204.5M152.091 123C152.091 123 263.591 45 359.591 45C455.591 45 557.091 123 557.091 123M245.094 74.385C245.094 74.385 241.591 251.5 197.484 202.629C153.377 153.759 116.678 123.654 191.591 98.4998L245.094 74.385ZM468.997 74.3855C468.997 74.3855 472.5 251.5 516.607 202.63C560.714 153.759 591.521 121.654 516.607 96.5L468.997 74.3855Z" stroke="#444444" stroke-width="30"/>
<circle cx="311.09" cy="131.5" r="20" fill="#444444"/>
<circle cx="410.09" cy="131.5" r="20" fill="#444444"/>
<path d="M327.09 474V653.5" stroke="#444444" stroke-width="30" stroke-linecap="round"/>
<path d="M395.09 348C395.09 368.711 378.301 385.5 357.59 385.5C336.879 385.5 320.09 368.711 320.09 348C320.09 327.289 336.879 310.5 357.59 310.5C378.301 310.5 395.09 327.289 395.09 348Z" fill="#444444" stroke="#444444" stroke-width="30"/>
<path d="M333.307 170.808C337.815 194.114 352.974 204.602 360.074 204.603C367.173 204.603 378.308 193.565 384.229 170.808C387.134 159.64 373.837 156.795 360.074 156.52C345.794 156.234 331.012 158.941 333.307 170.808Z" fill="#444444" stroke="#444444"/>
<path d="M373.946 229.339L377.344 219.23L377.344 219.23L373.946 229.339ZM412.929 217.664C414.853 212.097 412.484 206.221 407.638 204.539C402.792 202.858 397.304 206.009 395.381 211.576L412.929 217.664ZM359.722 194.512C350.484 193.222 350.483 193.227 350.482 193.231C350.482 193.233 350.481 193.237 350.481 193.24C350.479 193.247 350.478 193.253 350.477 193.261C350.474 193.275 350.471 193.292 350.468 193.31C350.461 193.346 350.454 193.389 350.445 193.44C350.428 193.54 350.406 193.668 350.381 193.822C350.331 194.13 350.268 194.543 350.2 195.049C350.064 196.058 349.906 197.451 349.791 199.121C349.565 202.421 349.494 207.016 350.197 211.974C351.607 221.908 356.474 234.741 370.548 239.449L377.344 219.23C371.929 217.418 369.683 212.837 368.853 206.988C368.437 204.054 368.464 201.164 368.616 198.953C368.691 197.868 368.791 196.998 368.867 196.434C368.905 196.153 368.936 195.951 368.954 195.841C368.963 195.787 368.968 195.755 368.97 195.748C368.97 195.744 368.97 195.747 368.968 195.756C368.967 195.76 368.966 195.766 368.965 195.774C368.964 195.778 368.963 195.782 368.963 195.787C368.962 195.789 368.961 195.793 368.961 195.794C368.961 195.798 368.96 195.802 359.722 194.512ZM370.548 239.449C381.549 243.129 391.199 242.929 399.2 237.61C406.963 232.447 410.737 224.01 412.929 217.664L395.381 211.576C393.651 216.583 392.064 218.765 390.576 219.754C389.325 220.586 385.833 222.07 377.344 219.23L370.548 239.449Z" fill="#444444"/>
<path d="M344.179 230.675L340.781 220.566L340.781 220.566L344.179 230.675ZM305.196 219C303.272 213.432 305.641 207.556 310.487 205.875C315.333 204.194 320.821 207.345 322.744 212.912L305.196 219ZM358.403 195.848C367.641 194.558 367.642 194.563 367.643 194.567C367.643 194.569 367.644 194.573 367.644 194.576C367.646 194.583 367.647 194.589 367.648 194.597C367.651 194.611 367.654 194.628 367.657 194.646C367.664 194.682 367.671 194.725 367.68 194.775C367.697 194.876 367.719 195.004 367.744 195.158C367.794 195.466 367.857 195.879 367.925 196.385C368.061 197.394 368.219 198.787 368.334 200.457C368.56 203.757 368.631 208.352 367.928 213.31C366.518 223.244 361.651 236.076 347.577 240.785L340.781 220.566C346.196 218.754 348.442 214.173 349.272 208.324C349.688 205.39 349.661 202.5 349.509 200.289C349.434 199.204 349.334 198.334 349.258 197.77C349.22 197.489 349.189 197.287 349.171 197.177C349.162 197.123 349.157 197.091 349.155 197.084C349.155 197.08 349.155 197.083 349.157 197.092C349.158 197.096 349.159 197.102 349.16 197.11C349.161 197.114 349.162 197.118 349.162 197.123C349.163 197.125 349.164 197.129 349.164 197.13C349.164 197.134 349.165 197.138 358.403 195.848ZM347.577 240.785C336.576 244.465 326.926 244.265 318.925 238.945C311.162 233.783 307.388 225.346 305.196 219L322.744 212.912C324.474 217.919 326.061 220.101 327.549 221.09C328.8 221.922 332.292 223.406 340.781 220.566L347.577 240.785Z" fill="#444444"/>
<path d="M177.59 665H587.59" stroke="#444444" stroke-width="30" stroke-linecap="round"/>
<path d="M443.268 511.168C443.268 511.168 426.181 521.809 411.44 573.103C396.699 624.397 421.813 661.56 460.961 662.968L545.999 662.968" stroke="#CC8000" stroke-width="30"/>
<path d="M556.96 511.169C556.96 511.169 574.764 524.39 589.505 575.684C604.247 626.978 578.414 661.561 539.266 662.968" stroke="#CC8000" stroke-width="30"/>
<path d="M434.59 485.5C434.59 485.5 450.296 526.5 499.943 526.5C549.59 526.5 568.09 485.5 568.09 485.5" stroke="#CC8000" stroke-width="25" stroke-linecap="round"/>
<path d="M428.09 440.5C428.09 440.5 442.233 387.5 499.661 387.5C557.09 387.5 572.09 440.5 572.09 440.5" stroke="#CC8000" stroke-width="25" stroke-linecap="round"/>
<path d="M480.09 608.5V659.5M527.09 608.5V659.5" stroke="#CC8000" stroke-width="30" stroke-linecap="round"/>
<path d="M522.09 548.5C522.09 559.705 513.202 568.5 502.59 568.5C491.978 568.5 483.09 559.705 483.09 548.5C483.09 537.295 491.978 528.5 502.59 528.5C513.202 528.5 522.09 537.295 522.09 548.5Z" fill="#CC8000" stroke="#CC8000" stroke-width="20"/>
<path d="M431.09 369.496V406.447C431.09 411.945 438.503 413.69 440.956 408.771C441.371 407.939 442.001 407.233 442.781 406.727L462.664 393.823C468.021 390.347 468.791 382.809 464.249 378.321L448.118 362.383C441.802 356.141 431.09 360.616 431.09 369.496Z" fill="#CC8000" stroke="#CC8000" stroke-width="25" stroke-linecap="round"/>
<path d="M570.09 369.907V400.217C570.09 409.143 558.67 412.858 553.419 405.639C552.869 404.884 552.208 404.217 551.459 403.66L538.338 393.921C533.455 390.297 532.91 383.189 537.184 378.863L552.976 362.879C559.258 356.521 570.09 360.969 570.09 369.907Z" fill="#CC8000" stroke="#CC8000" stroke-width="25" stroke-linecap="round"/>
<path d="M570.09 446.5L608.09 436.5" stroke="#CC8000" stroke-width="15" stroke-linecap="round"/>
<path d="M572.213 463.944L609.806 470.181" stroke="#CC8000" stroke-width="15" stroke-linecap="round"/>
<path d="M426.582 463.944L388.989 470.181" stroke="#CC8000" stroke-width="15" stroke-linecap="round"/>
<path d="M428.09 446.5L391.09 436.5" stroke="#CC8000" stroke-width="15" stroke-linecap="round"/>
<circle cx="472.09" cy="445.5" r="11" fill="#CC8000"/>
<circle cx="524.09" cy="445.5" r="11" fill="#CC8000"/>
<path d="M579.09 656.393C579.09 656.393 653.759 662.471 633.271 583.04C612.783 503.608 678.212 510.23 673.883 531.435" stroke="#CC8000" stroke-width="30" stroke-linecap="round"/>
<path d="M487.795 463.75C489.764 473.929 496.385 478.51 499.486 478.51C502.587 478.51 507.45 473.689 510.036 463.75C511.306 458.871 505.497 457.629 499.486 457.509C493.249 457.384 486.792 458.566 487.795 463.75Z" fill="#CC8000" stroke="#CC8000"/>
<path d="M505.545 489.315L504.356 492.853L505.545 489.315ZM521.811 483.951C522.484 482.002 521.655 479.946 519.959 479.357C518.263 478.769 516.342 479.872 515.669 481.82L521.811 483.951ZM499.332 474.103C496.099 473.651 496.099 473.653 496.098 473.654C496.098 473.655 496.098 473.657 496.098 473.658C496.097 473.66 496.097 473.663 496.096 473.665C496.095 473.671 496.094 473.677 496.093 473.684C496.091 473.698 496.088 473.715 496.084 473.734C496.077 473.774 496.068 473.826 496.058 473.889C496.038 474.015 496.012 474.186 495.983 474.397C495.927 474.819 495.86 475.404 495.812 476.109C495.716 477.503 495.687 479.436 495.982 481.513C496.572 485.675 498.584 490.922 504.356 492.853L506.734 485.776C503.993 484.859 502.899 482.5 502.511 479.768C502.317 478.399 502.331 477.063 502.4 476.05C502.435 475.55 502.481 475.148 502.517 474.882C502.535 474.75 502.55 474.652 502.559 474.596C502.563 474.568 502.566 474.549 502.568 474.542C502.568 474.539 502.568 474.538 502.568 474.54C502.568 474.541 502.568 474.543 502.567 474.545C502.567 474.546 502.567 474.547 502.566 474.549C502.566 474.55 502.566 474.551 502.566 474.552C502.566 474.553 502.565 474.554 499.332 474.103ZM504.356 492.853C509.052 494.424 513 494.281 516.201 492.152C519.32 490.079 520.873 486.665 521.811 483.951L515.669 481.82C514.893 484.065 514.105 485.29 513.183 485.903C512.344 486.461 510.551 487.053 506.734 485.776L504.356 492.853Z" fill="#CC8000"/>
<path d="M492.543 489.899L493.732 493.437L492.543 489.899ZM476.277 484.535C475.604 482.586 476.433 480.53 478.129 479.941C479.825 479.353 481.746 480.456 482.419 482.404L476.277 484.535ZM498.756 474.687C501.989 474.235 501.989 474.237 501.989 474.238C501.99 474.239 501.99 474.241 501.99 474.242C501.991 474.244 501.991 474.247 501.991 474.249C501.992 474.255 501.994 474.261 501.995 474.268C501.997 474.282 502 474.299 502.004 474.318C502.011 474.358 502.02 474.41 502.03 474.473C502.05 474.599 502.076 474.77 502.105 474.981C502.161 475.403 502.228 475.988 502.276 476.693C502.372 478.087 502.401 480.02 502.106 482.097C501.516 486.259 499.504 491.506 493.732 493.437L491.354 486.36C494.095 485.443 495.189 483.084 495.577 480.352C495.771 478.983 495.757 477.647 495.688 476.634C495.653 476.134 495.607 475.732 495.571 475.466C495.553 475.334 495.538 475.236 495.529 475.18C495.525 475.152 495.521 475.133 495.52 475.126C495.52 475.123 495.519 475.122 495.52 475.124C495.52 475.125 495.52 475.127 495.521 475.129C495.521 475.13 495.521 475.131 495.521 475.133C495.522 475.134 495.522 475.135 495.522 475.136C495.522 475.137 495.522 475.138 498.756 474.687ZM493.732 493.437C489.036 495.008 485.088 494.865 481.887 492.736C478.768 490.663 477.215 487.249 476.277 484.535L482.419 482.404C483.195 484.649 483.983 485.874 484.905 486.487C485.744 487.045 487.537 487.637 491.354 486.36L493.732 493.437Z" fill="#CC8000"/>
<path d="M959.758 252.5H853.258L850.258 344.5H945.758L940.258 397.5H848.758L848.258 414L854.258 544H784.258L790.258 422.5L784.258 199H965.258L959.758 252.5ZM1056.45 289.5L1050.45 414L1055.95 531.5L988.949 544L994.949 422.5L989.449 302L1056.45 289.5ZM985.949 216.5C985.949 205.167 990.283 195.167 998.949 186.5C1007.62 177.5 1017.62 173 1028.95 173C1040.28 173 1048.95 176.167 1054.95 182.5C1060.95 188.5 1063.95 197.667 1063.95 210C1063.95 222.333 1059.62 233 1050.95 242C1042.62 250.667 1032.78 255 1021.45 255C1010.45 255 1001.78 251.333 995.449 244C989.116 236.667 985.949 227.5 985.949 216.5ZM1251.52 417.5C1251.52 394.5 1249.52 379.167 1245.52 371.5C1241.52 363.833 1232.19 360 1217.52 360C1202.85 360 1186.19 365.833 1167.52 377.5V414L1173.02 531.5L1106.02 544L1112.02 422.5C1110.69 377.833 1107.02 337.833 1101.02 302.5L1161.52 289.5C1163.85 308.833 1165.52 327.667 1166.52 346C1171.52 339.333 1177.19 332.833 1183.52 326.5C1189.85 319.833 1199.85 312.5 1213.52 304.5C1227.19 296.167 1241.52 292 1256.52 292C1271.85 292 1284.69 298 1295.02 310C1305.35 321.667 1310.52 337.667 1310.52 358L1307.52 414L1313.02 534L1245.52 546.5L1251.52 417.5ZM1495.24 495C1469.24 527.667 1446.74 544 1427.74 544C1404.07 544 1384.57 534.333 1369.24 515C1354.24 495.667 1346.74 470.833 1346.74 440.5C1346.74 398.833 1358.24 363.667 1381.24 335C1404.57 306.333 1433.07 292 1466.74 292L1494.74 296V286.5L1488.74 169.5L1557.24 157L1550.74 414V458C1550.74 478 1555.74 501 1565.74 527L1511.74 549.5C1502.07 529.5 1496.57 511.333 1495.24 495ZM1402.74 414.5C1402.74 435.833 1406.57 452.5 1414.24 464.5C1422.24 476.5 1433.57 482.5 1448.24 482.5C1463.24 482.5 1478.74 476.5 1494.74 464.5V356.5C1474.74 352.5 1459.9 350.5 1450.24 350.5C1435.24 350.5 1423.57 355.833 1415.24 366.5C1406.9 377.167 1402.74 393.167 1402.74 414.5Z" fill="#444444"/>
<path d="M1837.36 388H1842.36L1915.36 198L1984.36 200L1986.36 415L1995.86 544H1928.36L1930.86 414L1925.36 282.5L1865.36 448L1803.86 451L1747.86 282.5L1743.36 414L1746.86 544H1684.86L1691.86 422.5L1694.86 208L1774.36 195.5L1837.36 388ZM2056.9 640.5L2108.4 525L2071.4 424L2020.9 302.5L2087.4 290L2119.4 396.5L2135.9 447H2142.4L2154.4 410.5L2190.4 289.5L2251.9 297L2163.4 529.5L2121.4 654L2056.9 640.5ZM2468.97 199C2500.97 199 2526.47 208.167 2545.47 226.5C2564.47 244.5 2573.97 269.333 2573.97 301C2573.97 332.667 2561.97 359.833 2537.97 382.5C2513.97 404.833 2484.64 416 2449.97 416H2421.47L2427.47 544H2360.47L2366.47 422.5L2360.47 199H2468.97ZM2450.97 249.5H2426.47L2422.97 367.5H2456.97C2473.64 367.5 2486.47 362 2495.47 351C2504.8 340 2509.47 324.333 2509.47 304C2509.47 267.667 2489.97 249.5 2450.97 249.5ZM2688.86 493C2698.53 493 2708.7 490.5 2719.36 485.5C2730.03 480.5 2738.36 475.5 2744.36 470.5L2753.36 463L2776.36 491C2773.03 496.667 2767.86 503.167 2760.86 510.5C2753.86 517.833 2746.7 524.167 2739.36 529.5C2732.36 534.5 2722.86 539.167 2710.86 543.5C2699.2 547.5 2687.03 549.5 2674.36 549.5C2647.36 549.5 2625.36 539.333 2608.36 519C2591.36 498.333 2582.86 471.833 2582.86 439.5C2582.86 398.833 2594.7 363.167 2618.36 332.5C2642.03 301.833 2669.7 286.5 2701.36 286.5C2725.7 286.5 2744.53 293.333 2757.86 307C2771.53 320.667 2778.36 339.833 2778.36 364.5C2778.36 379.167 2775.86 395.833 2770.86 414.5L2760.86 425L2635.86 436.5C2641.53 474.167 2659.2 493 2688.86 493ZM2688.86 338C2674.2 338 2661.86 344 2651.86 356C2641.86 367.667 2636.03 382.667 2634.36 401L2719.36 390.5C2720.36 382.833 2720.86 376.5 2720.86 371.5C2720.86 349.167 2710.2 338 2688.86 338ZM2836.51 302V247.5L2904.01 234.5L2897.51 302H2958.01L2952.51 343H2895.51L2893.01 447.5C2893.01 463.167 2894.51 473.667 2897.51 479C2900.51 484 2906.01 486.5 2914.01 486.5C2922.01 486.5 2932.67 484.667 2946.01 481L2949.01 516.5C2927.01 534.833 2907.67 544 2891.01 544C2874.34 544 2860.67 538 2850.01 526C2839.34 513.667 2834.01 497.667 2834.01 478L2837.01 422L2836.51 343H2802.01L2807.51 302H2836.51Z" fill="#CC8000"/>
</g>
<defs>
<clipPath id="clip0_214_1103">
<rect width="2966" height="712" fill="white"/>
</clipPath>
</defs>
</svg>
