<svg width="3166" height="712" viewBox="0 0 3166 712" fill="none" xmlns="http://www.w3.org/2000/svg">
<rect width="3166" height="712" fill="white"/>
<path d="M225 205C225 205 249.5 300.5 358 300.5C466.5 300.5 490 205 490 205" stroke="#023A00" stroke-width="30"/>
<path d="M265.744 274.125C265.744 274.125 224.042 314.871 221.145 420.494C218.248 526.118 207.037 662.661 252.535 664.736" stroke="#023A00" stroke-width="30"/>
<path d="M213.664 488.025C213.664 488.025 144.55 494.184 124.938 555.259C105.326 616.334 148.332 663.115 193.843 664.749" stroke="#023A00" stroke-width="30"/>
<path d="M515.761 334.831C517.235 342.983 511.821 350.786 503.669 352.261C495.517 353.735 487.714 348.322 486.239 340.17L515.761 334.831ZM457 271.125C464.186 257.958 464.192 257.962 464.198 257.965C464.201 257.966 464.207 257.97 464.211 257.972C464.22 257.977 464.23 257.982 464.24 257.988C464.26 257.999 464.283 258.011 464.307 258.025C464.356 258.052 464.414 258.085 464.48 258.122C464.613 258.197 464.779 258.292 464.977 258.408C465.373 258.64 465.898 258.955 466.534 259.356C467.805 260.156 469.53 261.302 471.579 262.812C475.669 265.826 481.104 270.332 486.812 276.49C498.258 288.835 510.897 307.941 515.761 334.831L486.239 340.17C482.603 320.06 473.242 305.978 464.813 296.886C460.584 292.325 456.612 289.049 453.78 286.962C452.368 285.921 451.253 285.186 450.55 284.743C450.199 284.522 449.952 284.375 449.824 284.3C449.76 284.263 449.726 284.243 449.724 284.242C449.723 284.241 449.729 284.245 449.744 284.253C449.752 284.258 449.761 284.263 449.773 284.269C449.779 284.272 449.785 284.276 449.792 284.28C449.795 284.281 449.801 284.284 449.802 284.285C449.808 284.288 449.814 284.292 457 271.125Z" fill="#023A00"/>
<path d="M152 123.5C152 123.5 263.5 45.5 359.5 45.5C455.5 45.5 557 123.5 557 123.5" stroke="#023A00" stroke-width="30"/>
<path d="M245.004 74.885C245.004 74.885 241.501 252 197.394 203.129C153.287 154.259 116.588 124.154 191.501 98.9999" stroke="#023A00" stroke-width="30"/>
<path d="M468.906 74.8855C468.906 74.8855 472.409 252 516.516 203.13C560.623 154.259 591.43 122.154 516.516 97" stroke="#023A00" stroke-width="30"/>
<circle cx="311" cy="132" r="20" fill="#023A00"/>
<circle cx="410" cy="132" r="20" fill="#023A00"/>
<path d="M177.5 665.5H587.5" stroke="#023A00" stroke-width="30" stroke-linecap="round"/>
<path d="M327 474.5V654" stroke="#023A00" stroke-width="30" stroke-linecap="round"/>
<circle cx="357.5" cy="348.5" r="37.5" stroke="#023A00" stroke-width="30"/>
<path d="M443.179 511.669C443.179 511.669 426.093 522.31 411.351 573.604C396.61 624.898 421.725 662.061 460.873 663.469" stroke="#023A00" stroke-width="30"/>
<path d="M556.87 511.669C556.87 511.669 574.674 524.891 589.416 576.185C604.157 627.479 578.324 662.061 539.176 663.469" stroke="#023A00" stroke-width="30"/>
<path d="M434.5 486C434.5 486 450.206 527 499.853 527C549.5 527 568 486 568 486" stroke="#023A00" stroke-width="25" stroke-linecap="round"/>
<path d="M428 441C428 441 442.143 388 499.571 388C557 388 572 441 572 441" stroke="#023A00" stroke-width="25" stroke-linecap="round"/>
<path d="M480 609V660M527 609V660" stroke="#023A00" stroke-width="30" stroke-linecap="round"/>
<path d="M522 549C522 560.205 513.112 569 502.5 569C491.888 569 483 560.205 483 549C483 537.795 491.888 529 502.5 529C513.112 529 522 537.795 522 549Z" stroke="#023A00" stroke-width="20"/>
<path d="M431 422V362.939C431 354.059 441.712 349.584 448.029 355.826L473 380.5" stroke="#023A00" stroke-width="20" stroke-linecap="round"/>
<path d="M570 422V363.351C570 354.412 559.168 349.964 552.886 356.322L529 380.5" stroke="#023A00" stroke-width="20" stroke-linecap="round"/>
<path d="M570 447L608 437" stroke="#023A00" stroke-width="15" stroke-linecap="round"/>
<path d="M572.123 464.443L609.716 470.681" stroke="#023A00" stroke-width="15" stroke-linecap="round"/>
<path d="M426.492 464.443L388.899 470.681" stroke="#023A00" stroke-width="15" stroke-linecap="round"/>
<path d="M428 447L391 437" stroke="#023A00" stroke-width="15" stroke-linecap="round"/>
<circle cx="472" cy="446" r="11" fill="#023A00"/>
<circle cx="524" cy="446" r="11" fill="#023A00"/>
<path d="M579 656.893C579 656.893 653.669 662.971 633.181 583.54C612.693 504.108 678.122 510.73 673.794 531.935" stroke="#023A00" stroke-width="30" stroke-linecap="round"/>
<path d="M333.219 171.308C337.727 194.614 352.886 205.102 359.986 205.103C367.085 205.103 378.22 194.065 384.141 171.308C387.047 160.14 373.749 157.295 359.986 157.02C345.706 156.734 330.924 159.441 333.219 171.308Z" fill="#023A00" stroke="#023A00"/>
<path d="M412.841 218.164C414.765 212.597 412.396 206.721 407.55 205.039C402.704 203.358 397.216 206.509 395.293 212.076L412.841 218.164ZM359.634 195.012C350.396 193.722 350.395 193.727 350.394 193.731C350.394 193.733 350.393 193.737 350.393 193.74C350.392 193.747 350.39 193.753 350.389 193.761C350.386 193.775 350.383 193.792 350.38 193.81C350.374 193.846 350.366 193.889 350.357 193.94C350.34 194.04 350.318 194.168 350.293 194.322C350.243 194.63 350.18 195.043 350.112 195.549C349.976 196.558 349.818 197.951 349.703 199.621C349.477 202.921 349.406 207.516 350.11 212.474C351.519 222.408 356.386 235.241 370.46 239.949L377.256 219.73C371.841 217.918 369.595 213.337 368.765 207.488C368.349 204.554 368.377 201.664 368.528 199.453C368.603 198.368 368.703 197.498 368.779 196.934C368.817 196.653 368.848 196.451 368.866 196.341C368.875 196.287 368.881 196.255 368.882 196.248C368.882 196.244 368.882 196.247 368.88 196.256C368.88 196.26 368.878 196.266 368.877 196.274C368.876 196.278 368.876 196.282 368.875 196.287C368.874 196.289 368.874 196.293 368.873 196.294C368.873 196.298 368.872 196.302 359.634 195.012ZM370.46 239.949C381.461 243.629 391.112 243.429 399.112 238.11C406.876 232.947 410.649 224.51 412.841 218.164L395.293 212.076C393.563 217.083 391.976 219.265 390.488 220.254C389.237 221.086 385.745 222.57 377.256 219.73L370.46 239.949Z" fill="#023A00"/>
<path d="M305.108 219.5C303.184 213.932 305.553 208.056 310.399 206.375C315.245 204.694 320.733 207.845 322.656 213.412L305.108 219.5ZM358.315 196.348C367.553 195.058 367.554 195.063 367.555 195.067C367.555 195.069 367.556 195.073 367.556 195.076C367.558 195.083 367.559 195.089 367.56 195.097C367.563 195.111 367.566 195.128 367.569 195.146C367.576 195.182 367.583 195.225 367.592 195.275C367.61 195.376 367.631 195.504 367.656 195.658C367.706 195.966 367.769 196.379 367.837 196.885C367.973 197.894 368.131 199.287 368.246 200.957C368.472 204.257 368.543 208.852 367.84 213.81C366.43 223.744 361.563 236.576 347.489 241.285L340.693 221.066C346.108 219.254 348.354 214.673 349.184 208.824C349.6 205.89 349.573 203 349.421 200.789C349.346 199.704 349.246 198.834 349.17 198.27C349.132 197.989 349.101 197.787 349.083 197.677C349.074 197.623 349.069 197.591 349.067 197.584C349.067 197.58 349.067 197.583 349.069 197.592C349.07 197.596 349.071 197.602 349.072 197.61C349.073 197.614 349.074 197.618 349.075 197.623C349.075 197.625 349.076 197.629 349.076 197.63C349.077 197.634 349.077 197.638 358.315 196.348ZM347.489 241.285C336.488 244.965 326.838 244.765 318.837 239.445C311.074 234.283 307.3 225.846 305.108 219.5L322.656 213.412C324.386 218.419 325.973 220.601 327.461 221.59C328.712 222.422 332.204 223.906 340.693 221.066L347.489 241.285Z" fill="#023A00"/>
<path d="M487.705 464.25C489.674 474.429 496.295 479.01 499.396 479.01C502.497 479.01 507.361 474.189 509.947 464.25C511.216 459.371 505.408 458.129 499.396 458.009C493.159 457.884 486.703 459.066 487.705 464.25Z" fill="#023A00" stroke="#023A00"/>
<path d="M505.457 489.815L504.268 493.354L505.457 489.815ZM521.723 484.451C522.396 482.503 521.567 480.446 519.871 479.858C518.175 479.269 516.254 480.372 515.581 482.321L521.723 484.451ZM499.244 474.603C496.011 474.152 496.011 474.153 496.011 474.155C496.01 474.155 496.01 474.157 496.01 474.158C496.009 474.161 496.009 474.163 496.009 474.166C496.008 474.171 496.006 474.177 496.005 474.184C496.003 474.198 496 474.215 495.996 474.235C495.989 474.275 495.98 474.326 495.97 474.389C495.95 474.515 495.924 474.687 495.895 474.898C495.839 475.319 495.772 475.905 495.724 476.609C495.628 478.003 495.599 479.936 495.894 482.014C496.484 486.176 498.496 491.423 504.268 493.354L506.646 486.277C503.905 485.36 502.811 483.001 502.423 480.269C502.229 478.899 502.243 477.563 502.312 476.55C502.347 476.051 502.393 475.648 502.429 475.382C502.447 475.25 502.462 475.153 502.471 475.096C502.475 475.068 502.479 475.05 502.48 475.043C502.48 475.039 502.481 475.038 502.48 475.04C502.48 475.041 502.48 475.043 502.479 475.045C502.479 475.047 502.479 475.048 502.479 475.05C502.478 475.05 502.478 475.052 502.478 475.052C502.478 475.053 502.478 475.055 499.244 474.603ZM504.268 493.354C508.964 494.924 512.912 494.781 516.113 492.653C519.232 490.579 520.785 487.165 521.723 484.451L515.581 482.321C514.805 484.566 514.017 485.79 513.095 486.403C512.256 486.961 510.463 487.554 506.646 486.277L504.268 493.354Z" fill="#023A00"/>
<path d="M492.455 490.399L493.644 493.937L492.455 490.399ZM476.189 485.035C475.516 483.086 476.345 481.03 478.041 480.441C479.737 479.853 481.658 480.956 482.331 482.904L476.189 485.035ZM498.668 475.187C501.901 474.735 501.901 474.737 501.902 474.738C501.902 474.739 501.902 474.741 501.902 474.742C501.903 474.744 501.903 474.747 501.904 474.749C501.905 474.755 501.906 474.761 501.907 474.768C501.909 474.782 501.912 474.799 501.916 474.818C501.923 474.858 501.932 474.91 501.942 474.973C501.962 475.099 501.988 475.27 502.017 475.481C502.073 475.903 502.14 476.488 502.188 477.193C502.284 478.587 502.313 480.52 502.018 482.597C501.428 486.759 499.416 492.006 493.644 493.937L491.266 486.86C494.007 485.943 495.101 483.584 495.489 480.852C495.683 479.483 495.669 478.147 495.6 477.134C495.565 476.634 495.519 476.232 495.483 475.966C495.465 475.834 495.45 475.736 495.441 475.68C495.437 475.652 495.434 475.633 495.432 475.626C495.432 475.623 495.432 475.622 495.432 475.624C495.432 475.625 495.432 475.627 495.433 475.629C495.433 475.63 495.433 475.631 495.434 475.633C495.434 475.634 495.434 475.635 495.434 475.636C495.434 475.637 495.435 475.638 498.668 475.187ZM493.644 493.937C488.948 495.508 485 495.365 481.799 493.236C478.68 491.163 477.127 487.749 476.189 485.035L482.331 482.904C483.107 485.149 483.895 486.374 484.817 486.987C485.656 487.545 487.449 488.137 491.266 486.86L493.644 493.937Z" fill="#023A00"/>
<path d="M822.227 495V204.091H996.659V235.341H857.455V333.636H983.591V364.886H857.455V495H822.227ZM1052.45 495V276.818H1085.97V495H1052.45ZM1069.49 240.455C1062.96 240.455 1057.32 238.229 1052.59 233.778C1047.95 229.328 1045.63 223.977 1045.63 217.727C1045.63 211.477 1047.95 206.127 1052.59 201.676C1057.32 197.225 1062.96 195 1069.49 195C1076.03 195 1081.61 197.225 1086.25 201.676C1090.99 206.127 1093.36 211.477 1093.36 217.727C1093.36 223.977 1090.99 229.328 1086.25 233.778C1081.61 238.229 1076.03 240.455 1069.49 240.455ZM1180.89 363.75V495H1147.37V276.818H1179.76V310.909H1182.6C1187.71 299.83 1195.48 290.928 1205.89 284.205C1216.31 277.386 1229.76 273.977 1246.23 273.977C1261.01 273.977 1273.93 277.008 1285.01 283.068C1296.09 289.034 1304.71 298.125 1310.86 310.341C1317.02 322.462 1320.1 337.803 1320.1 356.364V495H1286.57V358.636C1286.57 341.496 1282.12 328.144 1273.22 318.58C1264.32 308.92 1252.1 304.091 1236.57 304.091C1225.87 304.091 1216.31 306.411 1207.88 311.051C1199.55 315.691 1192.97 322.462 1188.14 331.364C1183.31 340.265 1180.89 351.061 1180.89 363.75ZM1463.74 499.545C1445.56 499.545 1429.51 494.953 1415.59 485.767C1401.67 476.487 1390.78 463.419 1382.92 446.562C1375.06 429.612 1371.13 409.583 1371.13 386.477C1371.13 363.561 1375.06 343.674 1382.92 326.818C1390.78 309.962 1401.71 296.941 1415.73 287.756C1429.74 278.57 1445.94 273.977 1464.31 273.977C1478.51 273.977 1489.73 276.345 1497.97 281.08C1506.31 285.72 1512.65 291.023 1517.01 296.989C1521.46 302.86 1524.91 307.689 1527.38 311.477H1530.22V204.091H1563.74V495H1531.35V461.477H1527.38C1524.91 465.455 1521.41 470.473 1516.87 476.534C1512.32 482.5 1505.83 487.85 1497.4 492.585C1488.98 497.225 1477.76 499.545 1463.74 499.545ZM1468.29 469.432C1481.73 469.432 1493.1 465.928 1502.38 458.92C1511.66 451.818 1518.71 442.017 1523.54 429.517C1528.37 416.922 1530.79 402.386 1530.79 385.909C1530.79 369.621 1528.42 355.369 1523.68 343.153C1518.95 330.843 1511.94 321.278 1502.66 314.46C1493.38 307.547 1481.92 304.091 1468.29 304.091C1454.08 304.091 1442.24 307.737 1432.77 315.028C1423.4 322.225 1416.34 332.027 1411.61 344.432C1406.97 356.742 1404.65 370.568 1404.65 385.909C1404.65 401.439 1407.02 415.549 1411.75 428.239C1416.58 440.833 1423.68 450.871 1433.06 458.352C1442.53 465.739 1454.27 469.432 1468.29 469.432ZM1746.84 204.091H1788.88L1887.75 445.568H1891.15L1990.02 204.091H2032.06V495H1999.11V273.977H1996.27L1905.36 495H1873.54L1782.63 273.977H1779.79V495H1746.84V204.091ZM2119.74 576.818C2114.06 576.818 2108.99 576.345 2104.54 575.398C2100.09 574.545 2097.01 573.693 2095.31 572.841L2103.83 543.295C2111.98 545.379 2119.17 546.136 2125.42 545.568C2131.67 545 2137.21 542.206 2142.04 537.188C2146.97 532.263 2151.46 524.261 2155.54 513.182L2161.79 496.136L2081.11 276.818H2117.47L2177.7 450.682H2179.97L2240.2 276.818H2276.56L2183.95 526.818C2179.78 538.087 2174.62 547.415 2168.46 554.801C2162.31 562.282 2155.16 567.822 2147.01 571.42C2138.96 575.019 2129.87 576.818 2119.74 576.818ZM2437.85 495V204.091H2536.15C2558.97 204.091 2577.63 208.21 2592.11 216.449C2606.7 224.593 2617.49 235.625 2624.5 249.545C2631.51 263.466 2635.01 278.996 2635.01 296.136C2635.01 313.277 2631.51 328.854 2624.5 342.869C2617.59 356.884 2606.89 368.059 2592.4 376.392C2577.91 384.631 2559.35 388.75 2536.72 388.75H2466.26V357.5H2535.58C2551.2 357.5 2563.75 354.801 2573.22 349.403C2582.69 344.006 2589.56 336.714 2593.82 327.528C2598.17 318.248 2600.35 307.784 2600.35 296.136C2600.35 284.489 2598.17 274.072 2593.82 264.886C2589.56 255.701 2582.64 248.504 2573.08 243.295C2563.52 237.992 2550.83 235.341 2535.01 235.341H2473.08V495H2437.85ZM2776.35 499.545C2755.32 499.545 2737.19 494.905 2721.94 485.625C2706.79 476.25 2695.1 463.182 2686.86 446.42C2678.71 429.564 2674.64 409.962 2674.64 387.614C2674.64 365.265 2678.71 345.568 2686.86 328.523C2695.1 311.383 2706.55 298.03 2721.23 288.466C2736.01 278.807 2753.24 273.977 2772.94 273.977C2784.3 273.977 2795.52 275.871 2806.6 279.659C2817.68 283.447 2827.77 289.602 2836.86 298.125C2845.95 306.553 2853.19 317.727 2858.59 331.648C2863.99 345.568 2866.69 362.708 2866.69 383.068V397.273H2698.51V368.295H2832.6C2832.6 355.985 2830.13 345 2825.21 335.341C2820.38 325.682 2813.47 318.059 2804.47 312.472C2795.57 306.884 2785.06 304.091 2772.94 304.091C2759.59 304.091 2748.03 307.405 2738.28 314.034C2728.62 320.568 2721.19 329.091 2715.98 339.602C2710.77 350.114 2708.16 361.383 2708.16 373.409V392.727C2708.16 409.205 2711.01 423.172 2716.69 434.631C2722.46 445.994 2730.47 454.659 2740.69 460.625C2750.92 466.496 2762.8 469.432 2776.35 469.432C2785.15 469.432 2793.11 468.201 2800.21 465.739C2807.41 463.182 2813.61 459.394 2818.82 454.375C2824.03 449.261 2828.05 442.917 2830.89 435.341L2863.28 444.432C2859.87 455.417 2854.14 465.076 2846.09 473.409C2838.04 481.648 2828.1 488.087 2816.26 492.727C2804.42 497.273 2791.12 499.545 2776.35 499.545ZM3012.57 276.818V305.227H2899.5V276.818H3012.57ZM2932.45 224.545H2965.98V432.5C2965.98 441.97 2967.35 449.072 2970.1 453.807C2972.94 458.447 2976.54 461.572 2980.89 463.182C2985.34 464.697 2990.03 465.455 2994.95 465.455C2998.65 465.455 3001.68 465.265 3004.05 464.886C3006.41 464.413 3008.31 464.034 3009.73 463.75L3016.55 493.864C3014.27 494.716 3011.1 495.568 3007.03 496.42C3002.96 497.367 2997.8 497.841 2991.55 497.841C2982.08 497.841 2972.8 495.805 2963.7 491.733C2954.71 487.661 2947.23 481.458 2941.26 473.125C2935.39 464.792 2932.45 454.28 2932.45 441.591V224.545Z" fill="#023A00"/>
<path d="M804 659H3048.5" stroke="#023A00" stroke-width="30"/>
<path d="M804 49H3048.5" stroke="#023A00" stroke-width="30"/>
</svg>
