<svg width="3397" height="712" viewBox="0 0 3397 712" fill="none" xmlns="http://www.w3.org/2000/svg">
<g clip-path="url(#clip0_395_598)">
<path d="M745.969 214.086C765.5 215.714 782.59 216.69 797.238 217.016C812.212 217.341 824.908 217.504 835.324 217.504C847.368 217.504 857.785 217.178 866.574 216.527C875.689 215.551 887.57 214.249 902.219 212.621C914.589 210.993 930.539 208.878 950.07 206.273C969.602 203.344 993.365 199.6 1021.36 195.043C1017.78 200.577 1014.69 206.436 1012.08 212.621C1009.8 218.48 1007.85 223.852 1006.22 228.734C1004.6 234.594 1003.13 240.29 1001.83 245.824C1000.85 252.009 999.712 259.659 998.41 268.773C997.108 276.586 995.48 286.514 993.527 298.559C991.9 310.277 989.784 324.275 987.18 340.551C977.414 315.16 967.486 295.629 957.395 281.957C947.629 268.285 938.514 258.194 930.051 251.684C920.285 244.197 911.008 239.965 902.219 238.988C889.523 238.988 879.107 241.43 870.969 246.312C862.831 251.195 856.158 257.543 850.949 265.355C846.066 272.842 842.323 281.143 839.719 290.258C837.115 299.047 835.324 307.673 834.348 316.137C833.371 324.275 832.72 331.599 832.395 338.109C832.069 344.294 831.743 348.526 831.418 350.805C842.811 350.154 852.414 349.34 860.227 348.363C868.039 347.387 874.224 346.41 878.781 345.434C884.315 344.132 888.71 342.829 891.965 341.527C896.848 338.923 901.73 335.831 906.613 332.25C910.845 328.995 915.24 325.089 919.797 320.531C924.68 315.974 928.911 310.44 932.492 303.93C930.539 315.648 928.749 325.414 927.121 333.227C925.819 341.039 924.68 347.224 923.703 351.781C922.401 357.315 921.587 361.547 921.262 364.477C920.611 367.406 919.797 371.475 918.82 376.684C917.844 381.241 916.704 387.1 915.402 394.262C914.1 401.423 912.635 410.375 911.008 421.117C907.102 414.281 903.033 408.747 898.801 404.516C894.569 399.958 890.663 396.378 887.082 393.773C882.85 390.844 878.781 388.565 874.875 386.938C870.643 385.635 866.086 384.333 861.203 383.031C856.971 382.055 851.926 381.078 846.066 380.102C840.533 378.799 834.51 377.66 828 376.684C828.651 394.262 829.628 409.398 830.93 422.094C832.232 434.464 833.371 444.88 834.348 453.344C835.65 463.109 836.952 471.247 838.254 477.758C839.882 484.268 842.486 491.267 846.066 498.754C848.996 505.264 853.065 512.751 858.273 521.215C863.807 529.353 870.806 538.142 879.27 547.582C872.759 545.954 865.923 544.815 858.762 544.164C851.6 543.513 845.253 543.025 839.719 542.699C832.883 542.374 826.372 542.374 820.188 542.699C813.677 543.025 806.516 543.676 798.703 544.652C792.193 545.303 784.706 546.28 776.242 547.582C767.779 548.884 758.827 550.349 749.387 551.977C754.921 546.443 759.478 540.909 763.059 535.375C766.639 529.841 769.243 524.958 770.871 520.727C772.824 515.844 774.126 511.124 774.777 506.566C775.103 502.66 775.266 494.197 775.266 481.176C775.266 467.829 775.103 452.367 774.777 434.789C774.452 416.885 773.964 398.005 773.312 378.148C772.661 358.292 772.01 339.737 771.359 322.484C770.708 304.906 769.895 289.932 768.918 277.562C768.267 265.193 767.453 257.706 766.477 255.102C765.174 251.846 763.71 248.103 762.082 243.871C759.478 237.035 754.107 227.107 745.969 214.086ZM996.34 332.738L1086.18 333.715C1080.98 353.572 1077.07 370.499 1074.46 384.496C1072.19 398.493 1070.72 410.212 1070.07 419.652C1068.77 430.395 1068.44 439.509 1069.09 446.996C1070.07 453.832 1071.7 461.156 1073.98 468.969C1075.93 475.479 1078.86 482.966 1082.77 491.43C1086.67 499.893 1091.88 508.357 1098.39 516.82C1094.48 515.518 1090.25 514.542 1085.7 513.891C1081.14 513.24 1076.91 512.751 1073 512.426C1068.44 512.1 1063.89 512.1 1059.33 512.426C1054.77 512.751 1049.73 513.24 1044.19 513.891C1039.63 514.542 1034.1 515.355 1027.59 516.332C1021.08 517.309 1014.24 518.611 1007.08 520.238C1011.96 505.59 1015.71 492.895 1018.31 482.152C1021.24 471.41 1023.36 462.458 1024.66 455.297C1025.96 446.833 1026.78 439.997 1027.1 434.789C1027.1 428.279 1027.1 420.954 1027.1 412.816C1027.1 404.353 1027.1 396.215 1027.1 388.402C1027.1 380.59 1026.94 373.754 1026.61 367.895C1026.29 361.71 1025.64 357.803 1024.66 356.176L1019.78 351.293C1017.82 349.665 1014.89 347.387 1010.99 344.457C1007.41 341.202 1002.52 337.296 996.34 332.738ZM1031.01 257.543C1037.84 253.962 1044.68 252.986 1051.52 254.613C1058.68 256.241 1064.21 259.333 1068.12 263.891C1072.02 268.448 1073.33 273.819 1072.02 280.004C1071.05 286.189 1065.84 292.211 1056.4 298.07C1046.96 303.604 1038.66 305.557 1031.5 303.93C1024.33 302.302 1019.29 298.884 1016.36 293.676C1013.43 288.467 1012.94 282.445 1014.89 275.609C1016.85 268.448 1022.22 262.426 1031.01 257.543ZM1126.11 497.289C1128.38 486.547 1130.01 477.107 1130.99 468.969C1132.29 460.505 1133.27 453.507 1133.92 447.973C1134.57 441.462 1134.89 435.928 1134.89 431.371C1134.57 425.837 1134.24 419.327 1133.92 411.84C1133.92 404.027 1133.59 396.378 1132.94 388.891C1132.62 381.078 1132.13 374.242 1131.48 368.383C1130.83 362.198 1130.01 357.803 1129.04 355.199C1127.73 352.595 1125.94 349.828 1123.66 346.898C1119.11 341.365 1112.43 335.993 1103.64 330.785C1111.13 329.158 1117.48 327.855 1122.69 326.879C1128.22 325.577 1132.78 324.438 1136.36 323.461C1140.27 322.159 1143.68 321.02 1146.61 320.043C1149.22 319.066 1152.31 318.09 1155.89 317.113C1158.82 316.462 1162.4 315.648 1166.63 314.672C1170.86 313.695 1175.75 312.556 1181.28 311.254L1179.82 355.688C1190.23 343.318 1200.81 334.04 1211.55 327.855C1222.3 321.671 1232.39 317.276 1241.83 314.672C1252.57 311.417 1263.15 309.789 1273.57 309.789C1286.59 310.44 1298.63 312.556 1309.7 316.137C1321.09 319.717 1330.86 323.949 1339 328.832C1347.46 333.389 1354.3 338.272 1359.5 343.48C1364.71 348.689 1367.8 353.246 1368.78 357.152C1372.69 369.848 1373.66 381.566 1371.71 392.309C1369.76 402.725 1367.15 412.979 1363.9 423.07C1360.97 432.836 1358.36 442.602 1356.09 452.367C1354.13 462.133 1354.95 472.712 1358.53 484.105C1359.83 487.035 1361.13 489.965 1362.43 492.895C1363.74 495.499 1365.36 498.103 1367.32 500.707C1369.27 503.311 1371.55 505.427 1374.15 507.055C1370.57 506.729 1366.99 506.566 1363.41 506.566C1359.83 506.241 1356.57 505.915 1353.64 505.59C1350.06 505.264 1346.81 504.939 1343.88 504.613C1340.62 504.288 1336.23 504.125 1330.7 504.125C1321.26 504.125 1306.61 504.613 1286.75 505.59C1289.68 498.754 1291.96 493.057 1293.59 488.5C1295.54 483.617 1297.17 479.711 1298.47 476.781C1299.77 473.201 1300.75 470.434 1301.4 468.48C1305.3 459.04 1307.58 448.298 1308.23 436.254C1309.21 424.21 1308.4 412.003 1305.79 399.633C1304.82 395.401 1303.19 390.355 1300.91 384.496C1298.63 378.637 1295.54 372.94 1291.63 367.406C1288.05 361.872 1283.66 357.152 1278.45 353.246C1273.57 349.34 1267.87 347.061 1261.36 346.41C1254.85 345.759 1247.52 347.387 1239.39 351.293C1231.57 355.199 1223.11 362.361 1214 372.777C1207.16 381.566 1201.79 392.309 1197.88 405.004C1194.3 415.746 1191.86 429.255 1190.56 445.531C1189.26 461.482 1191.21 480.199 1196.42 501.684C1191.86 501.033 1187.63 500.707 1183.72 500.707C1179.82 500.382 1176.56 500.056 1173.96 499.73C1170.7 499.405 1167.77 499.079 1165.17 498.754C1162.24 498.754 1158.98 498.591 1155.4 498.266C1152.15 498.266 1148.08 498.266 1143.2 498.266C1138.31 497.94 1132.62 497.615 1126.11 497.289ZM1633.8 176.977C1639.99 177.302 1646.66 177.465 1653.82 177.465C1660.01 177.465 1667 177.628 1674.82 177.953C1682.95 177.953 1691.42 177.628 1700.21 176.977C1692.39 180.557 1685.56 185.766 1679.7 192.602C1673.84 199.438 1669.12 206.273 1665.54 213.109C1660.98 221.247 1657.24 229.711 1654.31 238.5C1652.68 243.708 1651.38 252.986 1650.4 266.332C1649.43 279.353 1648.61 294.652 1647.96 312.23C1647.64 329.809 1647.47 348.363 1647.47 367.895C1647.47 387.426 1647.64 406.143 1647.96 424.047C1648.29 441.625 1648.77 457.25 1649.43 470.922C1650.08 484.594 1650.89 494.197 1651.87 499.73C1653.17 506.241 1654.8 512.426 1656.75 518.285C1658.38 523.493 1660.49 528.865 1663.1 534.398C1665.7 539.607 1668.96 543.839 1672.86 547.094L1623.06 569.555C1620.45 565.974 1618.34 562.23 1616.71 558.324C1615.08 554.743 1613.78 551.488 1612.8 548.559C1611.5 544.978 1610.69 541.723 1610.36 538.793C1609.71 534.887 1609.06 530.655 1608.41 526.098C1607.76 521.215 1606.95 516.658 1605.97 512.426C1605.32 507.868 1604.83 504.125 1604.5 501.195C1604.18 498.266 1604.18 496.475 1604.5 495.824C1604.83 495.173 1602.88 498.103 1598.64 504.613C1594.41 510.798 1588.07 518.122 1579.6 526.586C1571.46 534.724 1561.37 542.699 1549.33 550.512C1537.28 557.999 1523.77 562.719 1508.8 564.672C1493.5 566.625 1479.34 563.695 1466.32 555.883C1453.62 548.07 1442.72 537.165 1433.61 523.168C1424.49 508.845 1417.49 492.406 1412.61 473.852C1408.05 454.971 1406.26 435.766 1407.24 416.234C1407.89 403.214 1410.82 391.658 1416.03 381.566C1421.24 371.15 1427.75 362.198 1435.56 354.711C1443.7 346.898 1452.49 340.388 1461.93 335.18C1471.69 329.646 1481.13 325.089 1490.25 321.508C1499.69 317.927 1508.48 315.323 1516.61 313.695C1524.75 312.068 1531.26 310.928 1536.14 310.277C1542 309.952 1548.68 310.928 1556.16 313.207C1562.67 315.16 1570.16 318.415 1578.62 322.973C1587.41 327.53 1597.18 334.366 1607.92 343.48C1605.97 310.928 1604.18 284.887 1602.55 265.355C1600.92 245.499 1599.3 230.362 1597.67 219.945C1596.04 207.576 1594.58 199.112 1593.27 194.555C1591.65 191.299 1589.53 188.044 1586.93 184.789C1584.65 182.185 1581.72 179.581 1578.14 176.977C1574.88 174.047 1570.98 171.768 1566.42 170.141C1574.88 171.768 1583.02 172.908 1590.83 173.559C1598.64 174.21 1605.81 174.861 1612.32 175.512C1619.8 176.163 1626.96 176.651 1633.8 176.977ZM1511.24 359.105C1505.06 361.384 1500.01 365.29 1496.11 370.824C1492.52 376.358 1489.6 383.031 1487.32 390.844C1485.04 398.331 1483.41 406.469 1482.43 415.258C1481.78 423.721 1481.29 432.022 1480.97 440.16C1480.97 447.973 1480.97 455.134 1480.97 461.645C1480.97 468.155 1480.97 473.038 1480.97 476.293C1480.97 478.246 1481.29 481.827 1481.95 487.035C1482.92 491.918 1484.88 497.126 1487.8 502.66C1490.73 507.868 1494.8 512.589 1500.01 516.82C1505.55 521.052 1512.87 523.168 1521.98 523.168C1529.47 522.517 1537.45 519.913 1545.91 515.355C1553.4 511.449 1561.86 505.264 1571.3 496.801C1581.07 488.012 1591.48 475.479 1602.55 459.203C1601.9 448.786 1601.41 440.16 1601.09 433.324C1601.09 426.488 1600.92 420.954 1600.6 416.723C1600.27 411.84 1600.11 407.934 1600.11 405.004V397.68C1600.11 395.727 1600.11 393.611 1600.11 391.332C1600.11 389.053 1600.27 386.938 1600.6 384.984C1591.48 378.474 1583.35 372.94 1576.18 368.383C1569.35 363.5 1562.51 359.919 1555.68 357.641C1549.17 355.036 1542.33 353.897 1535.17 354.223C1528.33 354.223 1520.36 355.85 1511.24 359.105Z" fill="#333333"/>
<path d="M1830.34 200.902C1840.76 201.228 1849.88 201.391 1857.69 201.391C1865.5 201.065 1871.85 200.902 1876.73 200.902H1890.89C1894.47 200.577 1898.87 200.414 1904.07 200.414C1908.63 200.414 1914.17 200.414 1920.68 200.414C1927.19 200.414 1934.67 200.577 1943.14 200.902C1945.74 210.017 1948.67 218.969 1951.93 227.758C1955.51 236.221 1958.6 243.871 1961.2 250.707C1964.46 258.845 1967.71 266.495 1970.97 273.656C1974.22 280.818 1978.13 289.444 1982.69 299.535C1986.59 307.999 1991.31 318.415 1996.85 330.785C2002.38 342.829 2008.89 356.664 2016.38 372.289C2019.96 362.198 2023.21 352.921 2026.14 344.457C2029.4 335.993 2032.17 328.669 2034.45 322.484C2037.05 315.323 2039.17 308.812 2040.79 302.953C2042.42 297.094 2044.21 289.932 2046.16 281.469C2047.79 274.307 2049.58 265.681 2051.54 255.59C2053.81 245.499 2056.09 233.78 2058.37 220.434C2067.81 220.434 2076.27 220.434 2083.76 220.434C2091.25 220.434 2097.76 220.271 2103.29 219.945C2109.48 219.945 2115.01 219.783 2119.89 219.457C2125.1 219.457 2132.1 219.132 2140.89 218.48C2148.38 217.829 2158.31 217.341 2170.68 217.016C2183.37 216.365 2199 215.551 2217.55 214.574C2210.71 219.457 2205.18 224.34 2200.95 229.223C2197.04 233.78 2193.95 237.849 2191.67 241.43C2189.07 245.661 2187.44 249.73 2186.79 253.637C2186.14 256.892 2185.49 264.379 2184.84 276.098C2184.51 287.816 2184.02 301.814 2183.37 318.09C2183.05 334.04 2182.72 351.13 2182.39 369.359C2182.39 387.589 2182.56 404.841 2182.88 421.117C2183.21 437.393 2183.7 451.553 2184.35 463.598C2185.32 475.316 2186.63 482.803 2188.25 486.059C2190.53 489.965 2193.62 494.522 2197.53 499.73C2201.11 504.288 2205.67 509.496 2211.2 515.355C2217.06 521.215 2224.71 527.725 2234.15 534.887C2219.18 535.538 2206.65 536.026 2196.55 536.352C2186.79 536.677 2178.65 537.003 2172.14 537.328C2164.65 537.654 2158.63 537.816 2154.07 537.816C2149.19 537.816 2142.52 537.979 2134.05 538.305C2126.57 538.63 2116.64 539.118 2104.27 539.77C2091.9 540.095 2075.95 540.746 2056.42 541.723C2060.98 536.514 2065.21 531.306 2069.11 526.098C2073.02 520.889 2076.27 516.169 2078.88 511.938C2082.13 507.055 2084.9 502.335 2087.18 497.777C2089.46 491.592 2091.25 480.362 2092.55 464.086C2093.85 450.089 2094.83 430.069 2095.48 404.027C2096.13 377.66 2096.13 342.341 2095.48 298.07C2089.3 308.161 2083.76 318.253 2078.88 328.344C2074.32 338.109 2070.25 347.061 2066.67 355.199C2062.77 364.639 2059.18 373.754 2055.93 382.543C2052.67 391.658 2049.26 401.749 2045.68 412.816C2042.42 422.257 2038.51 433.487 2033.96 446.508C2029.73 459.529 2024.84 473.852 2019.31 489.477L2000.75 490.453C1998.15 477.432 1995.55 465.714 1992.94 455.297C1990.34 444.555 1987.73 435.44 1985.13 427.953C1982.2 419.164 1979.27 411.352 1976.34 404.516C1973.08 397.68 1969.5 390.03 1965.6 381.566C1962.02 374.405 1957.62 365.941 1952.41 356.176C1947.53 346.41 1941.83 335.505 1935.32 323.461C1932.07 356.664 1930.12 383.682 1929.46 404.516C1928.81 425.023 1928.81 440.974 1929.46 452.367C1930.12 466.039 1931.09 475.967 1932.39 482.152C1934.35 487.686 1937.44 493.871 1941.67 500.707C1945.25 506.566 1950.14 513.565 1956.32 521.703C1962.83 529.516 1971.13 538.305 1981.22 548.07C1974.06 548.07 1966.57 548.07 1958.76 548.07C1950.95 548.07 1943.79 548.233 1937.28 548.559C1929.46 548.884 1921.82 549.047 1914.33 549.047C1906.52 549.372 1897.4 549.861 1886.98 550.512C1877.87 551.163 1866.96 551.814 1854.27 552.465C1841.57 553.116 1826.93 554.255 1810.32 555.883C1817.49 551.326 1823.35 546.931 1827.9 542.699C1832.46 538.142 1836.04 534.073 1838.64 530.492C1841.9 526.26 1844.34 522.029 1845.97 517.797C1846.95 515.193 1847.76 509.496 1848.41 500.707C1849.39 491.918 1850.2 481.176 1850.85 468.48C1851.83 455.785 1852.48 441.625 1852.8 426C1853.46 410.375 1853.94 394.587 1854.27 378.637C1854.92 362.361 1855.41 346.573 1855.73 331.273C1856.06 315.648 1856.22 301.651 1856.22 289.281C1856.55 276.586 1856.71 266.007 1856.71 257.543C1856.71 249.079 1856.71 243.708 1856.71 241.43C1855.73 236.547 1854.27 231.664 1852.32 226.781C1850.69 222.549 1848.08 218.155 1844.5 213.598C1840.92 209.04 1836.2 204.809 1830.34 200.902ZM2204.25 301.488C2210.76 302.465 2216.62 303.279 2221.83 303.93C2226.71 304.255 2231.11 304.581 2235.01 304.906C2239.24 305.232 2243.31 305.395 2247.22 305.395C2250.8 305.395 2255.36 305.232 2260.89 304.906C2265.45 304.581 2271.31 304.255 2278.47 303.93C2285.96 303.279 2294.74 302.465 2304.84 301.488C2304.18 302.79 2302.88 306.859 2300.93 313.695C2298.98 320.206 2297.02 328.344 2295.07 338.109C2293.12 347.549 2291.33 358.129 2289.7 369.848C2288.4 381.241 2287.75 392.634 2287.75 404.027C2288.07 415.095 2289.54 425.674 2292.14 435.766C2294.74 445.531 2298.98 453.507 2304.84 459.691C2317.21 472.387 2328.11 480.036 2337.55 482.641C2347.32 485.245 2355.78 484.919 2362.94 481.664C2370.1 478.409 2375.96 473.526 2380.52 467.016C2385.08 460.505 2388.33 454.483 2390.29 448.949C2395.17 433.975 2398.1 418.188 2399.07 401.586C2399.73 387.263 2398.59 371.312 2395.66 353.734C2392.73 336.156 2385.73 318.253 2374.66 300.023C2383.12 300.674 2390.45 301.163 2396.63 301.488C2402.82 301.814 2408.19 302.139 2412.75 302.465C2417.95 302.79 2422.51 303.116 2426.42 303.441C2430 303.767 2434.23 303.767 2439.11 303.441C2443.35 303.441 2448.39 303.279 2454.25 302.953C2460.43 302.302 2467.27 301.651 2474.76 301C2476.06 332.901 2477.2 361.384 2478.18 386.449C2479.15 411.189 2479.8 433.161 2480.13 452.367C2480.78 471.247 2481.11 487.686 2481.11 501.684C2481.11 515.355 2481.11 526.911 2481.11 536.352C2480.78 558.812 2479.8 573.624 2478.18 580.785C2475.57 590.876 2470.85 600.967 2464.02 611.059C2457.51 621.15 2449.2 630.102 2439.11 637.914C2429.02 646.052 2417.3 652.237 2403.96 656.469C2390.94 661.026 2376.61 662.654 2360.99 661.352C2345.69 660.049 2333.48 657.934 2324.37 655.004C2315.58 652.4 2308.58 649.307 2303.37 645.727C2298.49 642.146 2294.91 638.402 2292.63 634.496C2290.68 630.59 2289.21 626.521 2288.23 622.289C2287.26 618.383 2286.28 614.639 2285.3 611.059C2284.33 607.478 2282.38 604.385 2279.45 601.781C2275.86 598.852 2272.12 595.922 2268.21 592.992C2264.63 590.388 2260.73 587.784 2256.5 585.18C2252.59 582.576 2248.68 580.46 2244.78 578.832L2348.78 572.973C2345.85 576.879 2343.74 580.46 2342.43 583.715C2341.13 586.97 2340.32 589.737 2339.99 592.016C2339.67 594.945 2339.83 597.387 2340.48 599.34C2341.78 603.246 2344.06 607.478 2347.32 612.035C2350.9 616.918 2355.45 620.661 2360.99 623.266C2366.52 626.195 2373.03 627.172 2380.52 626.195C2388.33 625.219 2397.12 621.15 2406.89 613.988C2415.02 607.803 2421.86 597.875 2427.39 584.203C2431.95 572.484 2435.53 556.046 2438.14 534.887C2440.74 513.728 2440.25 485.896 2436.67 451.391C2430.81 471.573 2422.84 487.035 2412.75 497.777C2402.65 508.52 2392.56 516.332 2382.47 521.215C2370.75 527.074 2358.55 530.167 2345.85 530.492C2328.92 529.841 2314.44 527.725 2302.39 524.145C2290.35 520.238 2280.42 515.03 2272.61 508.52C2264.8 502.009 2258.61 494.359 2254.05 485.57C2249.82 476.456 2246.73 466.365 2244.78 455.297C2242.82 444.229 2241.85 433.161 2241.85 422.094C2241.85 410.701 2241.85 400.121 2241.85 390.355C2242.17 380.59 2242.34 371.801 2242.34 363.988C2242.34 355.85 2241.52 349.34 2239.89 344.457C2237.94 339.574 2235.34 334.691 2232.08 329.809C2229.48 325.577 2225.9 321.02 2221.34 316.137C2216.46 310.928 2210.76 306.046 2204.25 301.488ZM2639.07 201.391C2651.44 204.32 2662.51 206.599 2672.28 208.227C2682.37 209.529 2690.83 210.505 2697.67 211.156C2705.81 212.133 2712.97 212.458 2719.15 212.133C2726.96 211.807 2736.73 210.668 2748.45 208.715C2760.17 206.762 2772.54 204.809 2785.56 202.855C2798.58 200.902 2811.44 199.275 2824.13 197.973C2836.83 196.671 2847.9 196.508 2857.34 197.484C2866.78 198.461 2876.7 200.74 2887.12 204.32C2897.54 207.576 2907.3 212.133 2916.42 217.992C2925.53 223.526 2933.35 230.362 2939.86 238.5C2946.69 246.638 2950.92 256.078 2952.55 266.82C2954.18 277.237 2953.2 288.467 2949.62 300.512C2946.04 312.23 2940.34 323.786 2932.53 335.18C2924.72 346.247 2914.95 356.501 2903.23 365.941C2891.52 375.382 2878.49 383.031 2864.17 388.891C2852.78 393.122 2840.41 396.378 2827.06 398.656C2815.67 400.609 2802.32 401.911 2787.02 402.562C2772.05 402.888 2756.1 401.26 2739.17 397.68C2736.89 407.12 2735.59 415.909 2735.27 424.047C2735.27 431.859 2735.59 438.858 2736.24 445.043C2737.22 452.204 2738.52 458.715 2740.15 464.574C2742.1 470.434 2744.54 477.27 2747.47 485.082C2750.08 491.592 2753.01 499.568 2756.26 509.008C2759.84 518.122 2764.07 528.376 2768.96 539.77C2763.1 539.77 2757.4 539.932 2751.87 540.258C2746.33 540.258 2741.29 540.421 2736.73 540.746C2731.52 541.072 2726.64 541.397 2722.08 541.723C2716.87 542.048 2711.01 542.699 2704.5 543.676C2698.97 544.327 2691.97 545.303 2683.51 546.605C2675.37 547.908 2666.09 549.535 2655.68 551.488C2662.51 541.723 2667.88 532.771 2671.79 524.633C2676.02 516.169 2679.11 508.845 2681.07 502.66C2683.35 495.499 2684.81 488.988 2685.46 483.129C2685.79 478.246 2685.79 469.62 2685.46 457.25C2685.46 444.88 2685.3 430.557 2684.97 414.281C2684.65 398.005 2684.16 380.915 2683.51 363.012C2682.86 345.108 2682.04 328.344 2681.07 312.719C2680.09 296.768 2678.95 283.096 2677.65 271.703C2676.67 260.31 2675.7 252.823 2674.72 249.242C2673.42 245.01 2671.14 240.453 2667.88 235.57C2665.28 231.339 2661.54 226.456 2656.65 220.922C2652.1 215.062 2646.24 208.552 2639.07 201.391ZM2740.15 297.582C2739.82 300.837 2739.66 304.255 2739.66 307.836C2739.66 314.672 2740.15 323.461 2741.12 334.203C2743.4 339.737 2746.17 344.294 2749.43 347.875C2753.01 351.456 2756.75 354.223 2760.66 356.176C2764.89 358.129 2769.12 359.431 2773.35 360.082C2777.58 360.733 2781.82 361.059 2786.05 361.059C2795.81 360.733 2806.07 358.454 2816.81 354.223C2831.13 348.038 2841.22 339.249 2847.08 327.855C2852.94 316.462 2856.03 304.743 2856.36 292.699C2856.68 280.655 2854.57 269.587 2850.01 259.496C2845.78 249.405 2840.57 242.569 2834.39 238.988C2829.18 236.71 2822.51 235.733 2814.37 236.059C2807.21 236.384 2798.25 238.174 2787.51 241.43C2776.77 244.685 2763.59 250.544 2747.96 259.008C2746.33 264.867 2745.03 270.076 2744.05 274.633C2743.08 279.19 2742.26 283.259 2741.61 286.84C2740.96 290.746 2740.47 294.327 2740.15 297.582ZM3062.3 472.387C3071.41 472.387 3079.88 471.41 3087.69 469.457C3094.2 467.829 3100.38 465.225 3106.24 461.645C3112.43 457.738 3116.5 452.042 3118.45 444.555C3124.96 445.857 3130.49 446.996 3135.05 447.973C3139.61 448.624 3143.51 449.275 3146.77 449.926C3150.35 450.902 3153.44 451.553 3156.05 451.879C3158.65 452.53 3161.74 453.181 3165.32 453.832C3168.58 454.483 3172.49 455.297 3177.04 456.273C3181.93 456.924 3187.62 457.901 3194.13 459.203C3189.25 458.552 3184.2 459.04 3179 460.668C3174.11 462.296 3169.39 464.086 3164.84 466.039C3159.63 468.318 3154.74 471.085 3150.19 474.34C3147.26 476.293 3143.84 479.223 3139.93 483.129C3136.35 487.035 3131.14 490.779 3124.31 494.359C3117.47 497.94 3108.36 501.033 3096.96 503.637C3085.9 505.915 3071.57 506.729 3054 506.078C3032.84 505.427 3015.1 501.684 3000.77 494.848C2986.45 487.686 2974.89 479.06 2966.11 468.969C2957.32 458.552 2950.97 447.322 2947.06 435.277C2943.16 423.233 2941.04 412.003 2940.71 401.586C2940.39 391.169 2943.48 380.264 2949.99 368.871C2956.5 357.478 2965.62 347.061 2977.34 337.621C2989.38 328.181 3003.87 320.531 3020.79 314.672C3037.72 308.487 3056.27 305.395 3076.46 305.395C3088.18 305.395 3098.92 306.859 3108.68 309.789C3118.77 312.393 3127.89 315.974 3136.03 320.531C3144.49 325.089 3151.82 330.297 3158 336.156C3164.18 341.69 3169.39 347.387 3173.62 353.246C3177.86 359.431 3181.44 365.941 3184.37 372.777C3186.97 378.637 3189.09 385.31 3190.71 392.797C3192.34 400.284 3192.83 407.934 3192.18 415.746C3167.44 416.397 3147.42 416.885 3132.12 417.211C3117.15 417.536 3105.43 417.699 3096.96 417.699H3074.99H3058.39C3052.53 417.699 3044.88 417.862 3035.44 418.188C3026 418.513 3014.45 419.001 3000.77 419.652C3002.4 432.673 3006.47 442.764 3012.98 449.926C3019.82 456.762 3026.98 461.97 3034.46 465.551C3042.93 469.457 3052.21 471.736 3062.3 472.387ZM3018.35 384.496C3028.77 385.147 3037.39 385.635 3044.23 385.961C3051.39 386.286 3057.25 386.612 3061.81 386.938C3066.69 387.263 3070.6 387.426 3073.53 387.426H3085.73C3093.87 387.426 3109.01 386.938 3131.14 385.961C3130.17 371.638 3127.08 360.733 3121.87 353.246C3116.98 345.759 3111.78 340.225 3106.24 336.645C3099.73 332.738 3092.57 330.46 3084.76 329.809C3063.6 330.134 3047.81 334.529 3037.39 342.992C3027.3 351.456 3020.96 365.29 3018.35 384.496ZM3200.85 243.383C3210.62 244.359 3218.76 245.173 3225.27 245.824C3232.1 246.475 3237.64 246.964 3241.87 247.289C3246.75 247.615 3250.66 247.777 3253.59 247.777C3256.52 248.103 3260.42 248.103 3265.3 247.777C3269.54 247.452 3275.07 247.126 3281.91 246.801C3288.74 246.15 3297.37 245.173 3307.79 243.871C3305.51 247.126 3303.72 250.056 3302.41 252.66C3301.11 254.939 3299.97 257.055 3299 259.008L3296.07 264.867C3295.42 266.82 3294.76 268.773 3294.11 270.727C3293.46 272.354 3292.81 274.307 3292.16 276.586C3291.83 278.865 3291.51 281.306 3291.18 283.91H3366.38L3359.54 323.461L3290.7 319.555C3289.07 336.156 3287.93 349.014 3287.28 358.129C3286.63 367.243 3285.98 373.917 3285.32 378.148L3284.35 386.938C3283.37 399.307 3282.39 412.816 3281.42 427.465C3280.44 441.788 3280.12 455.134 3280.44 467.504C3280.77 479.874 3281.91 490.29 3283.86 498.754C3285.81 506.892 3289.23 510.961 3294.11 510.961C3299 510.961 3303.55 509.659 3307.79 507.055C3312.02 504.451 3315.6 501.358 3318.53 497.777C3321.78 494.197 3324.22 490.616 3325.85 487.035C3327.48 483.129 3328.29 480.199 3328.29 478.246C3328.29 476.293 3327.8 474.014 3326.83 471.41C3325.2 466.527 3322.27 460.342 3318.04 452.855C3327.48 455.134 3335.78 457.413 3342.94 459.691C3346.52 460.993 3349.78 462.296 3352.71 463.598C3355.96 464.9 3359.71 466.365 3363.94 467.992C3367.52 469.62 3372.08 471.573 3377.61 473.852C3383.14 476.13 3389.65 478.897 3397.14 482.152C3389.98 483.454 3384.77 485.57 3381.52 488.5C3379.56 489.802 3378.1 491.267 3377.12 492.895C3374.84 496.475 3372.24 501.358 3369.31 507.543C3366.38 513.402 3361.98 519.262 3356.12 525.121C3350.27 530.98 3342.29 536.189 3332.2 540.746C3322.43 545.303 3309.25 547.908 3292.65 548.559C3275.4 549.21 3262.21 546.28 3253.1 539.77C3244.31 533.259 3237.8 525.772 3233.57 517.309C3229.66 508.52 3227.38 499.893 3226.73 491.43C3226.08 482.966 3225.59 477.27 3225.27 474.34C3224.94 471.41 3224.94 464.086 3225.27 452.367C3225.59 440.648 3226.08 427.79 3226.73 413.793C3227.38 399.47 3228.03 385.798 3228.68 372.777C3229.33 359.431 3229.66 349.665 3229.66 343.48C3229.66 340.225 3229.82 336.807 3230.15 333.227C3230.15 330.297 3230.15 327.204 3230.15 323.949C3230.47 320.368 3230.64 316.951 3230.64 313.695L3159.84 313.207L3156.91 285.375L3228.2 287.328C3227.54 283.747 3226.73 280.492 3225.75 277.562C3225.1 274.307 3224.45 271.703 3223.8 269.75C3222.82 267.471 3221.85 265.518 3220.87 263.891C3219.57 262.263 3218.1 260.473 3216.48 258.52C3214.85 256.892 3212.73 254.776 3210.13 252.172C3207.52 249.568 3204.43 246.638 3200.85 243.383Z" fill="#CC8000"/>
<path d="M439.605 239.9L491.09 87.1261C491.09 87.1261 507.499 20.5605 328.18 20.5605C148.861 20.5605 144.173 87.1261 144.173 87.1261L206.876 239.9C206.876 239.9 233.246 278.638 319.39 282.458C405.533 286.277 439.605 239.9 439.605 239.9Z" fill="white" stroke="white" stroke-width="20"/>
<path d="M113.288 83.1253C142.381 41.1258 196.363 20.5139 245.353 9.4879C344.193 -12.7575 459.264 3.62955 518.438 63.7804C522.846 67.7103 533.764 84.0791 532.919 90.0566C532.909 90.9178 532.928 91.423 532.895 92.3073C525.113 117.067 509.752 137.337 496.807 158.882C490.72 169.013 482.596 177.293 470.277 180.069C444.12 185.964 422.397 168.069 422.005 139.72C421.605 110.797 421.657 81.8678 421.682 52.9416C421.685 49.2578 420.887 47.2687 417.124 45.7292C354.573 20.1382 291.899 21.3978 228.543 45.2569C225.035 46.5777 223.963 48.2831 223.975 51.9521C224.069 81.4241 224.121 110.899 223.812 140.368C223.647 156.177 217.463 169.112 202.956 176.707C185.029 186.094 164.525 180.516 152.008 163.106C137.579 143.036 105.946 97.5564 113.288 83.1253Z" fill="#333333"/>
<path d="M371.712 131.717C365.966 126.658 363.215 120.916 364.067 113.926C365.154 105.018 372.085 97.9078 380.888 96.3759C389.099 94.9469 397.958 99.6922 401.882 107.622C405.941 115.825 403.812 125.224 396.482 131.459C389.331 137.542 382.016 137.724 371.712 131.717Z" fill="#333333"/>
<path d="M286.343 120.73C282.675 132.751 273.515 138.828 262.784 136.969C253.292 135.324 246.209 126.836 246.345 117.266C246.486 107.232 254.009 98.6391 263.683 97.4625C276.334 95.9235 285.803 105.36 286.343 120.73Z" fill="#333333"/>
<path d="M147.551 710.383C127.909 710.527 108.265 710.151 88.6239 710.563C71.0326 710.933 54.2765 711.219 36.2079 710.992C32.0422 710.94 28.0044 710.519 24.3213 707.313C23.9973 706.567 23.8329 706.279 23.2471 706.03C22.6638 705.769 22.3688 705.523 21.9637 704.984C21.7669 703.65 20.9914 703.383 19.907 702.988C20.2702 701.339 20.2111 699.973 19.0163 698.489C17.201 696.967 17.0473 695.43 18.2891 693.359C21.269 686.639 26.0314 683.332 33.3242 682.919C39.7032 680.946 45.8701 681.67 51.9382 681.266C54.1029 681.123 56.2834 681.296 58.8659 681.182C59.7783 681.028 60.2616 680.867 60.946 680.34C63.1543 672.339 64.9533 664.611 70.6524 658.438C72.9175 655.985 75.6564 654.306 78.4653 651.98C79.1899 651.364 79.6231 651.037 80.4098 650.508C89.065 646.193 97.8973 644.921 107.067 645.437C108.686 645.529 110.313 645.545 111.939 645.48C117.129 645.272 117.129 645.282 114.296 639.969C113.428 638.336 112.953 636.938 112.11 635.326C101.937 615.154 99.8557 594.757 99.7603 572.715C101.858 537.66 117.417 503.231 143.198 479.324C150.76 472.311 153.793 464.997 153.587 454.608C152.881 419.149 158.063 384.295 166.398 349.857C175.087 313.953 185.125 278.405 194.318 242.634C195.35 238.618 194.919 235.331 192.692 231.815C185.946 221.168 180.24 210.011 177.445 197.581C175.864 190.551 176.86 189.375 183.812 189.782C188.712 190.068 193.676 190.511 198.448 189.002C202.881 187.601 205.348 189.305 206.84 193.4C210.305 202.908 215.264 211.596 222.146 219.015C232.25 229.909 243.994 238.183 259.064 240.754C285.876 245.329 307.615 229.7 311.378 203.158C312.22 197.214 311.821 192.343 305.459 188.974C300.521 186.359 296.821 181.795 294.243 176.603C286.985 161.984 296.5 145.81 312.791 145.256C319.517 145.027 326.264 144.97 332.985 145.286C341.155 145.67 347.749 149.048 351.607 156.605C355.587 164.402 355.17 172.052 350.351 179.381C347.617 183.539 344.314 187.253 339.769 189.397C335.675 191.329 334.598 194.35 334.602 198.607C334.629 224.693 357.654 244.538 383.952 240.956C409.286 237.505 424.364 221.263 435.194 199.769C436.174 197.822 436.768 195.697 437.525 193.65C439.005 189.648 441.591 187.82 445.977 188.955C451.52 190.389 457.16 190.046 462.803 189.676C467.712 189.355 468.778 190.414 467.873 195.324C465.633 207.473 461.177 218.829 453.863 228.784C449.717 234.427 449.043 239.62 450.87 246.488C461.856 287.796 473.874 328.845 482.479 370.768C488.538 400.29 491.899 430.033 490.754 460.183C490.521 466.325 492.404 470.884 496.904 475.071C518.619 495.279 533.192 519.844 540.905 548.495C546.635 569.778 546.486 591.871 540.594 613.123C536.84 624.733 533.16 635.928 525.021 646.634C536.486 646.235 546.692 647.967 556.594 645.784C578.602 640.934 588.392 617.391 581.816 602.128C581.517 601.545 581.393 601.316 581.104 600.737C577.634 592.494 570.791 587.504 565.09 581.074C564.074 579.683 563.377 578.548 562.496 577.035C555.506 559.399 570.723 547.507 582.523 549.487C587.667 550.351 592.262 552.566 596.071 555.937C601.615 560.844 607.027 565.952 611.57 572.406C612.295 573.385 612.671 574.094 613.239 575.131C614.276 577.215 615.354 578.839 616.507 580.836C617.126 582.001 617.469 582.896 617.965 584.115C618.35 585.126 618.555 585.82 618.955 586.839C619.437 588.136 619.727 589.108 620.205 590.441C620.651 592.183 620.948 593.549 621.735 595.24C626.38 613.165 622.372 630.987 613.669 647.195C605.128 663.1 592.818 674.673 575.587 681.428C575.243 682.231 574.72 682.294 574.421 682.582C575.007 683.014 574.228 682.494 575.252 682.697C588.422 682.843 601.289 682.91 614.155 682.92C616.694 682.922 619.191 682.952 621.961 684.219C624.673 684.508 625.544 686.221 626.587 688.267C626.813 688.542 626.809 688.552 626.813 688.552C627.078 688.813 627.322 689.089 627.675 689.627C631.269 697.651 628.399 703.422 621.687 708.228C489.195 714.764 278.953 710.942 147.551 710.383Z" fill="#333333"/>
<path d="M231.547 524.05C261.582 494.015 278.508 538.245 327.11 533.333C375.712 528.421 400.831 495.108 416.122 532.788C431.412 570.468 431.958 684.598 431.958 684.598H203.15C203.15 684.598 201.513 554.085 231.547 524.05Z" fill="#333333"/>
<path d="M463.612 463.573C463.372 464.461 463.314 464.957 463.373 465.813C464.561 468.419 464.161 470.822 464.164 473.16C464.209 508.967 464.18 544.774 464.182 580.581C464.184 614.535 464.299 648.489 463.931 682.963C462.859 684.615 461.544 684.455 460.281 684.455C436.993 684.458 413.704 684.457 390.516 684.457C389.662 683.496 390.162 682.739 390.522 681.903C408.508 640.156 411.241 597.614 397.093 554.218C393.435 542.995 389.54 531.848 386.008 520.587C384.819 516.796 383.527 516.666 380.549 518.942C361.14 533.774 339.018 539.318 314.938 537.183C295.996 535.504 279.019 528.451 264.245 516.507C260.947 513.841 259.063 513.729 256.3 516.927C231.759 545.329 212.817 576.398 208.166 614.645C205.233 638.771 208.811 661.359 222.361 681.929C222.745 682.511 223.043 683.15 223.763 684.452C210.111 684.452 196.961 684.444 183.812 684.46C181.69 684.463 181.615 683.056 181.617 681.516C181.62 679.151 181.585 676.785 181.592 674.42C181.785 606.364 181.901 538.308 182.211 470.253C182.375 434.236 188.058 398.891 195.998 363.864C201.505 339.57 209.017 315.836 216.336 292.051C216.649 291.034 217.163 290.078 217.706 288.809C232.045 297.927 246.852 305.528 262.948 310.325C269.376 312.241 275.868 313.974 282.403 315.476C285.087 316.093 286.038 317.005 286.418 319.962C289.821 346.41 316.073 361.333 339.902 350.233C352.344 344.437 359.269 334.04 361.218 320.574C361.692 317.296 362.719 316.007 365.884 315.256C387.598 310.103 408.087 302 426.831 288.908C445.419 344.703 460.226 400.947 463.25 460.228C463.831 461.482 464.035 462.294 463.612 463.573Z" fill="white"/>
<path d="M244.054 485.253C240.853 486.224 238.084 487.142 235.254 487.798C231.395 488.693 227.536 488.404 226.353 483.957C225.258 479.842 228.291 477.503 231.791 476.364C237.483 474.511 243.315 473.09 249.032 471.309C250.327 470.906 252.802 471.256 252.245 468.652C251.789 466.516 249.864 467.461 248.622 467.478C242.439 467.562 236.255 467.744 230.078 468.033C225.76 468.234 221.758 467.851 221.009 462.574C220.435 458.528 223.829 456.169 229.697 456.159C235.337 456.149 240.996 455.889 246.612 456.268C251.109 456.571 252.684 455.748 252.608 450.556C252.242 425.635 252.462 400.706 252.484 375.78C252.484 375.249 252.607 374.719 252.683 374.108C255.148 373.748 256.72 375.541 258.568 376.507C270.793 382.895 283.023 389.275 295.126 395.887C296.933 396.874 298.085 396.461 299.59 395.853C315.405 389.461 331.426 389.055 347.51 394.605C349.825 395.404 351.189 394.663 352.989 393.73C365.235 387.385 377.563 381.197 389.79 374.815C393.088 373.093 393.955 373.584 393.957 377.432C393.968 401.994 394.296 426.555 394.26 451.117C394.254 455.14 395.164 456.544 399.365 456.291C405.71 455.907 412.098 456.295 418.462 456.136C423.08 456.021 425.417 458.473 425.389 462.641C425.359 466.976 422.225 468.318 418.223 468.173C411.315 467.922 404.405 467.749 397.494 467.606C396.146 467.578 394.165 467.03 393.891 468.945C393.624 470.812 395.715 470.959 396.981 471.413C402.445 473.375 407.957 475.204 413.444 477.102C416.945 478.313 419.387 480.478 417.897 484.426C416.513 488.093 413.796 489.698 409.637 488.167C404.872 486.414 399.784 485.427 395.207 483.308C391.004 481.362 389.19 482.768 387.21 486.319C377.351 504.007 362.027 514.682 342.702 519.637C310.027 528.016 277.577 514.658 259.559 485.445C257.361 481.881 255.584 480.442 251.641 482.543C249.425 483.724 246.865 484.258 244.054 485.253Z" fill="#333333"/>
<path d="M370.432 485.94C356.963 501.234 340.436 507.573 320.514 505.675C306.775 504.366 293.352 487.337 303.192 471.864C306.124 467.254 308.817 462.461 312.513 458.452C324.959 444.954 321.504 425.919 310.981 414.324C309.063 412.211 306.926 410.297 304.779 408.181C335.102 396.422 371.748 414.098 379.376 443.893C383.293 459.192 379.853 473.024 370.432 485.94Z" fill="white"/>
<path d="M328.742 472.668C331.08 479.639 333.372 480.999 339.412 479.002C340.993 478.479 342.216 478.216 343.19 479.737C344.221 481.348 343.608 482.932 342.782 484.369C340.279 488.72 333.239 489.959 328.178 486.88C326.647 485.948 325.33 484.663 323.806 483.452C320.69 487.021 316.878 489.23 311.961 488.856C309.331 488.656 306.961 487.859 305.592 485.318C304.776 483.803 304.363 482.304 305.467 480.719C306.541 479.176 307.787 479.526 309.296 480.033C311.618 480.814 313.937 480.656 316.092 479.254C320.045 476.682 320.606 472.238 317.283 468.899C315.168 466.775 313.163 464.632 314.373 461.312C315.521 458.163 318.393 457.159 321.235 456.617C324.269 456.038 327.412 456.068 330.268 457.679C334.452 460.04 335.062 463.925 331.866 467.466C330.571 468.901 328.661 469.947 328.742 472.668Z" fill="#333333"/>
<path d="M337.807 442.961C341.265 436.759 345.733 434.269 351.002 435.25C356.66 436.304 360.252 439.908 360.721 445.003C361.364 451.975 356.29 457.936 349.623 458.042C342.556 458.153 337.323 451.72 337.807 442.961Z" fill="#333333"/>
<path d="M255.246 545.094C253.021 543.841 251.537 542.957 253.567 540.431C255.74 537.728 256.981 539.92 258.428 540.922C290.914 563.425 325.909 569.215 363.627 556.695C367.067 555.553 370.484 554.205 373.689 552.527C376.668 550.967 377.947 551.461 379.102 554.708C384.939 571.122 388.204 587.945 388.215 605.407C388.231 631.661 382.98 656.635 370.549 679.922C368.427 683.898 362.223 686.184 358.304 684.459C356.171 683.519 357.132 681.632 357.116 680.193C356.996 668.912 356.971 657.63 356.983 646.348C356.986 643.591 356.682 640.889 355.81 638.298C354.148 633.36 350.019 630.559 344.993 630.885C339.444 631.245 336.849 634.944 336.386 639.82C335.803 645.955 335.956 652.166 335.928 658.345C335.893 665.805 335.865 673.269 336.111 680.723C336.214 683.845 335.222 684.786 332.122 684.689C325.396 684.479 318.658 684.579 311.927 684.682C309.601 684.717 308.254 684.424 308.284 681.514C308.464 664.047 308.459 646.579 308.545 629.112C308.738 589.72 287.61 567.95 255.246 545.094Z" fill="white"/>
<path d="M246.191 259.319C262.603 265.383 278.706 264.889 294.643 259.52C306.121 255.653 314.103 247.169 320.916 237.9C351.552 273.043 385.253 269.248 420.489 245.472C423.253 254.574 423.244 254.561 415.926 259.837C396.567 273.794 374.885 282.066 351.497 286.137C348.433 286.67 345.744 286.146 342.784 284.496C328.984 276.803 315.129 276.686 301.58 285.417C300.287 286.251 299.344 287.192 297.271 286.838C271.201 282.38 246.675 273.982 224.69 258.963C217.232 253.868 217.291 253.782 220.509 244.707C228.294 250.801 236.704 255.599 246.191 259.319Z" fill="white"/>
<circle cx="321.652" cy="576.122" r="18.0208" fill="#333333"/>
</g>
<defs>
<clipPath id="clip0_395_598">
<rect width="3397" height="712" fill="white"/>
</clipPath>
</defs>
</svg>
