<svg width="3131" height="712" viewBox="0 0 3131 712" fill="none" xmlns="http://www.w3.org/2000/svg">
<rect width="3131" height="712" fill="white"/>
<path d="M802.227 585V294.091H976.659V325.341H837.455V423.636H963.591V454.886H837.455V585H802.227ZM1032.45 585V366.818H1065.97V585H1032.45ZM1049.49 330.455C1042.96 330.455 1037.32 328.229 1032.59 323.778C1027.95 319.328 1025.63 313.977 1025.63 307.727C1025.63 301.477 1027.95 296.127 1032.59 291.676C1037.32 287.225 1042.96 285 1049.49 285C1056.03 285 1061.61 287.225 1066.25 291.676C1070.99 296.127 1073.36 301.477 1073.36 307.727C1073.36 313.977 1070.99 319.328 1066.25 323.778C1061.61 328.229 1056.03 330.455 1049.49 330.455ZM1160.89 453.75V585H1127.37V366.818H1159.76V400.909H1162.6C1167.71 389.83 1175.48 380.928 1185.89 374.205C1196.31 367.386 1209.76 363.977 1226.23 363.977C1241.01 363.977 1253.93 367.008 1265.01 373.068C1276.09 379.034 1284.71 388.125 1290.86 400.341C1297.02 412.462 1300.1 427.803 1300.1 446.364V585H1266.57V448.636C1266.57 431.496 1262.12 418.144 1253.22 408.58C1244.32 398.92 1232.1 394.091 1216.57 394.091C1205.87 394.091 1196.31 396.411 1187.88 401.051C1179.55 405.691 1172.97 412.462 1168.14 421.364C1163.31 430.265 1160.89 441.061 1160.89 453.75ZM1443.74 589.545C1425.56 589.545 1409.51 584.953 1395.59 575.767C1381.67 566.487 1370.78 553.419 1362.92 536.562C1355.06 519.612 1351.13 499.583 1351.13 476.477C1351.13 453.561 1355.06 433.674 1362.92 416.818C1370.78 399.962 1381.71 386.941 1395.73 377.756C1409.74 368.57 1425.94 363.977 1444.31 363.977C1458.51 363.977 1469.73 366.345 1477.97 371.08C1486.31 375.72 1492.65 381.023 1497.01 386.989C1501.46 392.86 1504.91 397.689 1507.38 401.477H1510.22V294.091H1543.74V585H1511.35V551.477H1507.38C1504.91 555.455 1501.41 560.473 1496.87 566.534C1492.32 572.5 1485.83 577.85 1477.4 582.585C1468.98 587.225 1457.76 589.545 1443.74 589.545ZM1448.29 559.432C1461.73 559.432 1473.1 555.928 1482.38 548.92C1491.66 541.818 1498.71 532.017 1503.54 519.517C1508.37 506.922 1510.79 492.386 1510.79 475.909C1510.79 459.621 1508.42 445.369 1503.68 433.153C1498.95 420.843 1491.94 411.278 1482.66 404.46C1473.38 397.547 1461.92 394.091 1448.29 394.091C1434.08 394.091 1422.24 397.737 1412.77 405.028C1403.4 412.225 1396.34 422.027 1391.61 434.432C1386.97 446.742 1384.65 460.568 1384.65 475.909C1384.65 491.439 1387.02 505.549 1391.75 518.239C1396.58 530.833 1403.68 540.871 1413.06 548.352C1422.53 555.739 1434.27 559.432 1448.29 559.432ZM1726.84 294.091H1768.88L1867.75 535.568H1871.15L1970.02 294.091H2012.06V585H1979.11V363.977H1976.27L1885.36 585H1853.54L1762.63 363.977H1759.79V585H1726.84V294.091ZM2099.74 666.818C2094.06 666.818 2088.99 666.345 2084.54 665.398C2080.09 664.545 2077.01 663.693 2075.31 662.841L2083.83 633.295C2091.98 635.379 2099.17 636.136 2105.42 635.568C2111.67 635 2117.21 632.206 2122.04 627.188C2126.97 622.263 2131.46 614.261 2135.54 603.182L2141.79 586.136L2061.11 366.818H2097.47L2157.7 540.682H2159.97L2220.2 366.818H2256.56L2163.95 616.818C2159.78 628.087 2154.62 637.415 2148.46 644.801C2142.31 652.282 2135.16 657.822 2127.01 661.42C2118.96 665.019 2109.87 666.818 2099.74 666.818ZM2417.85 585V294.091H2516.15C2538.97 294.091 2557.63 298.21 2572.11 306.449C2586.7 314.593 2597.49 325.625 2604.5 339.545C2611.51 353.466 2615.01 368.996 2615.01 386.136C2615.01 403.277 2611.51 418.854 2604.5 432.869C2597.59 446.884 2586.89 458.059 2572.4 466.392C2557.91 474.631 2539.35 478.75 2516.72 478.75H2446.26V447.5H2515.58C2531.2 447.5 2543.75 444.801 2553.22 439.403C2562.69 434.006 2569.56 426.714 2573.82 417.528C2578.17 408.248 2580.35 397.784 2580.35 386.136C2580.35 374.489 2578.17 364.072 2573.82 354.886C2569.56 345.701 2562.64 338.504 2553.08 333.295C2543.52 327.992 2530.83 325.341 2515.01 325.341H2453.08V585H2417.85ZM2756.35 589.545C2735.32 589.545 2717.19 584.905 2701.94 575.625C2686.79 566.25 2675.1 553.182 2666.86 536.42C2658.71 519.564 2654.64 499.962 2654.64 477.614C2654.64 455.265 2658.71 435.568 2666.86 418.523C2675.1 401.383 2686.55 388.03 2701.23 378.466C2716.01 368.807 2733.24 363.977 2752.94 363.977C2764.3 363.977 2775.52 365.871 2786.6 369.659C2797.68 373.447 2807.77 379.602 2816.86 388.125C2825.95 396.553 2833.19 407.727 2838.59 421.648C2843.99 435.568 2846.69 452.708 2846.69 473.068V487.273H2678.51V458.295H2812.6C2812.6 445.985 2810.13 435 2805.21 425.341C2800.38 415.682 2793.47 408.059 2784.47 402.472C2775.57 396.884 2765.06 394.091 2752.94 394.091C2739.59 394.091 2728.03 397.405 2718.28 404.034C2708.62 410.568 2701.19 419.091 2695.98 429.602C2690.77 440.114 2688.16 451.383 2688.16 463.409V482.727C2688.16 499.205 2691.01 513.172 2696.69 524.631C2702.46 535.994 2710.47 544.659 2720.69 550.625C2730.92 556.496 2742.8 559.432 2756.35 559.432C2765.15 559.432 2773.11 558.201 2780.21 555.739C2787.41 553.182 2793.61 549.394 2798.82 544.375C2804.03 539.261 2808.05 532.917 2810.89 525.341L2843.28 534.432C2839.87 545.417 2834.14 555.076 2826.09 563.409C2818.04 571.648 2808.1 578.087 2796.26 582.727C2784.42 587.273 2771.12 589.545 2756.35 589.545ZM2992.57 366.818V395.227H2879.5V366.818H2992.57ZM2912.45 314.545H2945.98V522.5C2945.98 531.97 2947.35 539.072 2950.1 543.807C2952.94 548.447 2956.54 551.572 2960.89 553.182C2965.34 554.697 2970.03 555.455 2974.95 555.455C2978.65 555.455 2981.68 555.265 2984.05 554.886C2986.41 554.413 2988.31 554.034 2989.73 553.75L2996.55 583.864C2994.27 584.716 2991.1 585.568 2987.03 586.42C2982.96 587.367 2977.8 587.841 2971.55 587.841C2962.08 587.841 2952.8 585.805 2943.7 581.733C2934.71 577.661 2927.23 571.458 2921.26 563.125C2915.39 554.792 2912.45 544.28 2912.45 531.591V314.545Z" fill="#023A00"/>
<path d="M784 649H2048.5" stroke="#023A00" stroke-width="30"/>
<path d="M2184 649H3008.5" stroke="#023A00" stroke-width="30"/>
<path d="M225.001 205C225.001 205 249.501 300.5 358.001 300.5C466.501 300.5 490.001 205 490.001 205" stroke="#023A00" stroke-width="30"/>
<path d="M265.744 274.125C265.744 274.125 224.042 314.871 221.145 420.494C218.248 526.118 207.037 662.661 252.535 664.736" stroke="#023A00" stroke-width="30"/>
<path d="M213.665 488.025C213.665 488.025 144.551 494.184 124.939 555.259C105.327 616.334 148.333 663.115 193.843 664.749" stroke="#023A00" stroke-width="30"/>
<path d="M515.762 334.831C517.236 342.983 511.822 350.786 503.67 352.261C495.518 353.735 487.715 348.322 486.24 340.17L515.762 334.831ZM457.001 271.125C464.187 257.958 464.193 257.962 464.199 257.965C464.202 257.966 464.208 257.97 464.212 257.972C464.221 257.977 464.231 257.982 464.241 257.988C464.261 257.999 464.284 258.011 464.308 258.025C464.357 258.052 464.415 258.085 464.481 258.122C464.614 258.197 464.78 258.292 464.978 258.408C465.374 258.64 465.899 258.955 466.535 259.356C467.806 260.156 469.531 261.302 471.58 262.812C475.67 265.826 481.105 270.332 486.813 276.49C498.259 288.835 510.898 307.941 515.762 334.831L486.24 340.17C482.604 320.06 473.243 305.978 464.814 296.886C460.585 292.325 456.613 289.049 453.781 286.962C452.369 285.921 451.254 285.186 450.551 284.743C450.2 284.522 449.953 284.375 449.825 284.3C449.761 284.263 449.727 284.243 449.725 284.242C449.724 284.241 449.73 284.245 449.745 284.253C449.753 284.258 449.762 284.263 449.774 284.269C449.78 284.272 449.786 284.276 449.793 284.28C449.796 284.281 449.802 284.284 449.803 284.285C449.809 284.288 449.815 284.292 457.001 271.125Z" fill="#023A00"/>
<path d="M152.001 123.5C152.001 123.5 263.501 45.5 359.501 45.5C455.501 45.5 557.001 123.5 557.001 123.5" stroke="#023A00" stroke-width="30"/>
<path d="M245.004 74.885C245.004 74.885 241.501 252 197.394 203.129C153.287 154.259 116.588 124.154 191.501 98.9999" stroke="#023A00" stroke-width="30"/>
<path d="M468.906 74.8855C468.906 74.8855 472.409 252 516.516 203.13C560.623 154.259 591.43 122.154 516.516 97" stroke="#023A00" stroke-width="30"/>
<circle cx="311.001" cy="132" r="20" fill="#023A00"/>
<circle cx="410.001" cy="132" r="20" fill="#023A00"/>
<path d="M177.501 665.5H587.501" stroke="#023A00" stroke-width="30" stroke-linecap="round"/>
<path d="M327.001 474.5V654" stroke="#023A00" stroke-width="30" stroke-linecap="round"/>
<circle cx="357.501" cy="348.5" r="37.5" stroke="#023A00" stroke-width="30"/>
<path d="M443.179 511.669C443.179 511.669 426.093 522.31 411.351 573.604C396.61 624.898 421.725 662.061 460.873 663.469" stroke="#023A00" stroke-width="30"/>
<path d="M556.87 511.669C556.87 511.669 574.674 524.891 589.416 576.185C604.157 627.479 578.324 662.061 539.176 663.469" stroke="#023A00" stroke-width="30"/>
<path d="M434.501 486C434.501 486 450.207 527 499.854 527C549.501 527 568.001 486 568.001 486" stroke="#023A00" stroke-width="25" stroke-linecap="round"/>
<path d="M428.001 441C428.001 441 442.144 388 499.572 388C557.001 388 572.001 441 572.001 441" stroke="#023A00" stroke-width="25" stroke-linecap="round"/>
<path d="M480.001 609V660M527.001 609V660" stroke="#023A00" stroke-width="30" stroke-linecap="round"/>
<path d="M522.001 549C522.001 560.205 513.113 569 502.501 569C491.889 569 483.001 560.205 483.001 549C483.001 537.795 491.889 529 502.501 529C513.113 529 522.001 537.795 522.001 549Z" stroke="#023A00" stroke-width="20"/>
<path d="M431.001 422V362.939C431.001 354.059 441.713 349.584 448.03 355.826L473.001 380.5" stroke="#023A00" stroke-width="20" stroke-linecap="round"/>
<path d="M570.001 422V363.351C570.001 354.412 559.169 349.964 552.887 356.322L529.001 380.5" stroke="#023A00" stroke-width="20" stroke-linecap="round"/>
<path d="M570.001 447L608.001 437" stroke="#023A00" stroke-width="15" stroke-linecap="round"/>
<path d="M572.123 464.443L609.716 470.681" stroke="#023A00" stroke-width="15" stroke-linecap="round"/>
<path d="M426.492 464.443L388.899 470.681" stroke="#023A00" stroke-width="15" stroke-linecap="round"/>
<path d="M428.001 447L391.001 437" stroke="#023A00" stroke-width="15" stroke-linecap="round"/>
<circle cx="472.001" cy="446" r="11" fill="#023A00"/>
<circle cx="524.001" cy="446" r="11" fill="#023A00"/>
<path d="M579.001 656.893C579.001 656.893 653.67 662.971 633.182 583.54C612.694 504.108 678.123 510.73 673.795 531.935" stroke="#023A00" stroke-width="30" stroke-linecap="round"/>
<path d="M333.217 171.308C337.725 194.614 352.884 205.102 359.984 205.103C367.083 205.103 378.218 194.065 384.139 171.308C387.045 160.14 373.747 157.295 359.984 157.02C345.704 156.734 330.922 159.441 333.217 171.308Z" fill="#023A00" stroke="#023A00"/>
<path d="M412.841 218.164C414.765 212.597 412.396 206.721 407.55 205.039C402.704 203.358 397.216 206.509 395.293 212.076L412.841 218.164ZM359.634 195.012C350.396 193.722 350.395 193.727 350.394 193.731C350.394 193.733 350.393 193.737 350.393 193.74C350.392 193.747 350.39 193.753 350.389 193.761C350.386 193.775 350.383 193.792 350.38 193.81C350.374 193.846 350.366 193.889 350.357 193.94C350.34 194.04 350.318 194.168 350.293 194.322C350.243 194.63 350.18 195.043 350.112 195.549C349.976 196.558 349.818 197.951 349.703 199.621C349.477 202.921 349.406 207.516 350.11 212.474C351.519 222.408 356.386 235.241 370.46 239.949L377.256 219.73C371.841 217.918 369.595 213.337 368.765 207.488C368.349 204.554 368.377 201.664 368.528 199.453C368.603 198.368 368.703 197.498 368.779 196.934C368.817 196.653 368.848 196.451 368.866 196.341C368.875 196.287 368.881 196.255 368.882 196.248C368.882 196.244 368.882 196.247 368.88 196.256C368.88 196.26 368.878 196.266 368.877 196.274C368.876 196.278 368.876 196.282 368.875 196.287C368.874 196.289 368.874 196.293 368.873 196.294C368.873 196.298 368.872 196.302 359.634 195.012ZM370.46 239.949C381.461 243.629 391.112 243.429 399.112 238.11C406.876 232.947 410.649 224.51 412.841 218.164L395.293 212.076C393.563 217.083 391.976 219.265 390.488 220.254C389.237 221.086 385.745 222.57 377.256 219.73L370.46 239.949Z" fill="#023A00"/>
<path d="M305.106 219.5C303.182 213.932 305.551 208.056 310.397 206.375C315.243 204.694 320.731 207.845 322.654 213.412L305.106 219.5ZM358.313 196.348C367.551 195.058 367.552 195.063 367.553 195.067C367.553 195.069 367.554 195.073 367.554 195.076C367.556 195.083 367.557 195.089 367.558 195.097C367.561 195.111 367.564 195.128 367.567 195.146C367.574 195.182 367.581 195.225 367.59 195.275C367.608 195.376 367.629 195.504 367.654 195.658C367.704 195.966 367.767 196.379 367.835 196.885C367.971 197.894 368.129 199.287 368.244 200.957C368.47 204.257 368.541 208.852 367.838 213.81C366.428 223.744 361.562 236.576 347.487 241.285L340.691 221.066C346.106 219.254 348.352 214.673 349.182 208.824C349.598 205.89 349.571 203 349.419 200.789C349.345 199.704 349.244 198.834 349.168 198.27C349.13 197.989 349.099 197.787 349.081 197.677C349.072 197.623 349.067 197.591 349.065 197.584C349.065 197.58 349.065 197.583 349.067 197.592C349.068 197.596 349.069 197.602 349.07 197.61C349.071 197.614 349.072 197.618 349.073 197.623C349.073 197.625 349.074 197.629 349.074 197.63C349.075 197.634 349.075 197.638 358.313 196.348ZM347.487 241.285C336.487 244.965 326.836 244.765 318.835 239.445C311.072 234.283 307.298 225.846 305.106 219.5L322.654 213.412C324.384 218.419 325.971 220.601 327.459 221.59C328.71 222.422 332.202 223.906 340.691 221.066L347.487 241.285Z" fill="#023A00"/>
<path d="M487.705 464.25C489.674 474.429 496.295 479.01 499.396 479.01C502.497 479.01 507.361 474.189 509.947 464.25C511.216 459.371 505.408 458.129 499.396 458.009C493.159 457.884 486.703 459.066 487.705 464.25Z" fill="#023A00" stroke="#023A00"/>
<path d="M505.456 489.815L504.267 493.354L505.456 489.815ZM521.722 484.451C522.395 482.503 521.566 480.446 519.87 479.858C518.174 479.269 516.253 480.372 515.58 482.321L521.722 484.451ZM499.243 474.603C496.01 474.152 496.01 474.153 496.01 474.155C496.009 474.155 496.009 474.157 496.009 474.158C496.008 474.161 496.008 474.163 496.008 474.166C496.007 474.171 496.005 474.177 496.004 474.184C496.002 474.198 495.999 474.215 495.995 474.235C495.988 474.275 495.979 474.326 495.969 474.389C495.949 474.515 495.923 474.687 495.894 474.898C495.838 475.319 495.771 475.905 495.723 476.609C495.627 478.003 495.598 479.936 495.893 482.014C496.483 486.176 498.495 491.423 504.267 493.354L506.645 486.277C503.905 485.36 502.81 483.001 502.422 480.269C502.228 478.899 502.242 477.563 502.311 476.55C502.346 476.051 502.392 475.648 502.428 475.382C502.446 475.25 502.461 475.153 502.47 475.096C502.474 475.068 502.478 475.05 502.479 475.043C502.479 475.039 502.48 475.038 502.479 475.04C502.479 475.041 502.479 475.043 502.478 475.045C502.478 475.047 502.478 475.048 502.478 475.05C502.477 475.05 502.477 475.052 502.477 475.052C502.477 475.053 502.477 475.055 499.243 474.603ZM504.267 493.354C508.963 494.924 512.911 494.781 516.112 492.653C519.231 490.579 520.784 487.165 521.722 484.451L515.58 482.321C514.804 484.566 514.016 485.79 513.094 486.403C512.255 486.961 510.462 487.554 506.645 486.277L504.267 493.354Z" fill="#023A00"/>
<path d="M492.453 490.399L493.642 493.937L492.453 490.399ZM476.187 485.035C475.514 483.086 476.343 481.03 478.039 480.441C479.735 479.853 481.656 480.956 482.329 482.904L476.187 485.035ZM498.666 475.187C501.899 474.735 501.899 474.737 501.9 474.738C501.9 474.739 501.9 474.741 501.9 474.742C501.901 474.744 501.901 474.747 501.902 474.749C501.903 474.755 501.904 474.761 501.905 474.768C501.908 474.782 501.911 474.799 501.914 474.818C501.921 474.858 501.93 474.91 501.94 474.973C501.96 475.099 501.986 475.27 502.015 475.481C502.072 475.903 502.138 476.488 502.187 477.193C502.282 478.587 502.311 480.52 502.016 482.597C501.426 486.759 499.414 492.006 493.642 493.937L491.264 486.86C494.005 485.943 495.099 483.584 495.487 480.852C495.681 479.483 495.667 478.147 495.598 477.134C495.564 476.634 495.517 476.232 495.481 475.966C495.463 475.834 495.448 475.736 495.439 475.68C495.435 475.652 495.432 475.633 495.43 475.626C495.43 475.623 495.43 475.622 495.43 475.624C495.43 475.625 495.43 475.627 495.431 475.629C495.431 475.63 495.431 475.631 495.432 475.633C495.432 475.634 495.432 475.635 495.432 475.636C495.432 475.637 495.433 475.638 498.666 475.187ZM493.642 493.937C488.946 495.508 484.998 495.365 481.797 493.236C478.678 491.163 477.125 487.749 476.187 485.035L482.329 482.904C483.105 485.149 483.893 486.374 484.815 486.987C485.654 487.545 487.447 488.137 491.264 486.86L493.642 493.937Z" fill="#023A00"/>
</svg>
