<svg width="3138" height="712" viewBox="0 0 3138 712" fill="none" xmlns="http://www.w3.org/2000/svg">
<rect width="3138" height="712" fill="white"/>
<path d="M225 205C225 205 249.5 300.5 358 300.5C466.5 300.5 490 205 490 205" stroke="#4A3020" stroke-width="30"/>
<path d="M265.744 274.125C265.744 274.125 224.042 314.871 221.145 420.494C218.248 526.118 207.037 662.661 252.535 664.736" stroke="#4A3020" stroke-width="30"/>
<path d="M213.664 488.025C213.664 488.025 144.55 494.184 124.938 555.259C105.326 616.334 148.332 663.115 193.843 664.749" stroke="#4A3020" stroke-width="30"/>
<path d="M515.761 334.831C517.235 342.983 511.821 350.786 503.669 352.261C495.517 353.735 487.714 348.322 486.239 340.17L515.761 334.831ZM457 271.125C464.186 257.958 464.192 257.962 464.198 257.965C464.201 257.966 464.207 257.97 464.211 257.972C464.22 257.977 464.23 257.982 464.24 257.988C464.26 257.999 464.283 258.011 464.307 258.025C464.356 258.052 464.414 258.085 464.48 258.122C464.613 258.197 464.779 258.292 464.977 258.408C465.373 258.64 465.898 258.955 466.534 259.356C467.805 260.156 469.53 261.302 471.579 262.812C475.669 265.826 481.104 270.332 486.812 276.49C498.258 288.835 510.897 307.941 515.761 334.831L486.239 340.17C482.603 320.06 473.242 305.978 464.813 296.886C460.584 292.325 456.612 289.049 453.78 286.962C452.368 285.921 451.253 285.186 450.55 284.743C450.199 284.522 449.952 284.375 449.824 284.3C449.76 284.263 449.726 284.243 449.724 284.242C449.723 284.241 449.729 284.245 449.744 284.253C449.752 284.258 449.761 284.263 449.773 284.269C449.779 284.272 449.785 284.276 449.792 284.28C449.795 284.281 449.801 284.284 449.802 284.285C449.808 284.288 449.814 284.292 457 271.125Z" fill="#4A3020"/>
<path d="M152 123.5C152 123.5 263.5 45.5 359.5 45.5C455.5 45.5 557 123.5 557 123.5" stroke="#4A3020" stroke-width="30"/>
<path d="M245.004 74.885C245.004 74.885 241.501 252 197.394 203.129C153.287 154.259 116.588 124.154 191.501 98.9999" stroke="#4A3020" stroke-width="30"/>
<path d="M468.906 74.8855C468.906 74.8855 472.409 252 516.516 203.13C560.623 154.259 591.43 122.154 516.516 97" stroke="#4A3020" stroke-width="30"/>
<circle cx="311" cy="132" r="20" fill="#4A3020"/>
<circle cx="410" cy="132" r="20" fill="#4A3020"/>
<path d="M177.5 665.5H587.5" stroke="#4A3020" stroke-width="30" stroke-linecap="round"/>
<path d="M327 474.5V654" stroke="#4A3020" stroke-width="30" stroke-linecap="round"/>
<circle cx="357.5" cy="348.5" r="37.5" stroke="#4A3020" stroke-width="30"/>
<path d="M443.179 511.669C443.179 511.669 426.093 522.31 411.351 573.604C396.61 624.898 421.725 662.061 460.873 663.469" stroke="#4A3020" stroke-width="30"/>
<path d="M556.87 511.669C556.87 511.669 574.674 524.891 589.416 576.185C604.157 627.479 578.324 662.061 539.176 663.469" stroke="#4A3020" stroke-width="30"/>
<path d="M434.5 486C434.5 486 450.206 527 499.853 527C549.5 527 568 486 568 486" stroke="#4A3020" stroke-width="25" stroke-linecap="round"/>
<path d="M428 441C428 441 442.143 388 499.571 388C557 388 572 441 572 441" stroke="#4A3020" stroke-width="25" stroke-linecap="round"/>
<path d="M480 609V660M527 609V660" stroke="#4A3020" stroke-width="30" stroke-linecap="round"/>
<path d="M522 549C522 560.205 513.112 569 502.5 569C491.888 569 483 560.205 483 549C483 537.795 491.888 529 502.5 529C513.112 529 522 537.795 522 549Z" stroke="#4A3020" stroke-width="20"/>
<path d="M431 422V362.939C431 354.059 441.712 349.584 448.029 355.826L473 380.5" stroke="#4A3020" stroke-width="20" stroke-linecap="round"/>
<path d="M570 422V363.351C570 354.412 559.168 349.964 552.886 356.322L529 380.5" stroke="#4A3020" stroke-width="20" stroke-linecap="round"/>
<path d="M570 447L608 437" stroke="#4A3020" stroke-width="15" stroke-linecap="round"/>
<path d="M572.123 464.443L609.716 470.681" stroke="#4A3020" stroke-width="15" stroke-linecap="round"/>
<path d="M426.492 464.443L388.899 470.681" stroke="#4A3020" stroke-width="15" stroke-linecap="round"/>
<path d="M428 447L391 437" stroke="#4A3020" stroke-width="15" stroke-linecap="round"/>
<circle cx="472" cy="446" r="11" fill="#4A3020"/>
<circle cx="524" cy="446" r="11" fill="#4A3020"/>
<path d="M579 656.893C579 656.893 653.669 662.971 633.181 583.54C612.693 504.108 678.122 510.73 673.794 531.935" stroke="#4A3020" stroke-width="30" stroke-linecap="round"/>
<path d="M333.217 171.308C337.725 194.614 352.884 205.102 359.984 205.103C367.083 205.103 378.218 194.065 384.139 171.308C387.045 160.14 373.747 157.295 359.984 157.02C345.704 156.734 330.922 159.441 333.217 171.308Z" fill="#4A3020" stroke="#4A3020"/>
<path d="M412.839 218.164C414.763 212.597 412.394 206.721 407.548 205.039C402.702 203.358 397.214 206.509 395.291 212.076L412.839 218.164ZM359.632 195.012C350.394 193.722 350.393 193.727 350.393 193.731C350.392 193.733 350.391 193.737 350.391 193.74C350.39 193.747 350.388 193.753 350.387 193.761C350.384 193.775 350.381 193.792 350.378 193.81C350.372 193.846 350.364 193.889 350.355 193.94C350.338 194.04 350.316 194.168 350.291 194.322C350.241 194.63 350.178 195.043 350.11 195.549C349.974 196.558 349.816 197.951 349.701 199.621C349.475 202.921 349.404 207.516 350.108 212.474C351.517 222.408 356.384 235.241 370.458 239.949L377.254 219.73C371.839 217.918 369.593 213.337 368.763 207.488C368.347 204.554 368.375 201.664 368.526 199.453C368.601 198.368 368.702 197.498 368.777 196.934C368.815 196.653 368.846 196.451 368.864 196.341C368.873 196.287 368.879 196.255 368.88 196.248C368.88 196.244 368.88 196.247 368.878 196.256C368.878 196.26 368.877 196.266 368.875 196.274C368.874 196.278 368.874 196.282 368.873 196.287C368.872 196.289 368.872 196.293 368.871 196.294C368.871 196.298 368.87 196.302 359.632 195.012ZM370.458 239.949C381.459 243.629 391.11 243.429 399.11 238.11C406.874 232.947 410.647 224.51 412.839 218.164L395.291 212.076C393.561 217.083 391.975 219.265 390.487 220.254C389.235 221.086 385.743 222.57 377.254 219.73L370.458 239.949Z" fill="#4A3020"/>
<path d="M305.106 219.5C303.182 213.932 305.551 208.056 310.397 206.375C315.243 204.694 320.731 207.845 322.654 213.412L305.106 219.5ZM358.313 196.348C367.551 195.058 367.552 195.063 367.553 195.067C367.553 195.069 367.554 195.073 367.554 195.076C367.556 195.083 367.557 195.089 367.558 195.097C367.561 195.111 367.564 195.128 367.567 195.146C367.574 195.182 367.581 195.225 367.59 195.275C367.608 195.376 367.629 195.504 367.654 195.658C367.704 195.966 367.767 196.379 367.835 196.885C367.971 197.894 368.129 199.287 368.244 200.957C368.47 204.257 368.541 208.852 367.838 213.81C366.428 223.744 361.562 236.576 347.487 241.285L340.691 221.066C346.106 219.254 348.352 214.673 349.182 208.824C349.598 205.89 349.571 203 349.419 200.789C349.345 199.704 349.244 198.834 349.168 198.27C349.13 197.989 349.099 197.787 349.081 197.677C349.072 197.623 349.067 197.591 349.065 197.584C349.065 197.58 349.065 197.583 349.067 197.592C349.068 197.596 349.069 197.602 349.07 197.61C349.071 197.614 349.072 197.618 349.073 197.623C349.073 197.625 349.074 197.629 349.074 197.63C349.075 197.634 349.075 197.638 358.313 196.348ZM347.487 241.285C336.487 244.965 326.836 244.765 318.835 239.445C311.072 234.283 307.298 225.846 305.106 219.5L322.654 213.412C324.384 218.419 325.971 220.601 327.459 221.59C328.71 222.422 332.202 223.906 340.691 221.066L347.487 241.285Z" fill="#4A3020"/>
<path d="M487.703 464.25C489.672 474.429 496.293 479.01 499.394 479.01C502.495 479.01 507.359 474.189 509.945 464.25C511.214 459.371 505.406 458.129 499.394 458.009C493.157 457.884 486.701 459.066 487.703 464.25Z" fill="#4A3020" stroke="#4A3020"/>
<path d="M505.455 489.815L504.266 493.354L505.455 489.815ZM521.721 484.451C522.394 482.503 521.565 480.446 519.869 479.858C518.173 479.269 516.252 480.372 515.579 482.321L521.721 484.451ZM499.242 474.603C496.009 474.152 496.009 474.153 496.009 474.155C496.008 474.155 496.008 474.157 496.008 474.158C496.008 474.161 496.007 474.163 496.007 474.166C496.006 474.171 496.004 474.177 496.003 474.184C496.001 474.198 495.998 474.215 495.994 474.235C495.987 474.275 495.979 474.326 495.968 474.389C495.948 474.515 495.922 474.687 495.893 474.898C495.837 475.319 495.77 475.905 495.722 476.609C495.626 478.003 495.597 479.936 495.892 482.014C496.482 486.176 498.494 491.423 504.266 493.354L506.644 486.277C503.904 485.36 502.809 483.001 502.421 480.269C502.227 478.899 502.241 477.563 502.31 476.55C502.345 476.051 502.391 475.648 502.427 475.382C502.445 475.25 502.46 475.153 502.469 475.096C502.474 475.068 502.477 475.05 502.478 475.043C502.478 475.039 502.479 475.038 502.478 475.04C502.478 475.041 502.478 475.043 502.477 475.045C502.477 475.047 502.477 475.048 502.477 475.05C502.476 475.05 502.476 475.052 502.476 475.052C502.476 475.053 502.476 475.055 499.242 474.603ZM504.266 493.354C508.962 494.924 512.91 494.781 516.111 492.653C519.23 490.579 520.783 487.165 521.721 484.451L515.579 482.321C514.803 484.566 514.015 485.79 513.093 486.403C512.254 486.961 510.461 487.554 506.644 486.277L504.266 493.354Z" fill="#4A3020"/>
<path d="M492.453 490.399L493.642 493.937L492.453 490.399ZM476.187 485.035C475.514 483.086 476.343 481.03 478.039 480.441C479.735 479.853 481.656 480.956 482.329 482.904L476.187 485.035ZM498.666 475.187C501.899 474.735 501.899 474.737 501.9 474.738C501.9 474.739 501.9 474.741 501.9 474.742C501.901 474.744 501.901 474.747 501.902 474.749C501.903 474.755 501.904 474.761 501.905 474.768C501.908 474.782 501.911 474.799 501.914 474.818C501.921 474.858 501.93 474.91 501.94 474.973C501.96 475.099 501.986 475.27 502.015 475.481C502.072 475.903 502.138 476.488 502.187 477.193C502.282 478.587 502.311 480.52 502.016 482.597C501.426 486.759 499.414 492.006 493.642 493.937L491.264 486.86C494.005 485.943 495.099 483.584 495.487 480.852C495.681 479.483 495.667 478.147 495.598 477.134C495.564 476.634 495.517 476.232 495.481 475.966C495.463 475.834 495.448 475.736 495.439 475.68C495.435 475.652 495.432 475.633 495.43 475.626C495.43 475.623 495.43 475.622 495.43 475.624C495.43 475.625 495.43 475.627 495.431 475.629C495.431 475.63 495.431 475.631 495.432 475.633C495.432 475.634 495.432 475.635 495.432 475.636C495.432 475.637 495.433 475.638 498.666 475.187ZM493.642 493.937C488.946 495.508 484.998 495.365 481.797 493.236C478.678 491.163 477.125 487.749 476.187 485.035L482.329 482.904C483.105 485.149 483.893 486.374 484.815 486.987C485.654 487.545 487.447 488.137 491.264 486.86L493.642 493.937Z" fill="#4A3020"/>
<path d="M865.516 190.883C873.979 194.268 882.117 196.807 889.93 198.5C897.872 200.062 906.661 200.844 916.297 200.844C933.354 200.844 951.974 197.523 972.156 190.883C962.781 208.07 957.638 224.477 956.727 240.102C944.096 239.451 932.833 237.497 922.938 234.242C913.042 230.987 904.057 226.365 895.984 220.375C887.26 213.865 880.359 208.331 875.281 203.773C870.333 199.086 866.948 195.44 865.125 192.836C862.26 211.065 860.112 231.052 858.68 252.797C857.378 274.411 856.727 298.109 856.727 323.891V327.406C892.664 325.583 923.393 318.227 948.914 305.336C945.919 310.805 943.25 317.836 940.906 326.43C938.562 335.023 936.87 344.398 935.828 354.555L930.555 352.992C923.263 350.779 913.758 349.086 902.039 347.914C890.32 346.742 876.258 346.221 859.852 346.352H856.922C857.312 374.607 858.029 398.24 859.07 417.25C860.112 436.26 861.74 450.844 863.953 461L865.516 468.031C859.917 468.682 854.578 469.724 849.5 471.156C844.552 472.458 839.93 473.956 835.633 475.648C831.466 477.341 827.69 479.099 824.305 480.922C821.049 482.745 818.38 484.438 816.297 486C819.161 466.599 821.245 446.091 822.547 424.477C823.979 402.732 824.695 379.555 824.695 354.945C824.435 320.31 823.654 291.339 822.352 268.031C821.18 244.594 819.552 226.885 817.469 214.906L816.297 208.266C824.24 207.354 832.117 205.531 839.93 202.797C847.872 200.062 856.401 196.091 865.516 190.883ZM1001.45 254.75C1003.93 244.073 1005.16 232.875 1005.16 221.156C1005.16 217.641 1005.03 214.125 1004.77 210.609C1004.64 207.094 1004.32 203.578 1003.8 200.062L1002.62 195.961C1019.42 194.268 1036.41 188.474 1053.6 178.578L1054.97 177.797C1052.89 185.219 1051.84 195.831 1051.84 209.633C1051.84 213.279 1051.97 217.315 1052.23 221.742C1052.62 226.039 1053.15 230.792 1053.8 236C1048.46 236.651 1043.12 237.693 1037.78 239.125C1032.57 240.427 1027.62 241.99 1022.94 243.812C1018.38 245.505 1014.21 247.328 1010.44 249.281C1006.79 251.234 1003.8 253.057 1001.45 254.75ZM1004.77 486C1007.25 466.339 1009.07 448.5 1010.24 432.484C1011.54 416.339 1012.2 401.755 1012.2 388.734C1012.2 378.188 1012.07 368.357 1011.8 359.242C1011.67 349.997 1011.35 341.273 1010.83 333.07C1010.31 324.737 1009.59 316.729 1008.68 309.047C1007.9 301.365 1006.92 293.617 1005.75 285.805L1004.77 282.68C1012.72 281.768 1020.59 279.945 1028.41 277.211C1036.35 274.346 1044.42 270.635 1052.62 266.078L1053.99 265.297C1047.48 287.823 1044.23 319.138 1044.23 359.242V366.078C1044.23 402.667 1046.96 434.307 1052.43 461L1053.99 468.031C1048.39 468.682 1043.05 469.724 1037.98 471.156C1033.03 472.458 1028.41 473.956 1024.11 475.648C1019.94 477.341 1016.17 479.099 1012.78 480.922C1009.53 482.745 1006.86 484.438 1004.77 486ZM1113.56 486C1118.51 446.938 1120.98 414.516 1120.98 388.734C1120.98 375.844 1120.92 368.812 1120.79 367.641C1120.53 337.302 1118.45 310.023 1114.54 285.805L1113.56 282.68C1129.32 280.857 1145.27 275.323 1161.41 266.078L1162.78 265.297C1160.18 272.979 1157.38 281.833 1154.38 291.859L1197.16 265.297C1204.58 267.25 1213.76 271.026 1224.7 276.625C1234.85 281.964 1244.62 289.06 1253.99 297.914C1265.45 308.852 1273.52 320.896 1278.21 334.047C1283.29 346.547 1286.02 360.219 1286.41 375.062C1287.59 412.953 1289.99 441.599 1293.64 461L1295.2 468.031C1286.48 469.073 1278.54 470.896 1271.38 473.5C1260.05 477.667 1251.58 481.833 1245.98 486C1251.06 451.885 1253.6 418.878 1253.6 386.977C1253.47 382.81 1253.41 379.099 1253.41 375.844C1253.41 360.87 1251.06 349.542 1246.38 341.859C1238.56 330.401 1227.23 320.961 1212.39 313.539C1199.37 307.029 1180.1 301.169 1154.58 295.961H1154.38C1153.47 305.466 1153.02 326.56 1153.02 359.242V366.078C1153.02 402.667 1155.75 434.307 1161.22 461L1162.78 468.031C1153.93 469.073 1145.98 470.896 1138.95 473.5C1127.62 477.667 1119.16 481.833 1113.56 486ZM1467.47 352.602C1460.96 335.023 1449.37 320.896 1432.7 310.219C1422.16 303.448 1403.28 297.719 1376.06 293.031L1375.87 293.227C1372.22 300.128 1368.18 311.911 1363.76 328.578C1360.63 340.297 1359.07 351.365 1359.07 361.781C1359.07 365.948 1359.4 370.18 1360.05 374.477C1361.74 385.544 1366.56 397.198 1374.5 409.438C1382.31 421.547 1393.58 430.987 1408.29 437.758C1421.18 443.747 1439.54 449.477 1463.37 454.945C1466.23 428.122 1467.79 397.979 1468.05 364.516C1467.92 360.479 1467.73 356.508 1467.47 352.602ZM1508.68 190.883C1503.08 229.945 1500.28 273.695 1500.28 322.133C1500.28 326.951 1500.35 333.982 1500.48 343.227C1501.26 398.565 1503.6 438.148 1507.51 461.977L1508.68 468.617C1492.92 470.44 1476.97 475.974 1460.83 485.219L1459.46 486C1460.63 478.188 1461.74 470.049 1462.78 461.586L1423.72 486C1416.04 484.047 1406.79 480.271 1395.98 474.672C1383.74 468.292 1373.98 461.195 1366.69 453.383C1356.27 442.185 1348.26 430.141 1342.66 417.25C1337.07 405.531 1334.27 391.859 1334.27 376.234C1334.27 375.714 1334.27 375.453 1334.27 375.453C1334.92 360.349 1338.11 345.961 1343.84 332.289C1347.87 322.654 1354.32 312.562 1363.17 302.016C1365.91 298.76 1369.81 295.245 1374.89 291.469L1416.3 265.297C1423.85 266.729 1433.16 270.375 1444.23 276.234C1451.39 280.01 1458.88 285.089 1466.69 291.469C1465.65 266.729 1463.63 241.208 1460.63 214.906L1459.85 211.195L1459.46 208.852V208.266C1475.09 206.443 1491.04 200.909 1507.31 191.664L1508.68 190.883ZM1664.73 486C1671.24 464.255 1680.03 416.078 1691.1 341.469C1696.57 304.62 1701 270.245 1704.38 238.344C1697.74 225.844 1691.56 215.883 1685.83 208.461C1693.64 207.549 1701.58 205.727 1709.66 202.992C1721.51 198.956 1729.97 194.919 1735.05 190.883V191.273L1735.44 190.883L1735.24 191.273C1739.15 207.159 1753.34 253.969 1777.82 331.703C1795.53 387.693 1807.83 419.789 1814.73 427.992C1821.9 417.706 1835.83 384.503 1856.53 328.383C1876.06 275.388 1888.17 239.906 1892.86 221.938C1892.21 220.115 1890.97 217.51 1889.15 214.125L1885.83 207.875C1901.58 206.052 1917.53 200.518 1933.68 191.273L1935.05 190.492V190.688V190.883C1935.05 232.68 1938.76 278.969 1946.18 329.75C1955.16 390.948 1964.67 434.698 1974.7 461C1976.39 465.427 1977.56 467.771 1978.21 468.031C1969.36 469.073 1961.41 470.896 1954.38 473.5C1943.05 477.667 1934.59 481.833 1928.99 486C1929.25 483.526 1929.38 480.466 1929.38 476.82C1929.12 452.211 1924.57 404.229 1915.71 332.875C1912.07 303.318 1908.03 278.513 1903.6 258.461L1874.5 329.555C1854.06 381.378 1841.36 425.128 1836.41 460.805C1835.89 464.581 1835.57 466.534 1835.44 466.664L1835.63 468.617C1819.88 470.44 1803.93 475.974 1787.78 485.219L1786.41 486C1782.25 446.677 1769.03 397.198 1746.77 337.562C1736.22 309.307 1726.45 285.284 1717.47 265.492C1713.82 287.237 1709.98 312.823 1705.95 342.25C1699.7 387.042 1695.79 427.667 1694.23 464.125L1694.03 468.617C1684.14 470.57 1674.63 476.104 1665.52 485.219L1664.73 486ZM2007.7 283.266C2013.17 282.745 2018.38 281.833 2023.33 280.531C2028.41 279.099 2033.03 277.536 2037.2 275.844C2041.49 274.021 2045.27 272.198 2048.52 270.375C2051.91 268.552 2054.71 266.859 2056.92 265.297C2051.84 299.542 2049.3 332.549 2049.3 364.32C2049.57 369.919 2049.76 374.932 2049.89 379.359C2050.15 383.786 2050.48 387.823 2050.87 391.469C2051.26 394.984 2051.91 398.24 2052.82 401.234C2053.73 404.099 2054.97 406.833 2056.53 409.438C2060.31 415.036 2064.6 420.049 2069.42 424.477C2074.37 428.904 2080.42 432.94 2087.59 436.586C2094.75 440.102 2103.21 443.422 2112.98 446.547C2122.87 449.542 2134.66 452.471 2148.33 455.336H2148.52C2148.65 450.518 2148.72 445.701 2148.72 440.883C2148.85 435.935 2148.91 430.987 2148.91 426.039V419.203C2148.78 387.823 2148.2 361.456 2147.16 340.102C2146.11 318.747 2144.29 302.146 2141.69 290.297L2140.12 283.266C2145.59 282.745 2150.8 281.833 2155.75 280.531C2160.83 279.099 2165.45 277.536 2169.62 275.844C2173.91 274.021 2177.69 272.198 2180.95 270.375C2184.33 268.552 2187.13 266.859 2189.34 265.297C2186.48 284.958 2184.33 305.661 2182.9 327.406C2181.6 349.151 2180.95 372.198 2180.95 396.547C2181.08 430.922 2181.73 459.763 2182.9 483.07C2184.2 506.378 2185.96 524.151 2188.17 536.391L2189.34 543.031C2181.53 543.943 2173.65 545.766 2165.71 548.5C2157.77 551.365 2149.24 555.336 2140.12 560.414C2142.34 545.831 2144.16 530.206 2145.59 513.539C2147.03 496.872 2148 478.839 2148.52 459.438L2105.75 486C2100.28 484.568 2093.64 482.029 2085.83 478.383C2078.02 474.607 2070.14 469.854 2062.2 464.125C2054.25 458.266 2046.9 451.43 2040.12 443.617C2033.35 435.805 2028.21 427.016 2024.7 417.25C2019.62 404.75 2016.88 391.078 2016.49 376.234C2015.84 357.224 2014.93 340.622 2013.76 326.43C2012.59 312.107 2011.09 300.062 2009.27 290.297L2007.7 283.266ZM2374.89 486C2377.76 466.078 2379.9 447.263 2381.34 429.555C2382.77 411.846 2383.48 395.115 2383.48 379.359C2383.48 361.13 2382.7 343.747 2381.14 327.211C2379.71 310.544 2378.02 294.724 2376.06 279.75L2374.89 273.109C2382.83 272.198 2390.71 270.375 2398.52 267.641C2406.47 264.776 2414.99 260.805 2424.11 255.727C2421.11 274.737 2418.84 292.185 2417.27 308.07C2415.84 323.956 2415.12 338.409 2415.12 351.43C2415.12 353.773 2415.12 355.922 2415.12 357.875C2415.12 359.828 2415.19 361.977 2415.32 364.32C2415.45 366.664 2415.58 369.398 2415.71 372.523C2415.84 375.648 2416.04 379.49 2416.3 384.047L2420.01 385.805C2436.15 391.664 2450.67 394.594 2463.56 394.594C2472.55 394.594 2481.01 393.357 2488.95 390.883C2496.9 388.409 2504.06 384.893 2510.44 380.336C2516.82 375.648 2522.09 369.984 2526.26 363.344C2530.42 356.573 2533.29 349.021 2534.85 340.688C2535.63 336 2536.22 331.638 2536.61 327.602C2537.13 323.435 2537.39 319.529 2537.39 315.883C2537.39 309.372 2536.67 303.057 2535.24 296.938C2533.81 290.688 2531.92 284.828 2529.58 279.359C2527.23 273.76 2524.5 268.682 2521.38 264.125C2518.38 259.438 2515.26 255.336 2512 251.82C2509.01 248.695 2505.16 245.701 2500.48 242.836C2495.92 239.971 2490.71 237.432 2484.85 235.219C2478.99 233.005 2472.55 231.247 2465.52 229.945C2458.61 228.643 2451.19 227.992 2443.25 227.992C2436.48 227.992 2429.32 228.839 2421.77 230.531C2414.34 232.094 2406.79 234.372 2399.11 237.367C2391.43 240.362 2383.68 244.008 2375.87 248.305C2368.18 252.602 2360.7 257.484 2353.41 262.953L2366.49 211.781C2376.65 207.745 2384.33 204.685 2389.54 202.602C2394.75 200.518 2397.61 199.411 2398.13 199.281C2409.85 196.156 2419.81 193.878 2428.02 192.445C2436.22 190.883 2442.99 190.102 2448.33 190.102C2454.45 190.102 2461.35 190.883 2469.03 192.445C2476.84 193.878 2484.79 196.156 2492.86 199.281C2501.06 202.276 2509.01 206.052 2516.69 210.609C2524.5 215.036 2531.53 220.18 2537.78 226.039C2542.99 230.987 2547.74 236.651 2552.04 243.031C2556.34 249.281 2560.05 255.987 2563.17 263.148C2566.3 270.31 2568.71 277.797 2570.4 285.609C2572.09 293.422 2572.94 301.625 2572.94 310.219C2572.81 316.339 2571.96 323.109 2570.4 330.531C2568.97 337.823 2566.75 345.245 2563.76 352.797C2560.76 360.349 2556.53 367.51 2551.06 374.281C2545.59 381.052 2539.08 387.172 2531.53 392.641C2524.11 397.979 2515.32 402.276 2505.16 405.531C2495.14 408.786 2483.61 410.414 2470.59 410.414C2462 410.414 2453.47 409.763 2445.01 408.461C2436.67 407.029 2428.34 405.141 2420.01 402.797L2417.08 402.211C2418.12 419.659 2419.03 433.526 2419.81 443.812C2420.59 453.969 2421.51 460.544 2422.55 463.539L2424.11 468.031C2417.99 468.682 2412.46 469.659 2407.51 470.961C2402.56 472.263 2398.07 473.76 2394.03 475.453C2389.99 477.146 2386.41 478.904 2383.29 480.727C2380.16 482.549 2377.36 484.307 2374.89 486ZM2705.36 486.781C2697.68 484.958 2688.43 481.182 2677.62 475.453C2666.82 469.594 2657.05 462.497 2648.33 454.164C2636.87 443.096 2628.86 431.052 2624.3 418.031C2619.88 407.224 2617.08 393.552 2615.91 377.016V376.234C2615.91 362.302 2619.1 347.914 2625.48 333.07C2630.29 321.742 2636.74 311.651 2644.81 302.797C2648.2 299.151 2652.1 295.635 2656.53 292.25L2697.55 265.297C2704.45 267.641 2716.23 273.109 2732.9 281.703C2745.01 287.953 2756.73 297.328 2768.05 309.828C2776.39 322.849 2780.55 334.893 2780.55 345.961C2780.55 346.221 2780.55 346.547 2780.55 346.938C2778.6 362.823 2771.31 375.583 2758.68 385.219C2737.2 401.625 2710.44 409.958 2678.41 410.219C2718.77 396.417 2742.66 380.466 2750.09 362.367C2751.65 358.591 2752.43 354.88 2752.43 351.234C2752.43 351.104 2752.43 350.974 2752.43 350.844C2752.43 350.714 2752.43 350.583 2752.43 350.453C2752.43 344.984 2750.15 339.646 2745.59 334.438C2738.43 325.974 2728.15 318.422 2714.73 311.781C2691.82 300.453 2673.2 294.073 2658.88 292.641C2653.93 300.714 2649.43 312.953 2645.4 329.359C2642.27 342.12 2640.71 353.188 2640.71 362.562C2640.71 366.99 2641.04 371.221 2641.69 375.258C2643.51 386.846 2648.33 398.5 2656.14 410.219C2664.21 422.198 2675.48 431.638 2689.93 438.539C2702.43 444.529 2721.64 450.453 2747.55 456.312L2747.74 456.117C2749.83 452.862 2750.87 447.198 2750.87 439.125C2750.87 434.047 2750.02 427.406 2748.33 419.203L2776.06 430.141C2772.55 438.083 2766.82 445.245 2758.88 451.625C2752.89 456.443 2749.89 458.917 2749.89 459.047L2705.36 486.781ZM2834.46 486C2837.33 466.339 2839.41 445.635 2840.71 423.891C2842.14 402.146 2842.86 379.099 2842.86 354.75C2842.86 350.583 2842.86 346.742 2842.86 343.227C2842.86 339.711 2842.79 336.521 2842.66 333.656L2841.49 289.125C2832.12 289.385 2823.2 289.906 2814.73 290.688C2806.4 291.469 2798.33 292.576 2790.52 294.008C2792.34 291.143 2794.03 287.302 2795.59 282.484C2797.03 277.536 2798.13 271.807 2798.91 265.297L2802.04 266.273C2805.82 267.445 2810.89 268.292 2817.27 268.812C2823.65 269.203 2831.4 269.594 2840.52 269.984C2839.86 257.875 2839.15 247.263 2838.37 238.148C2837.59 229.034 2836.67 221.286 2835.63 214.906L2834.46 208.266C2842.4 207.354 2850.28 205.531 2858.09 202.797C2866.04 199.932 2874.57 195.961 2883.68 190.883C2880.03 214.06 2877.49 240.557 2876.06 270.375C2885.96 270.115 2895.14 269.594 2903.6 268.812C2912.2 267.901 2920.2 266.729 2927.62 265.297C2923.33 274.151 2920.66 283.721 2919.62 294.008L2916.49 293.227C2912.07 292.185 2906.4 291.469 2899.5 291.078C2892.6 290.557 2884.53 290.036 2875.28 289.516C2875.15 295.375 2875.02 301.234 2874.89 307.094C2874.89 312.953 2874.89 319.008 2874.89 325.258V332.094C2875.02 363.474 2875.61 389.841 2876.65 411.195C2877.69 432.549 2879.51 449.151 2882.12 461L2883.68 468.031C2878.99 468.682 2874.17 469.724 2869.23 471.156C2864.28 472.458 2859.53 474.021 2854.97 475.844C2850.54 477.536 2846.51 479.294 2842.86 481.117C2839.21 482.94 2836.41 484.568 2834.46 486Z" fill="#4A3020"/>
</svg>
