<svg width="612" height="712" viewBox="0 0 612 712" fill="none" xmlns="http://www.w3.org/2000/svg">
<path d="M422.606 239.9L474.091 87.1261C474.091 87.1261 490.5 20.5605 311.181 20.5605C131.862 20.5605 127.174 87.1261 127.174 87.1261L189.877 239.9C189.877 239.9 216.247 278.638 302.391 282.458C388.534 286.277 422.606 239.9 422.606 239.9Z" fill="white" stroke="white" stroke-width="20"/>
<path d="M96.289 83.1253C125.382 41.1258 179.364 20.5139 228.354 9.4879C327.194 -12.7575 442.265 3.62955 501.439 63.7804C505.847 67.7103 516.765 84.0791 515.92 90.0566C515.91 90.9178 515.929 91.423 515.896 92.3073C508.114 117.067 492.753 137.337 479.808 158.882C473.721 169.013 465.597 177.293 453.278 180.069C427.121 185.964 405.398 168.069 405.006 139.72C404.606 110.797 404.658 81.8678 404.683 52.9416C404.686 49.2578 403.888 47.2687 400.125 45.7292C337.574 20.1382 274.9 21.3978 211.544 45.2569C208.036 46.5777 206.964 48.2831 206.976 51.9521C207.07 81.4241 207.122 110.899 206.813 140.368C206.648 156.177 200.464 169.112 185.957 176.707C168.03 186.094 147.526 180.516 135.009 163.106C120.58 143.036 88.9471 97.5564 96.289 83.1253Z" fill="#333333"/>
<path d="M354.711 131.717C348.965 126.658 346.214 120.916 347.066 113.926C348.153 105.018 355.084 97.9078 363.887 96.3759C372.098 94.9469 380.957 99.6922 384.881 107.622C388.94 115.825 386.811 125.224 379.481 131.459C372.33 137.542 365.015 137.724 354.711 131.717Z" fill="#333333"/>
<path d="M269.344 120.73C265.676 132.751 256.516 138.828 245.785 136.969C236.293 135.324 229.21 126.836 229.346 117.266C229.487 107.232 237.01 98.6391 246.684 97.4625C259.335 95.9235 268.804 105.36 269.344 120.73Z" fill="#333333"/>
<path d="M130.551 710.383C110.909 710.527 91.2653 710.151 71.6239 710.563C54.0326 710.933 37.2765 711.219 19.2079 710.992C15.0422 710.94 11.0044 710.519 7.32134 707.313C6.99725 706.567 6.83288 706.279 6.24707 706.03C5.66382 705.769 5.36878 705.523 4.9637 704.984C4.76692 703.65 3.99139 703.383 2.90696 702.988C3.27017 701.339 3.2111 699.973 2.01628 698.489C0.201035 696.967 0.0473496 695.43 1.28911 693.359C4.26899 686.639 9.03141 683.332 16.3242 682.919C22.7032 680.946 28.8701 681.67 34.9382 681.266C37.1029 681.123 39.2834 681.296 41.8659 681.182C42.7783 681.028 43.2616 680.867 43.946 680.34C46.1543 672.339 47.9533 664.611 53.6524 658.438C55.9175 655.985 58.6564 654.306 61.4653 651.98C62.1899 651.364 62.6231 651.037 63.4098 650.508C72.065 646.193 80.8973 644.921 90.0672 645.437C91.6864 645.529 93.3126 645.545 94.9386 645.48C100.129 645.272 100.129 645.282 97.296 639.969C96.4277 638.336 95.9533 636.938 95.1103 635.326C84.9368 615.154 82.8557 594.757 82.7603 572.715C84.8582 537.66 100.417 503.231 126.198 479.324C133.76 472.311 136.793 464.997 136.587 454.608C135.881 419.149 141.063 384.295 149.398 349.857C158.087 313.953 168.125 278.405 177.318 242.634C178.35 238.618 177.919 235.331 175.692 231.815C168.946 221.168 163.24 210.011 160.445 197.581C158.864 190.551 159.86 189.375 166.812 189.782C171.712 190.068 176.676 190.511 181.448 189.002C185.881 187.601 188.348 189.305 189.84 193.4C193.305 202.908 198.264 211.596 205.146 219.015C215.25 229.909 226.994 238.183 242.064 240.754C268.876 245.329 290.615 229.7 294.378 203.158C295.22 197.214 294.821 192.343 288.459 188.974C283.521 186.359 279.821 181.795 277.243 176.603C269.985 161.984 279.5 145.81 295.791 145.256C302.517 145.027 309.264 144.97 315.985 145.286C324.155 145.67 330.749 149.048 334.607 156.605C338.587 164.402 338.17 172.052 333.351 179.381C330.617 183.539 327.314 187.253 322.769 189.397C318.675 191.329 317.598 194.35 317.602 198.607C317.629 224.693 340.654 244.538 366.952 240.956C392.286 237.505 407.364 221.263 418.194 199.769C419.174 197.822 419.768 195.697 420.525 193.65C422.005 189.648 424.591 187.82 428.977 188.955C434.52 190.389 440.16 190.046 445.803 189.676C450.712 189.355 451.778 190.414 450.873 195.324C448.633 207.473 444.177 218.829 436.863 228.784C432.717 234.427 432.043 239.62 433.87 246.488C444.856 287.796 456.874 328.845 465.479 370.768C471.538 400.29 474.899 430.033 473.754 460.183C473.521 466.325 475.404 470.884 479.904 475.071C501.619 495.279 516.192 519.844 523.905 548.495C529.635 569.778 529.486 591.871 523.594 613.123C519.84 624.733 516.16 635.928 508.021 646.634C519.486 646.235 529.692 647.967 539.594 645.784C561.602 640.934 571.392 617.391 564.816 602.128C564.517 601.545 564.393 601.316 564.104 600.737C560.634 592.494 553.791 587.504 548.09 581.074C547.074 579.683 546.377 578.548 545.496 577.035C538.506 559.399 553.723 547.507 565.523 549.487C570.667 550.351 575.262 552.566 579.071 555.937C584.615 560.844 590.027 565.952 594.57 572.406C595.295 573.385 595.671 574.094 596.239 575.131C597.276 577.215 598.354 578.839 599.507 580.836C600.126 582.001 600.469 582.896 600.965 584.115C601.35 585.126 601.555 585.82 601.955 586.839C602.437 588.136 602.727 589.108 603.205 590.441C603.651 592.183 603.948 593.549 604.735 595.24C609.38 613.165 605.372 630.987 596.669 647.195C588.128 663.1 575.818 674.673 558.587 681.428C558.243 682.231 557.72 682.294 557.421 682.582C558.007 683.014 557.228 682.494 558.252 682.697C571.422 682.843 584.289 682.91 597.155 682.92C599.694 682.922 602.191 682.952 604.961 684.219C607.673 684.508 608.544 686.221 609.587 688.267C609.813 688.542 609.809 688.552 609.813 688.552C610.078 688.813 610.322 689.089 610.675 689.627C614.269 697.651 611.399 703.422 604.687 708.228C472.195 714.764 261.953 710.942 130.551 710.383Z" fill="#333333"/>
<path d="M214.548 524.05C244.583 494.015 261.509 538.245 310.111 533.333C358.712 528.421 383.832 495.108 399.123 532.788C414.413 570.468 414.959 684.598 414.959 684.598H186.151C186.151 684.598 184.514 554.085 214.548 524.05Z" fill="#333333"/>
<path d="M446.611 463.573C446.371 464.461 446.313 464.957 446.372 465.813C447.56 468.419 447.16 470.822 447.163 473.16C447.208 508.967 447.179 544.774 447.181 580.581C447.183 614.535 447.298 648.489 446.93 682.963C445.858 684.615 444.543 684.455 443.28 684.455C419.992 684.458 396.703 684.457 373.515 684.457C372.661 683.496 373.161 682.739 373.522 681.903C391.507 640.156 394.24 597.614 380.092 554.218C376.434 542.995 372.539 531.848 369.007 520.587C367.818 516.796 366.526 516.666 363.548 518.942C344.139 533.774 322.017 539.318 297.937 537.183C278.995 535.504 262.018 528.451 247.244 516.507C243.946 513.841 242.062 513.729 239.299 516.927C214.758 545.329 195.816 576.398 191.165 614.645C188.232 638.771 191.81 661.359 205.36 681.929C205.744 682.511 206.043 683.15 206.762 684.452C193.11 684.452 179.96 684.444 166.811 684.46C164.689 684.463 164.614 683.056 164.616 681.516C164.619 679.151 164.584 676.785 164.591 674.42C164.784 606.364 164.9 538.308 165.21 470.253C165.374 434.236 171.057 398.891 178.997 363.864C184.504 339.57 192.016 315.836 199.335 292.051C199.648 291.034 200.162 290.078 200.705 288.809C215.044 297.927 229.851 305.528 245.947 310.325C252.375 312.241 258.867 313.974 265.402 315.476C268.086 316.093 269.037 317.005 269.417 319.962C272.82 346.41 299.072 361.333 322.901 350.233C335.343 344.437 342.268 334.04 344.217 320.574C344.692 317.296 345.718 316.007 348.883 315.256C370.597 310.103 391.086 302 409.83 288.908C428.418 344.703 443.225 400.947 446.249 460.228C446.83 461.482 447.034 462.294 446.611 463.573Z" fill="white"/>
<path d="M227.055 485.253C223.854 486.224 221.085 487.142 218.255 487.798C214.396 488.693 210.537 488.404 209.354 483.957C208.259 479.842 211.292 477.503 214.792 476.364C220.484 474.511 226.316 473.09 232.033 471.309C233.328 470.906 235.803 471.256 235.246 468.652C234.79 466.516 232.865 467.461 231.623 467.478C225.44 467.562 219.256 467.744 213.079 468.033C208.761 468.234 204.759 467.851 204.01 462.574C203.436 458.528 206.83 456.169 212.698 456.159C218.338 456.149 223.997 455.889 229.613 456.268C234.11 456.571 235.685 455.748 235.609 450.556C235.243 425.635 235.463 400.706 235.485 375.78C235.485 375.249 235.608 374.719 235.684 374.108C238.149 373.748 239.721 375.541 241.569 376.507C253.794 382.895 266.024 389.275 278.127 395.887C279.933 396.874 281.086 396.461 282.591 395.853C298.406 389.461 314.427 389.055 330.511 394.605C332.826 395.404 334.19 394.663 335.99 393.73C348.236 387.385 360.564 381.197 372.791 374.815C376.089 373.093 376.956 373.584 376.958 377.432C376.969 401.994 377.297 426.555 377.261 451.117C377.255 455.14 378.165 456.544 382.366 456.291C388.711 455.907 395.099 456.295 401.463 456.136C406.081 456.021 408.418 458.473 408.39 462.641C408.36 466.976 405.226 468.318 401.224 468.173C394.316 467.922 387.406 467.749 380.495 467.606C379.147 467.578 377.166 467.03 376.892 468.945C376.625 470.812 378.716 470.959 379.982 471.413C385.446 473.375 390.958 475.204 396.445 477.102C399.946 478.313 402.388 480.478 400.898 484.426C399.514 488.093 396.796 489.698 392.638 488.167C387.873 486.414 382.785 485.427 378.208 483.308C374.005 481.362 372.191 482.768 370.211 486.319C360.352 504.007 345.028 514.682 325.703 519.637C293.028 528.016 260.578 514.658 242.56 485.445C240.361 481.881 238.585 480.442 234.642 482.543C232.426 483.724 229.866 484.258 227.055 485.253Z" fill="#333333"/>
<path d="M353.431 485.94C339.962 501.234 323.435 507.573 303.513 505.675C289.774 504.366 276.351 487.337 286.191 471.864C289.123 467.254 291.816 462.461 295.512 458.452C307.958 444.954 304.503 425.919 293.98 414.324C292.062 412.211 289.925 410.297 287.778 408.181C318.101 396.422 354.747 414.098 362.375 443.893C366.292 459.192 362.852 473.024 353.431 485.94Z" fill="white"/>
<path d="M311.743 472.668C314.081 479.639 316.373 480.999 322.413 479.002C323.994 478.479 325.217 478.216 326.191 479.737C327.222 481.348 326.609 482.932 325.783 484.369C323.28 488.72 316.24 489.959 311.179 486.88C309.648 485.948 308.331 484.663 306.807 483.452C303.691 487.021 299.879 489.23 294.962 488.856C292.332 488.656 289.962 487.859 288.593 485.318C287.777 483.803 287.364 482.304 288.468 480.719C289.542 479.176 290.788 479.526 292.297 480.033C294.619 480.814 296.938 480.656 299.093 479.254C303.046 476.682 303.607 472.238 300.284 468.899C298.169 466.775 296.164 464.632 297.374 461.312C298.522 458.163 301.394 457.159 304.236 456.617C307.27 456.038 310.413 456.068 313.269 457.679C317.453 460.04 318.063 463.925 314.867 467.466C313.572 468.901 311.662 469.947 311.743 472.668Z" fill="#333333"/>
<path d="M320.808 442.961C324.266 436.759 328.734 434.269 334.003 435.25C339.661 436.304 343.253 439.908 343.722 445.003C344.365 451.975 339.291 457.936 332.624 458.042C325.557 458.153 320.324 451.72 320.808 442.961Z" fill="#333333"/>
<path d="M238.246 545.094C236.021 543.841 234.537 542.957 236.567 540.431C238.74 537.728 239.981 539.92 241.428 540.922C273.914 563.425 308.909 569.215 346.627 556.695C350.067 555.553 353.484 554.205 356.689 552.527C359.668 550.967 360.947 551.461 362.102 554.708C367.939 571.122 371.204 587.945 371.215 605.407C371.231 631.661 365.98 656.635 353.549 679.922C351.427 683.898 345.223 686.184 341.304 684.459C339.171 683.519 340.132 681.632 340.116 680.193C339.996 668.912 339.971 657.63 339.983 646.348C339.986 643.591 339.682 640.889 338.81 638.298C337.148 633.36 333.019 630.559 327.993 630.885C322.444 631.245 319.849 634.944 319.386 639.82C318.803 645.955 318.956 652.166 318.928 658.345C318.893 665.805 318.865 673.269 319.111 680.723C319.214 683.845 318.222 684.786 315.122 684.689C308.396 684.479 301.658 684.579 294.927 684.682C292.601 684.717 291.254 684.424 291.284 681.514C291.464 664.047 291.459 646.579 291.545 629.112C291.738 589.72 270.61 567.95 238.246 545.094Z" fill="white"/>
<path d="M229.19 259.319C245.602 265.383 261.705 264.889 277.642 259.52C289.12 255.653 297.102 247.169 303.915 237.9C334.551 273.043 368.252 269.248 403.489 245.472C406.252 254.574 406.243 254.561 398.925 259.837C379.566 273.794 357.884 282.066 334.496 286.137C331.432 286.67 328.743 286.146 325.783 284.496C311.983 276.803 298.128 276.686 284.579 285.417C283.286 286.251 282.343 287.192 280.27 286.838C254.2 282.38 229.674 273.982 207.689 258.963C200.231 253.868 200.29 253.782 203.508 244.707C211.293 250.801 219.703 255.599 229.19 259.319Z" fill="white"/>
<circle cx="304.652" cy="576.122" r="18.0208" fill="#333333"/>
</svg>
