<svg width="3397" height="712" viewBox="0 0 3397 712" fill="none" xmlns="http://www.w3.org/2000/svg">
<g clip-path="url(#clip0_495_471)">
<path d="M754.172 219.777C771.75 221.242 787.131 222.121 800.314 222.414C813.791 222.707 825.217 222.854 834.592 222.854C845.432 222.854 854.807 222.561 862.717 221.975C870.92 221.096 881.613 219.924 894.797 218.459C905.93 216.994 920.285 215.09 937.863 212.746C955.441 210.109 976.828 206.74 1002.02 202.639C998.801 207.619 996.018 212.893 993.674 218.459C991.623 223.732 989.865 228.566 988.4 232.961C986.936 238.234 985.617 243.361 984.445 248.342C983.566 253.908 982.541 260.793 981.369 268.996C980.197 276.027 978.732 284.963 976.975 295.803C975.51 306.35 973.605 318.947 971.262 333.596C962.473 310.744 953.537 293.166 944.455 280.861C935.666 268.557 927.463 259.475 919.846 253.615C911.057 246.877 902.707 243.068 894.797 242.189C883.371 242.189 873.996 244.387 866.672 248.781C859.348 253.176 853.342 258.889 848.654 265.92C844.26 272.658 840.891 280.129 838.547 288.332C836.203 296.242 834.592 304.006 833.713 311.623C832.834 318.947 832.248 325.539 831.955 331.398C831.662 336.965 831.369 340.773 831.076 342.824C841.33 342.238 849.973 341.506 857.004 340.627C864.035 339.748 869.602 338.869 873.703 337.99C878.684 336.818 882.639 335.646 885.568 334.475C889.963 332.131 894.357 329.348 898.752 326.125C902.561 323.195 906.516 319.68 910.617 315.578C915.012 311.477 918.82 306.496 922.043 300.637C920.285 311.184 918.674 319.973 917.209 327.004C916.037 334.035 915.012 339.602 914.133 343.703C912.961 348.684 912.229 352.492 911.936 355.129C911.35 357.766 910.617 361.428 909.738 366.115C908.859 370.217 907.834 375.49 906.662 381.936C905.49 388.381 904.172 396.438 902.707 406.105C899.191 399.953 895.529 394.973 891.721 391.164C887.912 387.062 884.396 383.84 881.174 381.496C877.365 378.859 873.703 376.809 870.188 375.344C866.379 374.172 862.277 373 857.883 371.828C854.074 370.949 849.533 370.07 844.26 369.191C839.279 368.02 833.859 366.994 828 366.115C828.586 381.936 829.465 395.559 830.637 406.984C831.809 418.117 832.834 427.492 833.713 435.109C834.885 443.898 836.057 451.223 837.229 457.082C838.693 462.941 841.037 469.24 844.26 475.979C846.896 481.838 850.559 488.576 855.246 496.193C860.227 503.518 866.525 511.428 874.143 519.924C868.283 518.459 862.131 517.434 855.686 516.848C849.24 516.262 843.527 515.822 838.547 515.529C832.395 515.236 826.535 515.236 820.969 515.529C815.109 515.822 808.664 516.408 801.633 517.287C795.773 517.873 789.035 518.752 781.418 519.924C773.801 521.096 765.744 522.414 757.248 523.879C762.229 518.898 766.33 513.918 769.553 508.938C772.775 503.957 775.119 499.562 776.584 495.754C778.342 491.359 779.514 487.111 780.1 483.01C780.393 479.494 780.539 471.877 780.539 460.158C780.539 448.146 780.393 434.23 780.1 418.41C779.807 402.297 779.367 385.305 778.781 367.434C778.195 349.562 777.609 332.863 777.023 317.336C776.438 301.516 775.705 288.039 774.826 276.906C774.24 265.773 773.508 259.035 772.629 256.691C771.457 253.762 770.139 250.393 768.674 246.584C766.33 240.432 761.496 231.496 754.172 219.777ZM974.006 326.564L1054.87 327.443C1050.18 345.314 1046.66 360.549 1044.32 373.146C1042.27 385.744 1040.95 396.291 1040.36 404.787C1039.19 414.455 1038.9 422.658 1039.48 429.396C1040.36 435.549 1041.83 442.141 1043.88 449.172C1045.64 455.031 1048.27 461.77 1051.79 469.387C1055.3 477.004 1059.99 484.621 1065.85 492.238C1062.34 491.066 1058.53 490.188 1054.43 489.602C1050.32 489.016 1046.52 488.576 1043 488.283C1038.9 487.99 1034.8 487.99 1030.7 488.283C1026.59 488.576 1022.05 489.016 1017.07 489.602C1012.97 490.188 1007.99 490.92 1002.13 491.799C996.271 492.678 990.119 493.85 983.674 495.314C988.068 482.131 991.438 470.705 993.781 461.037C996.418 451.369 998.322 443.312 999.494 436.867C1000.67 429.25 1001.4 423.098 1001.69 418.41C1001.69 412.551 1001.69 405.959 1001.69 398.635C1001.69 391.018 1001.69 383.693 1001.69 376.662C1001.69 369.631 1001.54 363.479 1001.25 358.205C1000.96 352.639 1000.37 349.123 999.494 347.658L995.1 343.264C993.342 341.799 990.705 339.748 987.189 337.111C983.967 334.182 979.572 330.666 974.006 326.564ZM1005.21 258.889C1011.36 255.666 1017.51 254.787 1023.66 256.252C1030.11 257.717 1035.09 260.5 1038.61 264.602C1042.12 268.703 1043.29 273.537 1042.12 279.104C1041.24 284.67 1036.55 290.09 1028.06 295.363C1019.56 300.344 1012.09 302.102 1005.65 300.637C999.201 299.172 994.66 296.096 992.023 291.408C989.387 286.721 988.947 281.301 990.705 275.148C992.463 268.703 997.297 263.283 1005.21 258.889ZM1085.29 474.66C1087.35 464.992 1088.81 456.496 1089.69 449.172C1090.86 441.555 1091.74 435.256 1092.33 430.275C1092.91 424.416 1093.21 419.436 1093.21 415.334C1092.91 410.354 1092.62 404.494 1092.33 397.756C1092.33 390.725 1092.03 383.84 1091.45 377.102C1091.15 370.07 1090.71 363.918 1090.13 358.645C1089.54 353.078 1088.81 349.123 1087.93 346.779C1086.76 344.436 1085.15 341.945 1083.1 339.309C1079 334.328 1072.99 329.494 1065.08 324.807C1071.82 323.342 1077.53 322.17 1082.22 321.291C1087.2 320.119 1091.3 319.094 1094.52 318.215C1098.04 317.043 1101.12 316.018 1103.75 315.139C1106.1 314.26 1108.88 313.381 1112.1 312.502C1114.74 311.916 1117.96 311.184 1121.77 310.305C1125.58 309.426 1129.97 308.4 1134.95 307.229L1133.63 347.219C1143.01 336.086 1152.53 327.736 1162.2 322.17C1171.87 316.604 1180.95 312.648 1189.45 310.305C1199.11 307.375 1208.63 305.91 1218.01 305.91C1229.73 306.496 1240.57 308.4 1250.53 311.623C1260.78 314.846 1269.57 318.654 1276.9 323.049C1284.51 327.15 1290.67 331.545 1295.35 336.232C1300.04 340.92 1302.82 345.021 1303.7 348.537C1307.22 359.963 1308.1 370.51 1306.34 380.178C1304.58 389.553 1302.24 398.781 1299.31 407.863C1296.67 416.652 1294.33 425.441 1292.28 434.23C1290.52 443.02 1291.25 452.541 1294.47 462.795C1295.65 465.432 1296.82 468.068 1297.99 470.705C1299.16 473.049 1300.63 475.393 1302.38 477.736C1304.14 480.08 1306.19 481.984 1308.54 483.449C1305.31 483.156 1302.09 483.01 1298.87 483.01C1295.65 482.717 1292.72 482.424 1290.08 482.131C1286.86 481.838 1283.93 481.545 1281.29 481.252C1278.36 480.959 1274.41 480.812 1269.43 480.812C1260.93 480.812 1247.75 481.252 1229.88 482.131C1232.51 475.979 1234.56 470.852 1236.03 466.75C1237.79 462.355 1239.25 458.84 1240.42 456.203C1241.59 452.98 1242.47 450.49 1243.06 448.732C1246.57 440.236 1248.62 430.568 1249.21 419.729C1250.09 408.889 1249.36 397.902 1247.01 386.77C1246.13 382.961 1244.67 378.42 1242.62 373.146C1240.57 367.873 1237.79 362.746 1234.27 357.766C1231.05 352.785 1227.09 348.537 1222.4 345.021C1218.01 341.506 1212.88 339.455 1207.02 338.869C1201.16 338.283 1194.57 339.748 1187.25 343.264C1180.22 346.779 1172.6 353.225 1164.4 362.6C1158.24 370.51 1153.41 380.178 1149.89 391.604C1146.67 401.271 1144.47 413.43 1143.3 428.078C1142.13 442.434 1143.89 459.279 1148.58 478.615C1144.47 478.029 1140.67 477.736 1137.15 477.736C1133.63 477.443 1130.71 477.15 1128.36 476.857C1125.43 476.564 1122.79 476.271 1120.45 475.979C1117.81 475.979 1114.88 475.832 1111.66 475.539C1108.73 475.539 1105.07 475.539 1100.68 475.539C1096.28 475.246 1091.15 474.953 1085.29 474.66ZM1536.72 186.379C1542.29 186.672 1548.29 186.818 1554.74 186.818C1560.3 186.818 1566.6 186.965 1573.63 187.258C1580.96 187.258 1588.58 186.965 1596.49 186.379C1589.46 189.602 1583.3 194.289 1578.03 200.441C1572.76 206.594 1568.51 212.746 1565.29 218.898C1561.18 226.223 1557.81 233.84 1555.18 241.75C1553.71 246.437 1552.54 254.787 1551.66 266.799C1550.78 278.518 1550.05 292.287 1549.46 308.107C1549.17 323.928 1549.03 340.627 1549.03 358.205C1549.03 375.783 1549.17 392.629 1549.46 408.742C1549.76 424.562 1550.2 438.625 1550.78 450.93C1551.37 463.234 1552.1 471.877 1552.98 476.857C1554.15 482.717 1555.62 488.283 1557.38 493.557C1558.84 498.244 1560.74 503.078 1563.09 508.059C1565.43 512.746 1568.36 516.555 1571.88 519.484L1527.05 539.699C1524.71 536.477 1522.8 533.107 1521.34 529.592C1519.88 526.369 1518.7 523.439 1517.82 520.803C1516.65 517.58 1515.92 514.65 1515.63 512.014C1515.04 508.498 1514.46 504.689 1513.87 500.588C1513.28 496.193 1512.55 492.092 1511.67 488.283C1511.09 484.182 1510.65 480.812 1510.35 478.176C1510.06 475.539 1510.06 473.928 1510.35 473.342C1510.65 472.756 1508.89 475.393 1505.08 481.252C1501.27 486.818 1495.56 493.41 1487.94 501.027C1480.62 508.352 1471.54 515.529 1460.7 522.561C1449.86 529.299 1437.7 533.547 1424.22 535.305C1410.45 537.062 1397.71 534.426 1385.99 527.395C1374.56 520.363 1364.75 510.549 1356.54 497.951C1348.34 485.061 1342.04 470.266 1337.65 453.566C1333.55 436.574 1331.94 419.289 1332.81 401.711C1333.4 389.992 1336.04 379.592 1340.72 370.51C1345.41 361.135 1351.27 353.078 1358.3 346.34C1365.63 339.309 1373.54 333.449 1382.03 328.762C1390.82 323.781 1399.32 319.68 1407.52 316.457C1416.02 313.234 1423.93 310.891 1431.25 309.426C1438.58 307.961 1444.44 306.936 1448.83 306.35C1454.1 306.057 1460.11 306.936 1466.85 308.986C1472.71 310.744 1479.45 313.674 1487.06 317.775C1494.97 321.877 1503.76 328.029 1513.43 336.232C1511.67 306.936 1510.06 283.498 1508.6 265.92C1507.13 248.049 1505.67 234.426 1504.2 225.051C1502.74 213.918 1501.42 206.301 1500.25 202.199C1498.78 199.27 1496.88 196.34 1494.53 193.41C1492.48 191.066 1489.85 188.723 1486.62 186.379C1483.69 183.742 1480.18 181.691 1476.08 180.227C1483.69 181.691 1491.02 182.717 1498.05 183.303C1505.08 183.889 1511.53 184.475 1517.38 185.061C1524.12 185.646 1530.57 186.086 1536.72 186.379ZM1426.42 350.295C1420.85 352.346 1416.31 355.861 1412.79 360.842C1409.57 365.822 1406.94 371.828 1404.88 378.859C1402.83 385.598 1401.37 392.922 1400.49 400.832C1399.9 408.449 1399.46 415.92 1399.17 423.244C1399.17 430.275 1399.17 436.721 1399.17 442.58C1399.17 448.439 1399.17 452.834 1399.17 455.764C1399.17 457.521 1399.46 460.744 1400.05 465.432C1400.93 469.826 1402.69 474.514 1405.32 479.494C1407.96 484.182 1411.62 488.43 1416.31 492.238C1421.29 496.047 1427.88 497.951 1436.09 497.951C1442.82 497.365 1450 495.021 1457.62 490.92C1464.36 487.404 1471.97 481.838 1480.47 474.221C1489.26 466.311 1498.63 455.031 1508.6 440.383C1508.01 431.008 1507.57 423.244 1507.28 417.092C1507.28 410.939 1507.13 405.959 1506.84 402.15C1506.54 397.756 1506.4 394.24 1506.4 391.604V385.012C1506.4 383.254 1506.4 381.35 1506.4 379.299C1506.4 377.248 1506.54 375.344 1506.84 373.586C1498.63 367.727 1491.31 362.746 1484.87 358.645C1478.71 354.25 1472.56 351.027 1466.41 348.977C1460.55 346.633 1454.4 345.607 1447.95 345.9C1441.8 345.9 1434.62 347.365 1426.42 350.295Z" fill="#333333"/>
<path d="M1702.61 207.912C1711.98 208.205 1720.19 208.352 1727.22 208.352C1734.25 208.059 1739.96 207.912 1744.36 207.912H1757.1C1760.32 207.619 1764.28 207.473 1768.97 207.473C1773.07 207.473 1778.05 207.473 1783.91 207.473C1789.77 207.473 1796.51 207.619 1804.12 207.912C1806.47 216.115 1809.1 224.172 1812.03 232.082C1815.26 239.699 1818.04 246.584 1820.38 252.736C1823.31 260.061 1826.24 266.945 1829.17 273.391C1832.1 279.836 1835.62 287.6 1839.72 296.682C1843.23 304.299 1847.48 313.674 1852.46 324.807C1857.44 335.646 1863.3 348.098 1870.04 362.16C1873.26 353.078 1876.19 344.729 1878.83 337.111C1881.76 329.494 1884.25 322.902 1886.3 317.336C1888.64 310.891 1890.55 305.031 1892.01 299.758C1893.48 294.484 1895.09 288.039 1896.85 280.422C1898.31 273.977 1899.92 266.213 1901.68 257.131C1903.73 248.049 1905.78 237.502 1907.83 225.49C1916.33 225.49 1923.95 225.49 1930.69 225.49C1937.42 225.49 1943.28 225.344 1948.26 225.051C1953.83 225.051 1958.81 224.904 1963.21 224.611C1967.89 224.611 1974.19 224.318 1982.1 223.732C1988.84 223.146 1997.78 222.707 2008.91 222.414C2020.33 221.828 2034.4 221.096 2051.1 220.217C2044.94 224.611 2039.96 229.006 2036.15 233.4C2032.64 237.502 2029.86 241.164 2027.8 244.387C2025.46 248.195 2024 251.857 2023.41 255.373C2022.82 258.303 2022.24 265.041 2021.65 275.588C2021.36 286.135 2020.92 298.732 2020.33 313.381C2020.04 327.736 2019.75 343.117 2019.46 359.523C2019.46 375.93 2019.6 391.457 2019.89 406.105C2020.19 420.754 2020.63 433.498 2021.21 444.338C2022.09 454.885 2023.26 461.623 2024.73 464.553C2026.78 468.068 2029.56 472.17 2033.08 476.857C2036.3 480.959 2040.4 485.646 2045.38 490.92C2050.66 496.193 2057.54 502.053 2066.04 508.498C2052.56 509.084 2041.28 509.523 2032.2 509.816C2023.41 510.109 2016.09 510.402 2010.23 510.695C2003.49 510.988 1998.07 511.135 1993.97 511.135C1989.57 511.135 1983.57 511.281 1975.95 511.574C1969.21 511.867 1960.28 512.307 1949.14 512.893C1938.01 513.186 1923.65 513.771 1906.08 514.65C1910.18 509.963 1913.99 505.275 1917.5 500.588C1921.02 495.9 1923.95 491.652 1926.29 487.844C1929.22 483.449 1931.71 479.201 1933.76 475.1C1935.81 469.533 1937.42 459.426 1938.6 444.777C1939.77 432.18 1940.65 414.162 1941.23 390.725C1941.82 366.994 1941.82 335.207 1941.23 295.363C1935.67 304.445 1930.69 313.527 1926.29 322.609C1922.19 331.398 1918.53 339.455 1915.3 346.779C1911.79 355.275 1908.57 363.479 1905.64 371.389C1902.71 379.592 1899.63 388.674 1896.41 398.635C1893.48 407.131 1889.96 417.238 1885.86 428.957C1882.05 440.676 1877.66 453.566 1872.68 467.629L1855.98 468.508C1853.63 456.789 1851.29 446.242 1848.95 436.867C1846.6 427.199 1844.26 418.996 1841.92 412.258C1839.28 404.348 1836.64 397.316 1834.01 391.164C1831.08 385.012 1827.85 378.127 1824.34 370.51C1821.12 364.064 1817.16 356.447 1812.47 347.658C1808.08 338.869 1802.95 329.055 1797.09 318.215C1794.16 348.098 1792.4 372.414 1791.82 391.164C1791.23 409.621 1791.23 423.977 1791.82 434.23C1792.4 446.535 1793.28 455.471 1794.46 461.037C1796.21 466.018 1799 471.584 1802.8 477.736C1806.03 483.01 1810.42 489.309 1815.99 496.633C1821.85 503.664 1829.32 511.574 1838.4 520.363C1831.96 520.363 1825.22 520.363 1818.19 520.363C1811.15 520.363 1804.71 520.51 1798.85 520.803C1791.82 521.096 1784.93 521.242 1778.2 521.242C1771.16 521.535 1762.96 521.975 1753.59 522.561C1745.38 523.146 1735.57 523.732 1724.14 524.318C1712.72 524.904 1699.53 525.93 1684.59 527.395C1691.04 523.293 1696.31 519.338 1700.41 515.529C1704.51 511.428 1707.74 507.766 1710.08 504.543C1713.01 500.734 1715.21 496.926 1716.67 493.117C1717.55 490.773 1718.28 485.646 1718.87 477.736C1719.75 469.826 1720.48 460.158 1721.07 448.732C1721.95 437.307 1722.53 424.562 1722.82 410.5C1723.41 396.438 1723.85 382.229 1724.14 367.873C1724.73 353.225 1725.17 339.016 1725.46 325.246C1725.75 311.184 1725.9 298.586 1725.9 287.453C1726.19 276.027 1726.34 266.506 1726.34 258.889C1726.34 251.271 1726.34 246.437 1726.34 244.387C1725.46 239.992 1724.14 235.598 1722.38 231.203C1720.92 227.395 1718.58 223.439 1715.35 219.338C1712.13 215.236 1707.88 211.428 1702.61 207.912ZM2033.62 298.439C2039.48 299.318 2044.76 300.051 2049.45 300.637C2053.84 300.93 2057.79 301.223 2061.31 301.516C2065.12 301.809 2068.78 301.955 2072.3 301.955C2075.52 301.955 2079.62 301.809 2084.6 301.516C2088.7 301.223 2093.98 300.93 2100.42 300.637C2107.16 300.051 2115.07 299.318 2124.15 298.439C2123.57 299.611 2122.39 303.273 2120.64 309.426C2118.88 315.285 2117.12 322.609 2115.36 331.398C2113.61 339.895 2111.99 349.416 2110.53 359.963C2109.36 370.217 2108.77 380.471 2108.77 390.725C2109.06 400.686 2110.38 410.207 2112.73 419.289C2115.07 428.078 2118.88 435.256 2124.15 440.822C2135.29 452.248 2145.1 459.133 2153.6 461.477C2162.38 463.82 2170 463.527 2176.45 460.598C2182.89 457.668 2188.17 453.273 2192.27 447.414C2196.37 441.555 2199.3 436.135 2201.06 431.154C2205.45 417.678 2208.09 403.469 2208.97 388.527C2209.55 375.637 2208.53 361.281 2205.89 345.461C2203.25 329.641 2196.96 313.527 2186.99 297.121C2194.61 297.707 2201.2 298.146 2206.77 298.439C2212.34 298.732 2217.17 299.025 2221.27 299.318C2225.96 299.611 2230.06 299.904 2233.58 300.197C2236.8 300.49 2240.61 300.49 2245 300.197C2248.81 300.197 2253.35 300.051 2258.62 299.758C2264.19 299.172 2270.34 298.586 2277.08 298C2278.25 326.711 2279.28 352.346 2280.16 374.904C2281.04 397.17 2281.62 416.945 2281.92 434.23C2282.5 451.223 2282.79 466.018 2282.79 478.615C2282.79 490.92 2282.79 501.32 2282.79 509.816C2282.5 530.031 2281.62 543.361 2280.16 549.807C2277.81 558.889 2273.57 567.971 2267.41 577.053C2261.55 586.135 2254.08 594.191 2245 601.223C2235.92 608.547 2225.37 614.113 2213.36 617.922C2201.64 622.023 2188.75 623.488 2174.69 622.316C2160.92 621.145 2149.93 619.24 2141.73 616.604C2133.82 614.26 2127.52 611.477 2122.83 608.254C2118.44 605.031 2115.22 601.662 2113.17 598.146C2111.41 594.631 2110.09 590.969 2109.21 587.16C2108.33 583.645 2107.45 580.275 2106.57 577.053C2105.7 573.83 2103.94 571.047 2101.3 568.703C2098.08 566.066 2094.71 563.43 2091.19 560.793C2087.97 558.449 2084.46 556.105 2080.65 553.762C2077.13 551.418 2073.62 549.514 2070.1 548.049L2163.7 542.775C2161.07 546.291 2159.16 549.514 2157.99 552.443C2156.82 555.373 2156.09 557.863 2155.79 559.914C2155.5 562.551 2155.65 564.748 2156.23 566.506C2157.4 570.021 2159.46 573.83 2162.38 577.932C2165.61 582.326 2169.71 585.695 2174.69 588.039C2179.67 590.676 2185.53 591.555 2192.27 590.676C2199.3 589.797 2207.21 586.135 2216 579.689C2223.32 574.123 2229.47 565.188 2234.46 552.883C2238.56 542.336 2241.78 527.541 2244.12 508.498C2246.47 489.455 2246.03 464.406 2242.8 433.352C2237.53 451.516 2230.35 465.432 2221.27 475.1C2212.19 484.768 2203.11 491.799 2194.03 496.193C2183.48 501.467 2172.49 504.25 2161.07 504.543C2145.83 503.957 2132.79 502.053 2121.96 498.83C2111.12 495.314 2102.18 490.627 2095.15 484.768C2088.12 478.908 2082.55 472.023 2078.45 464.113C2074.64 455.91 2071.86 446.828 2070.1 436.867C2068.34 426.906 2067.46 416.945 2067.46 406.984C2067.46 396.73 2067.46 387.209 2067.46 378.42C2067.76 369.631 2067.9 361.721 2067.9 354.689C2067.9 347.365 2067.17 341.506 2065.71 337.111C2063.95 332.717 2061.6 328.322 2058.67 323.928C2056.33 320.119 2053.11 316.018 2049.01 311.623C2044.61 306.936 2039.48 302.541 2033.62 298.439ZM2413.97 208.352C2425.1 210.988 2435.06 213.039 2443.85 214.504C2452.93 215.676 2460.55 216.555 2466.7 217.141C2474.03 218.02 2480.47 218.312 2486.04 218.02C2493.07 217.727 2501.86 216.701 2512.4 214.943C2522.95 213.186 2534.08 211.428 2545.8 209.67C2557.52 207.912 2569.09 206.447 2580.52 205.275C2591.95 204.104 2601.91 203.957 2610.4 204.836C2618.9 205.715 2627.83 207.766 2637.21 210.988C2646.58 213.918 2655.37 218.02 2663.58 223.293C2671.78 228.273 2678.81 234.426 2684.67 241.75C2690.82 249.074 2694.63 257.57 2696.1 267.238C2697.56 276.613 2696.68 286.721 2693.46 297.561C2690.24 308.107 2685.11 318.508 2678.08 328.762C2671.05 338.723 2662.26 347.951 2651.71 356.447C2641.16 364.943 2629.45 371.828 2616.55 377.102C2606.3 380.91 2595.17 383.84 2583.16 385.891C2572.9 387.648 2560.89 388.82 2547.12 389.406C2533.64 389.699 2519.29 388.234 2504.05 385.012C2502 393.508 2500.83 401.418 2500.54 408.742C2500.54 415.773 2500.83 422.072 2501.42 427.639C2502.3 434.084 2503.47 439.943 2504.93 445.217C2506.69 450.49 2508.89 456.643 2511.53 463.674C2513.87 469.533 2516.51 476.711 2519.44 485.207C2522.66 493.41 2526.47 502.639 2530.86 512.893C2525.59 512.893 2520.46 513.039 2515.48 513.332C2510.5 513.332 2505.96 513.479 2501.86 513.771C2497.17 514.064 2492.78 514.357 2488.67 514.65C2483.99 514.943 2478.71 515.529 2472.85 516.408C2467.87 516.994 2461.57 517.873 2453.96 519.045C2446.63 520.217 2438.28 521.682 2428.91 523.439C2435.06 514.65 2439.89 506.594 2443.41 499.27C2447.22 491.652 2450 485.061 2451.76 479.494C2453.81 473.049 2455.13 467.189 2455.71 461.916C2456.01 457.521 2456.01 449.758 2455.71 438.625C2455.71 427.492 2455.57 414.602 2455.28 399.953C2454.98 385.305 2454.54 369.924 2453.96 353.811C2453.37 337.697 2452.64 322.609 2451.76 308.547C2450.88 294.191 2449.86 281.887 2448.68 271.633C2447.8 261.379 2446.93 254.641 2446.05 251.418C2444.88 247.609 2442.82 243.508 2439.89 239.113C2437.55 235.305 2434.18 230.91 2429.79 225.93C2425.69 220.656 2420.41 214.797 2413.97 208.352ZM2504.93 294.924C2504.64 297.854 2504.49 300.93 2504.49 304.152C2504.49 310.305 2504.93 318.215 2505.81 327.883C2507.86 332.863 2510.35 336.965 2513.28 340.188C2516.51 343.41 2519.88 345.9 2523.39 347.658C2527.2 349.416 2531.01 350.588 2534.82 351.174C2538.62 351.76 2542.43 352.053 2546.24 352.053C2555.03 351.76 2564.26 349.709 2573.93 345.9C2586.82 340.334 2595.9 332.424 2601.17 322.17C2606.45 311.916 2609.23 301.369 2609.52 290.529C2609.82 279.689 2607.91 269.729 2603.81 260.646C2600 251.564 2595.31 245.412 2589.75 242.189C2585.06 240.139 2579.05 239.26 2571.73 239.553C2565.29 239.846 2557.23 241.457 2547.56 244.387C2537.89 247.316 2526.03 252.59 2511.96 260.207C2510.5 265.48 2509.33 270.168 2508.45 274.27C2507.57 278.371 2506.84 282.033 2506.25 285.256C2505.67 288.771 2505.23 291.994 2504.93 294.924ZM2789.37 452.248C2797.57 452.248 2805.19 451.369 2812.22 449.611C2818.08 448.146 2823.64 445.803 2828.92 442.58C2834.48 439.064 2838.15 433.938 2839.9 427.199C2845.76 428.371 2850.74 429.396 2854.85 430.275C2858.95 430.861 2862.46 431.447 2865.39 432.033C2868.62 432.912 2871.4 433.498 2873.74 433.791C2876.09 434.377 2878.87 434.963 2882.09 435.549C2885.02 436.135 2888.54 436.867 2892.64 437.746C2897.03 438.332 2902.16 439.211 2908.02 440.383C2903.62 439.797 2899.08 440.236 2894.4 441.701C2890 443.166 2885.75 444.777 2881.65 446.535C2876.96 448.586 2872.57 451.076 2868.47 454.006C2865.83 455.764 2862.76 458.4 2859.24 461.916C2856.02 465.432 2851.33 468.801 2845.18 472.023C2839.03 475.246 2830.82 478.029 2820.57 480.373C2810.61 482.424 2797.72 483.156 2781.9 482.57C2762.85 481.984 2746.89 478.615 2734 472.463C2721.11 466.018 2710.71 458.254 2702.79 449.172C2694.88 439.797 2689.17 429.689 2685.66 418.85C2682.14 408.01 2680.24 397.902 2679.94 388.527C2679.65 379.152 2682.43 369.338 2688.29 359.084C2694.15 348.83 2702.36 339.455 2712.9 330.959C2723.74 322.463 2736.78 315.578 2752.01 310.305C2767.25 304.738 2783.95 301.955 2802.11 301.955C2812.66 301.955 2822.33 303.273 2831.12 305.91C2840.2 308.254 2848.4 311.477 2855.72 315.578C2863.34 319.68 2869.93 324.367 2875.5 329.641C2881.07 334.621 2885.75 339.748 2889.56 345.021C2893.37 350.588 2896.59 356.447 2899.23 362.6C2901.57 367.873 2903.48 373.879 2904.94 380.617C2906.41 387.355 2906.85 394.24 2906.26 401.271C2884 401.857 2865.98 402.297 2852.21 402.59C2838.73 402.883 2828.19 403.029 2820.57 403.029H2800.79H2785.85C2780.58 403.029 2773.69 403.176 2765.2 403.469C2756.7 403.762 2746.3 404.201 2734 404.787C2735.46 416.506 2739.12 425.588 2744.98 432.033C2751.13 438.186 2757.58 442.873 2764.32 446.096C2771.94 449.611 2780.29 451.662 2789.37 452.248ZM2749.82 373.146C2759.19 373.732 2766.96 374.172 2773.11 374.465C2779.55 374.758 2784.83 375.051 2788.93 375.344C2793.32 375.637 2796.84 375.783 2799.47 375.783H2810.46C2817.79 375.783 2831.41 375.344 2851.33 374.465C2850.45 361.574 2847.67 351.76 2842.98 345.021C2838.59 338.283 2833.9 333.303 2828.92 330.08C2823.06 326.564 2816.61 324.514 2809.58 323.928C2790.54 324.221 2776.33 328.176 2766.96 335.793C2757.87 343.41 2752.16 355.861 2749.82 373.146ZM2908.57 246.145C2917.36 247.023 2924.68 247.756 2930.54 248.342C2936.69 248.928 2941.67 249.367 2945.48 249.66C2949.88 249.953 2953.39 250.1 2956.03 250.1C2958.66 250.393 2962.18 250.393 2966.57 250.1C2970.38 249.807 2975.36 249.514 2981.52 249.221C2987.67 248.635 2995.43 247.756 3004.81 246.584C3002.76 249.514 3001.14 252.15 2999.97 254.494C2998.8 256.545 2997.78 258.449 2996.9 260.207L2994.26 265.48C2993.67 267.238 2993.09 268.996 2992.5 270.754C2991.92 272.219 2991.33 273.977 2990.74 276.027C2990.45 278.078 2990.16 280.275 2989.87 282.619H3057.54L3051.39 318.215L2989.43 314.699C2987.96 329.641 2986.94 341.213 2986.35 349.416C2985.76 357.619 2985.18 363.625 2984.59 367.434L2983.71 375.344C2982.83 386.477 2981.96 398.635 2981.08 411.818C2980.2 424.709 2979.9 436.721 2980.2 447.854C2980.49 458.986 2981.52 468.361 2983.27 475.979C2985.03 483.303 2988.11 486.965 2992.5 486.965C2996.9 486.965 3001 485.793 3004.81 483.449C3008.62 481.105 3011.84 478.322 3014.47 475.1C3017.4 471.877 3019.6 468.654 3021.07 465.432C3022.53 461.916 3023.26 459.279 3023.26 457.521C3023.26 455.764 3022.82 453.713 3021.95 451.369C3020.48 446.975 3017.84 441.408 3014.04 434.67C3022.53 436.721 3030 438.771 3036.45 440.822C3039.67 441.994 3042.6 443.166 3045.24 444.338C3048.17 445.51 3051.54 446.828 3055.34 448.293C3058.57 449.758 3062.67 451.516 3067.65 453.566C3072.63 455.617 3078.49 458.107 3085.23 461.037C3078.78 462.209 3074.09 464.113 3071.16 466.75C3069.41 467.922 3068.09 469.24 3067.21 470.705C3065.16 473.928 3062.81 478.322 3060.18 483.889C3057.54 489.162 3053.59 494.436 3048.31 499.709C3043.04 504.982 3035.86 509.67 3026.78 513.771C3017.99 517.873 3006.12 520.217 2991.18 520.803C2975.66 521.389 2963.79 518.752 2955.59 512.893C2947.68 507.033 2941.82 500.295 2938.01 492.678C2934.49 484.768 2932.44 477.004 2931.86 469.387C2931.27 461.77 2930.83 456.643 2930.54 454.006C2930.25 451.369 2930.25 444.777 2930.54 434.23C2930.83 423.684 2931.27 412.111 2931.86 399.514C2932.44 386.623 2933.03 374.318 2933.62 362.6C2934.2 350.588 2934.49 341.799 2934.49 336.232C2934.49 333.303 2934.64 330.227 2934.93 327.004C2934.93 324.367 2934.93 321.584 2934.93 318.654C2935.23 315.432 2935.37 312.355 2935.37 309.426L2871.65 308.986L2869.02 283.938L2933.18 285.695C2932.59 282.473 2931.86 279.543 2930.98 276.906C2930.39 273.977 2929.81 271.633 2929.22 269.875C2928.34 267.824 2927.46 266.066 2926.58 264.602C2925.41 263.137 2924.09 261.525 2922.63 259.768C2921.16 258.303 2919.26 256.398 2916.92 254.055C2914.57 251.711 2911.79 249.074 2908.57 246.145Z" fill="#CC8000"/>
<path d="M439.605 239.9L491.09 87.1261C491.09 87.1261 507.499 20.5605 328.18 20.5605C148.861 20.5605 144.173 87.1261 144.173 87.1261L206.876 239.9C206.876 239.9 233.246 278.638 319.39 282.458C405.533 286.277 439.605 239.9 439.605 239.9Z" fill="white" stroke="white" stroke-width="20"/>
<path d="M113.288 83.1253C142.381 41.1258 196.363 20.5139 245.353 9.4879C344.193 -12.7575 459.264 3.62955 518.438 63.7804C522.846 67.7103 533.764 84.0791 532.919 90.0566C532.909 90.9178 532.928 91.423 532.895 92.3073C525.113 117.067 509.752 137.337 496.807 158.882C490.72 169.013 482.596 177.293 470.277 180.069C444.12 185.964 422.397 168.069 422.005 139.72C421.605 110.797 421.657 81.8678 421.682 52.9416C421.685 49.2578 420.887 47.2687 417.124 45.7292C354.573 20.1382 291.899 21.3978 228.543 45.2569C225.035 46.5777 223.963 48.2831 223.975 51.9521C224.069 81.4241 224.121 110.899 223.812 140.368C223.647 156.177 217.463 169.112 202.956 176.707C185.029 186.094 164.525 180.516 152.008 163.106C137.579 143.036 105.946 97.5564 113.288 83.1253Z" fill="#333333"/>
<path d="M371.712 131.717C365.966 126.658 363.215 120.916 364.067 113.926C365.154 105.018 372.085 97.9078 380.888 96.3759C389.099 94.9469 397.958 99.6922 401.882 107.622C405.941 115.825 403.812 125.224 396.482 131.459C389.331 137.542 382.016 137.724 371.712 131.717Z" fill="#333333"/>
<path d="M286.343 120.73C282.675 132.751 273.515 138.828 262.784 136.969C253.292 135.324 246.209 126.836 246.345 117.266C246.486 107.232 254.009 98.6391 263.683 97.4625C276.334 95.9235 285.803 105.36 286.343 120.73Z" fill="#333333"/>
<path d="M147.551 710.383C127.909 710.527 108.265 710.151 88.6239 710.563C71.0326 710.933 54.2765 711.219 36.2079 710.992C32.0422 710.94 28.0044 710.519 24.3213 707.313C23.9973 706.567 23.8329 706.279 23.2471 706.03C22.6638 705.769 22.3688 705.523 21.9637 704.984C21.7669 703.65 20.9914 703.383 19.907 702.988C20.2702 701.339 20.2111 699.973 19.0163 698.489C17.201 696.967 17.0473 695.43 18.2891 693.359C21.269 686.639 26.0314 683.332 33.3242 682.919C39.7032 680.946 45.8701 681.67 51.9382 681.266C54.1029 681.123 56.2834 681.296 58.8659 681.182C59.7783 681.028 60.2616 680.867 60.946 680.34C63.1543 672.339 64.9533 664.611 70.6524 658.438C72.9175 655.985 75.6564 654.306 78.4653 651.98C79.1899 651.364 79.6231 651.037 80.4098 650.508C89.065 646.193 97.8973 644.921 107.067 645.437C108.686 645.529 110.313 645.545 111.939 645.48C117.129 645.272 117.129 645.282 114.296 639.969C113.428 638.336 112.953 636.938 112.11 635.326C101.937 615.154 99.8557 594.757 99.7603 572.715C101.858 537.66 117.417 503.231 143.198 479.324C150.76 472.311 153.793 464.997 153.587 454.608C152.881 419.149 158.063 384.295 166.398 349.857C175.087 313.953 185.125 278.405 194.318 242.634C195.35 238.618 194.919 235.331 192.692 231.815C185.946 221.168 180.24 210.011 177.445 197.581C175.864 190.551 176.86 189.375 183.812 189.782C188.712 190.068 193.676 190.511 198.448 189.002C202.881 187.601 205.348 189.305 206.84 193.4C210.305 202.908 215.264 211.596 222.146 219.015C232.25 229.909 243.994 238.183 259.064 240.754C285.876 245.329 307.615 229.7 311.378 203.158C312.22 197.214 311.821 192.343 305.459 188.974C300.521 186.359 296.821 181.795 294.243 176.603C286.985 161.984 296.5 145.81 312.791 145.256C319.517 145.027 326.264 144.97 332.985 145.286C341.155 145.67 347.749 149.048 351.607 156.605C355.587 164.402 355.17 172.052 350.351 179.381C347.617 183.539 344.314 187.253 339.769 189.397C335.675 191.329 334.598 194.35 334.602 198.607C334.629 224.693 357.654 244.538 383.952 240.956C409.286 237.505 424.364 221.263 435.194 199.769C436.174 197.822 436.768 195.697 437.525 193.65C439.005 189.648 441.591 187.82 445.977 188.955C451.52 190.389 457.16 190.046 462.803 189.676C467.712 189.355 468.778 190.414 467.873 195.324C465.633 207.473 461.177 218.829 453.863 228.784C449.717 234.427 449.043 239.62 450.87 246.488C461.856 287.796 473.874 328.845 482.479 370.768C488.538 400.29 491.899 430.033 490.754 460.183C490.521 466.325 492.404 470.884 496.904 475.071C518.619 495.279 533.192 519.844 540.905 548.495C546.635 569.778 546.486 591.871 540.594 613.123C536.84 624.733 533.16 635.928 525.021 646.634C536.486 646.235 546.692 647.967 556.594 645.784C578.602 640.934 588.392 617.391 581.816 602.128C581.517 601.545 581.393 601.316 581.104 600.737C577.634 592.494 570.791 587.504 565.09 581.074C564.074 579.683 563.377 578.548 562.496 577.035C555.506 559.399 570.723 547.507 582.523 549.487C587.667 550.351 592.262 552.566 596.071 555.937C601.615 560.844 607.027 565.952 611.57 572.406C612.295 573.385 612.671 574.094 613.239 575.131C614.276 577.215 615.354 578.839 616.507 580.836C617.126 582.001 617.469 582.896 617.965 584.115C618.35 585.126 618.555 585.82 618.955 586.839C619.437 588.136 619.727 589.108 620.205 590.441C620.651 592.183 620.948 593.549 621.735 595.24C626.38 613.165 622.372 630.987 613.669 647.195C605.128 663.1 592.818 674.673 575.587 681.428C575.243 682.231 574.72 682.294 574.421 682.582C575.007 683.014 574.228 682.494 575.252 682.697C588.422 682.843 601.289 682.91 614.155 682.92C616.694 682.922 619.191 682.952 621.961 684.219C624.673 684.508 625.544 686.221 626.587 688.267C626.813 688.542 626.809 688.552 626.813 688.552C627.078 688.813 627.322 689.089 627.675 689.627C631.269 697.651 628.399 703.422 621.687 708.228C489.195 714.764 278.953 710.942 147.551 710.383Z" fill="#333333"/>
<path d="M231.547 524.05C261.582 494.015 278.508 538.245 327.11 533.333C375.712 528.421 400.831 495.108 416.122 532.788C431.412 570.468 431.958 684.598 431.958 684.598H203.15C203.15 684.598 201.513 554.085 231.547 524.05Z" fill="#333333"/>
<path d="M463.612 463.573C463.372 464.461 463.314 464.957 463.373 465.813C464.561 468.419 464.161 470.822 464.164 473.16C464.209 508.967 464.18 544.774 464.182 580.581C464.184 614.535 464.299 648.489 463.931 682.963C462.859 684.615 461.544 684.455 460.281 684.455C436.993 684.458 413.704 684.457 390.516 684.457C389.662 683.496 390.162 682.739 390.522 681.903C408.508 640.156 411.241 597.614 397.093 554.218C393.435 542.995 389.54 531.848 386.008 520.587C384.819 516.796 383.527 516.666 380.549 518.942C361.14 533.774 339.018 539.318 314.938 537.183C295.996 535.504 279.019 528.451 264.245 516.507C260.947 513.841 259.063 513.729 256.3 516.927C231.759 545.329 212.817 576.398 208.166 614.645C205.233 638.771 208.811 661.359 222.361 681.929C222.745 682.511 223.043 683.15 223.763 684.452C210.111 684.452 196.961 684.444 183.812 684.46C181.69 684.463 181.615 683.056 181.617 681.516C181.62 679.151 181.585 676.785 181.592 674.42C181.785 606.364 181.901 538.308 182.211 470.253C182.375 434.236 188.058 398.891 195.998 363.864C201.505 339.57 209.017 315.836 216.336 292.051C216.649 291.034 217.163 290.078 217.706 288.809C232.045 297.927 246.852 305.528 262.948 310.325C269.376 312.241 275.868 313.974 282.403 315.476C285.087 316.093 286.038 317.005 286.418 319.962C289.821 346.41 316.073 361.333 339.902 350.233C352.344 344.437 359.269 334.04 361.218 320.574C361.692 317.296 362.719 316.007 365.884 315.256C387.598 310.103 408.087 302 426.831 288.908C445.419 344.703 460.226 400.947 463.25 460.228C463.831 461.482 464.035 462.294 463.612 463.573Z" fill="white"/>
<path d="M244.054 485.253C240.853 486.224 238.084 487.142 235.254 487.798C231.395 488.693 227.536 488.404 226.353 483.957C225.258 479.842 228.291 477.503 231.791 476.364C237.483 474.511 243.315 473.09 249.032 471.309C250.327 470.906 252.802 471.256 252.245 468.652C251.789 466.516 249.864 467.461 248.622 467.478C242.439 467.562 236.255 467.744 230.078 468.033C225.76 468.234 221.758 467.851 221.009 462.574C220.435 458.528 223.829 456.169 229.697 456.159C235.337 456.149 240.996 455.889 246.612 456.268C251.109 456.571 252.684 455.748 252.608 450.556C252.242 425.635 252.462 400.706 252.484 375.78C252.484 375.249 252.607 374.719 252.683 374.108C255.148 373.748 256.72 375.541 258.568 376.507C270.793 382.895 283.023 389.275 295.126 395.887C296.933 396.874 298.085 396.461 299.59 395.853C315.405 389.461 331.426 389.055 347.51 394.605C349.825 395.404 351.189 394.663 352.989 393.73C365.235 387.385 377.563 381.197 389.79 374.815C393.088 373.093 393.955 373.584 393.957 377.432C393.968 401.994 394.296 426.555 394.26 451.117C394.254 455.14 395.164 456.544 399.365 456.291C405.71 455.907 412.098 456.295 418.462 456.136C423.08 456.021 425.417 458.473 425.389 462.641C425.359 466.976 422.225 468.318 418.223 468.173C411.315 467.922 404.405 467.749 397.494 467.606C396.146 467.578 394.165 467.03 393.891 468.945C393.624 470.812 395.715 470.959 396.981 471.413C402.445 473.375 407.957 475.204 413.444 477.102C416.945 478.313 419.387 480.478 417.897 484.426C416.513 488.093 413.796 489.698 409.637 488.167C404.872 486.414 399.784 485.427 395.207 483.308C391.004 481.362 389.19 482.768 387.21 486.319C377.351 504.007 362.027 514.682 342.702 519.637C310.027 528.016 277.577 514.658 259.559 485.445C257.361 481.881 255.584 480.442 251.641 482.543C249.425 483.724 246.865 484.258 244.054 485.253Z" fill="#333333"/>
<path d="M370.432 485.94C356.963 501.234 340.436 507.573 320.514 505.675C306.775 504.366 293.352 487.337 303.192 471.864C306.124 467.254 308.817 462.461 312.513 458.452C324.959 444.954 321.504 425.919 310.981 414.324C309.063 412.211 306.926 410.297 304.779 408.181C335.102 396.422 371.748 414.098 379.376 443.893C383.293 459.192 379.853 473.024 370.432 485.94Z" fill="white"/>
<path d="M328.742 472.668C331.08 479.639 333.372 480.999 339.412 479.002C340.993 478.479 342.216 478.216 343.19 479.737C344.221 481.348 343.608 482.932 342.782 484.369C340.279 488.72 333.239 489.959 328.178 486.88C326.647 485.948 325.33 484.663 323.806 483.452C320.69 487.021 316.878 489.23 311.961 488.856C309.331 488.656 306.961 487.859 305.592 485.318C304.776 483.803 304.363 482.304 305.467 480.719C306.541 479.176 307.787 479.526 309.296 480.033C311.618 480.814 313.937 480.656 316.092 479.254C320.045 476.682 320.606 472.238 317.283 468.899C315.168 466.775 313.163 464.632 314.373 461.312C315.521 458.163 318.393 457.159 321.235 456.617C324.269 456.038 327.412 456.068 330.268 457.679C334.452 460.04 335.062 463.925 331.866 467.466C330.571 468.901 328.661 469.947 328.742 472.668Z" fill="#333333"/>
<path d="M337.807 442.961C341.265 436.759 345.733 434.269 351.002 435.25C356.66 436.304 360.252 439.908 360.721 445.003C361.364 451.975 356.29 457.936 349.623 458.042C342.556 458.153 337.323 451.72 337.807 442.961Z" fill="#333333"/>
<path d="M255.246 545.094C253.021 543.841 251.537 542.957 253.567 540.431C255.74 537.728 256.981 539.92 258.428 540.922C290.914 563.425 325.909 569.215 363.627 556.695C367.067 555.553 370.484 554.205 373.689 552.527C376.668 550.967 377.947 551.461 379.102 554.708C384.939 571.122 388.204 587.945 388.215 605.407C388.231 631.661 382.98 656.635 370.549 679.922C368.427 683.898 362.223 686.184 358.304 684.459C356.171 683.519 357.132 681.632 357.116 680.193C356.996 668.912 356.971 657.63 356.983 646.348C356.986 643.591 356.682 640.889 355.81 638.298C354.148 633.36 350.019 630.559 344.993 630.885C339.444 631.245 336.849 634.944 336.386 639.82C335.803 645.955 335.956 652.166 335.928 658.345C335.893 665.805 335.865 673.269 336.111 680.723C336.214 683.845 335.222 684.786 332.122 684.689C325.396 684.479 318.658 684.579 311.927 684.682C309.601 684.717 308.254 684.424 308.284 681.514C308.464 664.047 308.459 646.579 308.545 629.112C308.738 589.72 287.61 567.95 255.246 545.094Z" fill="white"/>
<path d="M246.191 259.319C262.603 265.383 278.706 264.889 294.643 259.52C306.121 255.653 314.103 247.169 320.916 237.9C351.552 273.043 385.253 269.248 420.489 245.472C423.253 254.574 423.244 254.561 415.926 259.837C396.567 273.794 374.885 282.066 351.497 286.137C348.433 286.67 345.744 286.146 342.784 284.496C328.984 276.803 315.129 276.686 301.58 285.417C300.287 286.251 299.344 287.192 297.271 286.838C271.201 282.38 246.675 273.982 224.69 258.963C217.232 253.868 217.291 253.782 220.509 244.707C228.294 250.801 236.704 255.599 246.191 259.319Z" fill="white"/>
<circle cx="321.652" cy="576.122" r="18.0208" fill="#333333"/>
</g>
<defs>
<clipPath id="clip0_495_471">
<rect width="3397" height="712" fill="white"/>
</clipPath>
</defs>
</svg>
