<svg width="3138" height="712" viewBox="0 0 3138 712" fill="none" xmlns="http://www.w3.org/2000/svg">
<rect width="3138" height="712" fill="white"/>
<path d="M865.516 208.883C873.979 212.268 882.117 214.807 889.93 216.5C897.872 218.062 906.661 218.844 916.297 218.844C933.354 218.844 951.974 215.523 972.156 208.883C962.781 226.07 957.638 242.477 956.727 258.102C944.096 257.451 932.833 255.497 922.938 252.242C913.042 248.987 904.057 244.365 895.984 238.375C887.26 231.865 880.359 226.331 875.281 221.773C870.333 217.086 866.948 213.44 865.125 210.836C862.26 229.065 860.112 249.052 858.68 270.797C857.378 292.411 856.727 316.109 856.727 341.891V345.406C892.664 343.583 923.393 336.227 948.914 323.336C945.919 328.805 943.25 335.836 940.906 344.43C938.562 353.023 936.87 362.398 935.828 372.555L930.555 370.992C923.263 368.779 913.758 367.086 902.039 365.914C890.32 364.742 876.258 364.221 859.852 364.352H856.922C857.312 392.607 858.029 416.24 859.07 435.25C860.112 454.26 861.74 468.844 863.953 479L865.516 486.031C859.917 486.682 854.578 487.724 849.5 489.156C844.552 490.458 839.93 491.956 835.633 493.648C831.466 495.341 827.69 497.099 824.305 498.922C821.049 500.745 818.38 502.438 816.297 504C819.161 484.599 821.245 464.091 822.547 442.477C823.979 420.732 824.695 397.555 824.695 372.945C824.435 338.31 823.654 309.339 822.352 286.031C821.18 262.594 819.552 244.885 817.469 232.906L816.297 226.266C824.24 225.354 832.117 223.531 839.93 220.797C847.872 218.062 856.401 214.091 865.516 208.883ZM1001.45 272.75C1003.93 262.073 1005.16 250.875 1005.16 239.156C1005.16 235.641 1005.03 232.125 1004.77 228.609C1004.64 225.094 1004.32 221.578 1003.8 218.062L1002.62 213.961C1019.42 212.268 1036.41 206.474 1053.6 196.578L1054.97 195.797C1052.89 203.219 1051.84 213.831 1051.84 227.633C1051.84 231.279 1051.97 235.315 1052.23 239.742C1052.62 244.039 1053.15 248.792 1053.8 254C1048.46 254.651 1043.12 255.693 1037.78 257.125C1032.57 258.427 1027.62 259.99 1022.94 261.812C1018.38 263.505 1014.21 265.328 1010.44 267.281C1006.79 269.234 1003.8 271.057 1001.45 272.75ZM1004.77 504C1007.25 484.339 1009.07 466.5 1010.24 450.484C1011.54 434.339 1012.2 419.755 1012.2 406.734C1012.2 396.188 1012.07 386.357 1011.8 377.242C1011.67 367.997 1011.35 359.273 1010.83 351.07C1010.31 342.737 1009.59 334.729 1008.68 327.047C1007.9 319.365 1006.92 311.617 1005.75 303.805L1004.77 300.68C1012.72 299.768 1020.59 297.945 1028.41 295.211C1036.35 292.346 1044.42 288.635 1052.62 284.078L1053.99 283.297C1047.48 305.823 1044.23 337.138 1044.23 377.242V384.078C1044.23 420.667 1046.96 452.307 1052.43 479L1053.99 486.031C1048.39 486.682 1043.05 487.724 1037.98 489.156C1033.03 490.458 1028.41 491.956 1024.11 493.648C1019.94 495.341 1016.17 497.099 1012.78 498.922C1009.53 500.745 1006.86 502.438 1004.77 504ZM1113.56 504C1118.51 464.938 1120.98 432.516 1120.98 406.734C1120.98 393.844 1120.92 386.812 1120.79 385.641C1120.53 355.302 1118.45 328.023 1114.54 303.805L1113.56 300.68C1129.32 298.857 1145.27 293.323 1161.41 284.078L1162.78 283.297C1160.18 290.979 1157.38 299.833 1154.38 309.859L1197.16 283.297C1204.58 285.25 1213.76 289.026 1224.7 294.625C1234.85 299.964 1244.62 307.06 1253.99 315.914C1265.45 326.852 1273.52 338.896 1278.21 352.047C1283.29 364.547 1286.02 378.219 1286.41 393.062C1287.59 430.953 1289.99 459.599 1293.64 479L1295.2 486.031C1286.48 487.073 1278.54 488.896 1271.38 491.5C1260.05 495.667 1251.58 499.833 1245.98 504C1251.06 469.885 1253.6 436.878 1253.6 404.977C1253.47 400.81 1253.41 397.099 1253.41 393.844C1253.41 378.87 1251.06 367.542 1246.38 359.859C1238.56 348.401 1227.23 338.961 1212.39 331.539C1199.37 325.029 1180.1 319.169 1154.58 313.961H1154.38C1153.47 323.466 1153.02 344.56 1153.02 377.242V384.078C1153.02 420.667 1155.75 452.307 1161.22 479L1162.78 486.031C1153.93 487.073 1145.98 488.896 1138.95 491.5C1127.62 495.667 1119.16 499.833 1113.56 504ZM1467.47 370.602C1460.96 353.023 1449.37 338.896 1432.7 328.219C1422.16 321.448 1403.28 315.719 1376.06 311.031L1375.87 311.227C1372.22 318.128 1368.18 329.911 1363.76 346.578C1360.63 358.297 1359.07 369.365 1359.07 379.781C1359.07 383.948 1359.4 388.18 1360.05 392.477C1361.74 403.544 1366.56 415.198 1374.5 427.438C1382.31 439.547 1393.58 448.987 1408.29 455.758C1421.18 461.747 1439.54 467.477 1463.37 472.945C1466.23 446.122 1467.79 415.979 1468.05 382.516C1467.92 378.479 1467.73 374.508 1467.47 370.602ZM1508.68 208.883C1503.08 247.945 1500.28 291.695 1500.28 340.133C1500.28 344.951 1500.35 351.982 1500.48 361.227C1501.26 416.565 1503.6 456.148 1507.51 479.977L1508.68 486.617C1492.92 488.44 1476.97 493.974 1460.83 503.219L1459.46 504C1460.63 496.188 1461.74 488.049 1462.78 479.586L1423.72 504C1416.04 502.047 1406.79 498.271 1395.98 492.672C1383.74 486.292 1373.98 479.195 1366.69 471.383C1356.27 460.185 1348.26 448.141 1342.66 435.25C1337.07 423.531 1334.27 409.859 1334.27 394.234C1334.27 393.714 1334.27 393.453 1334.27 393.453C1334.92 378.349 1338.11 363.961 1343.84 350.289C1347.87 340.654 1354.32 330.562 1363.17 320.016C1365.91 316.76 1369.81 313.245 1374.89 309.469L1416.3 283.297C1423.85 284.729 1433.16 288.375 1444.23 294.234C1451.39 298.01 1458.88 303.089 1466.69 309.469C1465.65 284.729 1463.63 259.208 1460.63 232.906L1459.85 229.195L1459.46 226.852V226.266C1475.09 224.443 1491.04 218.909 1507.31 209.664L1508.68 208.883ZM1664.73 504C1671.24 482.255 1680.03 434.078 1691.1 359.469C1696.57 322.62 1701 288.245 1704.38 256.344C1697.74 243.844 1691.56 233.883 1685.83 226.461C1693.64 225.549 1701.58 223.727 1709.66 220.992C1721.51 216.956 1729.97 212.919 1735.05 208.883V209.273L1735.44 208.883L1735.24 209.273C1739.15 225.159 1753.34 271.969 1777.82 349.703C1795.53 405.693 1807.83 437.789 1814.73 445.992C1821.9 435.706 1835.83 402.503 1856.53 346.383C1876.06 293.388 1888.17 257.906 1892.86 239.938C1892.21 238.115 1890.97 235.51 1889.15 232.125L1885.83 225.875C1901.58 224.052 1917.53 218.518 1933.68 209.273L1935.05 208.492V208.688V208.883C1935.05 250.68 1938.76 296.969 1946.18 347.75C1955.16 408.948 1964.67 452.698 1974.7 479C1976.39 483.427 1977.56 485.771 1978.21 486.031C1969.36 487.073 1961.41 488.896 1954.38 491.5C1943.05 495.667 1934.59 499.833 1928.99 504C1929.25 501.526 1929.38 498.466 1929.38 494.82C1929.12 470.211 1924.57 422.229 1915.71 350.875C1912.07 321.318 1908.03 296.513 1903.6 276.461L1874.5 347.555C1854.06 399.378 1841.36 443.128 1836.41 478.805C1835.89 482.581 1835.57 484.534 1835.44 484.664L1835.63 486.617C1819.88 488.44 1803.93 493.974 1787.78 503.219L1786.41 504C1782.25 464.677 1769.03 415.198 1746.77 355.562C1736.22 327.307 1726.45 303.284 1717.47 283.492C1713.82 305.237 1709.98 330.823 1705.95 360.25C1699.7 405.042 1695.79 445.667 1694.23 482.125L1694.03 486.617C1684.14 488.57 1674.63 494.104 1665.52 503.219L1664.73 504ZM2007.7 301.266C2013.17 300.745 2018.38 299.833 2023.33 298.531C2028.41 297.099 2033.03 295.536 2037.2 293.844C2041.49 292.021 2045.27 290.198 2048.52 288.375C2051.91 286.552 2054.71 284.859 2056.92 283.297C2051.84 317.542 2049.3 350.549 2049.3 382.32C2049.57 387.919 2049.76 392.932 2049.89 397.359C2050.15 401.786 2050.48 405.823 2050.87 409.469C2051.26 412.984 2051.91 416.24 2052.82 419.234C2053.73 422.099 2054.97 424.833 2056.53 427.438C2060.31 433.036 2064.6 438.049 2069.42 442.477C2074.37 446.904 2080.42 450.94 2087.59 454.586C2094.75 458.102 2103.21 461.422 2112.98 464.547C2122.87 467.542 2134.66 470.471 2148.33 473.336H2148.52C2148.65 468.518 2148.72 463.701 2148.72 458.883C2148.85 453.935 2148.91 448.987 2148.91 444.039V437.203C2148.78 405.823 2148.2 379.456 2147.16 358.102C2146.11 336.747 2144.29 320.146 2141.69 308.297L2140.12 301.266C2145.59 300.745 2150.8 299.833 2155.75 298.531C2160.83 297.099 2165.45 295.536 2169.62 293.844C2173.91 292.021 2177.69 290.198 2180.95 288.375C2184.33 286.552 2187.13 284.859 2189.34 283.297C2186.48 302.958 2184.33 323.661 2182.9 345.406C2181.6 367.151 2180.95 390.198 2180.95 414.547C2181.08 448.922 2181.73 477.763 2182.9 501.07C2184.2 524.378 2185.96 542.151 2188.17 554.391L2189.34 561.031C2181.53 561.943 2173.65 563.766 2165.71 566.5C2157.77 569.365 2149.24 573.336 2140.12 578.414C2142.34 563.831 2144.16 548.206 2145.59 531.539C2147.03 514.872 2148 496.839 2148.52 477.438L2105.75 504C2100.28 502.568 2093.64 500.029 2085.83 496.383C2078.02 492.607 2070.14 487.854 2062.2 482.125C2054.25 476.266 2046.9 469.43 2040.12 461.617C2033.35 453.805 2028.21 445.016 2024.7 435.25C2019.62 422.75 2016.88 409.078 2016.49 394.234C2015.84 375.224 2014.93 358.622 2013.76 344.43C2012.59 330.107 2011.09 318.062 2009.27 308.297L2007.7 301.266ZM2374.89 504C2377.76 484.078 2379.9 465.263 2381.34 447.555C2382.77 429.846 2383.48 413.115 2383.48 397.359C2383.48 379.13 2382.7 361.747 2381.14 345.211C2379.71 328.544 2378.02 312.724 2376.06 297.75L2374.89 291.109C2382.83 290.198 2390.71 288.375 2398.52 285.641C2406.47 282.776 2414.99 278.805 2424.11 273.727C2421.11 292.737 2418.84 310.185 2417.27 326.07C2415.84 341.956 2415.12 356.409 2415.12 369.43C2415.12 371.773 2415.12 373.922 2415.12 375.875C2415.12 377.828 2415.19 379.977 2415.32 382.32C2415.45 384.664 2415.58 387.398 2415.71 390.523C2415.84 393.648 2416.04 397.49 2416.3 402.047L2420.01 403.805C2436.15 409.664 2450.67 412.594 2463.56 412.594C2472.55 412.594 2481.01 411.357 2488.95 408.883C2496.9 406.409 2504.06 402.893 2510.44 398.336C2516.82 393.648 2522.09 387.984 2526.26 381.344C2530.42 374.573 2533.29 367.021 2534.85 358.688C2535.63 354 2536.22 349.638 2536.61 345.602C2537.13 341.435 2537.39 337.529 2537.39 333.883C2537.39 327.372 2536.67 321.057 2535.24 314.938C2533.81 308.688 2531.92 302.828 2529.58 297.359C2527.23 291.76 2524.5 286.682 2521.38 282.125C2518.38 277.438 2515.26 273.336 2512 269.82C2509.01 266.695 2505.16 263.701 2500.48 260.836C2495.92 257.971 2490.71 255.432 2484.85 253.219C2478.99 251.005 2472.55 249.247 2465.52 247.945C2458.61 246.643 2451.19 245.992 2443.25 245.992C2436.48 245.992 2429.32 246.839 2421.77 248.531C2414.34 250.094 2406.79 252.372 2399.11 255.367C2391.43 258.362 2383.68 262.008 2375.87 266.305C2368.18 270.602 2360.7 275.484 2353.41 280.953L2366.49 229.781C2376.65 225.745 2384.33 222.685 2389.54 220.602C2394.75 218.518 2397.61 217.411 2398.13 217.281C2409.85 214.156 2419.81 211.878 2428.02 210.445C2436.22 208.883 2442.99 208.102 2448.33 208.102C2454.45 208.102 2461.35 208.883 2469.03 210.445C2476.84 211.878 2484.79 214.156 2492.86 217.281C2501.06 220.276 2509.01 224.052 2516.69 228.609C2524.5 233.036 2531.53 238.18 2537.78 244.039C2542.99 248.987 2547.74 254.651 2552.04 261.031C2556.34 267.281 2560.05 273.987 2563.17 281.148C2566.3 288.31 2568.71 295.797 2570.4 303.609C2572.09 311.422 2572.94 319.625 2572.94 328.219C2572.81 334.339 2571.96 341.109 2570.4 348.531C2568.97 355.823 2566.75 363.245 2563.76 370.797C2560.76 378.349 2556.53 385.51 2551.06 392.281C2545.59 399.052 2539.08 405.172 2531.53 410.641C2524.11 415.979 2515.32 420.276 2505.16 423.531C2495.14 426.786 2483.61 428.414 2470.59 428.414C2462 428.414 2453.47 427.763 2445.01 426.461C2436.67 425.029 2428.34 423.141 2420.01 420.797L2417.08 420.211C2418.12 437.659 2419.03 451.526 2419.81 461.812C2420.59 471.969 2421.51 478.544 2422.55 481.539L2424.11 486.031C2417.99 486.682 2412.46 487.659 2407.51 488.961C2402.56 490.263 2398.07 491.76 2394.03 493.453C2389.99 495.146 2386.41 496.904 2383.29 498.727C2380.16 500.549 2377.36 502.307 2374.89 504ZM2705.36 504.781C2697.68 502.958 2688.43 499.182 2677.62 493.453C2666.82 487.594 2657.05 480.497 2648.33 472.164C2636.87 461.096 2628.86 449.052 2624.3 436.031C2619.88 425.224 2617.08 411.552 2615.91 395.016V394.234C2615.91 380.302 2619.1 365.914 2625.48 351.07C2630.29 339.742 2636.74 329.651 2644.81 320.797C2648.2 317.151 2652.1 313.635 2656.53 310.25L2697.55 283.297C2704.45 285.641 2716.23 291.109 2732.9 299.703C2745.01 305.953 2756.73 315.328 2768.05 327.828C2776.39 340.849 2780.55 352.893 2780.55 363.961C2780.55 364.221 2780.55 364.547 2780.55 364.938C2778.6 380.823 2771.31 393.583 2758.68 403.219C2737.2 419.625 2710.44 427.958 2678.41 428.219C2718.77 414.417 2742.66 398.466 2750.09 380.367C2751.65 376.591 2752.43 372.88 2752.43 369.234C2752.43 369.104 2752.43 368.974 2752.43 368.844C2752.43 368.714 2752.43 368.583 2752.43 368.453C2752.43 362.984 2750.15 357.646 2745.59 352.438C2738.43 343.974 2728.15 336.422 2714.73 329.781C2691.82 318.453 2673.2 312.073 2658.88 310.641C2653.93 318.714 2649.43 330.953 2645.4 347.359C2642.27 360.12 2640.71 371.188 2640.71 380.562C2640.71 384.99 2641.04 389.221 2641.69 393.258C2643.51 404.846 2648.33 416.5 2656.14 428.219C2664.21 440.198 2675.48 449.638 2689.93 456.539C2702.43 462.529 2721.64 468.453 2747.55 474.312L2747.74 474.117C2749.83 470.862 2750.87 465.198 2750.87 457.125C2750.87 452.047 2750.02 445.406 2748.33 437.203L2776.06 448.141C2772.55 456.083 2766.82 463.245 2758.88 469.625C2752.89 474.443 2749.89 476.917 2749.89 477.047L2705.36 504.781ZM2834.46 504C2837.33 484.339 2839.41 463.635 2840.71 441.891C2842.14 420.146 2842.86 397.099 2842.86 372.75C2842.86 368.583 2842.86 364.742 2842.86 361.227C2842.86 357.711 2842.79 354.521 2842.66 351.656L2841.49 307.125C2832.12 307.385 2823.2 307.906 2814.73 308.688C2806.4 309.469 2798.33 310.576 2790.52 312.008C2792.34 309.143 2794.03 305.302 2795.59 300.484C2797.03 295.536 2798.13 289.807 2798.91 283.297L2802.04 284.273C2805.82 285.445 2810.89 286.292 2817.27 286.812C2823.65 287.203 2831.4 287.594 2840.52 287.984C2839.86 275.875 2839.15 265.263 2838.37 256.148C2837.59 247.034 2836.67 239.286 2835.63 232.906L2834.46 226.266C2842.4 225.354 2850.28 223.531 2858.09 220.797C2866.04 217.932 2874.57 213.961 2883.68 208.883C2880.03 232.06 2877.49 258.557 2876.06 288.375C2885.96 288.115 2895.14 287.594 2903.6 286.812C2912.2 285.901 2920.2 284.729 2927.62 283.297C2923.33 292.151 2920.66 301.721 2919.62 312.008L2916.49 311.227C2912.07 310.185 2906.4 309.469 2899.5 309.078C2892.6 308.557 2884.53 308.036 2875.28 307.516C2875.15 313.375 2875.02 319.234 2874.89 325.094C2874.89 330.953 2874.89 337.008 2874.89 343.258V350.094C2875.02 381.474 2875.61 407.841 2876.65 429.195C2877.69 450.549 2879.51 467.151 2882.12 479L2883.68 486.031C2878.99 486.682 2874.17 487.724 2869.23 489.156C2864.28 490.458 2859.53 492.021 2854.97 493.844C2850.54 495.536 2846.51 497.294 2842.86 499.117C2839.21 500.94 2836.41 502.568 2834.46 504Z" fill="black"/>
<path d="M225 205C225 205 249.5 300.5 358 300.5C466.5 300.5 490 205 490 205" stroke="black" stroke-width="30"/>
<path d="M265.744 274.125C265.744 274.125 224.041 314.871 221.145 420.494C218.248 526.118 207.037 662.661 252.535 664.736" stroke="black" stroke-width="30"/>
<path d="M213.664 488.025C213.664 488.025 144.549 494.184 124.938 555.259C105.326 616.334 148.332 663.115 193.842 664.749" stroke="black" stroke-width="30"/>
<path d="M515.76 334.831C517.234 342.983 511.821 350.786 503.669 352.261C495.517 353.735 487.713 348.322 486.239 340.17L515.76 334.831ZM457 271.125C464.186 257.958 464.192 257.962 464.198 257.965C464.2 257.966 464.206 257.97 464.211 257.972C464.22 257.977 464.229 257.982 464.24 257.988C464.26 257.999 464.282 258.011 464.307 258.025C464.356 258.052 464.414 258.085 464.48 258.122C464.612 258.197 464.779 258.292 464.977 258.408C465.373 258.64 465.897 258.955 466.533 259.356C467.805 260.156 469.53 261.302 471.579 262.812C475.668 265.826 481.103 270.332 486.812 276.49C498.258 288.835 510.897 307.941 515.76 334.831L486.239 340.17C482.602 320.06 473.241 305.978 464.812 296.886C460.583 292.325 456.612 289.049 453.78 286.962C452.368 285.921 451.253 285.186 450.55 284.743C450.199 284.522 449.952 284.375 449.824 284.3C449.76 284.263 449.726 284.243 449.723 284.242C449.722 284.241 449.729 284.245 449.744 284.253C449.751 284.258 449.761 284.263 449.772 284.269C449.778 284.272 449.785 284.276 449.791 284.28C449.795 284.281 449.8 284.284 449.802 284.285C449.808 284.288 449.813 284.292 457 271.125Z" fill="black"/>
<path d="M152 123.5C152 123.5 263.5 45.5 359.5 45.5C455.5 45.5 557 123.5 557 123.5" stroke="black" stroke-width="30"/>
<path d="M197.393 203.129C241.5 252 245.003 74.885 245.003 74.885L191.5 98.9998C116.586 124.154 153.285 154.259 197.393 203.129Z" fill="black" stroke="black" stroke-width="30"/>
<path d="M516.516 203.13C472.409 252 468.906 74.8855 468.906 74.8855L516.516 97C591.429 122.154 560.623 154.259 516.516 203.13Z" fill="black" stroke="black" stroke-width="30"/>
<circle cx="311" cy="132" r="20" fill="black"/>
<circle cx="410" cy="132" r="20" fill="black"/>
<path d="M177.5 665.5H587.5" stroke="black" stroke-width="30" stroke-linecap="round"/>
<path d="M327 474.5V654" stroke="black" stroke-width="30" stroke-linecap="round"/>
<path d="M395 348.5C395 369.211 378.21 386 357.5 386C336.789 386 320 369.211 320 348.5C320 327.789 336.789 311 357.5 311C378.21 311 395 327.789 395 348.5Z" fill="black" stroke="black" stroke-width="30"/>
<path d="M443.178 511.669C443.178 511.669 426.091 522.31 411.35 573.604C396.609 624.898 421.723 662.061 460.871 663.469" stroke="black" stroke-width="30"/>
<path d="M556.868 511.669C556.868 511.669 574.673 524.891 589.414 576.185C604.155 627.479 578.323 662.061 539.175 663.469" stroke="black" stroke-width="30"/>
<path d="M434.5 486C434.5 486 450.206 527 499.853 527C549.5 527 568 486 568 486" stroke="black" stroke-width="25" stroke-linecap="round"/>
<path d="M428 441C428 441 442.142 388 499.571 388C557 388 571.999 441 571.999 441" stroke="black" stroke-width="25" stroke-linecap="round"/>
<path d="M480 609V660M527 609V660" stroke="black" stroke-width="30" stroke-linecap="round"/>
<path d="M522 549C522 560.205 513.111 569 502.5 569C491.888 569 483 560.205 483 549C483 537.795 491.888 529 502.5 529C513.111 529 522 537.795 522 549Z" fill="black" stroke="black" stroke-width="20"/>
<path d="M431 369.996V405.117C431 413.998 441.711 418.472 448.028 412.231L465.801 394.67C469.762 390.755 469.762 384.358 465.801 380.443L448.028 362.883C441.711 356.641 431 361.116 431 369.996Z" fill="black" stroke="black" stroke-width="25" stroke-linecap="round"/>
<path d="M570 370.407V404.706C570 413.644 559.168 418.093 552.886 411.734L535.943 394.585C532.095 390.69 532.095 384.424 535.943 380.529L552.886 363.379C559.168 357.021 570 361.469 570 370.407Z" fill="black" stroke="black" stroke-width="25" stroke-linecap="round"/>
<path d="M570 447L608 437" stroke="black" stroke-width="15" stroke-linecap="round"/>
<path d="M572.122 464.443L609.715 470.681" stroke="black" stroke-width="15" stroke-linecap="round"/>
<path d="M426.491 464.443L388.897 470.681" stroke="black" stroke-width="15" stroke-linecap="round"/>
<path d="M428 447L391 437" stroke="black" stroke-width="15" stroke-linecap="round"/>
<circle cx="472" cy="446" r="11" fill="black"/>
<circle cx="524" cy="446" r="11" fill="black"/>
<path d="M579 656.893C579 656.893 653.668 662.971 633.181 583.54C612.693 504.108 678.122 510.73 673.793 531.935" stroke="black" stroke-width="30" stroke-linecap="round"/>
<path d="M333.216 171.308C337.723 194.614 352.883 205.102 359.982 205.103C367.082 205.103 378.217 194.065 384.137 171.308C387.043 160.14 373.746 157.295 359.982 157.02C345.702 156.734 330.921 159.441 333.216 171.308Z" fill="black" stroke="black"/>
<path d="M373.857 229.839L377.254 219.73L377.254 219.73L373.857 229.839ZM412.84 218.164C414.763 212.597 412.394 206.721 407.549 205.039C402.703 203.358 397.215 206.509 395.291 212.076L412.84 218.164ZM359.633 195.012C350.395 193.722 350.394 193.727 350.393 193.731C350.393 193.733 350.392 193.737 350.391 193.74C350.39 193.747 350.389 193.753 350.388 193.761C350.385 193.775 350.382 193.792 350.379 193.81C350.372 193.846 350.364 193.889 350.356 193.94C350.338 194.04 350.316 194.168 350.292 194.322C350.242 194.63 350.179 195.043 350.111 195.549C349.975 196.558 349.816 197.951 349.702 199.621C349.475 202.921 349.405 207.516 350.108 212.474C351.518 222.408 356.384 235.241 370.459 239.949L377.254 219.73C371.839 217.918 369.594 213.337 368.764 207.488C368.348 204.554 368.375 201.664 368.527 199.453C368.601 198.368 368.702 197.498 368.778 196.934C368.816 196.653 368.847 196.451 368.865 196.341C368.874 196.287 368.879 196.255 368.88 196.248C368.881 196.244 368.881 196.247 368.879 196.256C368.878 196.26 368.877 196.266 368.876 196.274C368.875 196.278 368.874 196.282 368.873 196.287C368.873 196.289 368.872 196.293 368.872 196.294C368.871 196.298 368.87 196.302 359.633 195.012ZM370.459 239.949C381.459 243.629 391.11 243.429 399.111 238.11C406.874 232.947 410.647 224.51 412.84 218.164L395.291 212.076C393.561 217.083 391.975 219.265 390.487 220.254C389.236 221.086 385.743 222.57 377.254 219.73L370.459 239.949Z" fill="black"/>
<path d="M344.088 231.175L340.69 221.066L340.69 221.066L344.088 231.175ZM305.104 219.5C303.181 213.932 305.55 208.056 310.396 206.375C315.242 204.694 320.729 207.845 322.653 213.412L305.104 219.5ZM358.312 196.348C367.55 195.058 367.551 195.063 367.551 195.067C367.552 195.069 367.552 195.073 367.553 195.076C367.554 195.083 367.555 195.089 367.557 195.097C367.559 195.111 367.562 195.128 367.566 195.146C367.572 195.182 367.58 195.225 367.589 195.275C367.606 195.376 367.628 195.504 367.653 195.658C367.703 195.966 367.766 196.379 367.834 196.885C367.97 197.894 368.128 199.287 368.243 200.957C368.469 204.257 368.54 208.852 367.836 213.81C366.427 223.744 361.56 236.576 347.486 241.285L340.69 221.066C346.105 219.254 348.35 214.673 349.18 208.824C349.597 205.89 349.569 203 349.418 200.789C349.343 199.704 349.242 198.834 349.166 198.27C349.129 197.989 349.097 197.787 349.08 197.677C349.071 197.623 349.065 197.591 349.064 197.584C349.063 197.58 349.064 197.583 349.065 197.592C349.066 197.596 349.067 197.602 349.069 197.61C349.069 197.614 349.07 197.618 349.071 197.623C349.072 197.625 349.072 197.629 349.072 197.63C349.073 197.634 349.074 197.638 358.312 196.348ZM347.486 241.285C336.485 244.965 326.834 244.765 318.834 239.445C311.07 234.283 307.297 225.846 305.104 219.5L322.653 213.412C324.383 218.419 325.969 220.601 327.457 221.59C328.708 222.422 332.201 223.906 340.69 221.066L347.486 241.285Z" fill="black"/>
<path d="M487.704 464.25C489.672 474.429 496.294 479.01 499.395 479.01C502.496 479.01 507.359 474.189 509.945 464.25C511.214 459.371 505.406 458.129 499.395 458.009C493.157 457.884 486.701 459.066 487.704 464.25Z" fill="black" stroke="black"/>
<path d="M505.454 489.815L504.265 493.354L505.454 489.815ZM521.72 484.451C522.393 482.503 521.564 480.446 519.868 479.858C518.172 479.269 516.251 480.372 515.578 482.321L521.72 484.451ZM499.241 474.603C496.008 474.152 496.008 474.153 496.008 474.155C496.007 474.155 496.007 474.157 496.007 474.158C496.007 474.161 496.006 474.163 496.006 474.166C496.005 474.171 496.003 474.177 496.002 474.184C496 474.198 495.997 474.215 495.993 474.235C495.986 474.275 495.978 474.326 495.967 474.389C495.947 474.515 495.921 474.687 495.892 474.898C495.836 475.319 495.769 475.905 495.721 476.609C495.625 478.003 495.596 479.936 495.891 482.014C496.481 486.176 498.493 491.423 504.265 493.354L506.643 486.277C503.903 485.36 502.808 483.001 502.42 480.269C502.226 478.899 502.24 477.563 502.309 476.55C502.344 476.051 502.39 475.648 502.426 475.382C502.444 475.25 502.459 475.153 502.468 475.096C502.473 475.068 502.476 475.05 502.477 475.043C502.478 475.039 502.478 475.038 502.477 475.04C502.477 475.041 502.477 475.043 502.476 475.045C502.476 475.047 502.476 475.048 502.476 475.05C502.475 475.05 502.475 475.052 502.475 475.052C502.475 475.053 502.475 475.055 499.241 474.603ZM504.265 493.354C508.961 494.924 512.909 494.781 516.11 492.653C519.229 490.579 520.782 487.165 521.72 484.451L515.578 482.321C514.802 484.566 514.014 485.79 513.092 486.403C512.253 486.961 510.46 487.554 506.643 486.277L504.265 493.354Z" fill="black"/>
<path d="M492.452 490.399L493.641 493.937L492.452 490.399ZM476.186 485.035C475.513 483.086 476.342 481.03 478.038 480.441C479.734 479.853 481.655 480.956 482.328 482.904L476.186 485.035ZM498.665 475.187C501.898 474.735 501.898 474.737 501.899 474.738C501.899 474.739 501.899 474.741 501.899 474.742C501.9 474.744 501.9 474.747 501.901 474.749C501.902 474.755 501.903 474.761 501.904 474.768C501.907 474.782 501.91 474.799 501.913 474.818C501.92 474.858 501.929 474.91 501.939 474.973C501.959 475.099 501.985 475.27 502.014 475.481C502.071 475.903 502.137 476.488 502.186 477.193C502.281 478.587 502.31 480.52 502.015 482.597C501.425 486.759 499.413 492.006 493.641 493.937L491.263 486.86C494.004 485.943 495.098 483.584 495.486 480.852C495.68 479.483 495.666 478.147 495.597 477.134C495.563 476.634 495.516 476.232 495.48 475.966C495.462 475.834 495.447 475.736 495.438 475.68C495.434 475.652 495.431 475.633 495.429 475.626C495.429 475.623 495.429 475.622 495.429 475.624C495.429 475.625 495.429 475.627 495.43 475.629C495.43 475.63 495.43 475.631 495.431 475.633C495.431 475.634 495.431 475.635 495.431 475.636C495.431 475.637 495.432 475.638 498.665 475.187ZM493.641 493.937C488.945 495.508 484.997 495.365 481.796 493.236C478.677 491.163 477.124 487.749 476.186 485.035L482.328 482.904C483.104 485.149 483.892 486.374 484.814 486.987C485.653 487.545 487.446 488.137 491.263 486.86L493.641 493.937Z" fill="black"/>
</svg>
