<svg width="743" height="712" viewBox="0 0 743 712" fill="none" xmlns="http://www.w3.org/2000/svg">
<path d="M225 205C225 205 249.5 300.5 358 300.5C466.5 300.5 490 205 490 205" stroke="#4A3020" stroke-width="30"/>
<path d="M265.744 274.125C265.744 274.125 224.041 314.871 221.145 420.494C218.248 526.118 207.037 662.661 252.535 664.736" stroke="#4A3020" stroke-width="30"/>
<path d="M213.664 488.025C213.664 488.025 144.55 494.184 124.938 555.259C105.326 616.334 148.332 663.115 193.843 664.749" stroke="#4A3020" stroke-width="30"/>
<path d="M515.761 334.831C517.235 342.983 511.821 350.786 503.669 352.261C495.517 353.735 487.714 348.322 486.239 340.17L515.761 334.831ZM457 271.125C464.186 257.958 464.192 257.962 464.198 257.965C464.201 257.966 464.207 257.97 464.211 257.972C464.22 257.977 464.23 257.982 464.24 257.988C464.26 257.999 464.283 258.011 464.307 258.025C464.356 258.052 464.414 258.085 464.48 258.122C464.613 258.197 464.779 258.292 464.977 258.408C465.373 258.64 465.898 258.955 466.534 259.356C467.805 260.156 469.53 261.302 471.579 262.812C475.669 265.826 481.104 270.332 486.812 276.49C498.258 288.835 510.897 307.941 515.761 334.831L486.239 340.17C482.603 320.06 473.242 305.978 464.813 296.886C460.584 292.325 456.612 289.049 453.78 286.962C452.368 285.921 451.253 285.186 450.55 284.743C450.199 284.522 449.952 284.375 449.824 284.3C449.76 284.263 449.726 284.243 449.724 284.242C449.723 284.241 449.729 284.245 449.744 284.253C449.752 284.258 449.761 284.263 449.773 284.269C449.779 284.272 449.785 284.276 449.792 284.28C449.795 284.281 449.801 284.284 449.802 284.285C449.808 284.288 449.814 284.292 457 271.125Z" fill="#4A3020"/>
<path d="M152 123.5C152 123.5 263.5 45.5 359.5 45.5C455.5 45.5 557 123.5 557 123.5" stroke="#4A3020" stroke-width="30"/>
<path d="M245.003 74.885C245.003 74.885 241.5 252 197.393 203.129C153.286 154.259 116.587 124.154 191.5 98.9999" stroke="#4A3020" stroke-width="30"/>
<path d="M468.906 74.8855C468.906 74.8855 472.409 252 516.516 203.13C560.623 154.259 591.429 122.154 516.516 97" stroke="#4A3020" stroke-width="30"/>
<circle cx="311" cy="132" r="20" fill="#4A3020"/>
<circle cx="410" cy="132" r="20" fill="#4A3020"/>
<path d="M77.5 665.5H633.5" stroke="#4A3020" stroke-width="30" stroke-linecap="round"/>
<path d="M327 474.5V654" stroke="#4A3020" stroke-width="30" stroke-linecap="round"/>
<circle cx="357.5" cy="348.5" r="37.5" stroke="#4A3020" stroke-width="30"/>
<path d="M443.179 511.669C443.179 511.669 426.092 522.31 411.351 573.604C396.61 624.898 421.724 662.061 460.872 663.469" stroke="#4A3020" stroke-width="30"/>
<path d="M556.869 511.669C556.869 511.669 574.673 524.891 589.415 576.185C604.156 627.479 578.323 662.061 539.175 663.469" stroke="#4A3020" stroke-width="30"/>
<path d="M434.5 486C434.5 486 450.206 527 499.853 527C549.5 527 568 486 568 486" stroke="#4A3020" stroke-width="25" stroke-linecap="round"/>
<path d="M428 441C428 441 442.143 388 499.571 388C557 388 572 441 572 441" stroke="#4A3020" stroke-width="25" stroke-linecap="round"/>
<path d="M480 609V660M527 609V660" stroke="#4A3020" stroke-width="30" stroke-linecap="round"/>
<path d="M522 549C522 560.205 513.112 569 502.5 569C491.888 569 483 560.205 483 549C483 537.795 491.888 529 502.5 529C513.112 529 522 537.795 522 549Z" stroke="#4A3020" stroke-width="20"/>
<path d="M431 422V362.939C431 354.059 441.712 349.584 448.029 355.826L473 380.5" stroke="#4A3020" stroke-width="20" stroke-linecap="round"/>
<path d="M570 422V363.351C570 354.412 559.168 349.964 552.886 356.322L529 380.5" stroke="#4A3020" stroke-width="20" stroke-linecap="round"/>
<path d="M570 447L608 437" stroke="#4A3020" stroke-width="15" stroke-linecap="round"/>
<path d="M572.122 464.443L609.715 470.681" stroke="#4A3020" stroke-width="15" stroke-linecap="round"/>
<path d="M426.491 464.443L388.898 470.681" stroke="#4A3020" stroke-width="15" stroke-linecap="round"/>
<path d="M428 447L391 437" stroke="#4A3020" stroke-width="15" stroke-linecap="round"/>
<circle cx="472" cy="446" r="11" fill="#4A3020"/>
<circle cx="524" cy="446" r="11" fill="#4A3020"/>
<path d="M579 656.893C579 656.893 653.669 662.971 633.181 583.54C612.693 504.108 678.122 510.73 673.794 531.935" stroke="#4A3020" stroke-width="30" stroke-linecap="round"/>
<path d="M333.216 171.308C337.724 194.614 352.883 205.102 359.983 205.103C367.082 205.103 378.217 194.065 384.138 171.308C387.044 160.14 373.746 157.295 359.983 157.02C345.703 156.734 330.921 159.441 333.216 171.308Z" fill="#4A3020" stroke="#4A3020"/>
<path d="M412.84 218.164C414.764 212.597 412.395 206.721 407.549 205.039C402.703 203.358 397.215 206.509 395.292 212.076L412.84 218.164ZM359.633 195.012C350.395 193.722 350.394 193.727 350.394 193.731C350.393 193.733 350.392 193.737 350.392 193.74C350.391 193.747 350.389 193.753 350.388 193.761C350.385 193.775 350.382 193.792 350.379 193.81C350.373 193.846 350.365 193.889 350.356 193.94C350.339 194.04 350.317 194.168 350.292 194.322C350.242 194.63 350.179 195.043 350.111 195.549C349.975 196.558 349.817 197.951 349.702 199.621C349.476 202.921 349.405 207.516 350.109 212.474C351.518 222.408 356.385 235.241 370.459 239.949L377.255 219.73C371.84 217.918 369.594 213.337 368.764 207.488C368.348 204.554 368.376 201.664 368.527 199.453C368.602 198.368 368.702 197.498 368.778 196.934C368.816 196.653 368.847 196.451 368.865 196.341C368.874 196.287 368.88 196.255 368.881 196.248C368.881 196.244 368.881 196.247 368.879 196.256C368.879 196.26 368.877 196.266 368.876 196.274C368.875 196.278 368.875 196.282 368.874 196.287C368.873 196.289 368.873 196.293 368.872 196.294C368.872 196.298 368.871 196.302 359.633 195.012ZM370.459 239.949C381.46 243.629 391.111 243.429 399.111 238.11C406.875 232.947 410.648 224.51 412.84 218.164L395.292 212.076C393.562 217.083 391.975 219.265 390.488 220.254C389.236 221.086 385.744 222.57 377.255 219.73L370.459 239.949Z" fill="#4A3020"/>
<path d="M305.105 219.5C303.181 213.932 305.55 208.056 310.396 206.375C315.242 204.694 320.73 207.845 322.653 213.412L305.105 219.5ZM358.312 196.348C367.55 195.058 367.551 195.063 367.552 195.067C367.552 195.069 367.553 195.073 367.554 195.076C367.555 195.083 367.556 195.089 367.557 195.097C367.56 195.111 367.563 195.128 367.566 195.146C367.573 195.182 367.58 195.225 367.589 195.275C367.607 195.376 367.628 195.504 367.653 195.658C367.703 195.966 367.766 196.379 367.834 196.885C367.97 197.894 368.128 199.287 368.243 200.957C368.47 204.257 368.54 208.852 367.837 213.81C366.427 223.744 361.561 236.576 347.486 241.285L340.69 221.066C346.105 219.254 348.351 214.673 349.181 208.824C349.597 205.89 349.57 203 349.418 200.789C349.344 199.704 349.243 198.834 349.167 198.27C349.129 197.989 349.098 197.787 349.08 197.677C349.071 197.623 349.066 197.591 349.064 197.584C349.064 197.58 349.064 197.583 349.066 197.592C349.067 197.596 349.068 197.602 349.069 197.61C349.07 197.614 349.071 197.618 349.072 197.623C349.072 197.625 349.073 197.629 349.073 197.63C349.074 197.634 349.074 197.638 358.312 196.348ZM347.486 241.285C336.486 244.965 326.835 244.765 318.834 239.445C311.071 234.283 307.298 225.846 305.105 219.5L322.653 213.412C324.383 218.419 325.97 220.601 327.458 221.59C328.709 222.422 332.201 223.906 340.69 221.066L347.486 241.285Z" fill="#4A3020"/>
<path d="M487.704 464.25C489.672 474.429 496.294 479.01 499.395 479.01C502.496 479.01 507.359 474.189 509.945 464.25C511.214 459.371 505.406 458.129 499.395 458.009C493.157 457.884 486.701 459.066 487.704 464.25Z" fill="#4A3020" stroke="#4A3020"/>
<path d="M505.455 489.815L504.265 493.354L505.455 489.815ZM521.72 484.451C522.394 482.503 521.565 480.446 519.868 479.858C518.172 479.269 516.252 480.372 515.578 482.321L521.72 484.451ZM499.242 474.603C496.009 474.152 496.008 474.153 496.008 474.155C496.008 474.155 496.008 474.157 496.007 474.158C496.007 474.161 496.007 474.163 496.006 474.166C496.005 474.171 496.004 474.177 496.003 474.184C496 474.198 495.997 474.215 495.994 474.235C495.987 474.275 495.978 474.326 495.968 474.389C495.947 474.515 495.921 474.687 495.893 474.898C495.836 475.319 495.77 475.905 495.721 476.609C495.625 478.003 495.596 479.936 495.891 482.014C496.482 486.176 498.494 491.423 504.265 493.354L506.644 486.277C503.903 485.36 502.809 483.001 502.421 480.269C502.227 478.899 502.24 477.563 502.31 476.55C502.344 476.051 502.391 475.648 502.426 475.382C502.444 475.25 502.459 475.153 502.468 475.096C502.473 475.068 502.476 475.05 502.477 475.043C502.478 475.039 502.478 475.038 502.478 475.04C502.478 475.041 502.477 475.043 502.477 475.045C502.477 475.047 502.476 475.048 502.476 475.05C502.476 475.05 502.476 475.052 502.476 475.052C502.475 475.053 502.475 475.055 499.242 474.603ZM504.265 493.354C508.961 494.924 512.909 494.781 516.111 492.653C519.23 490.579 520.783 487.165 521.72 484.451L515.578 482.321C514.803 484.566 514.015 485.79 513.093 486.403C512.253 486.961 510.461 487.554 506.644 486.277L504.265 493.354Z" fill="#4A3020"/>
<path d="M492.452 490.399L493.641 493.937L492.452 490.399ZM476.186 485.035C475.513 483.086 476.342 481.03 478.038 480.441C479.734 479.853 481.655 480.956 482.328 482.904L476.186 485.035ZM498.665 475.187C501.898 474.735 501.898 474.737 501.899 474.738C501.899 474.739 501.899 474.741 501.899 474.742C501.9 474.744 501.9 474.747 501.901 474.749C501.902 474.755 501.903 474.761 501.904 474.768C501.907 474.782 501.91 474.799 501.913 474.818C501.92 474.858 501.929 474.91 501.939 474.973C501.959 475.099 501.985 475.27 502.014 475.481C502.071 475.903 502.137 476.488 502.186 477.193C502.281 478.587 502.31 480.52 502.015 482.597C501.425 486.759 499.413 492.006 493.641 493.937L491.263 486.86C494.004 485.943 495.098 483.584 495.486 480.852C495.68 479.483 495.666 478.147 495.597 477.134C495.563 476.634 495.516 476.232 495.48 475.966C495.462 475.834 495.447 475.736 495.438 475.68C495.434 475.652 495.431 475.633 495.429 475.626C495.429 475.623 495.429 475.622 495.429 475.624C495.429 475.625 495.429 475.627 495.43 475.629C495.43 475.63 495.43 475.631 495.431 475.633C495.431 475.634 495.431 475.635 495.431 475.636C495.431 475.637 495.432 475.638 498.665 475.187ZM493.641 493.937C488.945 495.508 484.997 495.365 481.796 493.236C478.677 491.163 477.124 487.749 476.186 485.035L482.328 482.904C483.104 485.149 483.892 486.374 484.814 486.987C485.653 487.545 487.446 488.137 491.263 486.86L493.641 493.937Z" fill="#4A3020"/>
</svg>
