<svg width="3719" height="712" viewBox="0 0 3719 712" fill="none" xmlns="http://www.w3.org/2000/svg">
<path d="M135.091 528.501C140.591 509.501 186.091 489.001 203.591 493.001C221.091 497.001 221.091 501.001 221.091 528.501C221.091 556.001 221.091 650.001 221.091 650.001C221.091 650.001 221.091 660.501 190.591 660.501C160.091 660.501 158.091 668.501 135.091 628.501C112.091 588.501 129.591 547.501 135.091 528.501Z" fill="white"/>
<path d="M452.264 517.083C476.701 545.169 525.573 547.074 546.518 517.085C567.464 487.096 614.341 612.762 568.959 646.559C523.578 680.356 468.222 676.548 432.316 646.559C396.41 616.57 427.828 488.997 452.264 517.083Z" fill="white"/>
<path d="M453.374 410.997C484.041 382.228 531.51 393.816 557.556 410.997C583.601 428.179 583.601 482.52 557.556 509.291C531.51 536.062 482.119 533.717 453.374 509.291C424.63 484.865 422.708 439.766 453.374 410.997Z" fill="white"/>
<path d="M255.689 278.891C275.848 258.43 306.814 311.659 343.887 314.322C394.457 317.955 444.967 295.024 443.959 273.066C442.951 251.108 499.315 314.133 501.635 339.274C501.635 339.274 510.09 477.957 510.09 504C510.09 530.043 506.675 665.644 506.675 665.644C506.675 665.644 290.968 678.619 255.689 662.151C220.41 645.683 221.418 540.885 222.426 469.523C223.434 398.161 235.53 299.351 255.689 278.891Z" fill="white"/>
<path d="M241.091 73.0006C260.091 53.0006 323.233 45.0006 366.412 46.5006C409.591 48.0006 451.091 50.5006 478.091 82.0005C505.091 113.5 492.091 226.001 478.091 244.5C464.091 263 358.126 297.501 358.126 297.501C358.126 297.501 273.591 273.501 241.091 239.501C208.591 205.501 222.091 93.0006 241.091 73.0006Z" fill="white"/>
<path d="M265.834 273.625C265.834 273.625 224.132 314.371 221.236 419.995C218.339 525.619 207.128 662.161 252.626 664.237" stroke="#444444" stroke-width="30"/>
<path d="M213.754 487.525C213.754 487.525 144.64 493.685 125.028 554.76C105.417 615.835 148.423 662.616 193.933 664.25" stroke="#444444" stroke-width="30"/>
<path d="M517.118 375.289C517.851 383.541 511.756 390.824 503.505 391.558C495.253 392.291 487.969 386.196 487.236 377.944L517.118 375.289ZM457.09 270.625C466.656 259.071 466.662 259.076 466.669 259.081C466.671 259.083 466.677 259.088 466.682 259.092C466.691 259.1 466.701 259.108 466.711 259.117C466.732 259.134 466.755 259.153 466.78 259.174C466.831 259.217 466.89 259.268 466.959 259.327C467.097 259.445 467.271 259.596 467.478 259.78C467.893 260.148 468.443 260.648 469.11 261.285C470.445 262.558 472.25 264.375 474.384 266.758C478.651 271.524 484.239 278.564 489.99 288.05C501.526 307.077 513.605 335.761 517.118 375.289L487.236 377.944C484.162 343.355 473.698 319.044 464.337 303.604C459.64 295.857 455.191 290.296 452.033 286.769C450.455 285.006 449.201 283.754 448.405 282.994C448.006 282.614 447.723 282.358 447.57 282.223C447.494 282.155 447.451 282.118 447.443 282.111C447.438 282.107 447.443 282.111 447.457 282.122C447.463 282.128 447.472 282.136 447.484 282.145C447.489 282.15 447.496 282.155 447.502 282.161C447.506 282.163 447.511 282.168 447.513 282.169C447.519 282.174 447.525 282.179 457.09 270.625Z" fill="#444444"/>
<path d="M197.485 202.629C241.592 251.5 245.095 74.385 245.095 74.385L191.592 98.4998C116.678 123.654 153.377 153.759 197.485 202.629Z" fill="#444444"/>
<path d="M197.485 202.629C241.592 251.5 245.095 74.385 245.095 74.385L191.592 98.4998C116.678 123.654 153.377 153.759 197.485 202.629Z" fill="#444444"/>
<path d="M516.608 202.63C472.501 251.5 468.997 74.3855 468.997 74.3855L516.608 96.5C591.521 121.654 560.715 153.759 516.608 202.63Z" fill="#444444"/>
<path d="M516.608 202.63C472.501 251.5 468.997 74.3855 468.997 74.3855L516.608 96.5C591.521 121.654 560.715 153.759 516.608 202.63Z" fill="#444444"/>
<path d="M225.091 204.5C225.091 204.5 249.591 300 358.091 300C466.591 300 490.091 204.5 490.091 204.5M152.091 123C152.091 123 263.591 45 359.591 45C455.591 45 557.091 123 557.091 123M245.095 74.385C245.095 74.385 241.592 251.5 197.485 202.629C153.377 153.759 116.678 123.654 191.592 98.4998L245.095 74.385ZM468.997 74.3855C468.997 74.3855 472.501 251.5 516.608 202.63C560.715 153.759 591.521 121.654 516.608 96.5L468.997 74.3855Z" stroke="#444444" stroke-width="30"/>
<circle cx="311.09" cy="131.5" r="20" fill="#444444"/>
<circle cx="410.09" cy="131.5" r="20" fill="#444444"/>
<path d="M327.09 474V653.5" stroke="#444444" stroke-width="30" stroke-linecap="round"/>
<path d="M395.09 348C395.09 368.711 378.301 385.5 357.59 385.5C336.88 385.5 320.09 368.711 320.09 348C320.09 327.289 336.88 310.5 357.59 310.5C378.301 310.5 395.09 327.289 395.09 348Z" fill="#444444" stroke="#444444" stroke-width="30"/>
<path d="M333.31 170.808C337.817 194.114 352.976 204.602 360.076 204.603C367.176 204.603 378.31 193.565 384.231 170.808C387.137 159.64 373.839 156.795 360.076 156.52C345.796 156.234 331.015 158.941 333.31 170.808Z" fill="#444444" stroke="#444444"/>
<path d="M373.948 229.339L377.346 219.23L377.346 219.23L373.948 229.339ZM412.932 217.664C414.855 212.097 412.486 206.221 407.64 204.539C402.794 202.858 397.307 206.009 395.383 211.576L412.932 217.664ZM359.724 194.512C350.486 193.222 350.486 193.227 350.485 193.231C350.485 193.233 350.484 193.237 350.483 193.24C350.482 193.247 350.481 193.253 350.479 193.261C350.477 193.275 350.474 193.292 350.47 193.31C350.464 193.346 350.456 193.389 350.447 193.44C350.43 193.54 350.408 193.668 350.383 193.822C350.334 194.13 350.271 194.543 350.202 195.049C350.067 196.058 349.908 197.451 349.794 199.121C349.567 202.421 349.496 207.016 350.2 211.974C351.61 221.908 356.476 234.741 370.551 239.449L377.346 219.23C371.931 217.418 369.686 212.837 368.856 206.988C368.439 204.054 368.467 201.164 368.619 198.953C368.693 197.868 368.794 196.998 368.87 196.434C368.908 196.153 368.939 195.951 368.957 195.841C368.965 195.787 368.971 195.755 368.972 195.748C368.973 195.744 368.972 195.747 368.971 195.756C368.97 195.76 368.969 195.766 368.967 195.774C368.967 195.778 368.966 195.782 368.965 195.787C368.965 195.789 368.964 195.793 368.964 195.794C368.963 195.798 368.962 195.802 359.724 194.512ZM370.551 239.449C381.551 243.129 391.202 242.929 399.202 237.61C406.966 232.447 410.739 224.01 412.932 217.664L395.383 211.576C393.653 216.583 392.067 218.765 390.579 219.754C389.328 220.586 385.835 222.07 377.346 219.23L370.551 239.449Z" fill="#444444"/>
<path d="M344.181 230.675L340.784 220.566L340.784 220.566L344.181 230.675ZM305.198 219C303.275 213.432 305.644 207.556 310.49 205.875C315.335 204.194 320.823 207.345 322.747 212.912L305.198 219ZM358.406 195.848C367.643 194.558 367.644 194.563 367.645 194.567C367.645 194.569 367.646 194.573 367.647 194.576C367.648 194.583 367.649 194.589 367.651 194.597C367.653 194.611 367.656 194.628 367.659 194.646C367.666 194.682 367.674 194.725 367.682 194.775C367.7 194.876 367.722 195.004 367.747 195.158C367.796 195.466 367.859 195.879 367.927 196.385C368.063 197.394 368.222 198.787 368.336 200.457C368.563 203.757 368.634 208.352 367.93 213.31C366.52 223.244 361.654 236.076 347.579 240.785L340.784 220.566C346.199 218.754 348.444 214.173 349.274 208.324C349.691 205.39 349.663 202.5 349.511 200.289C349.437 199.204 349.336 198.334 349.26 197.77C349.222 197.489 349.191 197.287 349.173 197.177C349.164 197.123 349.159 197.091 349.158 197.084C349.157 197.08 349.158 197.083 349.159 197.092C349.16 197.096 349.161 197.102 349.162 197.11C349.163 197.114 349.164 197.118 349.165 197.123C349.165 197.125 349.166 197.129 349.166 197.13C349.167 197.134 349.168 197.138 358.406 195.848ZM347.579 240.785C336.579 244.465 326.928 244.265 318.928 238.945C311.164 233.783 307.391 225.346 305.198 219L322.747 212.912C324.477 217.919 326.063 220.101 327.551 221.09C328.802 221.922 332.295 223.406 340.784 220.566L347.579 240.785Z" fill="#444444"/>
<path d="M177.59 665H587.59" stroke="#444444" stroke-width="30" stroke-linecap="round"/>
<path d="M443.267 511.168C443.267 511.168 426.181 521.809 411.44 573.103C396.698 624.397 421.813 661.56 460.961 662.968L545.999 662.968" stroke="#CC8000" stroke-width="30"/>
<path d="M556.959 511.169C556.959 511.169 574.764 524.39 589.505 575.684C604.246 626.978 578.413 661.561 539.265 662.968" stroke="#CC8000" stroke-width="30"/>
<path d="M434.589 485.5C434.589 485.5 450.295 526.5 499.942 526.5C549.589 526.5 568.089 485.5 568.089 485.5" stroke="#CC8000" stroke-width="25" stroke-linecap="round"/>
<path d="M428.089 440.5C428.089 440.5 442.232 387.5 499.661 387.5C557.089 387.5 572.089 440.5 572.089 440.5" stroke="#CC8000" stroke-width="25" stroke-linecap="round"/>
<path d="M480.089 608.5V659.5M527.089 608.5V659.5" stroke="#CC8000" stroke-width="30" stroke-linecap="round"/>
<path d="M522.089 548.5C522.089 559.705 513.201 568.5 502.589 568.5C491.978 568.5 483.089 559.705 483.089 548.5C483.089 537.295 491.978 528.5 502.589 528.5C513.201 528.5 522.089 537.295 522.089 548.5Z" fill="#CC8000" stroke="#CC8000" stroke-width="20"/>
<path d="M431.089 369.496V406.447C431.089 411.945 438.502 413.69 440.956 408.771C441.371 407.939 442.001 407.233 442.781 406.727L462.664 393.823C468.02 390.347 468.791 382.809 464.249 378.321L448.118 362.383C441.801 356.141 431.089 360.616 431.089 369.496Z" fill="#CC8000" stroke="#CC8000" stroke-width="25" stroke-linecap="round"/>
<path d="M570.089 369.907V400.217C570.089 409.143 558.669 412.858 553.418 405.639C552.869 404.884 552.208 404.217 551.458 403.66L538.337 393.921C533.455 390.297 532.91 383.189 537.184 378.863L552.976 362.879C559.257 356.521 570.089 360.969 570.089 369.907Z" fill="#CC8000" stroke="#CC8000" stroke-width="25" stroke-linecap="round"/>
<path d="M570.089 446.5L608.089 436.5" stroke="#CC8000" stroke-width="15" stroke-linecap="round"/>
<path d="M572.212 463.944L609.806 470.181" stroke="#CC8000" stroke-width="15" stroke-linecap="round"/>
<path d="M426.582 463.944L388.988 470.181" stroke="#CC8000" stroke-width="15" stroke-linecap="round"/>
<path d="M428.089 446.5L391.089 436.5" stroke="#CC8000" stroke-width="15" stroke-linecap="round"/>
<circle cx="472.089" cy="445.5" r="11" fill="#CC8000"/>
<circle cx="524.089" cy="445.5" r="11" fill="#CC8000"/>
<path d="M579.089 656.393C579.089 656.393 653.758 662.471 633.27 583.04C612.783 503.608 678.211 510.23 673.883 531.435" stroke="#CC8000" stroke-width="30" stroke-linecap="round"/>
<path d="M487.794 463.75C489.763 473.929 496.384 478.51 499.485 478.51C502.586 478.51 507.45 473.689 510.036 463.75C511.305 458.871 505.497 457.629 499.485 457.509C493.248 457.384 486.792 458.566 487.794 463.75Z" fill="#CC8000" stroke="#CC8000"/>
<path d="M505.545 489.315L504.355 492.853L505.545 489.315ZM521.81 483.951C522.484 482.002 521.654 479.946 519.958 479.357C518.262 478.769 516.342 479.872 515.668 481.82L521.81 483.951ZM499.332 474.103C496.098 473.651 496.098 473.653 496.098 473.654C496.098 473.655 496.098 473.657 496.097 473.658C496.097 473.66 496.096 473.663 496.096 473.665C496.095 473.671 496.094 473.677 496.093 473.684C496.09 473.698 496.087 473.715 496.084 473.734C496.077 473.774 496.068 473.826 496.058 473.889C496.037 474.015 496.011 474.186 495.983 474.397C495.926 474.819 495.859 475.404 495.811 476.109C495.715 477.503 495.686 479.436 495.981 481.513C496.572 485.675 498.584 490.922 504.355 492.853L506.734 485.776C503.993 484.859 502.898 482.5 502.511 479.768C502.316 478.399 502.33 477.063 502.4 476.05C502.434 475.55 502.481 475.148 502.516 474.882C502.534 474.75 502.549 474.652 502.558 474.596C502.563 474.568 502.566 474.549 502.567 474.542C502.568 474.539 502.568 474.538 502.568 474.54C502.567 474.541 502.567 474.543 502.567 474.545C502.567 474.546 502.566 474.547 502.566 474.549C502.566 474.55 502.566 474.551 502.566 474.552C502.565 474.553 502.565 474.554 499.332 474.103ZM504.355 492.853C509.051 494.424 512.999 494.281 516.201 492.152C519.319 490.079 520.873 486.665 521.81 483.951L515.668 481.82C514.893 484.065 514.105 485.29 513.183 485.903C512.343 486.461 510.551 487.053 506.734 485.776L504.355 492.853Z" fill="#CC8000"/>
<path d="M492.542 489.899L493.732 493.437L492.542 489.899ZM476.277 484.535C475.603 482.586 476.433 480.53 478.129 479.941C479.825 479.353 481.745 480.456 482.419 482.404L476.277 484.535ZM498.755 474.687C501.988 474.235 501.989 474.237 501.989 474.238C501.989 474.239 501.989 474.241 501.99 474.242C501.99 474.244 501.991 474.247 501.991 474.249C501.992 474.255 501.993 474.261 501.994 474.268C501.997 474.282 502 474.299 502.003 474.318C502.01 474.358 502.019 474.41 502.029 474.473C502.05 474.599 502.076 474.77 502.104 474.981C502.161 475.403 502.228 475.988 502.276 476.693C502.372 478.087 502.401 480.02 502.106 482.097C501.515 486.259 499.503 491.506 493.732 493.437L491.353 486.36C494.094 485.443 495.189 483.084 495.576 480.352C495.771 478.983 495.757 477.647 495.687 476.634C495.653 476.134 495.606 475.732 495.571 475.466C495.553 475.334 495.538 475.236 495.529 475.18C495.524 475.152 495.521 475.133 495.52 475.126C495.519 475.123 495.519 475.122 495.519 475.124C495.519 475.125 495.52 475.127 495.52 475.129C495.52 475.13 495.521 475.131 495.521 475.133C495.521 475.134 495.521 475.135 495.521 475.136C495.522 475.137 495.522 475.138 498.755 474.687ZM493.732 493.437C489.036 495.008 485.088 494.865 481.886 492.736C478.767 490.663 477.214 487.249 476.277 484.535L482.419 482.404C483.194 484.649 483.982 485.874 484.904 486.487C485.744 487.045 487.536 487.637 491.353 486.36L493.732 493.437Z" fill="#CC8000"/>
<path d="M783.969 234.086C803.5 235.714 820.59 236.69 835.238 237.016C850.212 237.341 862.908 237.504 873.324 237.504C885.368 237.504 895.785 237.178 904.574 236.527C913.689 235.551 925.57 234.249 940.219 232.621C952.589 230.993 968.539 228.878 988.07 226.273C1007.6 223.344 1031.36 219.6 1059.36 215.043C1055.78 220.577 1052.69 226.436 1050.08 232.621C1047.8 238.48 1045.85 243.852 1044.22 248.734C1042.6 254.594 1041.13 260.29 1039.83 265.824C1038.85 272.009 1037.71 279.659 1036.41 288.773C1035.11 296.586 1033.48 306.514 1031.53 318.559C1029.9 330.277 1027.78 344.275 1025.18 360.551C1015.41 335.16 1005.49 315.629 995.395 301.957C985.629 288.285 976.514 278.194 968.051 271.684C958.285 264.197 949.008 259.965 940.219 258.988C927.523 258.988 917.107 261.43 908.969 266.312C900.831 271.195 894.158 277.543 888.949 285.355C884.066 292.842 880.323 301.143 877.719 310.258C875.115 319.047 873.324 327.673 872.348 336.137C871.371 344.275 870.72 351.599 870.395 358.109C870.069 364.294 869.743 368.526 869.418 370.805C880.811 370.154 890.414 369.34 898.227 368.363C906.039 367.387 912.224 366.41 916.781 365.434C922.315 364.132 926.71 362.829 929.965 361.527C934.848 358.923 939.73 355.831 944.613 352.25C948.845 348.995 953.24 345.089 957.797 340.531C962.68 335.974 966.911 330.44 970.492 323.93C968.539 335.648 966.749 345.414 965.121 353.227C963.819 361.039 962.68 367.224 961.703 371.781C960.401 377.315 959.587 381.547 959.262 384.477C958.611 387.406 957.797 391.475 956.82 396.684C955.844 401.241 954.704 407.1 953.402 414.262C952.1 421.423 950.635 430.375 949.008 441.117C945.102 434.281 941.033 428.747 936.801 424.516C932.569 419.958 928.663 416.378 925.082 413.773C920.85 410.844 916.781 408.565 912.875 406.938C908.643 405.635 904.086 404.333 899.203 403.031C894.971 402.055 889.926 401.078 884.066 400.102C878.533 398.799 872.51 397.66 866 396.684C866.651 414.262 867.628 429.398 868.93 442.094C870.232 454.464 871.371 464.88 872.348 473.344C873.65 483.109 874.952 491.247 876.254 497.758C877.882 504.268 880.486 511.267 884.066 518.754C886.996 525.264 891.065 532.751 896.273 541.215C901.807 549.353 908.806 558.142 917.27 567.582C910.759 565.954 903.923 564.815 896.762 564.164C889.6 563.513 883.253 563.025 877.719 562.699C870.883 562.374 864.372 562.374 858.188 562.699C851.677 563.025 844.516 563.676 836.703 564.652C830.193 565.303 822.706 566.28 814.242 567.582C805.779 568.884 796.827 570.349 787.387 571.977C792.921 566.443 797.478 560.909 801.059 555.375C804.639 549.841 807.243 544.958 808.871 540.727C810.824 535.844 812.126 531.124 812.777 526.566C813.103 522.66 813.266 514.197 813.266 501.176C813.266 487.829 813.103 472.367 812.777 454.789C812.452 436.885 811.964 418.005 811.312 398.148C810.661 378.292 810.01 359.737 809.359 342.484C808.708 324.906 807.895 309.932 806.918 297.562C806.267 285.193 805.453 277.706 804.477 275.102C803.174 271.846 801.71 268.103 800.082 263.871C797.478 257.035 792.107 247.107 783.969 234.086ZM1034.34 352.738L1124.18 353.715C1118.98 373.572 1115.07 390.499 1112.46 404.496C1110.19 418.493 1108.72 430.212 1108.07 439.652C1106.77 450.395 1106.44 459.509 1107.09 466.996C1108.07 473.832 1109.7 481.156 1111.98 488.969C1113.93 495.479 1116.86 502.966 1120.77 511.43C1124.67 519.893 1129.88 528.357 1136.39 536.82C1132.48 535.518 1128.25 534.542 1123.7 533.891C1119.14 533.24 1114.91 532.751 1111 532.426C1106.44 532.1 1101.89 532.1 1097.33 532.426C1092.77 532.751 1087.73 533.24 1082.19 533.891C1077.63 534.542 1072.1 535.355 1065.59 536.332C1059.08 537.309 1052.24 538.611 1045.08 540.238C1049.96 525.59 1053.71 512.895 1056.31 502.152C1059.24 491.41 1061.36 482.458 1062.66 475.297C1063.96 466.833 1064.78 459.997 1065.1 454.789C1065.1 448.279 1065.1 440.954 1065.1 432.816C1065.1 424.353 1065.1 416.215 1065.1 408.402C1065.1 400.59 1064.94 393.754 1064.61 387.895C1064.29 381.71 1063.64 377.803 1062.66 376.176L1057.78 371.293C1055.82 369.665 1052.89 367.387 1048.99 364.457C1045.41 361.202 1040.52 357.296 1034.34 352.738ZM1069.01 277.543C1075.84 273.962 1082.68 272.986 1089.52 274.613C1096.68 276.241 1102.21 279.333 1106.12 283.891C1110.02 288.448 1111.33 293.819 1110.02 300.004C1109.05 306.189 1103.84 312.211 1094.4 318.07C1084.96 323.604 1076.66 325.557 1069.5 323.93C1062.33 322.302 1057.29 318.884 1054.36 313.676C1051.43 308.467 1050.94 302.445 1052.89 295.609C1054.85 288.448 1060.22 282.426 1069.01 277.543ZM1164.11 517.289C1166.38 506.547 1168.01 497.107 1168.99 488.969C1170.29 480.505 1171.27 473.507 1171.92 467.973C1172.57 461.462 1172.89 455.928 1172.89 451.371C1172.57 445.837 1172.24 439.327 1171.92 431.84C1171.92 424.027 1171.59 416.378 1170.94 408.891C1170.62 401.078 1170.13 394.242 1169.48 388.383C1168.83 382.198 1168.01 377.803 1167.04 375.199C1165.73 372.595 1163.94 369.828 1161.66 366.898C1157.11 361.365 1150.43 355.993 1141.64 350.785C1149.13 349.158 1155.48 347.855 1160.69 346.879C1166.22 345.577 1170.78 344.438 1174.36 343.461C1178.27 342.159 1181.68 341.02 1184.61 340.043C1187.22 339.066 1190.31 338.09 1193.89 337.113C1196.82 336.462 1200.4 335.648 1204.63 334.672C1208.86 333.695 1213.75 332.556 1219.28 331.254L1217.82 375.688C1228.23 363.318 1238.81 354.04 1249.55 347.855C1260.3 341.671 1270.39 337.276 1279.83 334.672C1290.57 331.417 1301.15 329.789 1311.57 329.789C1324.59 330.44 1336.63 332.556 1347.7 336.137C1359.09 339.717 1368.86 343.949 1377 348.832C1385.46 353.389 1392.3 358.272 1397.5 363.48C1402.71 368.689 1405.8 373.246 1406.78 377.152C1410.69 389.848 1411.66 401.566 1409.71 412.309C1407.76 422.725 1405.15 432.979 1401.9 443.07C1398.97 452.836 1396.36 462.602 1394.09 472.367C1392.13 482.133 1392.95 492.712 1396.53 504.105C1397.83 507.035 1399.13 509.965 1400.43 512.895C1401.74 515.499 1403.36 518.103 1405.32 520.707C1407.27 523.311 1409.55 525.427 1412.15 527.055C1408.57 526.729 1404.99 526.566 1401.41 526.566C1397.83 526.241 1394.57 525.915 1391.64 525.59C1388.06 525.264 1384.81 524.939 1381.88 524.613C1378.62 524.288 1374.23 524.125 1368.7 524.125C1359.26 524.125 1344.61 524.613 1324.75 525.59C1327.68 518.754 1329.96 513.057 1331.59 508.5C1333.54 503.617 1335.17 499.711 1336.47 496.781C1337.77 493.201 1338.75 490.434 1339.4 488.48C1343.3 479.04 1345.58 468.298 1346.23 456.254C1347.21 444.21 1346.4 432.003 1343.79 419.633C1342.82 415.401 1341.19 410.355 1338.91 404.496C1336.63 398.637 1333.54 392.94 1329.63 387.406C1326.05 381.872 1321.66 377.152 1316.45 373.246C1311.57 369.34 1305.87 367.061 1299.36 366.41C1292.85 365.759 1285.52 367.387 1277.39 371.293C1269.57 375.199 1261.11 382.361 1252 392.777C1245.16 401.566 1239.79 412.309 1235.88 425.004C1232.3 435.746 1229.86 449.255 1228.56 465.531C1227.26 481.482 1229.21 500.199 1234.42 521.684C1229.86 521.033 1225.63 520.707 1221.72 520.707C1217.82 520.382 1214.56 520.056 1211.96 519.73C1208.7 519.405 1205.77 519.079 1203.17 518.754C1200.24 518.754 1196.98 518.591 1193.4 518.266C1190.15 518.266 1186.08 518.266 1181.2 518.266C1176.31 517.94 1170.62 517.615 1164.11 517.289ZM1671.8 196.977C1677.99 197.302 1684.66 197.465 1691.82 197.465C1698.01 197.465 1705 197.628 1712.82 197.953C1720.95 197.953 1729.42 197.628 1738.21 196.977C1730.39 200.557 1723.56 205.766 1717.7 212.602C1711.84 219.438 1707.12 226.273 1703.54 233.109C1698.98 241.247 1695.24 249.711 1692.31 258.5C1690.68 263.708 1689.38 272.986 1688.4 286.332C1687.43 299.353 1686.61 314.652 1685.96 332.23C1685.64 349.809 1685.47 368.363 1685.47 387.895C1685.47 407.426 1685.64 426.143 1685.96 444.047C1686.29 461.625 1686.77 477.25 1687.43 490.922C1688.08 504.594 1688.89 514.197 1689.87 519.73C1691.17 526.241 1692.8 532.426 1694.75 538.285C1696.38 543.493 1698.49 548.865 1701.1 554.398C1703.7 559.607 1706.96 563.839 1710.86 567.094L1661.06 589.555C1658.45 585.974 1656.34 582.23 1654.71 578.324C1653.08 574.743 1651.78 571.488 1650.8 568.559C1649.5 564.978 1648.69 561.723 1648.36 558.793C1647.71 554.887 1647.06 550.655 1646.41 546.098C1645.76 541.215 1644.95 536.658 1643.97 532.426C1643.32 527.868 1642.83 524.125 1642.5 521.195C1642.18 518.266 1642.18 516.475 1642.5 515.824C1642.83 515.173 1640.88 518.103 1636.64 524.613C1632.41 530.798 1626.07 538.122 1617.6 546.586C1609.46 554.724 1599.37 562.699 1587.33 570.512C1575.28 577.999 1561.77 582.719 1546.8 584.672C1531.5 586.625 1517.34 583.695 1504.32 575.883C1491.62 568.07 1480.72 557.165 1471.61 543.168C1462.49 528.845 1455.49 512.406 1450.61 493.852C1446.05 474.971 1444.26 455.766 1445.24 436.234C1445.89 423.214 1448.82 411.658 1454.03 401.566C1459.24 391.15 1465.75 382.198 1473.56 374.711C1481.7 366.898 1490.49 360.388 1499.93 355.18C1509.69 349.646 1519.13 345.089 1528.25 341.508C1537.69 337.927 1546.48 335.323 1554.61 333.695C1562.75 332.068 1569.26 330.928 1574.14 330.277C1580 329.952 1586.68 330.928 1594.16 333.207C1600.67 335.16 1608.16 338.415 1616.62 342.973C1625.41 347.53 1635.18 354.366 1645.92 363.48C1643.97 330.928 1642.18 304.887 1640.55 285.355C1638.92 265.499 1637.3 250.362 1635.67 239.945C1634.04 227.576 1632.58 219.112 1631.27 214.555C1629.65 211.299 1627.53 208.044 1624.93 204.789C1622.65 202.185 1619.72 199.581 1616.14 196.977C1612.88 194.047 1608.98 191.768 1604.42 190.141C1612.88 191.768 1621.02 192.908 1628.83 193.559C1636.64 194.21 1643.81 194.861 1650.32 195.512C1657.8 196.163 1664.96 196.651 1671.8 196.977ZM1549.24 379.105C1543.06 381.384 1538.01 385.29 1534.11 390.824C1530.52 396.358 1527.6 403.031 1525.32 410.844C1523.04 418.331 1521.41 426.469 1520.43 435.258C1519.78 443.721 1519.29 452.022 1518.97 460.16C1518.97 467.973 1518.97 475.134 1518.97 481.645C1518.97 488.155 1518.97 493.038 1518.97 496.293C1518.97 498.246 1519.29 501.827 1519.95 507.035C1520.92 511.918 1522.88 517.126 1525.8 522.66C1528.73 527.868 1532.8 532.589 1538.01 536.82C1543.55 541.052 1550.87 543.168 1559.98 543.168C1567.47 542.517 1575.45 539.913 1583.91 535.355C1591.4 531.449 1599.86 525.264 1609.3 516.801C1619.07 508.012 1629.48 495.479 1640.55 479.203C1639.9 468.786 1639.41 460.16 1639.09 453.324C1639.09 446.488 1638.92 440.954 1638.6 436.723C1638.27 431.84 1638.11 427.934 1638.11 425.004V417.68C1638.11 415.727 1638.11 413.611 1638.11 411.332C1638.11 409.053 1638.27 406.938 1638.6 404.984C1629.48 398.474 1621.35 392.94 1614.18 388.383C1607.35 383.5 1600.51 379.919 1593.68 377.641C1587.17 375.036 1580.33 373.897 1573.17 374.223C1566.33 374.223 1558.36 375.85 1549.24 379.105Z" fill="#444444"/>
<path d="M1868.34 220.902C1878.76 221.228 1887.88 221.391 1895.69 221.391C1903.5 221.065 1909.85 220.902 1914.73 220.902H1928.89C1932.47 220.577 1936.87 220.414 1942.07 220.414C1946.63 220.414 1952.17 220.414 1958.68 220.414C1965.19 220.414 1972.67 220.577 1981.14 220.902C1983.74 230.017 1986.67 238.969 1989.93 247.758C1993.51 256.221 1996.6 263.871 1999.2 270.707C2002.46 278.845 2005.71 286.495 2008.97 293.656C2012.22 300.818 2016.13 309.444 2020.69 319.535C2024.59 327.999 2029.31 338.415 2034.85 350.785C2040.38 362.829 2046.89 376.664 2054.38 392.289C2057.96 382.198 2061.21 372.921 2064.14 364.457C2067.4 355.993 2070.17 348.669 2072.45 342.484C2075.05 335.323 2077.17 328.812 2078.79 322.953C2080.42 317.094 2082.21 309.932 2084.16 301.469C2085.79 294.307 2087.58 285.681 2089.54 275.59C2091.81 265.499 2094.09 253.78 2096.37 240.434C2105.81 240.434 2114.27 240.434 2121.76 240.434C2129.25 240.434 2135.76 240.271 2141.29 239.945C2147.48 239.945 2153.01 239.783 2157.89 239.457C2163.1 239.457 2170.1 239.132 2178.89 238.48C2186.38 237.829 2196.31 237.341 2208.68 237.016C2221.37 236.365 2237 235.551 2255.55 234.574C2248.71 239.457 2243.18 244.34 2238.95 249.223C2235.04 253.78 2231.95 257.849 2229.67 261.43C2227.07 265.661 2225.44 269.73 2224.79 273.637C2224.14 276.892 2223.49 284.379 2222.84 296.098C2222.51 307.816 2222.02 321.814 2221.37 338.09C2221.05 354.04 2220.72 371.13 2220.39 389.359C2220.39 407.589 2220.56 424.841 2220.88 441.117C2221.21 457.393 2221.7 471.553 2222.35 483.598C2223.32 495.316 2224.63 502.803 2226.25 506.059C2228.53 509.965 2231.62 514.522 2235.53 519.73C2239.11 524.288 2243.67 529.496 2249.2 535.355C2255.06 541.215 2262.71 547.725 2272.15 554.887C2257.18 555.538 2244.65 556.026 2234.55 556.352C2224.79 556.677 2216.65 557.003 2210.14 557.328C2202.65 557.654 2196.63 557.816 2192.07 557.816C2187.19 557.816 2180.52 557.979 2172.05 558.305C2164.57 558.63 2154.64 559.118 2142.27 559.77C2129.9 560.095 2113.95 560.746 2094.42 561.723C2098.98 556.514 2103.21 551.306 2107.11 546.098C2111.02 540.889 2114.27 536.169 2116.88 531.938C2120.13 527.055 2122.9 522.335 2125.18 517.777C2127.46 511.592 2129.25 500.362 2130.55 484.086C2131.85 470.089 2132.83 450.069 2133.48 424.027C2134.13 397.66 2134.13 362.341 2133.48 318.07C2127.3 328.161 2121.76 338.253 2116.88 348.344C2112.32 358.109 2108.25 367.061 2104.67 375.199C2100.77 384.639 2097.18 393.754 2093.93 402.543C2090.67 411.658 2087.26 421.749 2083.68 432.816C2080.42 442.257 2076.51 453.487 2071.96 466.508C2067.73 479.529 2062.84 493.852 2057.31 509.477L2038.75 510.453C2036.15 497.432 2033.55 485.714 2030.94 475.297C2028.34 464.555 2025.73 455.44 2023.13 447.953C2020.2 439.164 2017.27 431.352 2014.34 424.516C2011.08 417.68 2007.5 410.03 2003.6 401.566C2000.02 394.405 1995.62 385.941 1990.41 376.176C1985.53 366.41 1979.83 355.505 1973.32 343.461C1970.07 376.664 1968.12 403.682 1967.46 424.516C1966.81 445.023 1966.81 460.974 1967.46 472.367C1968.12 486.039 1969.09 495.967 1970.39 502.152C1972.35 507.686 1975.44 513.871 1979.67 520.707C1983.25 526.566 1988.14 533.565 1994.32 541.703C2000.83 549.516 2009.13 558.305 2019.22 568.07C2012.06 568.07 2004.57 568.07 1996.76 568.07C1988.95 568.07 1981.79 568.233 1975.28 568.559C1967.46 568.884 1959.82 569.047 1952.33 569.047C1944.52 569.372 1935.4 569.861 1924.98 570.512C1915.87 571.163 1904.96 571.814 1892.27 572.465C1879.57 573.116 1864.93 574.255 1848.32 575.883C1855.49 571.326 1861.35 566.931 1865.9 562.699C1870.46 558.142 1874.04 554.073 1876.64 550.492C1879.9 546.26 1882.34 542.029 1883.97 537.797C1884.95 535.193 1885.76 529.496 1886.41 520.707C1887.39 511.918 1888.2 501.176 1888.85 488.48C1889.83 475.785 1890.48 461.625 1890.8 446C1891.46 430.375 1891.94 414.587 1892.27 398.637C1892.92 382.361 1893.41 366.573 1893.73 351.273C1894.06 335.648 1894.22 321.651 1894.22 309.281C1894.55 296.586 1894.71 286.007 1894.71 277.543C1894.71 269.079 1894.71 263.708 1894.71 261.43C1893.73 256.547 1892.27 251.664 1890.32 246.781C1888.69 242.549 1886.08 238.155 1882.5 233.598C1878.92 229.04 1874.2 224.809 1868.34 220.902ZM2242.25 321.488C2248.76 322.465 2254.62 323.279 2259.83 323.93C2264.71 324.255 2269.11 324.581 2273.01 324.906C2277.24 325.232 2281.31 325.395 2285.22 325.395C2288.8 325.395 2293.36 325.232 2298.89 324.906C2303.45 324.581 2309.31 324.255 2316.47 323.93C2323.96 323.279 2332.74 322.465 2342.84 321.488C2342.18 322.79 2340.88 326.859 2338.93 333.695C2336.98 340.206 2335.02 348.344 2333.07 358.109C2331.12 367.549 2329.33 378.129 2327.7 389.848C2326.4 401.241 2325.75 412.634 2325.75 424.027C2326.07 435.095 2327.54 445.674 2330.14 455.766C2332.74 465.531 2336.98 473.507 2342.84 479.691C2355.21 492.387 2366.11 500.036 2375.55 502.641C2385.32 505.245 2393.78 504.919 2400.94 501.664C2408.1 498.409 2413.96 493.526 2418.52 487.016C2423.08 480.505 2426.33 474.483 2428.29 468.949C2433.17 453.975 2436.1 438.188 2437.07 421.586C2437.73 407.263 2436.59 391.312 2433.66 373.734C2430.73 356.156 2423.73 338.253 2412.66 320.023C2421.12 320.674 2428.45 321.163 2434.63 321.488C2440.82 321.814 2446.19 322.139 2450.75 322.465C2455.95 322.79 2460.51 323.116 2464.42 323.441C2468 323.767 2472.23 323.767 2477.11 323.441C2481.35 323.441 2486.39 323.279 2492.25 322.953C2498.43 322.302 2505.27 321.651 2512.76 321C2514.06 352.901 2515.2 381.384 2516.18 406.449C2517.15 431.189 2517.8 453.161 2518.13 472.367C2518.78 491.247 2519.11 507.686 2519.11 521.684C2519.11 535.355 2519.11 546.911 2519.11 556.352C2518.78 578.812 2517.8 593.624 2516.18 600.785C2513.57 610.876 2508.85 620.967 2502.02 631.059C2495.51 641.15 2487.2 650.102 2477.11 657.914C2467.02 666.052 2455.3 672.237 2441.96 676.469C2428.94 681.026 2414.61 682.654 2398.99 681.352C2383.69 680.049 2371.48 677.934 2362.37 675.004C2353.58 672.4 2346.58 669.307 2341.37 665.727C2336.49 662.146 2332.91 658.402 2330.63 654.496C2328.68 650.59 2327.21 646.521 2326.23 642.289C2325.26 638.383 2324.28 634.639 2323.3 631.059C2322.33 627.478 2320.38 624.385 2317.45 621.781C2313.86 618.852 2310.12 615.922 2306.21 612.992C2302.63 610.388 2298.73 607.784 2294.5 605.18C2290.59 602.576 2286.68 600.46 2282.78 598.832L2386.78 592.973C2383.85 596.879 2381.74 600.46 2380.43 603.715C2379.13 606.97 2378.32 609.737 2377.99 612.016C2377.67 614.945 2377.83 617.387 2378.48 619.34C2379.78 623.246 2382.06 627.478 2385.32 632.035C2388.9 636.918 2393.45 640.661 2398.99 643.266C2404.52 646.195 2411.03 647.172 2418.52 646.195C2426.33 645.219 2435.12 641.15 2444.89 633.988C2453.02 627.803 2459.86 617.875 2465.39 604.203C2469.95 592.484 2473.53 576.046 2476.14 554.887C2478.74 533.728 2478.25 505.896 2474.67 471.391C2468.81 491.573 2460.84 507.035 2450.75 517.777C2440.65 528.52 2430.56 536.332 2420.47 541.215C2408.75 547.074 2396.55 550.167 2383.85 550.492C2366.92 549.841 2352.44 547.725 2340.39 544.145C2328.35 540.238 2318.42 535.03 2310.61 528.52C2302.8 522.009 2296.61 514.359 2292.05 505.57C2287.82 496.456 2284.73 486.365 2282.78 475.297C2280.82 464.229 2279.85 453.161 2279.85 442.094C2279.85 430.701 2279.85 420.121 2279.85 410.355C2280.17 400.59 2280.34 391.801 2280.34 383.988C2280.34 375.85 2279.52 369.34 2277.89 364.457C2275.94 359.574 2273.34 354.691 2270.08 349.809C2267.48 345.577 2263.9 341.02 2259.34 336.137C2254.46 330.928 2248.76 326.046 2242.25 321.488ZM2677.07 221.391C2689.44 224.32 2700.51 226.599 2710.28 228.227C2720.37 229.529 2728.83 230.505 2735.67 231.156C2743.81 232.133 2750.97 232.458 2757.15 232.133C2764.96 231.807 2774.73 230.668 2786.45 228.715C2798.17 226.762 2810.54 224.809 2823.56 222.855C2836.58 220.902 2849.44 219.275 2862.13 217.973C2874.83 216.671 2885.9 216.508 2895.34 217.484C2904.78 218.461 2914.7 220.74 2925.12 224.32C2935.54 227.576 2945.3 232.133 2954.42 237.992C2963.53 243.526 2971.35 250.362 2977.86 258.5C2984.69 266.638 2988.92 276.078 2990.55 286.82C2992.18 297.237 2991.2 308.467 2987.62 320.512C2984.04 332.23 2978.34 343.786 2970.53 355.18C2962.72 366.247 2952.95 376.501 2941.23 385.941C2929.52 395.382 2916.49 403.031 2902.17 408.891C2890.78 413.122 2878.41 416.378 2865.06 418.656C2853.67 420.609 2840.32 421.911 2825.02 422.562C2810.05 422.888 2794.1 421.26 2777.17 417.68C2774.89 427.12 2773.59 435.909 2773.27 444.047C2773.27 451.859 2773.59 458.858 2774.24 465.043C2775.22 472.204 2776.52 478.715 2778.15 484.574C2780.1 490.434 2782.54 497.27 2785.47 505.082C2788.08 511.592 2791.01 519.568 2794.26 529.008C2797.84 538.122 2802.07 548.376 2806.96 559.77C2801.1 559.77 2795.4 559.932 2789.87 560.258C2784.33 560.258 2779.29 560.421 2774.73 560.746C2769.52 561.072 2764.64 561.397 2760.08 561.723C2754.87 562.048 2749.01 562.699 2742.5 563.676C2736.97 564.327 2729.97 565.303 2721.51 566.605C2713.37 567.908 2704.09 569.535 2693.68 571.488C2700.51 561.723 2705.88 552.771 2709.79 544.633C2714.02 536.169 2717.11 528.845 2719.07 522.66C2721.35 515.499 2722.81 508.988 2723.46 503.129C2723.79 498.246 2723.79 489.62 2723.46 477.25C2723.46 464.88 2723.3 450.557 2722.97 434.281C2722.65 418.005 2722.16 400.915 2721.51 383.012C2720.86 365.108 2720.04 348.344 2719.07 332.719C2718.09 316.768 2716.95 303.096 2715.65 291.703C2714.67 280.31 2713.7 272.823 2712.72 269.242C2711.42 265.01 2709.14 260.453 2705.88 255.57C2703.28 251.339 2699.54 246.456 2694.65 240.922C2690.1 235.062 2684.24 228.552 2677.07 221.391ZM2778.15 317.582C2777.82 320.837 2777.66 324.255 2777.66 327.836C2777.66 334.672 2778.15 343.461 2779.12 354.203C2781.4 359.737 2784.17 364.294 2787.43 367.875C2791.01 371.456 2794.75 374.223 2798.66 376.176C2802.89 378.129 2807.12 379.431 2811.35 380.082C2815.58 380.733 2819.82 381.059 2824.05 381.059C2833.81 380.733 2844.07 378.454 2854.81 374.223C2869.13 368.038 2879.22 359.249 2885.08 347.855C2890.94 336.462 2894.03 324.743 2894.36 312.699C2894.68 300.655 2892.57 289.587 2888.01 279.496C2883.78 269.405 2878.57 262.569 2872.39 258.988C2867.18 256.71 2860.51 255.733 2852.37 256.059C2845.21 256.384 2836.25 258.174 2825.51 261.43C2814.77 264.685 2801.59 270.544 2785.96 279.008C2784.33 284.867 2783.03 290.076 2782.05 294.633C2781.08 299.19 2780.26 303.259 2779.61 306.84C2778.96 310.746 2778.47 314.327 2778.15 317.582ZM3100.3 492.387C3109.41 492.387 3117.88 491.41 3125.69 489.457C3132.2 487.829 3138.38 485.225 3144.24 481.645C3150.43 477.738 3154.5 472.042 3156.45 464.555C3162.96 465.857 3168.49 466.996 3173.05 467.973C3177.61 468.624 3181.51 469.275 3184.77 469.926C3188.35 470.902 3191.44 471.553 3194.05 471.879C3196.65 472.53 3199.74 473.181 3203.32 473.832C3206.58 474.483 3210.49 475.297 3215.04 476.273C3219.93 476.924 3225.62 477.901 3232.13 479.203C3227.25 478.552 3222.2 479.04 3217 480.668C3212.11 482.296 3207.39 484.086 3202.84 486.039C3197.63 488.318 3192.74 491.085 3188.19 494.34C3185.26 496.293 3181.84 499.223 3177.93 503.129C3174.35 507.035 3169.14 510.779 3162.31 514.359C3155.47 517.94 3146.36 521.033 3134.96 523.637C3123.9 525.915 3109.57 526.729 3092 526.078C3070.84 525.427 3053.1 521.684 3038.77 514.848C3024.45 507.686 3012.89 499.06 3004.11 488.969C2995.32 478.552 2988.97 467.322 2985.06 455.277C2981.16 443.233 2979.04 432.003 2978.71 421.586C2978.39 411.169 2981.48 400.264 2987.99 388.871C2994.5 377.478 3003.62 367.061 3015.34 357.621C3027.38 348.181 3041.87 340.531 3058.79 334.672C3075.72 328.487 3094.27 325.395 3114.46 325.395C3126.18 325.395 3136.92 326.859 3146.68 329.789C3156.77 332.393 3165.89 335.974 3174.03 340.531C3182.49 345.089 3189.82 350.297 3196 356.156C3202.18 361.69 3207.39 367.387 3211.62 373.246C3215.86 379.431 3219.44 385.941 3222.37 392.777C3224.97 398.637 3227.09 405.31 3228.71 412.797C3230.34 420.284 3230.83 427.934 3230.18 435.746C3205.44 436.397 3185.42 436.885 3170.12 437.211C3155.15 437.536 3143.43 437.699 3134.96 437.699H3112.99H3096.39C3090.53 437.699 3082.88 437.862 3073.44 438.188C3064 438.513 3052.45 439.001 3038.77 439.652C3040.4 452.673 3044.47 462.764 3050.98 469.926C3057.82 476.762 3064.98 481.97 3072.46 485.551C3080.93 489.457 3090.21 491.736 3100.3 492.387ZM3056.35 404.496C3066.77 405.147 3075.39 405.635 3082.23 405.961C3089.39 406.286 3095.25 406.612 3099.81 406.938C3104.69 407.263 3108.6 407.426 3111.53 407.426H3123.73C3131.87 407.426 3147.01 406.938 3169.14 405.961C3168.17 391.638 3165.08 380.733 3159.87 373.246C3154.98 365.759 3149.78 360.225 3144.24 356.645C3137.73 352.738 3130.57 350.46 3122.76 349.809C3101.6 350.134 3085.81 354.529 3075.39 362.992C3065.3 371.456 3058.96 385.29 3056.35 404.496ZM3238.85 263.383C3248.62 264.359 3256.76 265.173 3263.27 265.824C3270.1 266.475 3275.64 266.964 3279.87 267.289C3284.75 267.615 3288.66 267.777 3291.59 267.777C3294.52 268.103 3298.42 268.103 3303.3 267.777C3307.54 267.452 3313.07 267.126 3319.91 266.801C3326.74 266.15 3335.37 265.173 3345.79 263.871C3343.51 267.126 3341.72 270.056 3340.41 272.66C3339.11 274.939 3337.97 277.055 3337 279.008L3334.07 284.867C3333.42 286.82 3332.76 288.773 3332.11 290.727C3331.46 292.354 3330.81 294.307 3330.16 296.586C3329.83 298.865 3329.51 301.306 3329.18 303.91H3404.38L3397.54 343.461L3328.7 339.555C3327.07 356.156 3325.93 369.014 3325.28 378.129C3324.63 387.243 3323.98 393.917 3323.32 398.148L3322.35 406.938C3321.37 419.307 3320.39 432.816 3319.42 447.465C3318.44 461.788 3318.12 475.134 3318.44 487.504C3318.77 499.874 3319.91 510.29 3321.86 518.754C3323.81 526.892 3327.23 530.961 3332.11 530.961C3337 530.961 3341.55 529.659 3345.79 527.055C3350.02 524.451 3353.6 521.358 3356.53 517.777C3359.78 514.197 3362.22 510.616 3363.85 507.035C3365.48 503.129 3366.29 500.199 3366.29 498.246C3366.29 496.293 3365.8 494.014 3364.83 491.41C3363.2 486.527 3360.27 480.342 3356.04 472.855C3365.48 475.134 3373.78 477.413 3380.94 479.691C3384.52 480.993 3387.78 482.296 3390.71 483.598C3393.96 484.9 3397.71 486.365 3401.94 487.992C3405.52 489.62 3410.08 491.573 3415.61 493.852C3421.14 496.13 3427.65 498.897 3435.14 502.152C3427.98 503.454 3422.77 505.57 3419.52 508.5C3417.56 509.802 3416.1 511.267 3415.12 512.895C3412.84 516.475 3410.24 521.358 3407.31 527.543C3404.38 533.402 3399.98 539.262 3394.12 545.121C3388.27 550.98 3380.29 556.189 3370.2 560.746C3360.43 565.303 3347.25 567.908 3330.65 568.559C3313.4 569.21 3300.21 566.28 3291.1 559.77C3282.31 553.259 3275.8 545.772 3271.57 537.309C3267.66 528.52 3265.38 519.893 3264.73 511.43C3264.08 502.966 3263.59 497.27 3263.27 494.34C3262.94 491.41 3262.94 484.086 3263.27 472.367C3263.59 460.648 3264.08 447.79 3264.73 433.793C3265.38 419.47 3266.03 405.798 3266.68 392.777C3267.33 379.431 3267.66 369.665 3267.66 363.48C3267.66 360.225 3267.82 356.807 3268.15 353.227C3268.15 350.297 3268.15 347.204 3268.15 343.949C3268.47 340.368 3268.64 336.951 3268.64 333.695L3197.84 333.207L3194.91 305.375L3266.2 307.328C3265.54 303.747 3264.73 300.492 3263.75 297.562C3263.1 294.307 3262.45 291.703 3261.8 289.75C3260.82 287.471 3259.85 285.518 3258.87 283.891C3257.57 282.263 3256.1 280.473 3254.48 278.52C3252.85 276.892 3250.73 274.776 3248.13 272.172C3245.52 269.568 3242.43 266.638 3238.85 263.383Z" fill="#CC8000"/>
</svg>
