<svg width="2662" height="604" viewBox="0 0 2662 604" fill="none" xmlns="http://www.w3.org/2000/svg">
<path d="M9.96875 141.086C29.5 142.714 46.5898 143.69 61.2383 144.016C76.2122 144.341 88.9076 144.504 99.3242 144.504C111.368 144.504 121.785 144.178 130.574 143.527C139.689 142.551 151.57 141.249 166.219 139.621C178.589 137.993 194.539 135.878 214.07 133.273C233.602 130.344 257.365 126.6 285.359 122.043C281.779 127.577 278.686 133.436 276.082 139.621C273.803 145.48 271.85 150.852 270.223 155.734C268.595 161.594 267.13 167.29 265.828 172.824C264.852 179.009 263.712 186.659 262.41 195.773C261.108 203.586 259.48 213.514 257.527 225.559C255.9 237.277 253.784 251.275 251.18 267.551C241.414 242.16 231.486 222.629 221.395 208.957C211.629 195.285 202.514 185.194 194.051 178.684C184.285 171.197 175.008 166.965 166.219 165.988C153.523 165.988 143.107 168.43 134.969 173.312C126.831 178.195 120.158 184.543 114.949 192.355C110.066 199.842 106.323 208.143 103.719 217.258C101.115 226.047 99.3242 234.673 98.3477 243.137C97.3711 251.275 96.7201 258.599 96.3945 265.109C96.069 271.294 95.7435 275.526 95.418 277.805C106.811 277.154 116.414 276.34 124.227 275.363C132.039 274.387 138.224 273.41 142.781 272.434C148.315 271.132 152.71 269.829 155.965 268.527C160.848 265.923 165.73 262.831 170.613 259.25C174.845 255.995 179.24 252.089 183.797 247.531C188.68 242.974 192.911 237.44 196.492 230.93C194.539 242.648 192.749 252.414 191.121 260.227C189.819 268.039 188.68 274.224 187.703 278.781C186.401 284.315 185.587 288.547 185.262 291.477C184.611 294.406 183.797 298.475 182.82 303.684C181.844 308.241 180.704 314.1 179.402 321.262C178.1 328.423 176.635 337.375 175.008 348.117C171.102 341.281 167.033 335.747 162.801 331.516C158.569 326.958 154.663 323.378 151.082 320.773C146.85 317.844 142.781 315.565 138.875 313.938C134.643 312.635 130.086 311.333 125.203 310.031C120.971 309.055 115.926 308.078 110.066 307.102C104.533 305.799 98.5104 304.66 92 303.684C92.651 321.262 93.6276 336.398 94.9297 349.094C96.2318 361.464 97.3711 371.88 98.3477 380.344C99.6497 390.109 100.952 398.247 102.254 404.758C103.882 411.268 106.486 418.267 110.066 425.754C112.996 432.264 117.065 439.751 122.273 448.215C127.807 456.353 134.806 465.142 143.27 474.582C136.759 472.954 129.923 471.815 122.762 471.164C115.6 470.513 109.253 470.025 103.719 469.699C96.8828 469.374 90.3724 469.374 84.1875 469.699C77.6771 470.025 70.5156 470.676 62.7031 471.652C56.1927 472.303 48.7057 473.28 40.2422 474.582C31.7786 475.884 22.8268 477.349 13.3867 478.977C18.9206 473.443 23.4779 467.909 27.0586 462.375C30.6393 456.841 33.2435 451.958 34.8711 447.727C36.8242 442.844 38.1263 438.124 38.7773 433.566C39.1029 429.66 39.2656 421.197 39.2656 408.176C39.2656 394.829 39.1029 379.367 38.7773 361.789C38.4518 343.885 37.9635 325.005 37.3125 305.148C36.6615 285.292 36.0104 266.737 35.3594 249.484C34.7083 231.906 33.8945 216.932 32.918 204.562C32.2669 192.193 31.4531 184.706 30.4766 182.102C29.1745 178.846 27.7096 175.103 26.082 170.871C23.4779 164.035 18.1068 154.107 9.96875 141.086ZM260.34 259.738L350.184 260.715C344.975 280.572 341.069 297.499 338.465 311.496C336.186 325.493 334.721 337.212 334.07 346.652C332.768 357.395 332.443 366.509 333.094 373.996C334.07 380.832 335.698 388.156 337.977 395.969C339.93 402.479 342.859 409.966 346.766 418.43C350.672 426.893 355.88 435.357 362.391 443.82C358.484 442.518 354.253 441.542 349.695 440.891C345.138 440.24 340.906 439.751 337 439.426C332.443 439.1 327.885 439.1 323.328 439.426C318.771 439.751 313.725 440.24 308.191 440.891C303.634 441.542 298.1 442.355 291.59 443.332C285.079 444.309 278.243 445.611 271.082 447.238C275.965 432.59 279.708 419.895 282.312 409.152C285.242 398.41 287.358 389.458 288.66 382.297C289.962 373.833 290.776 366.997 291.102 361.789C291.102 355.279 291.102 347.954 291.102 339.816C291.102 331.353 291.102 323.215 291.102 315.402C291.102 307.59 290.939 300.754 290.613 294.895C290.288 288.71 289.637 284.803 288.66 283.176L283.777 278.293C281.824 276.665 278.895 274.387 274.988 271.457C271.408 268.202 266.525 264.296 260.34 259.738ZM295.008 184.543C301.844 180.962 308.68 179.986 315.516 181.613C322.677 183.241 328.211 186.333 332.117 190.891C336.023 195.448 337.326 200.819 336.023 207.004C335.047 213.189 329.839 219.211 320.398 225.07C310.958 230.604 302.658 232.557 295.496 230.93C288.335 229.302 283.289 225.884 280.359 220.676C277.43 215.467 276.941 209.445 278.895 202.609C280.848 195.448 286.219 189.426 295.008 184.543ZM390.105 424.289C392.384 413.547 394.012 404.107 394.988 395.969C396.29 387.505 397.267 380.507 397.918 374.973C398.569 368.462 398.895 362.928 398.895 358.371C398.569 352.837 398.243 346.327 397.918 338.84C397.918 331.027 397.592 323.378 396.941 315.891C396.616 308.078 396.128 301.242 395.477 295.383C394.826 289.198 394.012 284.803 393.035 282.199C391.733 279.595 389.943 276.828 387.664 273.898C383.107 268.365 376.434 262.993 367.645 257.785C375.132 256.158 381.479 254.855 386.688 253.879C392.221 252.577 396.779 251.438 400.359 250.461C404.266 249.159 407.684 248.02 410.613 247.043C413.217 246.066 416.31 245.09 419.891 244.113C422.82 243.462 426.401 242.648 430.633 241.672C434.865 240.695 439.747 239.556 445.281 238.254L443.816 282.688C454.233 270.318 464.812 261.04 475.555 254.855C486.297 248.671 496.388 244.276 505.828 241.672C516.57 238.417 527.15 236.789 537.566 236.789C550.587 237.44 562.632 239.556 573.699 243.137C585.092 246.717 594.858 250.949 602.996 255.832C611.46 260.389 618.296 265.272 623.504 270.48C628.712 275.689 631.805 280.246 632.781 284.152C636.688 296.848 637.664 308.566 635.711 319.309C633.758 329.725 631.154 339.979 627.898 350.07C624.969 359.836 622.365 369.602 620.086 379.367C618.133 389.133 618.947 399.712 622.527 411.105C623.829 414.035 625.132 416.965 626.434 419.895C627.736 422.499 629.363 425.103 631.316 427.707C633.27 430.311 635.548 432.427 638.152 434.055C634.572 433.729 630.991 433.566 627.41 433.566C623.829 433.241 620.574 432.915 617.645 432.59C614.064 432.264 610.809 431.939 607.879 431.613C604.624 431.288 600.229 431.125 594.695 431.125C585.255 431.125 570.607 431.613 550.75 432.59C553.68 425.754 555.958 420.057 557.586 415.5C559.539 410.617 561.167 406.711 562.469 403.781C563.771 400.201 564.747 397.434 565.398 395.48C569.305 386.04 571.583 375.298 572.234 363.254C573.211 351.21 572.397 339.003 569.793 326.633C568.816 322.401 567.189 317.355 564.91 311.496C562.632 305.637 559.539 299.94 555.633 294.406C552.052 288.872 547.658 284.152 542.449 280.246C537.566 276.34 531.87 274.061 525.359 273.41C518.849 272.759 511.525 274.387 503.387 278.293C495.574 282.199 487.111 289.361 477.996 299.777C471.16 308.566 465.789 319.309 461.883 332.004C458.302 342.746 455.861 356.255 454.559 372.531C453.257 388.482 455.21 407.199 460.418 428.684C455.861 428.033 451.629 427.707 447.723 427.707C443.816 427.382 440.561 427.056 437.957 426.73C434.702 426.405 431.772 426.079 429.168 425.754C426.238 425.754 422.983 425.591 419.402 425.266C416.147 425.266 412.078 425.266 407.195 425.266C402.312 424.94 396.616 424.615 390.105 424.289ZM897.801 103.977C903.986 104.302 910.659 104.465 917.82 104.465C924.005 104.465 931.004 104.628 938.816 104.953C946.954 104.953 955.418 104.628 964.207 103.977C956.395 107.557 949.559 112.766 943.699 119.602C937.84 126.438 933.12 133.273 929.539 140.109C924.982 148.247 921.238 156.711 918.309 165.5C916.681 170.708 915.379 179.986 914.402 193.332C913.426 206.353 912.612 221.652 911.961 239.23C911.635 256.809 911.473 275.363 911.473 294.895C911.473 314.426 911.635 333.143 911.961 351.047C912.286 368.625 912.775 384.25 913.426 397.922C914.077 411.594 914.891 421.197 915.867 426.73C917.169 433.241 918.797 439.426 920.75 445.285C922.378 450.493 924.493 455.865 927.098 461.398C929.702 466.607 932.957 470.839 936.863 474.094L887.059 496.555C884.454 492.974 882.339 489.23 880.711 485.324C879.083 481.743 877.781 478.488 876.805 475.559C875.503 471.978 874.689 468.723 874.363 465.793C873.712 461.887 873.061 457.655 872.41 453.098C871.759 448.215 870.945 443.658 869.969 439.426C869.318 434.868 868.829 431.125 868.504 428.195C868.178 425.266 868.178 423.475 868.504 422.824C868.829 422.173 866.876 425.103 862.645 431.613C858.413 437.798 852.065 445.122 843.602 453.586C835.464 461.724 825.372 469.699 813.328 477.512C801.284 484.999 787.775 489.719 772.801 491.672C757.501 493.625 743.341 490.695 730.32 482.883C717.625 475.07 706.72 464.165 697.605 450.168C688.491 435.845 681.492 419.406 676.609 400.852C672.052 381.971 670.262 362.766 671.238 343.234C671.889 330.214 674.819 318.658 680.027 308.566C685.236 298.15 691.746 289.198 699.559 281.711C707.697 273.898 716.486 267.388 725.926 262.18C735.691 256.646 745.132 252.089 754.246 248.508C763.686 244.927 772.475 242.323 780.613 240.695C788.751 239.068 795.262 237.928 800.145 237.277C806.004 236.952 812.677 237.928 820.164 240.207C826.674 242.16 834.161 245.415 842.625 249.973C851.414 254.53 861.18 261.366 871.922 270.48C869.969 237.928 868.178 211.887 866.551 192.355C864.923 172.499 863.296 157.362 861.668 146.945C860.04 134.576 858.576 126.112 857.273 121.555C855.646 118.299 853.53 115.044 850.926 111.789C848.647 109.185 845.717 106.581 842.137 103.977C838.882 101.047 834.975 98.7682 830.418 97.1406C838.882 98.7682 847.02 99.9076 854.832 100.559C862.645 101.21 869.806 101.861 876.316 102.512C883.803 103.163 890.965 103.651 897.801 103.977ZM775.242 286.105C769.057 288.384 764.012 292.29 760.105 297.824C756.525 303.358 753.595 310.031 751.316 317.844C749.038 325.331 747.41 333.469 746.434 342.258C745.783 350.721 745.294 359.022 744.969 367.16C744.969 374.973 744.969 382.134 744.969 388.645C744.969 395.155 744.969 400.038 744.969 403.293C744.969 405.246 745.294 408.827 745.945 414.035C746.922 418.918 748.875 424.126 751.805 429.66C754.734 434.868 758.803 439.589 764.012 443.82C769.546 448.052 776.87 450.168 785.984 450.168C793.471 449.517 801.447 446.913 809.91 442.355C817.397 438.449 825.861 432.264 835.301 423.801C845.066 415.012 855.483 402.479 866.551 386.203C865.9 375.786 865.411 367.16 865.086 360.324C865.086 353.488 864.923 347.954 864.598 343.723C864.272 338.84 864.109 334.934 864.109 332.004V324.68C864.109 322.727 864.109 320.611 864.109 318.332C864.109 316.053 864.272 313.938 864.598 311.984C855.483 305.474 847.345 299.94 840.184 295.383C833.348 290.5 826.512 286.919 819.676 284.641C813.165 282.036 806.329 280.897 799.168 281.223C792.332 281.223 784.357 282.85 775.242 286.105Z" fill="#333333"/>
<path d="M1094.34 127.902C1104.76 128.228 1113.88 128.391 1121.69 128.391C1129.5 128.065 1135.85 127.902 1140.73 127.902H1154.89C1158.47 127.577 1162.87 127.414 1168.07 127.414C1172.63 127.414 1178.17 127.414 1184.68 127.414C1191.19 127.414 1198.67 127.577 1207.14 127.902C1209.74 137.017 1212.67 145.969 1215.93 154.758C1219.51 163.221 1222.6 170.871 1225.2 177.707C1228.46 185.845 1231.71 193.495 1234.97 200.656C1238.22 207.818 1242.13 216.444 1246.69 226.535C1250.59 234.999 1255.31 245.415 1260.85 257.785C1266.38 269.829 1272.89 283.664 1280.38 299.289C1283.96 289.198 1287.21 279.921 1290.14 271.457C1293.4 262.993 1296.17 255.669 1298.45 249.484C1301.05 242.323 1303.17 235.812 1304.79 229.953C1306.42 224.094 1308.21 216.932 1310.16 208.469C1311.79 201.307 1313.58 192.681 1315.54 182.59C1317.81 172.499 1320.09 160.78 1322.37 147.434C1331.81 147.434 1340.27 147.434 1347.76 147.434C1355.25 147.434 1361.76 147.271 1367.29 146.945C1373.48 146.945 1379.01 146.783 1383.89 146.457C1389.1 146.457 1396.1 146.132 1404.89 145.48C1412.38 144.829 1422.31 144.341 1434.68 144.016C1447.37 143.365 1463 142.551 1481.55 141.574C1474.71 146.457 1469.18 151.34 1464.95 156.223C1461.04 160.78 1457.95 164.849 1455.67 168.43C1453.07 172.661 1451.44 176.73 1450.79 180.637C1450.14 183.892 1449.49 191.379 1448.84 203.098C1448.51 214.816 1448.02 228.814 1447.37 245.09C1447.05 261.04 1446.72 278.13 1446.39 296.359C1446.39 314.589 1446.56 331.841 1446.88 348.117C1447.21 364.393 1447.7 378.553 1448.35 390.598C1449.32 402.316 1450.63 409.803 1452.25 413.059C1454.53 416.965 1457.62 421.522 1461.53 426.73C1465.11 431.288 1469.67 436.496 1475.2 442.355C1481.06 448.215 1488.71 454.725 1498.15 461.887C1483.18 462.538 1470.65 463.026 1460.55 463.352C1450.79 463.677 1442.65 464.003 1436.14 464.328C1428.65 464.654 1422.63 464.816 1418.07 464.816C1413.19 464.816 1406.52 464.979 1398.05 465.305C1390.57 465.63 1380.64 466.118 1368.27 466.77C1355.9 467.095 1339.95 467.746 1320.42 468.723C1324.98 463.514 1329.21 458.306 1333.11 453.098C1337.02 447.889 1340.27 443.169 1342.88 438.938C1346.13 434.055 1348.9 429.335 1351.18 424.777C1353.46 418.592 1355.25 407.362 1356.55 391.086C1357.85 377.089 1358.83 357.069 1359.48 331.027C1360.13 304.66 1360.13 269.341 1359.48 225.07C1353.3 235.161 1347.76 245.253 1342.88 255.344C1338.32 265.109 1334.25 274.061 1330.67 282.199C1326.77 291.639 1323.18 300.754 1319.93 309.543C1316.67 318.658 1313.26 328.749 1309.68 339.816C1306.42 349.257 1302.51 360.487 1297.96 373.508C1293.73 386.529 1288.84 400.852 1283.31 416.477L1264.75 417.453C1262.15 404.432 1259.55 392.714 1256.94 382.297C1254.34 371.555 1251.73 362.44 1249.13 354.953C1246.2 346.164 1243.27 338.352 1240.34 331.516C1237.08 324.68 1233.5 317.03 1229.6 308.566C1226.02 301.405 1221.62 292.941 1216.41 283.176C1211.53 273.41 1205.83 262.505 1199.32 250.461C1196.07 283.664 1194.12 310.682 1193.46 331.516C1192.81 352.023 1192.81 367.974 1193.46 379.367C1194.12 393.039 1195.09 402.967 1196.39 409.152C1198.35 414.686 1201.44 420.871 1205.67 427.707C1209.25 433.566 1214.14 440.565 1220.32 448.703C1226.83 456.516 1235.13 465.305 1245.22 475.07C1238.06 475.07 1230.57 475.07 1222.76 475.07C1214.95 475.07 1207.79 475.233 1201.28 475.559C1193.46 475.884 1185.82 476.047 1178.33 476.047C1170.52 476.372 1161.4 476.861 1150.98 477.512C1141.87 478.163 1130.96 478.814 1118.27 479.465C1105.57 480.116 1090.93 481.255 1074.32 482.883C1081.49 478.326 1087.35 473.931 1091.9 469.699C1096.46 465.142 1100.04 461.073 1102.64 457.492C1105.9 453.26 1108.34 449.029 1109.97 444.797C1110.95 442.193 1111.76 436.496 1112.41 427.707C1113.39 418.918 1114.2 408.176 1114.85 395.48C1115.83 382.785 1116.48 368.625 1116.8 353C1117.46 337.375 1117.94 321.587 1118.27 305.637C1118.92 289.361 1119.41 273.573 1119.73 258.273C1120.06 242.648 1120.22 228.651 1120.22 216.281C1120.55 203.586 1120.71 193.007 1120.71 184.543C1120.71 176.079 1120.71 170.708 1120.71 168.43C1119.73 163.547 1118.27 158.664 1116.32 153.781C1114.69 149.549 1112.08 145.155 1108.5 140.598C1104.92 136.04 1100.2 131.809 1094.34 127.902ZM1468.25 228.488C1474.76 229.465 1480.62 230.279 1485.83 230.93C1490.71 231.255 1495.11 231.581 1499.01 231.906C1503.24 232.232 1507.31 232.395 1511.22 232.395C1514.8 232.395 1519.36 232.232 1524.89 231.906C1529.45 231.581 1535.31 231.255 1542.47 230.93C1549.96 230.279 1558.74 229.465 1568.84 228.488C1568.18 229.79 1566.88 233.859 1564.93 240.695C1562.98 247.206 1561.02 255.344 1559.07 265.109C1557.12 274.549 1555.33 285.129 1553.7 296.848C1552.4 308.241 1551.75 319.634 1551.75 331.027C1552.07 342.095 1553.54 352.674 1556.14 362.766C1558.74 372.531 1562.98 380.507 1568.84 386.691C1581.21 399.387 1592.11 407.036 1601.55 409.641C1611.32 412.245 1619.78 411.919 1626.94 408.664C1634.1 405.409 1639.96 400.526 1644.52 394.016C1649.08 387.505 1652.33 381.483 1654.29 375.949C1659.17 360.975 1662.1 345.188 1663.07 328.586C1663.73 314.263 1662.59 298.312 1659.66 280.734C1656.73 263.156 1649.73 245.253 1638.66 227.023C1647.12 227.674 1654.45 228.163 1660.63 228.488C1666.82 228.814 1672.19 229.139 1676.75 229.465C1681.95 229.79 1686.51 230.116 1690.42 230.441C1694 230.767 1698.23 230.767 1703.11 230.441C1707.35 230.441 1712.39 230.279 1718.25 229.953C1724.43 229.302 1731.27 228.651 1738.76 228C1740.06 259.901 1741.2 288.384 1742.18 313.449C1743.15 338.189 1743.8 360.161 1744.13 379.367C1744.78 398.247 1745.11 414.686 1745.11 428.684C1745.11 442.355 1745.11 453.911 1745.11 463.352C1744.78 485.812 1743.8 500.624 1742.18 507.785C1739.57 517.876 1734.85 527.967 1728.02 538.059C1721.51 548.15 1713.2 557.102 1703.11 564.914C1693.02 573.052 1681.3 579.237 1667.96 583.469C1654.94 588.026 1640.61 589.654 1624.99 588.352C1609.69 587.049 1597.48 584.934 1588.37 582.004C1579.58 579.4 1572.58 576.307 1567.37 572.727C1562.49 569.146 1558.91 565.402 1556.63 561.496C1554.68 557.59 1553.21 553.521 1552.23 549.289C1551.26 545.383 1550.28 541.639 1549.3 538.059C1548.33 534.478 1546.38 531.385 1543.45 528.781C1539.86 525.852 1536.12 522.922 1532.21 519.992C1528.63 517.388 1524.73 514.784 1520.5 512.18C1516.59 509.576 1512.68 507.46 1508.78 505.832L1612.78 499.973C1609.85 503.879 1607.74 507.46 1606.43 510.715C1605.13 513.97 1604.32 516.737 1603.99 519.016C1603.67 521.945 1603.83 524.387 1604.48 526.34C1605.78 530.246 1608.06 534.478 1611.32 539.035C1614.9 543.918 1619.45 547.661 1624.99 550.266C1630.52 553.195 1637.03 554.172 1644.52 553.195C1652.33 552.219 1661.12 548.15 1670.89 540.988C1679.02 534.803 1685.86 524.875 1691.39 511.203C1695.95 499.484 1699.53 483.046 1702.14 461.887C1704.74 440.728 1704.25 412.896 1700.67 378.391C1694.81 398.573 1686.84 414.035 1676.75 424.777C1666.65 435.52 1656.56 443.332 1646.47 448.215C1634.75 454.074 1622.55 457.167 1609.85 457.492C1592.92 456.841 1578.44 454.725 1566.39 451.145C1554.35 447.238 1544.42 442.03 1536.61 435.52C1528.8 429.009 1522.61 421.359 1518.05 412.57C1513.82 403.456 1510.73 393.365 1508.78 382.297C1506.82 371.229 1505.85 360.161 1505.85 349.094C1505.85 337.701 1505.85 327.121 1505.85 317.355C1506.17 307.59 1506.34 298.801 1506.34 290.988C1506.34 282.85 1505.52 276.34 1503.89 271.457C1501.94 266.574 1499.34 261.691 1496.08 256.809C1493.48 252.577 1489.9 248.02 1485.34 243.137C1480.46 237.928 1474.76 233.046 1468.25 228.488ZM1903.07 128.391C1915.44 131.32 1926.51 133.599 1936.28 135.227C1946.37 136.529 1954.83 137.505 1961.67 138.156C1969.81 139.133 1976.97 139.458 1983.15 139.133C1990.96 138.807 2000.73 137.668 2012.45 135.715C2024.17 133.762 2036.54 131.809 2049.56 129.855C2062.58 127.902 2075.44 126.275 2088.13 124.973C2100.83 123.671 2111.9 123.508 2121.34 124.484C2130.78 125.461 2140.7 127.74 2151.12 131.32C2161.54 134.576 2171.3 139.133 2180.42 144.992C2189.53 150.526 2197.35 157.362 2203.86 165.5C2210.69 173.638 2214.92 183.078 2216.55 193.82C2218.18 204.237 2217.2 215.467 2213.62 227.512C2210.04 239.23 2204.34 250.786 2196.53 262.18C2188.72 273.247 2178.95 283.501 2167.23 292.941C2155.52 302.382 2142.49 310.031 2128.17 315.891C2116.78 320.122 2104.41 323.378 2091.06 325.656C2079.67 327.609 2066.32 328.911 2051.02 329.562C2036.05 329.888 2020.1 328.26 2003.17 324.68C2000.89 334.12 1999.59 342.909 1999.27 351.047C1999.27 358.859 1999.59 365.858 2000.24 372.043C2001.22 379.204 2002.52 385.715 2004.15 391.574C2006.1 397.434 2008.54 404.27 2011.47 412.082C2014.08 418.592 2017.01 426.568 2020.26 436.008C2023.84 445.122 2028.07 455.376 2032.96 466.77C2027.1 466.77 2021.4 466.932 2015.87 467.258C2010.33 467.258 2005.29 467.421 2000.73 467.746C1995.52 468.072 1990.64 468.397 1986.08 468.723C1980.87 469.048 1975.01 469.699 1968.5 470.676C1962.97 471.327 1955.97 472.303 1947.51 473.605C1939.37 474.908 1930.09 476.535 1919.68 478.488C1926.51 468.723 1931.88 459.771 1935.79 451.633C1940.02 443.169 1943.11 435.845 1945.07 429.66C1947.35 422.499 1948.81 415.988 1949.46 410.129C1949.79 405.246 1949.79 396.62 1949.46 384.25C1949.46 371.88 1949.3 357.557 1948.97 341.281C1948.65 325.005 1948.16 307.915 1947.51 290.012C1946.86 272.108 1946.04 255.344 1945.07 239.719C1944.09 223.768 1942.95 210.096 1941.65 198.703C1940.67 187.31 1939.7 179.823 1938.72 176.242C1937.42 172.01 1935.14 167.453 1931.88 162.57C1929.28 158.339 1925.54 153.456 1920.65 147.922C1916.1 142.062 1910.24 135.552 1903.07 128.391ZM2004.15 224.582C2003.82 227.837 2003.66 231.255 2003.66 234.836C2003.66 241.672 2004.15 250.461 2005.12 261.203C2007.4 266.737 2010.17 271.294 2013.43 274.875C2017.01 278.456 2020.75 281.223 2024.66 283.176C2028.89 285.129 2033.12 286.431 2037.35 287.082C2041.58 287.733 2045.82 288.059 2050.05 288.059C2059.81 287.733 2070.07 285.454 2080.81 281.223C2095.13 275.038 2105.22 266.249 2111.08 254.855C2116.94 243.462 2120.03 231.743 2120.36 219.699C2120.68 207.655 2118.57 196.587 2114.01 186.496C2109.78 176.405 2104.57 169.569 2098.39 165.988C2093.18 163.71 2086.51 162.733 2078.37 163.059C2071.21 163.384 2062.25 165.174 2051.51 168.43C2040.77 171.685 2027.59 177.544 2011.96 186.008C2010.33 191.867 2009.03 197.076 2008.05 201.633C2007.08 206.19 2006.26 210.259 2005.61 213.84C2004.96 217.746 2004.47 221.327 2004.15 224.582ZM2326.3 399.387C2335.41 399.387 2343.88 398.41 2351.69 396.457C2358.2 394.829 2364.38 392.225 2370.24 388.645C2376.43 384.738 2380.5 379.042 2382.45 371.555C2388.96 372.857 2394.49 373.996 2399.05 374.973C2403.61 375.624 2407.51 376.275 2410.77 376.926C2414.35 377.902 2417.44 378.553 2420.05 378.879C2422.65 379.53 2425.74 380.181 2429.32 380.832C2432.58 381.483 2436.49 382.297 2441.04 383.273C2445.93 383.924 2451.62 384.901 2458.13 386.203C2453.25 385.552 2448.2 386.04 2443 387.668C2438.11 389.296 2433.39 391.086 2428.84 393.039C2423.63 395.318 2418.74 398.085 2414.19 401.34C2411.26 403.293 2407.84 406.223 2403.93 410.129C2400.35 414.035 2395.14 417.779 2388.31 421.359C2381.47 424.94 2372.36 428.033 2360.96 430.637C2349.9 432.915 2335.57 433.729 2318 433.078C2296.84 432.427 2279.1 428.684 2264.77 421.848C2250.45 414.686 2238.89 406.06 2230.11 395.969C2221.32 385.552 2214.97 374.322 2211.06 362.277C2207.16 350.233 2205.04 339.003 2204.71 328.586C2204.39 318.169 2207.48 307.264 2213.99 295.871C2220.5 284.478 2229.62 274.061 2241.34 264.621C2253.38 255.181 2267.87 247.531 2284.79 241.672C2301.72 235.487 2320.27 232.395 2340.46 232.395C2352.18 232.395 2362.92 233.859 2372.68 236.789C2382.77 239.393 2391.89 242.974 2400.03 247.531C2408.49 252.089 2415.82 257.297 2422 263.156C2428.18 268.69 2433.39 274.387 2437.62 280.246C2441.86 286.431 2445.44 292.941 2448.37 299.777C2450.97 305.637 2453.09 312.31 2454.71 319.797C2456.34 327.284 2456.83 334.934 2456.18 342.746C2431.44 343.397 2411.42 343.885 2396.12 344.211C2381.15 344.536 2369.43 344.699 2360.96 344.699H2338.99H2322.39C2316.53 344.699 2308.88 344.862 2299.44 345.188C2290 345.513 2278.45 346.001 2264.77 346.652C2266.4 359.673 2270.47 369.764 2276.98 376.926C2283.82 383.762 2290.98 388.97 2298.46 392.551C2306.93 396.457 2316.21 398.736 2326.3 399.387ZM2282.35 311.496C2292.77 312.147 2301.39 312.635 2308.23 312.961C2315.39 313.286 2321.25 313.612 2325.81 313.938C2330.69 314.263 2334.6 314.426 2337.53 314.426H2349.73C2357.87 314.426 2373.01 313.938 2395.14 312.961C2394.17 298.638 2391.08 287.733 2385.87 280.246C2380.98 272.759 2375.78 267.225 2370.24 263.645C2363.73 259.738 2356.57 257.46 2348.76 256.809C2327.6 257.134 2311.81 261.529 2301.39 269.992C2291.3 278.456 2284.96 292.29 2282.35 311.496ZM2464.85 170.383C2474.62 171.359 2482.76 172.173 2489.27 172.824C2496.1 173.475 2501.64 173.964 2505.87 174.289C2510.75 174.615 2514.66 174.777 2517.59 174.777C2520.52 175.103 2524.42 175.103 2529.3 174.777C2533.54 174.452 2539.07 174.126 2545.91 173.801C2552.74 173.15 2561.37 172.173 2571.79 170.871C2569.51 174.126 2567.72 177.056 2566.41 179.66C2565.11 181.939 2563.97 184.055 2563 186.008L2560.07 191.867C2559.42 193.82 2558.76 195.773 2558.11 197.727C2557.46 199.354 2556.81 201.307 2556.16 203.586C2555.83 205.865 2555.51 208.306 2555.18 210.91H2630.38L2623.54 250.461L2554.7 246.555C2553.07 263.156 2551.93 276.014 2551.28 285.129C2550.63 294.243 2549.98 300.917 2549.32 305.148L2548.35 313.938C2547.37 326.307 2546.39 339.816 2545.42 354.465C2544.44 368.788 2544.12 382.134 2544.44 394.504C2544.77 406.874 2545.91 417.29 2547.86 425.754C2549.81 433.892 2553.23 437.961 2558.11 437.961C2563 437.961 2567.55 436.659 2571.79 434.055C2576.02 431.451 2579.6 428.358 2582.53 424.777C2585.78 421.197 2588.22 417.616 2589.85 414.035C2591.48 410.129 2592.29 407.199 2592.29 405.246C2592.29 403.293 2591.8 401.014 2590.83 398.41C2589.2 393.527 2586.27 387.342 2582.04 379.855C2591.48 382.134 2599.78 384.413 2606.94 386.691C2610.52 387.993 2613.78 389.296 2616.71 390.598C2619.96 391.9 2623.71 393.365 2627.94 394.992C2631.52 396.62 2636.08 398.573 2641.61 400.852C2647.14 403.13 2653.65 405.897 2661.14 409.152C2653.98 410.454 2648.77 412.57 2645.52 415.5C2643.56 416.802 2642.1 418.267 2641.12 419.895C2638.84 423.475 2636.24 428.358 2633.31 434.543C2630.38 440.402 2625.98 446.262 2620.12 452.121C2614.27 457.98 2606.29 463.189 2596.2 467.746C2586.43 472.303 2573.25 474.908 2556.65 475.559C2539.4 476.21 2526.21 473.28 2517.1 466.77C2508.31 460.259 2501.8 452.772 2497.57 444.309C2493.66 435.52 2491.38 426.893 2490.73 418.43C2490.08 409.966 2489.59 404.27 2489.27 401.34C2488.94 398.41 2488.94 391.086 2489.27 379.367C2489.59 367.648 2490.08 354.79 2490.73 340.793C2491.38 326.47 2492.03 312.798 2492.68 299.777C2493.33 286.431 2493.66 276.665 2493.66 270.48C2493.66 267.225 2493.82 263.807 2494.15 260.227C2494.15 257.297 2494.15 254.204 2494.15 250.949C2494.47 247.368 2494.64 243.951 2494.64 240.695L2423.84 240.207L2420.91 212.375L2492.2 214.328C2491.54 210.747 2490.73 207.492 2489.75 204.562C2489.1 201.307 2488.45 198.703 2487.8 196.75C2486.82 194.471 2485.85 192.518 2484.87 190.891C2483.57 189.263 2482.1 187.473 2480.48 185.52C2478.85 183.892 2476.73 181.776 2474.13 179.172C2471.52 176.568 2468.43 173.638 2464.85 170.383Z" fill="#CC8000"/>
</svg>
