<svg width="684" height="993" viewBox="0 0 684 993" fill="none" xmlns="http://www.w3.org/2000/svg">
<path d="M239.042 977.242C293.559 977.242 610.4 768.392 648.212 739.567C686.025 710.742 669.985 635.764 610.878 652.258C551.771 668.753 163.54 832.351 163.54 873.871C163.54 915.391 184.524 977.242 239.042 977.242Z" fill="#CC8000" stroke="#CC8000" stroke-width="30" stroke-linejoin="bevel"/>
<path d="M139.522 279.948C180.007 311.992 545.311 383.622 595.24 360.63C645.169 337.637 675.802 292.048 621.677 270.233C567.552 248.418 194.298 114.702 168.542 147.242C142.785 179.783 99.038 247.904 139.522 279.948Z" fill="#CC8000" stroke="#CC8000" stroke-width="30" stroke-linejoin="bevel"/>
<path d="M66.0413 602.242C121.798 628.522 557.022 605.015 604.787 573.341C652.553 541.668 671.284 489.959 603.803 476.379C536.323 462.799 69.5485 423.56 51.8546 461.099C34.1607 498.638 10.2849 575.961 66.0413 602.242Z" fill="#CC8000" stroke="#CC8000" stroke-width="30" stroke-linejoin="bevel"/>
</svg>
