<svg width="685" height="993" viewBox="0 0 685 993" fill="none" xmlns="http://www.w3.org/2000/svg">
<path d="M445.5 15C390.983 14.9998 74.1416 223.85 36.3291 252.675C-1.48344 281.5 14.5565 356.478 73.6636 339.984C132.771 323.489 521.001 159.891 521.001 118.371C521.001 76.8508 500.017 15.0002 445.5 15Z" fill="#CC8000" stroke="#CC8000" stroke-width="30" stroke-linejoin="bevel"/>
<path d="M545.019 712.294C504.535 680.25 139.23 608.62 89.3012 631.612C39.3723 654.605 8.73913 700.194 62.8644 722.009C116.99 743.824 490.244 877.54 516 845C541.756 812.46 585.504 744.338 545.019 712.294Z" fill="#CC8000" stroke="#CC8000" stroke-width="30" stroke-linejoin="bevel"/>
<path d="M618.5 390.001C562.744 363.72 127.52 387.227 79.7543 418.901C31.9887 450.575 13.258 502.283 80.7381 515.863C148.218 529.443 614.993 568.682 632.687 531.143C650.381 493.604 674.257 416.281 618.5 390.001Z" fill="#CC8000" stroke="#CC8000" stroke-width="30" stroke-linejoin="bevel"/>
</svg>
