<svg width="737" height="1079" viewBox="0 0 737 1079" fill="none" xmlns="http://www.w3.org/2000/svg">
<path d="M219.109 83.6016H586.264C592.523 83.6016 598.721 84.8343 604.503 87.2294C610.285 89.6246 615.539 93.1352 619.965 97.5608C624.391 101.986 627.901 107.24 630.296 113.023C632.691 118.805 633.924 125.003 633.924 131.261V949.982C633.924 962.623 628.903 974.745 619.965 983.683C611.027 992.621 598.905 997.642 586.264 997.642H219.109C206.469 997.642 194.346 992.621 185.408 983.683C176.47 974.745 171.449 962.623 171.449 949.983V131.261C171.449 125.003 172.682 118.805 175.077 113.023C177.472 107.24 180.983 101.986 185.408 97.5608C189.834 93.1352 195.088 89.6246 200.87 87.2295C206.653 84.8343 212.85 83.6016 219.109 83.6016Z" fill="#825B2C"/>
<path d="M191 122.486H615.799V902.568H191V122.486Z" fill="#F7F4F0"/>
<path d="M548.298 187.441H272.803C271.024 187.405 269.297 188.045 267.972 189.233C266.648 190.421 265.823 192.068 265.666 193.841C265.617 194.758 265.755 195.676 266.072 196.539C266.389 197.401 266.878 198.19 267.51 198.857C268.142 199.524 268.904 200.055 269.748 200.418C270.592 200.781 271.501 200.968 272.42 200.968H551.549C558.338 195.003 554.201 187.441 548.298 187.441Z" fill="#CEC7BC"/>
<path d="M242.832 203.94C248.211 203.94 252.571 199.58 252.571 194.201C252.571 188.823 248.211 184.463 242.832 184.463C237.454 184.463 233.094 188.823 233.094 194.201C233.094 199.58 237.454 203.94 242.832 203.94Z" fill="#F2A833"/>
<path d="M242.832 240.755C248.211 240.755 252.571 236.394 252.571 231.016C252.571 225.637 248.211 221.277 242.832 221.277C237.454 221.277 233.094 225.637 233.094 231.016C233.094 236.394 237.454 240.755 242.832 240.755Z" fill="#F2A833"/>
<path d="M242.832 277.565C248.211 277.565 252.571 273.205 252.571 267.826C252.571 262.448 248.211 258.088 242.832 258.088C237.454 258.088 233.094 262.448 233.094 267.826C233.094 273.205 237.454 277.565 242.832 277.565Z" fill="#F2A833"/>
<path d="M242.832 314.376C248.211 314.376 252.571 310.015 252.571 304.637C252.571 299.259 248.211 294.898 242.832 294.898C237.454 294.898 233.094 299.259 233.094 304.637C233.094 310.015 237.454 314.376 242.832 314.376Z" fill="#F2A833"/>
<path fill-rule="evenodd" clip-rule="evenodd" d="M242.841 331.711C240.914 331.711 239.031 332.282 237.43 333.352C235.828 334.423 234.58 335.944 233.843 337.723C233.106 339.503 232.913 341.461 233.289 343.35C233.665 345.24 234.592 346.975 235.954 348.337C237.316 349.699 239.052 350.627 240.941 351.002C242.83 351.378 244.789 351.185 246.568 350.448C248.348 349.711 249.869 348.463 250.939 346.861C252.009 345.259 252.58 343.376 252.58 341.45C252.58 340.171 252.328 338.905 251.839 337.723C251.349 336.541 250.632 335.468 249.728 334.563C248.823 333.659 247.749 332.942 246.568 332.452C245.386 331.963 244.12 331.711 242.841 331.711ZM242.841 368.523C240.914 368.523 239.031 369.094 237.43 370.164C235.828 371.234 234.58 372.756 233.843 374.535C233.106 376.315 232.913 378.273 233.289 380.162C233.665 382.051 234.592 383.787 235.954 385.149C237.316 386.511 239.052 387.438 240.941 387.814C242.83 388.19 244.788 387.997 246.568 387.26C248.347 386.523 249.868 385.275 250.939 383.673C252.009 382.071 252.58 380.189 252.58 378.262C252.58 376.983 252.328 375.717 251.839 374.535C251.349 373.353 250.632 372.28 249.728 371.375C248.823 370.471 247.75 369.753 246.568 369.264C245.386 368.775 244.12 368.523 242.841 368.523Z" fill="#F2A833"/>
<path d="M548.294 224.251H272.798C271.019 224.215 269.293 224.856 267.968 226.044C266.643 227.232 265.819 228.879 265.662 230.651C265.612 231.569 265.75 232.487 266.068 233.349C266.385 234.212 266.874 235 267.506 235.667C268.138 236.334 268.9 236.865 269.744 237.228C270.588 237.591 271.497 237.779 272.416 237.778H551.544C558.334 231.815 554.197 224.251 548.294 224.251ZM548.294 261.064H272.798C271.019 261.027 269.293 261.668 267.968 262.856C266.643 264.044 265.819 265.691 265.662 267.463C265.612 268.381 265.75 269.299 266.068 270.161C266.385 271.023 266.874 271.812 267.506 272.479C268.138 273.146 268.899 273.677 269.744 274.04C270.588 274.403 271.497 274.591 272.416 274.591H551.545C558.334 268.625 554.196 261.064 548.294 261.064ZM548.294 297.876H272.799C271.02 297.839 269.293 298.48 267.968 299.668C266.643 300.856 265.819 302.503 265.662 304.276C265.612 305.193 265.75 306.111 266.068 306.973C266.385 307.836 266.874 308.624 267.506 309.291C268.138 309.958 268.9 310.489 269.744 310.852C270.588 311.215 271.497 311.403 272.416 311.403H551.545C558.334 305.438 554.197 297.876 548.294 297.876ZM548.294 334.687H272.798C271.019 334.651 269.293 335.292 267.968 336.48C266.643 337.668 265.819 339.315 265.662 341.087C265.612 342.005 265.751 342.923 266.068 343.785C266.385 344.648 266.874 345.436 267.506 346.103C268.138 346.77 268.9 347.301 269.744 347.664C270.588 348.027 271.497 348.214 272.416 348.215H551.545C558.334 342.249 554.196 334.687 548.294 334.687ZM548.294 371.499H272.666C271.069 371.471 269.512 371.996 268.257 372.984C267.002 373.972 266.127 375.364 265.781 376.923C265.584 377.905 265.607 378.919 265.849 379.891C266.091 380.863 266.546 381.77 267.18 382.545C267.815 383.32 268.614 383.945 269.519 384.374C270.425 384.803 271.414 385.026 272.416 385.026H551.545C558.334 379.062 554.197 371.499 548.294 371.499Z" fill="#CEC7BC"/>
<path fill-rule="evenodd" clip-rule="evenodd" d="M399.309 648.69H397.759C369.749 648.69 342.887 637.563 323.081 617.757C303.275 597.952 292.148 571.089 292.148 543.079C292.148 529.21 294.88 515.477 300.187 502.664C305.495 489.851 313.274 478.208 323.081 468.401C332.888 458.594 344.53 450.815 357.344 445.508C370.157 440.2 383.89 437.469 397.759 437.469H399.309C413.178 437.469 426.912 440.2 439.725 445.508C452.538 450.815 464.181 458.594 473.987 468.401C483.794 478.208 491.574 489.851 496.881 502.664C502.188 515.477 504.92 529.21 504.92 543.079C504.92 571.089 493.793 597.952 473.987 617.757C454.181 637.563 427.319 648.69 399.309 648.69Z" fill="#CC8000" fill-opacity="0.7"/>
<path d="M523.297 803.67V822.535C523.297 833.115 519.094 843.262 511.613 850.743C504.132 858.224 493.986 862.426 483.406 862.426H322.483C311.904 862.426 301.758 858.224 294.277 850.743C286.796 843.262 282.593 833.116 282.593 822.536V803.67C282.593 798.432 283.625 793.244 285.63 788.405C287.634 783.565 290.573 779.167 294.277 775.463C297.981 771.759 302.379 768.82 307.218 766.816C312.058 764.811 317.245 763.779 322.484 763.779H483.406C493.986 763.779 504.132 767.982 511.613 775.463C519.094 782.944 523.297 793.09 523.297 803.67Z" fill="#CC8000"/>
<mask id="mask0_406_1380" style="mask-type:luminance" maskUnits="userSpaceOnUse" x="292" y="437" width="213" height="212">
<path fill-rule="evenodd" clip-rule="evenodd" d="M399.313 648.692H397.763C369.753 648.692 342.891 637.565 323.085 617.759C303.279 597.954 292.152 571.091 292.152 543.081C292.152 529.212 294.884 515.479 300.191 502.666C305.499 489.853 313.278 478.21 323.085 468.403C332.892 458.596 344.534 450.817 357.347 445.51C370.161 440.202 383.894 437.471 397.763 437.471H399.313C413.182 437.471 426.915 440.202 439.729 445.51C452.542 450.817 464.184 458.596 473.991 468.403C483.798 478.21 491.577 489.853 496.885 502.666C502.192 515.479 504.924 529.212 504.924 543.081C504.924 571.091 493.797 597.954 473.991 617.759C454.185 637.565 427.323 648.692 399.313 648.692Z" fill="white"/>
</mask>
<g mask="url(#mask0_406_1380)">
<path d="M498.031 621.202C492.725 586.986 470.947 548.168 457.12 543.471C441.916 538.307 402.297 531.232 402.297 531.232C402.297 531.232 368.889 532.863 352.977 537.754C337.08 542.645 319.57 547.536 310.032 567.102C305.527 576.328 298.902 600.059 294.492 623.93C294.492 623.93 318.838 660.437 395.803 660.437C472.769 660.437 498.031 621.202 498.031 621.202Z" fill="#F2A833"/>
<path d="M428.526 470.122C437.346 467.601 439.866 475.161 438.606 480.202C437.346 485.242 433.566 486.502 431.046 492.802C428.526 499.102 431.046 497.842 428.526 505.402C427.641 507.723 426.275 509.831 424.518 511.588C422.761 513.344 420.653 514.709 418.331 515.594C408.544 517.083 398.849 519.129 389.294 521.722C376.523 525.442 375.604 506.662 369.304 505.402C363.004 504.142 359.224 468.861 369.304 463.821C379.384 458.781 386.945 458.781 393.245 451.221C399.545 443.661 399.545 446.18 415.925 451.221C432.306 456.261 419.706 472.641 428.526 470.122Z" fill="#3C2509"/>
<path d="M374.343 495.324C373.083 487.763 383.163 485.243 385.683 490.284C388.203 495.324 405.843 490.284 408.363 480.203C410.618 483.127 413.687 485.32 417.184 486.504C422.224 487.763 420.964 499.104 419.704 509.184C418.444 519.265 415.924 520.525 408.363 521.784C400.803 523.044 388.203 525.564 384.423 516.744C380.643 507.924 381.903 504.144 381.903 504.144C379.905 503.599 378.117 502.467 376.769 500.894C375.422 499.322 374.576 497.382 374.343 495.324Z" fill="#FECF86"/>
<path d="M388.203 518H407.103V535.641C404.576 538.107 401.185 539.487 397.653 539.487C394.122 539.487 390.731 538.107 388.203 535.641V518Z" fill="#FECF86"/>
</g>
<path d="M307.789 817.226L315.192 816.506C315.432 818.591 316.391 820.527 317.904 821.982C319.469 823.215 321.429 823.836 323.418 823.728C325.39 823.872 327.35 823.322 328.958 822.173C329.526 821.75 329.989 821.202 330.312 820.572C330.635 819.942 330.809 819.246 330.821 818.538C330.843 817.709 330.564 816.901 330.037 816.262C329.28 815.491 328.338 814.928 327.3 814.628C326.408 814.321 324.377 813.773 321.206 812.984C318.097 812.415 315.16 811.14 312.622 809.257C311.522 808.326 310.64 807.164 310.04 805.853C309.44 804.543 309.136 803.116 309.151 801.674C309.15 799.758 309.719 797.884 310.784 796.29C311.929 794.571 313.57 793.239 315.488 792.472C317.847 791.541 320.368 791.094 322.903 791.16C326.721 790.878 330.513 791.983 333.583 794.272C334.769 795.305 335.72 796.58 336.37 798.013C337.02 799.445 337.354 801 337.351 802.573L329.74 802.908C329.588 801.303 328.841 799.813 327.646 798.73C326.226 797.782 324.529 797.335 322.825 797.46C320.995 797.355 319.178 797.831 317.635 798.822C317.253 799.079 316.942 799.428 316.731 799.837C316.52 800.246 316.415 800.701 316.426 801.161C316.427 801.604 316.53 802.04 316.726 802.436C316.922 802.833 317.206 803.179 317.557 803.449C319.71 804.717 322.082 805.571 324.55 805.967C327.384 806.546 330.14 807.456 332.762 808.678C334.472 809.555 335.911 810.879 336.927 812.51C337.981 814.329 338.501 816.409 338.429 818.51C338.431 820.664 337.806 822.772 336.63 824.577C335.415 826.476 333.634 827.946 331.54 828.78C328.923 829.772 326.138 830.239 323.341 830.156C319.403 830.417 315.504 829.244 312.364 826.853C309.662 824.349 308.024 820.903 307.789 817.226ZM344.599 829.487V791.804H352.207V829.487H344.599ZM376.986 815.632V809.283H393.387V824.294C391.367 826.093 389.012 827.478 386.458 828.369C383.532 829.524 380.415 830.121 377.269 830.13C373.676 830.215 370.122 829.36 366.96 827.649C364.069 826.036 361.758 823.553 360.356 820.554C358.869 817.419 358.113 813.987 358.146 810.517C358.077 806.878 358.926 803.28 360.614 800.055C362.237 797.025 364.761 794.573 367.836 793.038C370.651 791.7 373.745 791.056 376.859 791.16C380.735 790.933 384.581 791.966 387.822 794.105C390.467 796.091 392.277 798.991 392.899 802.24L385.34 803.654C384.871 801.894 383.815 800.348 382.346 799.271C380.738 798.157 378.813 797.594 376.859 797.665C375.388 797.595 373.919 797.841 372.551 798.386C371.183 798.932 369.948 799.764 368.929 800.826C366.786 803.463 365.733 806.82 365.985 810.209C365.711 813.815 366.773 817.396 368.968 820.271C369.941 821.373 371.147 822.245 372.498 822.825C373.849 823.405 375.312 823.679 376.781 823.626C378.424 823.616 380.05 823.298 381.575 822.688C383.052 822.132 384.442 821.365 385.701 820.412V815.632H376.986ZM400.479 829.487V791.804H407.883L423.306 816.968V791.804H430.374V829.487H422.741L407.55 804.913V829.487H400.479ZM452.816 829.487V791.804H460.424V829.487H452.816ZM467.75 829.487V791.804H475.153L490.577 816.968V791.804H497.644V829.487H490.011L474.82 804.913V829.487H467.75Z" fill="white"/>
<path d="M441.609 968.3H363.763C359.221 968.3 354.865 966.495 351.653 963.283C348.441 960.072 346.637 955.715 346.637 951.173C346.637 946.631 348.441 942.275 351.653 939.063C354.865 935.851 359.221 934.047 363.763 934.047H441.609C446.151 934.047 450.508 935.851 453.719 939.063C456.931 942.275 458.736 946.631 458.736 951.173C458.736 955.715 456.931 960.072 453.719 963.283C450.508 966.495 446.151 968.3 441.609 968.3Z" fill="#AB8B5A"/>
</svg>
