<svg width="737" height="1079" viewBox="0 0 737 1079" fill="none" xmlns="http://www.w3.org/2000/svg">
<path d="M219.109 83.6016H586.264C592.523 83.6016 598.721 84.8343 604.503 87.2294C610.285 89.6246 615.539 93.1352 619.965 97.5608C624.391 101.986 627.901 107.24 630.296 113.023C632.691 118.805 633.924 125.003 633.924 131.261V949.982C633.924 962.623 628.903 974.745 619.965 983.683C611.027 992.621 598.905 997.642 586.264 997.642H219.109C206.469 997.642 194.346 992.621 185.408 983.683C176.47 974.745 171.449 962.623 171.449 949.983V131.261C171.449 125.003 172.682 118.805 175.077 113.023C177.472 107.24 180.983 101.986 185.408 97.5608C189.834 93.1352 195.088 89.6246 200.87 87.2295C206.653 84.8343 212.85 83.6016 219.109 83.6016Z" fill="#825B2C"/>
<path d="M191 122.486H615.799V902.568H191V122.486Z" fill="#F7F4F0"/>
<path d="M441.609 968.3H363.763C359.221 968.3 354.865 966.495 351.653 963.283C348.441 960.072 346.637 955.715 346.637 951.173C346.637 946.631 348.441 942.275 351.653 939.063C354.865 935.851 359.221 934.047 363.763 934.047H441.609C446.151 934.047 450.508 935.851 453.719 939.063C456.931 942.275 458.736 946.631 458.736 951.173C458.736 955.715 456.931 960.072 453.719 963.283C450.508 966.495 446.151 968.3 441.609 968.3Z" fill="#AB8B5A"/>
<path d="M343.54 248.832L339.933 273.179C338.645 281.681 332.075 288.509 323.702 289.926C305.28 292.889 305.409 265.836 305.409 265.836C290.208 265.965 286.859 253.47 286.215 248.317L290.208 242.778C296.392 234.147 307.084 229.896 317.389 232.214C320.352 232.858 323.315 233.631 326.149 234.791C333.363 237.367 339.418 242.391 343.54 248.832Z" fill="#CC8000"/>
<path d="M534.584 450.049H523.377C520.8 450.049 518.739 447.988 518.739 445.412V443.995C518.739 441.676 520.285 439.743 522.604 439.357C525.309 438.842 526.984 436.137 526.339 433.56L518.224 403.287C491.687 396.717 473.523 384.351 462.445 366.96C431.656 378.554 399.709 383.964 366.087 382.161L361.578 434.075C361.578 434.462 361.578 434.977 361.578 435.364L362.866 444.252C363.253 447.344 361.063 450.178 357.971 450.564L343.415 451.981C340.194 452.239 337.36 449.791 337.36 446.571C337.36 445.412 337.746 444.252 338.391 443.35C339.035 442.449 339.936 441.676 341.096 441.289L346.249 439.486C348.567 438.713 350.113 436.394 349.984 433.947C348.696 411.017 345.604 389.246 340.452 368.763C322.159 353.692 315.847 330.761 314.688 304.353C314.688 303.838 314.688 303.323 314.688 302.807C314.559 301.004 314.044 299.2 313.142 297.526L311.854 295.465L310.694 293.404C309.02 290.57 305.541 289.153 302.321 289.925L290.856 292.631C285.832 293.79 280.808 291.085 278.876 286.318L277.974 283.871L277.33 282.196C277.072 282.067 276.943 281.939 276.686 281.81C270.116 277.945 265.994 272.406 263.546 265.578C262.902 263.775 262.387 261.843 262.129 259.91L267.797 258.751L276.557 256.947C279.133 256.432 281.452 254.886 282.998 252.696L286.218 248.188C286.991 253.34 290.212 265.707 305.413 265.707C305.413 265.707 305.284 292.759 323.705 289.797C332.207 288.508 338.777 281.552 339.936 273.05L343.543 248.703C345.089 251.151 346.377 253.727 347.279 256.561C348.439 259.91 349.984 263.131 351.788 266.094C352.947 267.897 354.235 269.572 355.652 271.246C356.425 272.148 357.327 273.05 358.1 273.823C361.321 276.915 365.056 279.491 369.179 281.294C403.187 297.011 439.901 305.899 480.093 305.77H482.669C492.46 305.77 501.606 300.618 506.63 292.244C520.156 269.701 518.739 247.286 512.813 225C518.997 232.343 524.149 240.716 527.241 251.279C530.848 263.646 529.431 276.915 523.892 288.508L510.495 316.076C521.444 335.528 523.377 353.176 518.868 369.536C517.193 375.591 518.61 382.161 522.732 386.927L529.818 395.3C533.038 399.165 535.099 403.803 535.614 408.698L539.35 444.767C539.479 447.73 537.418 450.049 534.584 450.049Z" fill="#CC8000" fill-opacity="0.8"/>
<path d="M267.797 260.171C267.797 262.876 265.993 265.195 263.417 265.839C262.773 264.036 262.258 262.103 262 260.171L267.668 259.012C267.797 259.398 267.797 259.785 267.797 260.171Z" fill="#E0B97D"/>
<path d="M294.203 281.816C288.277 285.552 280.677 284.65 277.714 284.135L277.07 282.461C276.812 282.332 276.683 282.203 276.426 282.074V281.816C281.836 283.233 287.762 283.105 294.203 281.816Z" fill="#E0B97D"/>
<path d="M358.231 273.827C352.949 282.587 340.325 297.787 314.561 304.486C314.561 303.971 314.561 303.456 314.561 302.94C314.432 301.137 313.917 299.333 313.015 297.659L311.727 295.598C324.609 292.248 335.301 286.322 343.416 277.691C347.925 272.925 350.63 268.545 351.79 266.098C352.949 267.901 354.237 269.576 355.654 271.25C356.427 272.152 357.329 272.925 358.231 273.827Z" fill="#E0B97D"/>
<path d="M298.833 254.243C300.897 254.243 302.569 252.57 302.569 250.507C302.569 248.444 300.897 246.771 298.833 246.771C296.77 246.771 295.098 248.444 295.098 250.507C295.098 252.57 296.77 254.243 298.833 254.243Z" fill="#E8CB9E"/>
<path d="M570.89 614.003H240.569C238.436 613.933 236.366 615.164 234.777 617.448C233.189 619.731 232.2 622.896 232.012 626.303C231.953 628.066 232.118 629.83 232.498 631.487C232.879 633.145 233.465 634.661 234.223 635.942C234.981 637.224 235.894 638.245 236.906 638.943C237.918 639.64 239.008 640 240.11 640H574.788C582.928 628.537 577.968 614.003 570.89 614.003Z" fill="#CEC7BC"/>
<path d="M482.994 665.003H238.347C236.767 664.933 235.233 666.164 234.057 668.448C232.88 670.731 232.148 673.896 232.009 677.303C231.965 679.066 232.087 680.83 232.369 682.487C232.651 684.145 233.085 685.661 233.647 686.942C234.208 688.224 234.884 689.245 235.633 689.943C236.383 690.64 237.19 691 238.006 691H485.881C491.909 679.537 488.236 665.003 482.994 665.003Z" fill="#CEC7BC"/>
<path d="M523.036 716.003H239.359C237.527 715.933 235.749 717.164 234.385 719.448C233.021 721.731 232.172 724.896 232.01 728.303C231.959 730.066 232.101 731.83 232.428 733.487C232.754 735.145 233.258 736.661 233.909 737.942C234.56 739.224 235.344 740.245 236.213 740.943C237.082 741.64 238.018 742 238.965 742H526.383C533.374 730.537 529.114 716.003 523.036 716.003Z" fill="#CEC7BC"/>
<path d="M443.929 767.003H237.359C236.025 766.933 234.73 768.164 233.737 770.448C232.743 772.731 232.125 775.896 232.007 779.303C231.97 781.066 232.074 782.83 232.312 784.487C232.549 786.145 232.916 787.661 233.39 788.942C233.864 790.224 234.435 791.245 235.068 791.943C235.701 792.64 236.383 793 237.072 793H446.366C451.457 781.537 448.355 767.003 443.929 767.003Z" fill="#CEC7BC"/>
<path d="M498.62 818.003H238.742C237.063 817.933 235.435 819.164 234.185 821.448C232.935 823.731 232.157 826.896 232.009 830.303C231.963 832.066 232.093 833.83 232.392 835.487C232.691 837.145 233.153 838.661 233.749 839.942C234.345 841.224 235.063 842.245 235.86 842.943C236.656 843.64 237.514 844 238.38 844H501.686C508.091 832.537 504.188 818.003 498.62 818.003Z" fill="#CEC7BC"/>
<path fill-rule="evenodd" clip-rule="evenodd" d="M578.085 180.531H577.765C571.993 180.531 566.457 178.238 562.375 174.156C558.293 170.074 556 164.538 556 158.765C556 155.907 556.563 153.077 557.657 150.436C558.751 147.795 560.354 145.396 562.375 143.375C564.396 141.354 566.795 139.751 569.436 138.657C572.077 137.563 574.907 137 577.765 137H578.085C580.943 137 583.773 137.563 586.414 138.657C589.055 139.751 591.454 141.354 593.475 143.375C595.497 145.396 597.1 147.795 598.194 150.436C599.287 153.077 599.85 155.907 599.85 158.765C599.85 164.538 597.557 170.074 593.475 174.156C589.394 178.238 583.857 180.531 578.085 180.531Z" fill="#CC8000"/>
<mask id="mask0_406_1158" style="mask-type:luminance" maskUnits="userSpaceOnUse" x="556" y="137" width="44" height="44">
<path fill-rule="evenodd" clip-rule="evenodd" d="M578.089 180.533H577.769C571.997 180.533 566.461 178.24 562.379 174.158C558.297 170.076 556.004 164.54 556.004 158.767C556.004 155.909 556.567 153.079 557.661 150.438C558.754 147.797 560.358 145.398 562.379 143.377C564.4 141.356 566.799 139.753 569.44 138.659C572.081 137.565 574.911 137.002 577.769 137.002H578.089C580.947 137.002 583.777 137.565 586.418 138.659C589.059 139.753 591.458 141.356 593.479 143.377C595.5 145.398 597.104 147.797 598.197 150.438C599.291 153.079 599.854 155.909 599.854 158.767C599.854 164.54 597.561 170.076 593.479 174.158C589.397 178.24 583.861 180.533 578.089 180.533Z" fill="white"/>
</mask>
<g mask="url(#mask0_406_1158)">
<path d="M598.432 174.866C597.338 167.814 592.85 159.814 590.001 158.847C586.867 157.782 578.702 156.324 578.702 156.324C578.702 156.324 571.817 156.66 568.538 157.668C565.261 158.676 561.653 159.684 559.687 163.717C558.759 165.618 557.393 170.509 556.484 175.428C556.484 175.428 561.502 182.952 577.364 182.952C593.226 182.952 598.432 174.866 598.432 174.866Z" fill="#F2A833"/>
<path d="M584.109 143.73C585.926 143.211 586.446 144.769 586.186 145.808C585.926 146.846 585.147 147.106 584.628 148.404C584.109 149.703 584.628 149.443 584.109 151.001C583.926 151.48 583.645 151.914 583.282 152.276C582.92 152.638 582.486 152.919 582.007 153.102C579.99 153.409 577.992 153.83 576.023 154.365C573.391 155.131 573.202 151.261 571.903 151.001C570.605 150.742 569.826 143.471 571.903 142.432C573.981 141.393 575.539 141.393 576.837 139.835C578.136 138.277 578.136 138.796 581.512 139.835C584.888 140.874 582.291 144.25 584.109 143.73Z" fill="#3C2509"/>
<path d="M572.94 148.925C572.681 147.367 574.758 146.847 575.277 147.886C575.797 148.925 579.432 147.886 579.952 145.809C580.416 146.411 581.049 146.863 581.77 147.107C582.808 147.367 582.549 149.704 582.289 151.781C582.029 153.859 581.51 154.119 579.952 154.378C578.394 154.638 575.797 155.157 575.018 153.339C574.239 151.522 574.498 150.743 574.498 150.743C574.087 150.63 573.718 150.397 573.44 150.073C573.163 149.749 572.988 149.349 572.94 148.925Z" fill="#FECF86"/>
<path d="M575.797 153.598H579.692V157.233C579.171 157.741 578.472 158.026 577.744 158.026C577.017 158.026 576.318 157.741 575.797 157.233V153.598Z" fill="#FECF86"/>
</g>
<rect x="233" y="533" width="163" height="28" rx="10" fill="#CC8000" fill-opacity="0.7"/>
<path d="M542.999 546.504C542.999 557.851 552.206 567.009 563.504 567.009C574.851 567.009 584.008 557.802 584.008 546.504C584.008 535.157 574.801 526 563.504 526C552.157 525.95 542.999 535.157 542.999 546.504Z" fill="#CC8000" fill-opacity="0.7"/>
<path d="M510.758 565.515C499.846 565.515 491 556.67 491 545.758C491 534.846 499.846 526 510.758 526C521.67 526 530.516 534.846 530.516 545.758C530.516 556.67 521.67 565.515 510.758 565.515Z" fill="#CC8000" fill-opacity="0.7"/>
<path d="M510.762 537.841C508.174 537.841 507.876 537.841 506.88 537.891C505.935 537.941 505.437 538.09 505.089 538.24C504.641 538.439 504.342 538.638 503.994 538.936C503.645 539.285 503.446 539.583 503.297 540.031C503.148 540.38 502.998 540.877 502.949 541.823C502.899 542.818 502.899 543.167 502.899 545.705C502.899 548.293 502.899 548.591 502.949 549.587C502.998 550.532 503.148 551.03 503.297 551.378C503.496 551.826 503.695 552.125 503.994 552.473C504.342 552.822 504.641 553.021 505.089 553.17C505.437 553.319 505.935 553.469 506.88 553.518C507.876 553.568 508.174 553.568 510.762 553.568C513.35 553.568 513.649 553.568 514.644 553.518C515.589 553.469 516.087 553.319 516.436 553.17C516.883 552.971 517.182 552.772 517.53 552.473C517.879 552.125 518.078 551.826 518.227 551.378C518.376 551.03 518.526 550.532 518.576 549.587C518.625 548.591 518.625 548.243 518.625 545.705C518.625 543.117 518.625 542.818 518.576 541.823C518.526 540.877 518.376 540.38 518.227 540.031C518.028 539.583 517.829 539.285 517.53 538.936C517.182 538.588 516.883 538.389 516.436 538.24C516.087 538.09 515.589 537.941 514.644 537.891C513.599 537.841 513.3 537.841 510.762 537.841ZM510.762 536.1C513.4 536.1 513.698 536.1 514.743 536.149C515.789 536.199 516.485 536.348 517.083 536.597C517.73 536.846 518.227 537.195 518.775 537.692C519.322 538.24 519.621 538.787 519.87 539.384C520.118 539.981 520.268 540.678 520.317 541.723C520.367 542.768 520.367 543.067 520.367 545.705C520.367 548.342 520.367 548.641 520.317 549.686C520.268 550.731 520.118 551.428 519.87 552.025C519.621 552.672 519.272 553.22 518.775 553.717C518.227 554.265 517.68 554.563 517.083 554.812C516.485 555.061 515.789 555.21 514.743 555.26C513.698 555.31 513.4 555.31 510.762 555.31C508.124 555.31 507.826 555.31 506.781 555.26C505.736 555.21 505.039 555.061 504.442 554.812C503.795 554.563 503.247 554.215 502.749 553.717C502.202 553.17 501.903 552.622 501.655 552.025C501.406 551.428 501.256 550.731 501.207 549.686C501.157 548.641 501.157 548.342 501.157 545.705C501.157 543.067 501.157 542.768 501.207 541.723C501.256 540.678 501.406 539.981 501.655 539.384C501.903 538.737 502.252 538.19 502.749 537.692C503.297 537.145 503.844 536.846 504.442 536.597C505.039 536.348 505.736 536.199 506.781 536.149C507.826 536.149 508.124 536.1 510.762 536.1Z" fill="white"/>
<path d="M510.761 540.779C513.498 540.779 515.688 542.969 515.688 545.706C515.688 548.443 513.498 550.633 510.761 550.633C508.023 550.633 505.834 548.443 505.834 545.706C505.784 543.019 508.023 540.779 510.761 540.779ZM510.761 548.941C512.552 548.941 513.946 547.498 513.946 545.756C513.946 543.964 512.502 542.571 510.761 542.571C508.969 542.571 507.575 544.014 507.575 545.756C507.526 547.498 508.969 548.941 510.761 548.941Z" fill="white"/>
<path d="M504.437 540.628C504.437 541.275 504.935 541.773 505.582 541.773C506.229 541.773 506.727 541.275 506.727 540.628C506.727 539.981 506.229 539.484 505.582 539.484C504.985 539.434 504.437 539.981 504.437 540.628Z" fill="white"/>
<path d="M556.736 556.17H570.275C571.044 556.17 571.781 555.864 572.325 555.32C572.869 554.776 573.175 554.039 573.176 553.269V547.467C573.176 547.211 573.074 546.965 572.893 546.783C572.711 546.602 572.465 546.5 572.209 546.5C571.952 546.5 571.706 546.602 571.525 546.783C571.344 546.965 571.242 547.211 571.242 547.467V553.269C571.242 553.526 571.14 553.772 570.958 553.953C570.777 554.134 570.531 554.236 570.275 554.236H556.736C556.48 554.236 556.234 554.134 556.052 553.953C555.871 553.772 555.769 553.526 555.769 553.269V547.467C555.769 547.211 555.667 546.965 555.486 546.783C555.304 546.602 555.058 546.5 554.802 546.5C554.545 546.5 554.299 546.602 554.118 546.783C553.937 546.965 553.835 547.211 553.835 547.467V553.269C553.836 554.039 554.142 554.776 554.685 555.32C555.229 555.864 555.967 556.17 556.736 556.17Z" fill="white"/>
<path d="M558.953 540.981L562.821 537.113C563.002 536.932 563.248 536.83 563.505 536.83C563.761 536.83 564.007 536.932 564.188 537.113L568.057 540.981C568.233 541.164 568.33 541.408 568.328 541.662C568.326 541.915 568.224 542.158 568.045 542.337C567.866 542.516 567.623 542.618 567.369 542.62C567.116 542.622 566.872 542.525 566.689 542.349L564.472 540.131V549.401C564.472 549.658 564.37 549.904 564.189 550.085C564.007 550.267 563.761 550.369 563.505 550.369C563.248 550.369 563.002 550.267 562.821 550.085C562.64 549.904 562.538 549.658 562.538 549.401V540.131L560.32 542.349C560.138 542.525 559.894 542.622 559.64 542.62C559.387 542.618 559.144 542.516 558.965 542.337C558.785 542.158 558.684 541.915 558.681 541.662C558.679 541.408 558.777 541.164 558.953 540.981Z" fill="white"/>
</svg>
