<svg width="4148" height="4200" viewBox="0 0 4148 4200" fill="none" xmlns="http://www.w3.org/2000/svg">
<g clip-path="url(#clip0_406_991)">
<path d="M4039.79 711.455C4020.41 612.655 3938.18 533.552 3838.75 517.293C3725.26 498.846 3622.7 557.939 3576.43 649.548C3570.8 660.491 3560.17 667.995 3547.98 667.995H3447.93C3447.93 657.052 3446.68 646.109 3444.49 635.791C3439.8 653.3 3433.54 668.933 3426.35 682.69C3404.47 725.212 3371.32 742.096 3346.31 743.972C3331.3 753.977 3313.48 759.917 3294.1 759.917C3244.07 759.917 3202.49 718.646 3202.49 667.683C3202.49 603.143 3272.43 563.135 3309.42 577.949C3315.21 578.593 3320.8 580.16 3326.22 582.245C3326.61 582.389 3326.95 582.567 3327.34 582.714C3332.57 584.809 3337.65 587.345 3342.56 590.143C3346.93 570.758 3350.69 548.247 3352.25 525.735C3325.1 514.382 3288.01 509.958 3256.89 518.857C3253.76 521.011 3140.27 548.04 3140.27 667.995H3040.84C3028.65 667.995 3018.02 660.488 3012.39 649.861C2965.8 557.939 2863.88 498.846 2750.07 517.293C2650.64 533.552 2568.72 612.655 2549.03 711.455C2529.02 811.506 2569.97 902.177 2640.95 956.58C2656.89 969.399 2665.65 988.784 2665.65 1009.42C2665.65 1029.43 2656.89 1049.44 2640.95 1061.63C2569.97 1116.04 2529.02 1207.33 2549.03 1308.01C2568.1 1403.68 2646.58 1481.85 2742.88 1500.3C2858.56 1522.18 2962.05 1463.71 3010.2 1371.48C3021.14 1350.53 3042.09 1336.46 3065.85 1336.46H3522.65C3546.1 1336.46 3567.36 1350.22 3578.31 1371.17C3626.45 1463.71 3730.26 1522.18 3845.94 1500.3C3942.24 1481.85 4020.41 1403.68 4039.79 1308.01C4059.8 1207.33 4018.84 1116.04 3947.87 1061.63C3931.92 1049.44 3923.48 1029.43 3923.48 1009.42C3923.48 988.784 3931.92 969.399 3947.87 956.58C4018.84 902.177 4059.8 811.506 4039.79 711.455Z" fill="#D1D1D1"/>
<path d="M3340.37 665.806C3328.03 665.806 3313.21 621.671 3309.73 609.839C3296.44 605.687 3277.93 607.032 3263.14 616.718C3270.72 654.569 3298.41 712.079 3335.68 712.079C3339.02 713.414 3346.22 713.364 3355.02 710.284C3355.14 710.253 3355.26 710.234 3355.37 710.203V710.141C3368.62 705.401 3385.46 693.642 3398.83 667.994C3455.36 561.052 3439.03 281.547 3340.37 281.547C3279.4 281.547 3250.63 387.226 3249.07 488.528C3263.45 484.776 3278.46 482.9 3294.09 482.9H3296.28C3298.78 381.598 3329.42 328.446 3340.37 328.446C3367.95 328.446 3388.69 460.588 3384.14 506.349C3384.14 555.287 3370.38 620.42 3355.37 649.997V649.235C3354.75 650.485 3353.81 651.736 3353.19 652.986C3353.25 653.208 3353.22 653.465 3353.28 653.69C3348.93 661.225 3344.53 665.806 3340.37 665.806Z" fill="#D9D9D9"/>
<path d="M3229.05 966.974H3057.55V795.438H3229.05V966.974ZM3083.79 940.726H3202.81V821.685H3083.79V940.726Z" fill="#7F715C"/>
<path d="M3184.44 922.331H3102.23V840.109H3184.44V922.331ZM3128.43 896.083H3158.15V866.357H3128.43V896.083Z" fill="#7F715C"/>
<path d="M3229.05 1276.67H3057.55V1105.13H3229.05V1276.67ZM3083.79 1250.42H3202.81V1131.38H3083.79V1250.42Z" fill="#7F715C"/>
<path d="M3184.44 1231.96H3102.23V1149.74H3184.44V1231.96ZM3128.43 1205.72H3158.15V1175.99H3128.43V1205.72Z" fill="#7F715C"/>
<path d="M3538.63 966.974H3367.13V795.438H3538.63V966.974ZM3393.37 940.726H3512.38V821.685H3393.37V940.726Z" fill="#7F715C"/>
<path d="M3493.96 922.331H3411.76V840.109H3493.96V922.331ZM3438 896.083H3467.72V866.357H3438V896.083Z" fill="#7F715C"/>
<path d="M3259.86 795.438H3337.78V821.685H3259.86V795.438Z" fill="#7F715C"/>
<path d="M3316.42 853.227H3342.66V943.806H3316.42V853.227Z" fill="#7F715C"/>
<path d="M3276.41 896.094H3329.53V922.341H3276.41V896.094Z" fill="#7F715C"/>
<path d="M3259.86 840.062H3287.01V866.31H3259.86V840.062Z" fill="#7F715C"/>
<path d="M3184.45 1036H3158.2V992.088H3260.33V948.492H3286.57V1018.34H3184.45V1036Z" fill="#7F715C"/>
<path d="M3057.55 991.016H3083.8V1073.69H3057.55V991.016Z" fill="#7F715C"/>
<path d="M3222.37 1086.81H3102.18V1017.02H3128.42V1060.57H3222.37V1086.81Z" fill="#7F715C"/>
<path d="M3251.6 1060.59H3337.78V1086.83H3251.6V1060.59Z" fill="#7F715C"/>
<path d="M3321.24 1184.8H3260.31V1110.3H3286.55V1158.55H3321.24V1184.8Z" fill="#7F715C"/>
<path d="M3380.41 1218.83H3354.17V1137.61H3315.33V1111.36H3380.41V1218.83Z" fill="#7F715C"/>
<path d="M3328.47 1276.62H3259.86V1250.38H3302.23V1218.84H3328.47V1276.62Z" fill="#7F715C"/>
<path d="M3428.82 1276.63H3367.25V1250.38H3402.57V1177.73H3470.01V1203.98H3428.82V1276.63Z" fill="#7F715C"/>
<path d="M3452.21 1214.05H3478.45V1276.62H3452.21V1214.05Z" fill="#7F715C"/>
<path d="M3538.65 1276.61H3512.41V1158.83H3448.54V1132.59H3538.65V1276.61Z" fill="#7F715C"/>
<path d="M3512.4 992.266H3538.64V1110.31H3512.4V992.266Z" fill="#7F715C"/>
<path d="M3418.69 1084.2H3489.24V1110.45H3418.69V1084.2Z" fill="#7F715C"/>
<path d="M3406.25 1132.59H3424.91V1158.83H3406.25V1132.59Z" fill="#7F715C"/>
<path d="M3367.25 1060.59H3393.22V1086.83H3367.25V1060.59Z" fill="#7F715C"/>
<path d="M3493.97 1055.96H3467.77V1011.23H3424.91V984.984H3493.97V1055.96Z" fill="#7F715C"/>
<path d="M3415.56 1032.25H3441.35V1058.5H3415.56V1032.25Z" fill="#7F715C"/>
<path d="M3362.58 984.984H3406.26V1011.23H3362.58V984.984Z" fill="#7F715C"/>
<path d="M3316.42 978.055H3342.66V1036.02H3316.42V978.055Z" fill="#7F715C"/>
<path d="M3596.55 856.864L3590.48 856.92L3590.29 837.23L3596.37 837.174L3596.55 856.864ZM3563.1 842.404L3599.56 842.067C3601.8 842.047 3603.67 842.492 3605.16 843.403C3606.66 844.329 3607.79 845.577 3608.54 847.146C3609.29 848.715 3609.67 850.46 3609.69 852.383C3609.7 853.742 3609.61 854.95 3609.4 856.007C3609.19 857.065 3609.01 857.847 3608.84 858.355L3602.75 856.85C3602.85 856.516 3602.95 856.096 3603.04 855.589C3603.15 855.082 3603.21 854.518 3603.2 853.896C3603.19 852.436 3602.82 851.406 3602.11 850.805C3601.41 850.219 3600.41 849.932 3599.11 849.944L3563.18 850.276L3563.1 842.404ZM3563.31 864.846L3596.62 864.538L3596.69 872.388L3563.38 872.695L3563.31 864.846ZM3601.38 868.441C3601.37 867.197 3601.77 866.124 3602.59 865.22C3603.42 864.316 3604.42 863.858 3605.59 863.848C3606.78 863.837 3607.78 864.276 3608.62 865.164C3609.46 866.053 3609.89 867.119 3609.9 868.362C3609.92 869.62 3609.51 870.693 3608.68 871.583C3607.86 872.487 3606.86 872.944 3605.67 872.955C3604.5 872.966 3603.5 872.527 3602.65 871.639C3601.82 870.764 3601.39 869.698 3601.38 868.441ZM3583.06 889.964L3563.55 890.144L3563.47 882.294L3596.78 881.986L3596.85 889.489L3591.19 889.541L3591.19 889.932C3593.07 890.681 3594.56 891.889 3595.67 893.555C3596.79 895.237 3597.36 897.32 3597.38 899.807C3597.4 902.106 3596.93 904.112 3595.96 905.827C3594.99 907.557 3593.58 908.9 3591.72 909.857C3589.87 910.828 3587.61 911.319 3584.95 911.329L3563.74 911.525L3563.67 903.675L3583.66 903.49C3585.89 903.47 3587.63 902.875 3588.87 901.707C3590.12 900.554 3590.73 898.965 3590.72 896.941C3590.7 895.568 3590.39 894.349 3589.77 893.285C3589.17 892.235 3588.3 891.411 3587.17 890.815C3586.03 890.232 3584.67 889.949 3583.06 889.964ZM3563.36 933.397C3563.34 930.78 3563.99 928.432 3565.31 926.353C3566.64 924.273 3568.57 922.621 3571.12 921.398C3573.67 920.174 3576.77 919.546 3580.43 919.512C3584.13 919.478 3587.26 920.056 3589.81 921.247C3592.38 922.452 3594.33 924.089 3595.65 926.159C3596.98 928.229 3597.66 930.543 3597.69 933.101C3597.7 935.053 3597.39 936.661 3596.73 937.925C3596.09 939.188 3595.32 940.193 3594.4 940.939C3593.49 941.685 3592.64 942.264 3591.83 942.676L3591.84 943.001L3608.45 942.848L3608.52 950.719L3564.11 951.13L3564.04 943.41L3569.29 943.361L3569.28 942.884C3568.47 942.487 3567.6 941.91 3566.68 941.152C3565.78 940.394 3565.01 939.389 3564.36 938.137C3563.71 936.885 3563.38 935.305 3563.36 933.397ZM3569.82 935.528C3569.84 937.19 3570.3 938.603 3571.2 939.765C3572.13 940.928 3573.4 941.805 3575.02 942.398C3576.65 942.99 3578.54 943.276 3580.69 943.256C3582.85 943.236 3584.71 942.915 3586.3 942.293C3587.88 941.686 3589.11 940.793 3589.98 939.614C3590.85 938.449 3591.28 937.021 3591.27 935.329C3591.25 933.58 3590.78 932.124 3589.86 930.962C3588.94 929.799 3587.67 928.929 3586.06 928.351C3584.45 927.773 3582.61 927.494 3580.55 927.513C3578.46 927.532 3576.61 927.846 3574.98 928.454C3573.37 929.076 3572.1 929.977 3571.17 931.156C3570.25 932.35 3569.8 933.807 3569.82 935.528ZM3564.2 961.021L3597.51 960.713L3597.58 968.216L3591.92 968.268L3591.92 968.659C3593.84 969.335 3595.34 970.47 3596.42 972.065C3597.52 973.66 3598.08 975.57 3598.1 977.797C3598.12 980.052 3597.59 981.958 3596.5 983.515C3595.43 985.086 3593.96 986.199 3592.09 986.852L3592.09 987.199C3593.95 987.919 3595.44 989.149 3596.55 990.888C3597.68 992.641 3598.26 994.725 3598.28 997.139C3598.31 1000.2 3597.36 1002.71 3595.44 1004.67C3593.52 1006.62 3590.71 1007.62 3586.99 1007.65L3564.63 1007.86L3564.56 999.988L3585.7 999.793C3587.77 999.774 3589.28 999.21 3590.22 998.103C3591.18 996.995 3591.65 995.646 3591.64 994.056C3591.62 992.162 3591.01 990.686 3589.82 989.627C3588.64 988.583 3587.11 988.069 3585.23 988.087L3564.45 988.279L3564.38 980.581L3585.85 980.382C3587.57 980.366 3588.94 979.833 3589.95 978.783C3590.97 977.747 3591.47 976.398 3591.46 974.735C3591.45 973.608 3591.15 972.584 3590.56 971.664C3589.99 970.744 3589.18 970.014 3588.13 969.474C3587.1 968.935 3585.9 968.671 3584.53 968.684L3564.27 968.871L3564.2 961.021ZM3552.26 1021.15C3552.25 1020.08 3552.33 1019.09 3552.5 1018.18C3552.65 1017.28 3552.83 1016.56 3553.04 1016.03L3559.17 1017.79C3558.85 1018.94 3558.7 1019.96 3558.72 1020.85C3558.75 1021.75 3559.04 1022.53 3559.59 1023.21C3560.13 1023.9 3561.04 1024.48 3562.3 1024.94L3564.1 1025.6L3597.99 1013.2L3598.07 1021.53L3572.99 1029.44L3572.99 1029.79L3598.22 1037.25L3598.29 1045.6L3560.83 1032.61C3559.06 1032 3557.54 1031.19 3556.27 1030.18C3554.99 1029.16 3554.01 1027.92 3553.33 1026.43C3552.64 1024.97 3552.28 1023.2 3552.26 1021.15ZM3552.56 1052.98L3598.36 1052.56L3598.43 1060.28L3592.92 1060.33L3592.92 1060.79C3593.74 1061.18 3594.6 1061.75 3595.52 1062.47C3596.45 1063.2 3597.25 1064.19 3597.91 1065.45C3598.59 1066.7 3598.94 1068.3 3598.95 1070.25C3598.98 1072.82 3598.34 1075.15 3597.05 1077.23C3595.76 1079.32 3593.85 1080.99 3591.3 1082.23C3588.77 1083.48 3585.65 1084.12 3581.95 1084.16C3578.29 1084.19 3575.18 1083.62 3572.61 1082.44C3570.04 1081.27 3568.07 1079.65 3566.71 1077.6C3565.35 1075.54 3564.65 1073.21 3564.63 1070.59C3564.61 1068.68 3564.91 1067.09 3565.54 1065.83C3566.16 1064.57 3566.92 1063.55 3567.81 1062.77C3568.71 1062.01 3569.57 1061.42 3570.37 1060.99L3570.37 1060.67L3552.63 1060.83L3552.56 1052.98ZM3581.77 1060.41C3579.62 1060.43 3577.74 1060.75 3576.12 1061.37C3574.51 1062.01 3573.25 1062.91 3572.35 1064.08C3571.47 1065.26 3571.03 1066.68 3571.05 1068.34C3571.06 1070.07 3571.54 1071.52 3572.48 1072.68C3573.43 1073.85 3574.71 1074.72 3576.34 1075.29C3577.98 1075.89 3579.84 1076.17 3581.92 1076.15C3583.99 1076.14 3585.82 1075.82 3587.42 1075.21C3589.02 1074.61 3590.27 1073.71 3591.17 1072.53C3592.07 1071.35 3592.51 1069.89 3592.49 1068.14C3592.48 1066.46 3592.02 1065.04 3591.13 1063.88C3590.24 1062.72 3588.99 1061.84 3587.4 1061.25C3585.8 1060.67 3583.93 1060.39 3581.77 1060.41ZM3564.9 1107.31C3564.87 1103.97 3565.54 1101.08 3566.9 1098.64C3568.28 1096.21 3570.25 1094.34 3572.79 1093.01C3575.36 1091.69 3578.38 1091.01 3581.86 1090.98C3585.29 1090.94 3588.3 1091.57 3590.9 1092.84C3593.51 1094.13 3595.56 1095.95 3597.02 1098.3C3598.5 1100.64 3599.26 1103.4 3599.29 1106.58C3599.31 1108.63 3598.99 1110.57 3598.35 1112.4C3597.71 1114.24 3596.72 1115.87 3595.36 1117.29C3594 1118.72 3592.26 1119.84 3590.14 1120.67C3588.04 1121.5 3585.52 1121.93 3582.6 1121.96L3580.2 1121.98L3579.94 1094.68L3585.24 1094.63L3585.42 1114.41C3586.92 1114.38 3588.26 1114.04 3589.42 1113.39C3590.6 1112.75 3591.52 1111.85 3592.19 1110.7C3592.86 1109.57 3593.19 1108.25 3593.18 1106.75C3593.16 1105.14 3592.76 1103.73 3591.97 1102.53C3591.19 1101.32 3590.17 1100.38 3588.9 1099.71C3587.65 1099.06 3586.29 1098.73 3584.8 1098.73L3580.18 1098.78C3578.24 1098.79 3576.58 1099.16 3575.2 1099.88C3573.83 1100.61 3572.79 1101.61 3572.06 1102.88C3571.35 1104.16 3571 1105.66 3571.02 1107.36C3571.03 1108.5 3571.2 1109.54 3571.52 1110.46C3571.86 1111.38 3572.36 1112.18 3573 1112.85C3573.64 1113.53 3574.43 1114.03 3575.38 1114.37L3574.62 1121.71C3572.68 1121.26 3570.98 1120.4 3569.52 1119.11C3568.08 1117.83 3566.95 1116.2 3566.14 1114.19C3565.34 1112.19 3564.93 1109.9 3564.9 1107.31ZM3599.23 1146.61L3593.15 1146.66L3592.98 1127.51L3599.05 1127.46L3599.23 1146.61ZM3607.07 1132.11L3607.15 1139.96L3575.88 1140.25C3574.82 1140.26 3574.01 1140.43 3573.45 1140.75C3572.91 1141.09 3572.53 1141.53 3572.34 1142.06C3572.14 1142.6 3572.04 1143.19 3572.05 1143.84C3572.05 1144.33 3572.09 1144.78 3572.17 1145.19C3572.25 1145.61 3572.31 1145.92 3572.37 1146.14L3566.25 1147.52C3566.1 1147.1 3565.94 1146.5 3565.76 1145.72C3565.58 1144.96 3565.47 1144.02 3565.43 1142.91C3565.35 1140.94 3565.63 1139.17 3566.27 1137.59C3566.92 1136 3567.93 1134.74 3569.31 1133.81C3570.69 1132.88 3572.42 1132.42 3574.5 1132.41L3607.07 1132.11ZM3565.56 1159.85C3565.55 1158.53 3566 1157.4 3566.92 1156.45C3567.83 1155.5 3568.96 1155.03 3570.29 1155.03C3571.59 1155 3572.71 1155.46 3573.64 1156.39C3574.57 1157.32 3575.05 1158.44 3575.06 1159.76C3575.07 1161.03 3574.62 1162.14 3573.7 1163.09C3572.79 1164.05 3571.68 1164.55 3570.38 1164.57C3569.49 1164.57 3568.69 1164.34 3567.96 1163.9C3567.24 1163.47 3566.65 1162.9 3566.21 1162.18C3565.79 1161.48 3565.57 1160.7 3565.56 1159.85ZM3566.17 1174.24L3599.48 1173.94L3599.55 1181.79L3566.24 1182.09L3566.17 1174.24ZM3604.24 1177.84C3604.23 1176.59 3604.63 1175.52 3605.45 1174.62C3606.28 1173.71 3607.28 1173.26 3608.45 1173.25C3609.64 1173.23 3610.64 1173.67 3611.48 1174.56C3612.32 1175.45 3612.75 1176.52 3612.76 1177.76C3612.78 1179.02 3612.37 1180.09 3611.54 1180.98C3610.72 1181.88 3609.72 1182.34 3608.53 1182.35C3607.36 1182.36 3606.36 1181.92 3605.51 1181.04C3604.68 1180.16 3604.25 1179.1 3604.24 1177.84ZM3585.92 1199.36L3566.41 1199.54L3566.33 1191.69L3599.64 1191.38L3599.71 1198.89L3594.05 1198.94L3594.05 1199.33C3595.93 1200.08 3597.42 1201.29 3598.53 1202.95C3599.65 1204.63 3600.22 1206.72 3600.24 1209.2C3600.26 1211.5 3599.79 1213.51 3598.82 1215.22C3597.85 1216.95 3596.44 1218.3 3594.58 1219.25C3592.73 1220.23 3590.47 1220.72 3587.81 1220.73L3566.6 1220.92L3566.53 1213.07L3586.52 1212.89C3588.75 1212.87 3590.49 1212.27 3591.73 1211.1C3592.98 1209.95 3593.59 1208.36 3593.58 1206.34C3593.56 1204.96 3593.25 1203.75 3592.63 1202.68C3592.03 1201.63 3591.16 1200.81 3590.03 1200.21C3588.89 1199.63 3587.53 1199.35 3585.92 1199.36Z" fill="#666666"/>
<path d="M3005.71 1289.23C3004.01 1289.42 3002.69 1290.2 3001.75 1291.56C3000.81 1292.91 3000.35 1294.66 3000.37 1296.81C3000.38 1298.31 3000.62 1299.61 3001.08 1300.68C3001.55 1301.76 3002.17 1302.58 3002.96 1303.15C3003.75 1303.71 3004.64 1304 3005.64 1304C3006.47 1303.99 3007.19 1303.8 3007.8 1303.42C3008.41 1303.02 3008.93 1302.49 3009.35 1301.82C3009.76 1301.15 3010.11 1300.42 3010.39 1299.61C3010.66 1298.8 3010.9 1297.98 3011.09 1297.16L3011.99 1293.41C3012.33 1291.89 3012.79 1290.44 3013.38 1289.04C3013.96 1287.63 3014.71 1286.37 3015.61 1285.26C3016.51 1284.13 3017.6 1283.24 3018.89 1282.57C3020.17 1281.91 3021.67 1281.57 3023.4 1281.56C3025.75 1281.54 3027.81 1282.12 3029.61 1283.3C3031.39 1284.48 3032.79 1286.2 3033.81 1288.46C3034.82 1290.7 3035.33 1293.42 3035.36 1296.62C3035.39 1299.73 3034.93 1302.43 3033.99 1304.73C3033.04 1307.02 3031.65 1308.81 3029.82 1310.12C3027.98 1311.41 3025.74 1312.12 3023.08 1312.24L3023.02 1305.12C3024.41 1305 3025.57 1304.56 3026.48 1303.8C3027.4 1303.04 3028.08 1302.05 3028.53 1300.84C3028.97 1299.61 3029.19 1298.24 3029.18 1296.73C3029.16 1295.16 3028.92 1293.78 3028.44 1292.6C3027.95 1291.41 3027.27 1290.48 3026.42 1289.81C3025.56 1289.14 3024.55 1288.8 3023.41 1288.8C3022.37 1288.82 3021.51 1289.13 3020.84 1289.74C3020.16 1290.34 3019.59 1291.19 3019.14 1292.27C3018.69 1293.34 3018.28 1294.6 3017.93 1296.03L3016.8 1300.59C3015.98 1303.89 3014.72 1306.5 3013.02 1308.43C3011.3 1310.34 3009.02 1311.31 3006.15 1311.34C3003.8 1311.36 3001.73 1310.74 2999.95 1309.48C2998.17 1308.2 2996.78 1306.46 2995.79 1304.26C2994.78 1302.06 2994.26 1299.56 2994.24 1296.76C2994.21 1293.92 2994.69 1291.43 2995.66 1289.29C2996.62 1287.14 2997.96 1285.44 2999.69 1284.2C3001.41 1282.96 3003.4 1282.32 3005.65 1282.26L3005.71 1289.23ZM3035.03 1260.71C3035.06 1263.7 3034.42 1266.28 3033.13 1268.44C3031.83 1270.58 3030.03 1272.24 3027.73 1273.42C3025.41 1274.59 3022.73 1275.18 3019.7 1275.21C3016.66 1275.24 3013.96 1274.67 3011.62 1273.52C3009.27 1272.37 3007.44 1270.73 3006.12 1268.61C3004.78 1266.48 3004.11 1263.94 3004.08 1261.02C3004.06 1258.58 3004.49 1256.43 3005.37 1254.55C3006.24 1252.65 3007.48 1251.14 3009.1 1250.01C3010.7 1248.87 3012.58 1248.22 3014.74 1248.04L3014.8 1254.8C3013.36 1255.08 3012.16 1255.74 3011.21 1256.78C3010.24 1257.8 3009.76 1259.17 3009.78 1260.87C3009.79 1262.31 3010.19 1263.58 3010.98 1264.67C3011.76 1265.75 3012.87 1266.6 3014.32 1267.19C3015.77 1267.78 3017.5 1268.06 3019.52 1268.05C3021.56 1268.03 3023.32 1267.72 3024.78 1267.1C3026.24 1266.49 3027.35 1265.64 3028.14 1264.56C3028.91 1263.46 3029.29 1262.17 3029.28 1260.7C3029.27 1259.66 3029.06 1258.73 3028.67 1257.92C3028.26 1257.09 3027.67 1256.4 3026.91 1255.84C3026.15 1255.29 3025.23 1254.92 3024.15 1254.72L3024.09 1247.96C3026.21 1248.11 3028.1 1248.72 3029.75 1249.79C3031.38 1250.85 3032.67 1252.31 3033.61 1254.17C3034.54 1256.02 3035.01 1258.2 3035.03 1260.71ZM3034.8 1231.92C3034.82 1233.82 3034.5 1235.53 3033.83 1237.06C3033.16 1238.57 3032.15 1239.78 3030.82 1240.67C3029.49 1241.56 3027.84 1242.01 3025.87 1242.03C3024.18 1242.04 3022.78 1241.74 3021.67 1241.12C3020.56 1240.51 3019.67 1239.66 3018.99 1238.59C3018.32 1237.52 3017.81 1236.3 3017.46 1234.95C3017.1 1233.59 3016.83 1232.18 3016.66 1230.73C3016.47 1228.97 3016.29 1227.55 3016.14 1226.46C3015.97 1225.36 3015.73 1224.57 3015.42 1224.08C3015.09 1223.58 3014.58 1223.33 3013.91 1223.33L3013.79 1223.33C3012.32 1223.35 3011.18 1223.79 3010.38 1224.67C3009.59 1225.55 3009.19 1226.81 3009.21 1228.45C3009.22 1230.18 3009.61 1231.55 3010.37 1232.56C3011.14 1233.55 3012.03 1234.22 3013.07 1234.56L3012.19 1241.17C3010.36 1240.66 3008.83 1239.82 3007.6 1238.63C3006.35 1237.44 3005.41 1235.99 3004.79 1234.26C3004.15 1232.54 3003.82 1230.63 3003.8 1228.53C3003.79 1227.09 3003.95 1225.65 3004.27 1224.22C3004.6 1222.78 3005.15 1221.47 3005.92 1220.28C3006.67 1219.09 3007.71 1218.13 3009.03 1217.4C3010.35 1216.66 3012.01 1216.28 3014 1216.27L3034.06 1216.09L3034.12 1222.89L3030 1222.92L3030.01 1223.16C3030.84 1223.58 3031.63 1224.18 3032.36 1224.95C3033.09 1225.71 3033.67 1226.68 3034.13 1227.84C3034.57 1229 3034.79 1230.35 3034.8 1231.92ZM3029.6 1230.13C3029.59 1228.71 3029.3 1227.48 3028.73 1226.45C3028.15 1225.41 3027.38 1224.62 3026.44 1224.06C3025.5 1223.5 3024.48 1223.22 3023.37 1223.23L3019.84 1223.26C3020.02 1223.48 3020.19 1223.86 3020.36 1224.39C3020.52 1224.91 3020.66 1225.49 3020.78 1226.14C3020.9 1226.79 3021.01 1227.44 3021.11 1228.07C3021.21 1228.71 3021.29 1229.26 3021.36 1229.73C3021.51 1230.78 3021.75 1231.72 3022.08 1232.55C3022.42 1233.38 3022.88 1234.04 3023.47 1234.51C3024.04 1234.99 3024.79 1235.22 3025.7 1235.21C3027 1235.2 3027.98 1234.72 3028.63 1233.76C3029.29 1232.81 3029.61 1231.6 3029.6 1230.13ZM3016.36 1200.55L3033.93 1200.4L3033.99 1207.46L3004.01 1207.72L3003.95 1200.97L3009.05 1200.92L3009.05 1200.57C3007.36 1199.9 3006.02 1198.81 3005.02 1197.31C3004.01 1195.8 3003.5 1193.92 3003.48 1191.68C3003.47 1189.61 3003.89 1187.81 3004.76 1186.26C3005.64 1184.71 3006.91 1183.5 3008.58 1182.64C3010.25 1181.77 3012.28 1181.33 3014.68 1181.32L3033.76 1181.16L3033.82 1188.22L3015.83 1188.38C3013.83 1188.39 3012.26 1188.93 3011.14 1189.98C3010.02 1191.01 3009.46 1192.44 3009.48 1194.27C3009.49 1195.5 3009.77 1196.6 3010.33 1197.56C3010.87 1198.5 3011.65 1199.24 3012.67 1199.78C3013.69 1200.31 3014.92 1200.56 3016.36 1200.55ZM3003.45 1142.36L3008.91 1142.32L3009.07 1160.04L3003.6 1160.08L3003.45 1142.36ZM3033.54 1155.4L3000.73 1155.68C2998.72 1155.69 2997.04 1155.29 2995.69 1154.47C2994.34 1153.64 2993.33 1152.51 2992.65 1151.1C2991.98 1149.69 2991.63 1148.12 2991.62 1146.39C2991.61 1145.16 2991.7 1144.08 2991.88 1143.13C2992.07 1142.17 2992.24 1141.47 2992.39 1141.01L2997.87 1142.37C2997.78 1142.67 2997.69 1143.05 2997.6 1143.51C2997.5 1143.96 2997.46 1144.47 2997.46 1145.03C2997.47 1146.34 2997.8 1147.27 2998.44 1147.81C2999.07 1148.34 2999.97 1148.6 3001.14 1148.59L3033.48 1148.31L3033.54 1155.4ZM3033.85 1123.09C3033.87 1126.02 3033.25 1128.56 3031.98 1130.72C3030.71 1132.88 3028.93 1134.56 3026.62 1135.76C3024.31 1136.95 3021.61 1137.56 3018.52 1137.59C3015.42 1137.61 3012.7 1137.05 3010.36 1135.9C3008.02 1134.74 3006.2 1133.09 3004.89 1130.95C3003.59 1128.82 3002.92 1126.29 3002.9 1123.36C3002.87 1120.43 3003.49 1117.89 3004.76 1115.73C3006.03 1113.57 3007.83 1111.9 3010.15 1110.71C3012.46 1109.5 3015.17 1108.89 3018.27 1108.86C3021.37 1108.83 3024.08 1109.4 3026.4 1110.57C3028.73 1111.72 3030.54 1113.36 3031.85 1115.5C3033.16 1117.63 3033.82 1120.16 3033.85 1123.09ZM3028.19 1123.1C3028.18 1121.51 3027.73 1120.19 3026.85 1119.13C3025.95 1118.07 3024.76 1117.29 3023.27 1116.78C3021.79 1116.26 3020.13 1116.01 3018.31 1116.02C3016.48 1116.04 3014.82 1116.32 3013.34 1116.87C3011.85 1117.4 3010.67 1118.2 3009.79 1119.28C3008.91 1120.35 3008.48 1121.68 3008.5 1123.27C3008.51 1124.9 3008.97 1126.25 3009.86 1127.32C3010.75 1128.38 3011.95 1129.17 3013.45 1129.69C3014.94 1130.2 3016.6 1130.44 3018.43 1130.43C3020.26 1130.41 3021.91 1130.14 3023.38 1129.6C3024.86 1129.06 3026.04 1128.25 3026.92 1127.17C3027.78 1126.08 3028.2 1124.73 3028.19 1123.1ZM3033.08 1101.21L3003.1 1101.47L3003.04 1094.62L3008.04 1094.57L3008.03 1094.26C3006.3 1093.73 3004.96 1092.81 3004.01 1091.49C3003.05 1090.15 3002.56 1088.63 3002.54 1086.91C3002.54 1086.52 3002.56 1086.09 3002.59 1085.6C3002.61 1085.11 3002.65 1084.7 3002.72 1084.37L3009.22 1084.32C3009.11 1084.62 3009.03 1085.09 3008.95 1085.74C3008.87 1086.38 3008.83 1087 3008.83 1087.6C3008.85 1088.89 3009.13 1090.04 3009.7 1091.07C3010.26 1092.08 3011.03 1092.87 3012.01 1093.45C3012.99 1094.02 3014.12 1094.31 3015.39 1094.3L3033.01 1094.14L3033.08 1101.21ZM3033.22 1049.65C3033.24 1052.58 3032.62 1055.12 3031.35 1057.28C3030.08 1059.44 3028.29 1061.12 3025.99 1062.32C3023.68 1063.51 3020.98 1064.12 3017.88 1064.15C3014.79 1064.18 3012.07 1063.61 3009.73 1062.46C3007.39 1061.3 3005.57 1059.65 3004.26 1057.51C3002.96 1055.38 3002.29 1052.85 3002.26 1049.92C3002.24 1046.99 3002.86 1044.45 3004.13 1042.29C3005.4 1040.13 3007.19 1038.46 3009.51 1037.27C3011.83 1036.06 3014.54 1035.45 3017.64 1035.42C3020.73 1035.4 3023.44 1035.96 3025.77 1037.13C3028.1 1038.28 3029.91 1039.92 3031.22 1042.06C3032.53 1044.19 3033.19 1046.73 3033.22 1049.65ZM3027.56 1049.66C3027.54 1048.08 3027.1 1046.75 3026.22 1045.69C3025.32 1044.63 3024.13 1043.85 3022.64 1043.34C3021.15 1042.82 3019.5 1042.57 3017.68 1042.59C3015.84 1042.6 3014.19 1042.88 3012.71 1043.43C3011.22 1043.96 3010.03 1044.77 3009.16 1045.84C3008.28 1046.91 3007.85 1048.25 3007.87 1049.83C3007.88 1051.46 3008.33 1052.81 3009.23 1053.88C3010.12 1054.94 3011.32 1055.73 3012.82 1056.25C3014.31 1056.76 3015.97 1057 3017.8 1056.99C3019.62 1056.97 3021.27 1056.7 3022.75 1056.16C3024.23 1055.62 3025.41 1054.81 3026.28 1053.73C3027.15 1052.65 3027.57 1051.29 3027.56 1049.66ZM3032.4 1022.44L3002.49 1031.17L3002.43 1023.97L3023.46 1018.52L3023.46 1018.25L3002.34 1013.04L3002.28 1005.92L3023.19 1000.35L3023.19 1000.06L3002.18 995.047L3002.12 987.826L3032.17 996.058L3032.23 1003.42L3012.02 1009.21L3012.03 1009.62L3032.33 1015.07L3032.4 1022.44ZM3014.42 974.195L3031.98 974.044L3032.04 981.109L3002.06 981.367L3002.01 974.614L3007.1 974.57L3007.1 974.219C3005.41 973.544 3004.07 972.456 3003.07 970.955C3002.07 969.441 3001.56 967.566 3001.54 965.328C3001.52 963.259 3001.95 961.453 3002.82 959.91C3003.69 958.354 3004.96 957.146 3006.63 956.286C3008.3 955.413 3010.33 954.973 3012.73 954.965L3031.82 954.801L3031.88 961.866L3013.88 962.021C3011.88 962.038 3010.32 962.572 3009.19 963.622C3008.07 964.66 3007.52 966.09 3007.53 967.911C3007.54 969.147 3007.82 970.244 3008.38 971.202C3008.92 972.147 3009.7 972.889 3010.72 973.427C3011.74 973.951 3012.97 974.207 3014.42 974.195ZM3032.21 932.816C3032.24 935.822 3031.64 938.423 3030.4 940.619C3029.16 942.803 3027.39 944.49 3025.1 945.681C3022.79 946.872 3020.07 947.481 3016.94 947.508C3013.85 947.534 3011.14 946.972 3008.8 945.821C3006.45 944.657 3004.62 943.021 3003.3 940.911C3001.97 938.802 3001.29 936.316 3001.26 933.453C3001.25 931.606 3001.53 929.86 3002.11 928.215C3002.69 926.558 3003.58 925.093 3004.81 923.82C3006.03 922.535 3007.6 921.519 3009.51 920.774C3011.4 920.029 3013.66 919.645 3016.29 919.623L3018.45 919.604L3018.67 944.175L3013.9 944.216L3013.75 926.417C3012.4 926.442 3011.2 926.745 3010.15 927.326C3009.09 927.908 3008.25 928.716 3007.65 929.749C3007.05 930.769 3006.75 931.955 3006.76 933.308C3006.78 934.753 3007.14 936.018 3007.85 937.105C3008.55 938.192 3009.47 939.036 3010.61 939.638C3011.73 940.227 3012.96 940.522 3014.3 940.524L3018.46 940.488C3020.2 940.473 3021.7 940.141 3022.94 939.493C3024.17 938.845 3025.11 937.945 3025.77 936.795C3026.41 935.644 3026.72 934.301 3026.71 932.766C3026.7 931.738 3026.55 930.809 3026.25 929.979C3025.95 929.149 3025.51 928.43 3024.93 927.824C3024.35 927.217 3023.64 926.761 3022.79 926.457L3023.47 919.854C3025.22 920.255 3026.75 921.036 3028.06 922.195C3029.36 923.342 3030.37 924.817 3031.1 926.619C3031.82 928.422 3032.19 930.487 3032.21 932.816ZM3031.45 911.988L3001.47 912.246L3001.41 905.396L3006.41 905.353L3006.4 905.041C3004.67 904.509 3003.33 903.584 3002.38 902.265C3001.42 900.933 3000.93 899.408 3000.92 897.691C3000.91 897.301 3000.93 896.864 3000.96 896.383C3000.98 895.888 3001.03 895.478 3001.09 895.152L3007.59 895.096C3007.49 895.396 3007.4 895.872 3007.33 896.523C3007.24 897.161 3007.2 897.78 3007.21 898.378C3007.22 899.666 3007.51 900.822 3008.07 901.845C3008.63 902.855 3009.4 903.649 3010.38 904.226C3011.36 904.803 3012.49 905.086 3013.76 905.075L3031.39 904.923L3031.45 911.988ZM3031.12 873.513L3001.14 873.771L3001.08 866.706L3031.05 866.448L3031.12 873.513ZM2996.85 870.256C2996.86 871.375 2996.5 872.341 2995.77 873.154C2995.02 873.967 2994.12 874.378 2993.06 874.387C2992 874.396 2991.09 874.001 2990.34 873.2C2989.58 872.4 2989.19 871.441 2989.18 870.322C2989.17 869.19 2989.54 868.224 2990.29 867.424C2991.03 866.611 2991.93 866.199 2992.99 866.19C2994.05 866.181 2994.95 866.577 2995.72 867.377C2996.46 868.164 2996.84 869.124 2996.85 870.256ZM3013.35 850.743L3030.92 850.592L3030.98 857.657L3001 857.915L3000.94 851.162L3006.04 851.118L3006.03 850.767C3004.35 850.092 3003.01 849.004 3002.01 847.503C3001 845.989 3000.49 844.114 3000.47 841.876C3000.46 839.807 3000.88 838.001 3001.75 836.458C3002.63 834.902 3003.9 833.694 3005.57 832.834C3007.24 831.961 3009.27 831.521 3011.67 831.513L3030.75 831.349L3030.81 838.414L3012.82 838.569C3010.82 838.586 3009.25 839.12 3008.13 840.17C3007.01 841.208 3006.45 842.638 3006.47 844.459C3006.48 845.695 3006.76 846.792 3007.32 847.75C3007.86 848.695 3008.64 849.437 3009.66 849.975C3010.68 850.499 3011.91 850.755 3013.35 850.743ZM3000.57 807.715L3006.03 807.668L3006.19 825.388L3000.72 825.435L3000.57 807.715ZM3030.66 820.747L2997.85 821.03C2995.84 821.047 2994.16 820.645 2992.81 819.824C2991.46 818.99 2990.45 817.866 2989.77 816.454C2989.1 815.041 2988.75 813.47 2988.74 811.74C2988.73 810.517 2988.82 809.429 2989 808.478C2989.19 807.526 2989.36 806.822 2989.51 806.366L2994.99 807.724C2994.9 808.024 2994.81 808.402 2994.72 808.858C2994.62 809.314 2994.58 809.822 2994.58 810.382C2994.59 811.696 2994.92 812.623 2995.56 813.164C2996.19 813.692 2997.09 813.951 2998.26 813.941L3030.6 813.663L3030.66 820.747ZM3030.97 788.443C3030.99 791.371 3030.37 793.913 3029.1 796.071C3027.83 798.229 3026.05 799.91 3023.74 801.114C3021.43 802.305 3018.73 802.914 3015.64 802.94C3012.54 802.967 3009.82 802.405 3007.48 801.254C3005.14 800.09 3003.32 798.44 3002.01 796.304C3000.71 794.169 3000.04 791.637 3000.02 788.71C2999.99 785.782 3000.61 783.24 3001.88 781.082C3003.15 778.924 3004.95 777.25 3007.27 776.058C3009.58 774.854 3012.29 774.239 3015.39 774.212C3018.49 774.186 3021.2 774.755 3023.52 775.919C3025.85 777.07 3027.66 778.713 3028.97 780.849C3030.28 782.984 3030.94 785.516 3030.97 788.443ZM3025.31 788.453C3025.3 786.866 3024.85 785.542 3023.97 784.483C3023.07 783.424 3021.88 782.64 3020.39 782.133C3018.91 781.612 3017.25 781.359 3015.43 781.375C3013.6 781.391 3011.94 781.672 3010.46 782.218C3008.97 782.751 3007.79 783.555 3006.91 784.63C3006.03 785.704 3005.6 787.035 3005.62 788.623C3005.63 790.249 3006.09 791.598 3006.98 792.67C3007.87 793.73 3009.07 794.52 3010.57 795.04C3012.06 795.548 3013.72 795.794 3015.55 795.778C3017.38 795.762 3019.03 795.488 3020.51 794.955C3021.98 794.409 3023.16 793.598 3024.04 792.524C3024.9 791.436 3025.32 790.079 3025.31 788.453Z" fill="#666666"/>
<path d="M2714.5 832.056C2665.47 775.375 2584.45 765.172 2533.5 809.213L2336.84 991.105V1360.55L2711.01 1014.41C2761.96 970.368 2763.54 888.737 2714.5 832.056Z" fill="#FDCF87"/>
<path d="M2366.07 964.124V1333.64L2444.99 1260.56V891.117L2366.07 964.124Z" fill="#FF9D25"/>
<path d="M324.479 2190.56L400.695 2150.73C473.094 2112.94 527.328 2047.77 551.417 1969.76L681.933 1547.25C693.977 1508.35 711.814 1471.55 734.916 1438.04L1019.38 1025.34C1060.18 966.159 1115.54 919.814 1179.12 889.992V2185.62H1195.77V2763.03H1210.51C1214.46 2788.37 1231.24 2810.1 1253.75 2821.22C1267.44 2833.21 1285.15 2840.58 1304.17 2840.58C1305.22 2840.58 1306.34 2840.45 1307.39 2840.38L887.546 3106.93L324.479 2190.56Z" fill="#FDCF87"/>
<path d="M2254.57 2383.97C2262.99 2400.16 2275.63 2413.72 2290.9 2423.73V2396.02C2278 2394.04 2265.76 2389.96 2254.57 2383.97Z" fill="#E5E4E3"/>
<path d="M-992 3129.64L308.946 2157.77C679.498 2454.93 923.746 3169.13 923.746 3169.13C895.905 3227.86 88.5237 3997.23 -142.1 4198.74H-992V3129.64Z" fill="#9B640E"/>
<path d="M1741.92 919.295C1738.5 885.721 1712.1 859.915 1679.85 856.031C1679.92 856.492 1680.05 856.953 1680.05 857.48C1681.24 864.26 1682.09 870.777 1682.62 877.097C1689.4 959.847 1639.77 1007.31 1568.16 1046.02C1556.12 1052.54 1543.41 1058.79 1530.32 1064.91C1509.91 1074.46 1488.52 1083.74 1466.54 1093.16C1454.89 1098.16 1443.04 1103.23 1431.2 1108.43C1399.87 1122.12 1368.27 1136.6 1337.93 1153.33C1295.68 1176.56 1256.06 1204.02 1223.54 1239.1V1401.31C1252.3 1323.04 1307.79 1270.9 1372.29 1231.14C1380.98 1225.81 1389.8 1220.61 1398.75 1215.67C1428.04 1199.47 1458.58 1185.39 1488.92 1172.09C1495.43 1169.26 1501.88 1166.43 1508.4 1163.6C1575.4 1134.7 1639.57 1108.76 1684.2 1072.81C1697.56 1062.02 1709.14 1050.3 1718.55 1037.33C1740.8 1006.59 1750.67 968.866 1741.92 919.295Z" fill="#E5E4E3"/>
<path d="M1282.47 486.864L2254.05 472.213C2270.61 471.964 2287.06 474.978 2302.45 481.086C2317.85 487.193 2331.89 496.273 2343.78 507.808C2355.67 519.343 2365.17 533.106 2371.74 548.312C2378.31 563.518 2381.82 579.869 2382.07 596.431L2414.74 2762.96C2415.24 2796.41 2402.44 2828.69 2379.14 2852.7C2355.85 2876.7 2323.97 2890.48 2290.52 2890.98L1318.94 2905.63C1285.49 2906.14 1253.21 2893.33 1229.2 2870.04C1205.19 2846.74 1191.42 2814.86 1190.92 2781.41L1158.25 614.885C1158 598.323 1161.01 581.874 1167.12 566.476C1173.23 551.079 1182.31 537.036 1193.84 525.148C1205.38 513.26 1219.14 503.761 1234.35 497.192C1249.55 490.623 1265.9 487.114 1282.47 486.864Z" fill="#825B2C"/>
<path d="M1207.47 583.109L2331.59 566.159L2362.72 2630.44L1238.6 2647.39L1207.47 583.109Z" fill="#F7F4F0"/>
<path d="M1906.57 2819.11L1700.57 2822.22C1688.55 2822.4 1676.95 2817.8 1668.32 2809.42C1659.69 2801.05 1654.74 2789.6 1654.56 2777.58C1654.38 2765.56 1658.98 2753.96 1667.35 2745.33C1675.72 2736.7 1687.18 2731.76 1699.2 2731.57L1905.2 2728.47C1917.22 2728.29 1928.82 2732.89 1937.44 2741.26C1946.07 2749.63 1951.02 2761.09 1951.2 2773.11C1951.38 2785.12 1946.78 2796.72 1938.41 2805.35C1930.04 2813.98 1918.59 2818.93 1906.57 2819.11Z" fill="#AB8B5A"/>
<path d="M1467.63 1370.15L1438.31 1370.59L1435.53 1186.16L1619.92 1183.38L1620.36 1212.71L1465.29 1215.04L1467.63 1370.15Z" fill="#7F715C"/>
<path d="M2127.16 1360.22L2097.89 1360.66L2095.55 1205.55L1940.48 1207.89L1940.04 1178.57L2124.37 1175.79L2127.16 1360.22Z" fill="#7F715C"/>
<path d="M2134.77 1864.86L1950.44 1867.64L1949.99 1838.31L2105.06 1835.98L2102.73 1680.87L2132.04 1680.43L2134.77 1864.86Z" fill="#7F715C"/>
<path d="M1630.31 1872.45L1445.93 1875.23L1443.14 1690.8L1472.46 1690.36L1474.8 1845.47L1629.87 1843.13L1630.31 1872.45Z" fill="#7F715C"/>
<path d="M1706.89 1449.5L1515.3 1452.39L1512.41 1260.76L1704.01 1257.87L1706.89 1449.5ZM1544.17 1422.63L1677.14 1420.62L1675.13 1287.63L1542.17 1289.64L1544.17 1422.63Z" fill="#7F715C"/>
<path d="M1656.27 1400.39L1564.42 1401.78L1563.04 1309.91L1654.88 1308.53L1656.27 1400.39ZM1593.3 1372.02L1626.51 1371.51L1626.01 1338.29L1592.8 1338.79L1593.3 1372.02Z" fill="#7F715C"/>
<path d="M1712.1 1795.46L1520.5 1798.35L1517.61 1606.71L1709.21 1603.82L1712.1 1795.46ZM1549.38 1768.58L1682.34 1766.58L1680.34 1633.59L1547.37 1635.59L1549.38 1768.58Z" fill="#7F715C"/>
<path d="M1661.48 1746.31L1569.63 1747.69L1568.25 1655.83L1660.09 1654.44L1661.48 1746.31ZM1598.51 1717.93L1631.72 1717.43L1631.22 1684.21L1598.01 1684.71L1598.51 1717.93Z" fill="#7F715C"/>
<path d="M2052.74 1444.29L1861.14 1447.18L1858.25 1255.55L2049.85 1252.66L2052.74 1444.29ZM1890.02 1417.42L2022.98 1415.41L2020.98 1282.42L1888.01 1284.43L1890.02 1417.42Z" fill="#7F715C"/>
<path d="M2002.13 1395.18L1910.28 1396.57L1908.9 1304.7L2000.74 1303.32L2002.13 1395.18ZM1939.15 1366.8L1972.37 1366.3L1971.87 1333.08L1938.65 1333.58L1939.15 1366.8Z" fill="#7F715C"/>
<path d="M1738.4 1257.35L1825.44 1256.04L1825.88 1285.36L1738.84 1286.67L1738.4 1257.35Z" fill="#7F715C"/>
<path d="M1802.54 1320.98L1831.86 1320.54L1833.38 1421.75L1804.07 1422.2L1802.54 1320.98Z" fill="#7F715C"/>
<path d="M1758.56 1369.5L1817.94 1368.6L1818.39 1397.93L1759.01 1398.82L1758.56 1369.5Z" fill="#7F715C"/>
<path d="M1739.16 1307.24L1769.49 1306.78L1769.93 1336.11L1739.6 1336.56L1739.16 1307.24Z" fill="#7F715C"/>
<path d="M1658.18 1527.4L1628.87 1527.84L1628.13 1478.76L1742.24 1477.04L1741.51 1428.38L1770.82 1427.94L1772 1505.92L1657.89 1507.64L1658.18 1527.4Z" fill="#7F715C"/>
<path d="M1515.7 1479.27L1545.02 1478.82L1546.41 1571.17L1517.09 1571.61L1515.7 1479.27Z" fill="#7F715C"/>
<path d="M1701.44 1583.53L1567.19 1585.56L1566.02 1507.58L1595.33 1507.14L1596.07 1555.79L1700.99 1554.21L1701.44 1583.53Z" fill="#7F715C"/>
<path d="M1733.61 1553.72L1829.89 1552.27L1830.33 1581.59L1734.05 1583.04L1733.61 1553.72Z" fill="#7F715C"/>
<path d="M1813.57 1691.36L1745.49 1692.39L1744.23 1609.12L1773.55 1608.68L1774.36 1662.63L1813.13 1662.04L1813.57 1691.36Z" fill="#7F715C"/>
<path d="M1880.25 1728.33L1850.93 1728.77L1849.56 1638.03L1806.15 1638.68L1805.71 1609.36L1878.44 1608.26L1880.25 1728.33Z" fill="#7F715C"/>
<path d="M1823.19 1793.77L1746.5 1794.92L1746.06 1765.6L1793.43 1764.89L1792.9 1729.64L1822.21 1729.2L1823.19 1793.77Z" fill="#7F715C"/>
<path d="M1935.26 1792.09L1866.54 1793.13L1866.1 1763.81L1905.51 1763.21L1904.28 1682.03L1979.63 1680.89L1980.07 1710.22L1934.04 1710.91L1935.26 1792.09Z" fill="#7F715C"/>
<path d="M1960.32 1721.79L1989.64 1721.35L1990.69 1791.26L1961.38 1791.7L1960.32 1721.79Z" fill="#7F715C"/>
<path d="M2057.97 1790.23L2028.66 1790.67L2026.67 1659.12L1955.33 1660.2L1954.89 1630.88L2055.55 1629.36L2057.97 1790.23Z" fill="#7F715C"/>
<path d="M2023.86 1472.98L2053.18 1472.54L2055.16 1604.41L2025.85 1604.85L2023.86 1472.98Z" fill="#7F715C"/>
<path d="M1920.7 1577.28L1999.51 1576.09L1999.96 1605.41L1921.14 1606.6L1920.7 1577.28Z" fill="#7F715C"/>
<path d="M1907.63 1631.59L1928.46 1631.27L1928.9 1660.59L1908.07 1660.91L1907.63 1631.59Z" fill="#7F715C"/>
<path d="M1862.9 1551.78L1891.89 1551.34L1892.33 1580.67L1863.34 1581.1L1862.9 1551.78Z" fill="#7F715C"/>
<path d="M2004.39 1544.51L1975.07 1544.95L1974.32 1494.96L1926.42 1495.68L1925.97 1466.36L2003.19 1465.2L2004.39 1544.51Z" fill="#7F715C"/>
<path d="M1916.36 1519.28L1945.19 1518.85L1945.64 1548.17L1916.8 1548.6L1916.36 1519.28Z" fill="#7F715C"/>
<path d="M1856.34 1467.41L1905.14 1466.67L1905.59 1495.99L1856.78 1496.73L1856.34 1467.41Z" fill="#7F715C"/>
<path d="M1804.64 1460.45L1833.95 1460L1834.93 1524.79L1805.61 1525.23L1804.64 1460.45Z" fill="#7F715C"/>
<path d="M1142.12 909.725C1223.54 844.289 1603.31 793.862 1603.31 793.862C1641.94 790.57 1676.03 818.878 1679.98 857.455C1729.21 1135.86 1192.41 1042.97 1144.03 1411.82L1140.48 910.713C1141.07 910.384 1141.66 910.12 1142.12 909.725ZM2586.16 2245.78C2595.63 2304.23 2553.64 2359.73 2492.3 2369.67L2327.56 2395.94C2266.28 2405.88 2208.89 2366.51 2199.41 2308.05C2189.94 2249.59 2231.93 2194.1 2293.27 2184.16L2458.01 2157.89C2519.29 2147.88 2576.68 2187.25 2586.16 2245.78Z" fill="#FDCF87"/>
<path d="M959.615 832.315C960.668 825.008 961.26 817.569 961.26 809.932C961.26 714.74 875.698 637.256 770.588 637.256C757.161 637.256 743.603 638.573 730.176 641.272C701.545 603.156 660.212 574.058 611.968 558.456C586.365 550.03 559.051 545.816 530.881 545.816C461.839 545.816 395.955 572.676 350.278 619.416C322.24 648.053 303.416 682.088 294.86 719.151C288.476 718.361 282.026 717.966 275.444 717.966C201.531 717.966 140.255 767.8 130.58 832.249H959.615V832.315ZM311.643 1081.09C312.367 1076.15 312.762 1071.22 312.762 1066.08C312.762 1002.29 255.435 950.351 184.945 950.351C175.928 950.351 166.845 951.272 157.828 953.05C138.609 927.507 110.966 908.021 78.6498 897.554C61.4714 891.892 43.1743 889.062 24.2847 889.062C-21.9849 889.062 -66.0826 907.034 -96.7534 938.37C-115.511 957.526 -128.148 980.37 -133.94 1005.19C-138.218 1004.66 -142.562 1004.4 -146.972 1004.4C-196.533 1004.4 -237.537 1037.78 -244.053 1081.03H311.643V1081.09Z" fill="#EDEDED"/>
<path d="M2679.69 2007.6C2689.16 2066.06 2647.17 2121.55 2585.83 2131.49L2343.49 2170.4C2282.22 2180.34 2224.82 2140.97 2215.34 2082.52C2205.87 2024.06 2247.86 1968.56 2309.2 1958.62L2551.54 1919.71C2612.88 1909.77 2670.21 1949.08 2679.69 2007.6ZM2629.01 1792.73C2638.48 1851.18 2596.49 1906.68 2535.15 1916.62L2292.81 1955.53C2231.54 1965.47 2174.14 1926.1 2164.67 1867.64C2155.19 1809.18 2197.18 1753.69 2258.52 1743.75L2500.86 1704.84C2562.14 1694.9 2619.53 1734.27 2629.01 1792.73Z" fill="#FDCF87"/>
<path d="M1467.03 1925.6L1467.12 1931.67L1447.44 1931.95L1447.36 1925.88L1467.03 1925.6ZM1452.74 1959.1L1452.23 1922.67C1452.2 1920.43 1452.64 1918.56 1453.54 1917.06C1454.46 1915.56 1455.7 1914.43 1457.26 1913.67C1458.83 1912.91 1460.57 1912.52 1462.49 1912.49C1463.85 1912.47 1465.06 1912.56 1466.12 1912.76C1467.17 1912.96 1467.96 1913.15 1468.46 1913.31L1466.99 1919.4C1466.66 1919.31 1466.23 1919.21 1465.73 1919.12C1465.22 1919.01 1464.66 1918.96 1464.04 1918.97C1462.58 1918.99 1461.55 1919.36 1460.95 1920.07C1460.37 1920.78 1460.09 1921.78 1460.1 1923.08L1460.61 1958.98L1452.74 1959.1ZM1475.34 1958.78L1474.87 1925.49L1482.72 1925.38L1483.18 1958.67L1475.34 1958.78ZM1478.75 1920.71C1477.51 1920.73 1476.43 1920.33 1475.52 1919.52C1474.62 1918.7 1474.15 1917.7 1474.14 1916.53C1474.12 1915.34 1474.56 1914.33 1475.44 1913.5C1476.32 1912.65 1477.39 1912.21 1478.63 1912.2C1479.89 1912.18 1480.96 1912.58 1481.85 1913.41C1482.76 1914.22 1483.22 1915.22 1483.24 1916.4C1483.26 1917.57 1482.82 1918.58 1481.94 1919.43C1481.07 1920.27 1480.01 1920.69 1478.75 1920.71ZM1500.52 1938.92L1500.79 1958.42L1492.95 1958.53L1492.48 1925.24L1499.98 1925.14L1500.05 1930.79L1500.44 1930.79C1501.18 1928.91 1502.38 1927.42 1504.04 1926.3C1505.72 1925.17 1507.8 1924.6 1510.28 1924.56C1512.58 1924.53 1514.59 1924.99 1516.31 1925.95C1518.04 1926.91 1519.39 1928.31 1520.35 1930.16C1521.33 1932.01 1521.84 1934.27 1521.86 1936.92L1522.16 1958.12L1514.31 1958.23L1514.03 1938.25C1514 1936.02 1513.4 1934.29 1512.22 1933.05C1511.07 1931.81 1509.47 1931.2 1507.45 1931.23C1506.08 1931.25 1504.86 1931.57 1503.8 1932.19C1502.76 1932.8 1501.94 1933.67 1501.35 1934.81C1500.77 1935.94 1500.49 1937.31 1500.52 1938.92ZM1544.19 1958.39C1541.57 1958.43 1539.22 1957.79 1537.14 1956.48C1535.05 1955.16 1533.39 1953.23 1532.16 1950.69C1530.92 1948.15 1530.28 1945.06 1530.23 1941.4C1530.18 1937.7 1530.74 1934.57 1531.92 1932.01C1533.11 1929.44 1534.74 1927.49 1536.8 1926.16C1538.86 1924.82 1541.17 1924.13 1543.73 1924.09C1545.68 1924.06 1547.28 1924.37 1548.55 1925.02C1549.82 1925.65 1550.82 1926.42 1551.57 1927.34C1552.32 1928.24 1552.91 1929.09 1553.32 1929.89L1553.65 1929.89L1553.41 1913.29L1561.28 1913.18L1561.9 1957.56L1554.19 1957.67L1554.12 1952.42L1553.64 1952.43C1553.25 1953.24 1552.67 1954.11 1551.92 1955.03C1551.17 1955.94 1550.17 1956.72 1548.92 1957.37C1547.67 1958.03 1546.09 1958.37 1544.19 1958.39ZM1546.28 1951.93C1547.95 1951.9 1549.36 1951.43 1550.51 1950.52C1551.67 1949.6 1552.54 1948.32 1553.13 1946.69C1553.71 1945.07 1553.99 1943.18 1553.96 1941.02C1553.93 1938.87 1553.6 1937.01 1552.97 1935.42C1552.35 1933.84 1551.45 1932.62 1550.27 1931.76C1549.1 1930.89 1547.67 1930.47 1545.98 1930.49C1544.23 1930.52 1542.78 1930.99 1541.62 1931.92C1540.47 1932.85 1539.6 1934.12 1539.03 1935.73C1538.46 1937.34 1538.19 1939.18 1538.22 1941.25C1538.25 1943.33 1538.57 1945.18 1539.19 1946.8C1539.82 1948.41 1540.73 1949.68 1541.91 1950.6C1543.11 1951.51 1544.57 1951.95 1546.28 1951.93ZM1571.96 1957.42L1571.49 1924.13L1578.99 1924.03L1579.07 1929.68L1579.46 1929.68C1580.12 1927.76 1581.25 1926.26 1582.84 1925.16C1584.43 1924.06 1586.33 1923.49 1588.56 1923.46C1590.81 1923.43 1592.72 1923.95 1594.28 1925.02C1595.86 1926.09 1596.98 1927.55 1597.64 1929.42L1597.99 1929.42C1598.7 1927.56 1599.92 1926.07 1601.65 1924.94C1603.4 1923.81 1605.48 1923.22 1607.89 1923.19C1610.95 1923.14 1613.46 1924.08 1615.43 1925.98C1617.39 1927.89 1618.4 1930.7 1618.45 1934.42L1618.77 1956.76L1610.9 1956.87L1610.6 1935.74C1610.57 1933.67 1610 1932.17 1608.89 1931.23C1607.78 1930.28 1606.43 1929.82 1604.84 1929.84C1602.95 1929.87 1601.48 1930.48 1600.42 1931.68C1599.38 1932.86 1598.88 1934.4 1598.91 1936.27L1599.2 1957.03L1591.5 1957.14L1591.2 1935.69C1591.18 1933.97 1590.64 1932.6 1589.58 1931.59C1588.54 1930.58 1587.19 1930.09 1585.53 1930.11C1584.41 1930.13 1583.38 1930.43 1582.47 1931.02C1581.55 1931.6 1580.83 1932.41 1580.29 1933.46C1579.76 1934.49 1579.5 1935.69 1579.52 1937.07L1579.8 1957.31L1571.96 1957.42ZM1632.28 1969.05C1631.21 1969.07 1630.22 1968.99 1629.31 1968.83C1628.41 1968.69 1627.69 1968.51 1627.15 1968.3L1628.89 1962.16C1630.03 1962.48 1631.05 1962.62 1631.95 1962.6C1632.84 1962.57 1633.63 1962.28 1634.3 1961.72C1634.99 1961.17 1635.56 1960.27 1636.02 1959.01L1636.66 1957.2L1624.11 1923.39L1632.44 1923.27L1640.46 1948.3L1640.81 1948.3L1648.15 1923.05L1656.49 1922.94L1643.69 1960.44C1643.09 1962.21 1642.29 1963.73 1641.28 1965C1640.27 1966.29 1639.03 1967.27 1637.55 1967.96C1636.09 1968.66 1634.33 1969.02 1632.28 1969.05ZM1664.26 1968.6L1663.61 1922.83L1671.33 1922.73L1671.4 1928.23L1671.86 1928.22C1672.25 1927.41 1672.81 1926.54 1673.54 1925.62C1674.26 1924.69 1675.24 1923.88 1676.49 1923.22C1677.74 1922.53 1679.34 1922.18 1681.29 1922.15C1683.86 1922.12 1686.19 1922.74 1688.27 1924.03C1690.37 1925.3 1692.05 1927.2 1693.3 1929.74C1694.56 1932.27 1695.22 1935.38 1695.27 1939.08C1695.32 1942.73 1694.76 1945.85 1693.6 1948.42C1692.44 1951 1690.83 1952.97 1688.79 1954.34C1686.74 1955.71 1684.41 1956.42 1681.79 1956.46C1679.89 1956.48 1678.3 1956.19 1677.03 1955.57C1675.77 1954.95 1674.75 1954.2 1673.97 1953.31C1673.2 1952.41 1672.61 1951.56 1672.18 1950.76L1671.85 1950.77L1672.1 1968.49L1664.26 1968.6ZM1671.54 1939.37C1671.57 1941.52 1671.9 1943.4 1672.53 1945.01C1673.17 1946.62 1674.08 1947.87 1675.25 1948.77C1676.43 1949.65 1677.85 1950.07 1679.51 1950.05C1681.25 1950.03 1682.69 1949.54 1683.85 1948.6C1685.01 1947.65 1685.87 1946.36 1686.44 1944.73C1687.02 1943.09 1687.3 1941.23 1687.27 1939.15C1687.24 1937.08 1686.92 1935.25 1686.31 1933.66C1685.69 1932.06 1684.79 1930.82 1683.61 1929.92C1682.43 1929.03 1680.96 1928.59 1679.21 1928.62C1677.54 1928.64 1676.12 1929.1 1674.96 1930C1673.8 1930.9 1672.93 1932.15 1672.35 1933.74C1671.78 1935.34 1671.51 1937.22 1671.54 1939.37ZM1718.66 1956C1715.32 1956.05 1712.43 1955.4 1709.98 1954.04C1707.55 1952.68 1705.67 1950.72 1704.33 1948.18C1703 1945.63 1702.3 1942.61 1702.25 1939.13C1702.21 1935.71 1702.81 1932.69 1704.08 1930.09C1705.35 1927.47 1707.16 1925.42 1709.5 1923.94C1711.83 1922.45 1714.59 1921.68 1717.76 1921.64C1719.82 1921.61 1721.76 1921.91 1723.59 1922.55C1725.43 1923.18 1727.06 1924.17 1728.48 1925.52C1729.92 1926.87 1731.05 1928.6 1731.89 1930.72C1732.73 1932.81 1733.17 1935.32 1733.21 1938.24L1733.25 1940.65L1705.96 1941.03L1705.89 1935.74L1725.65 1935.46C1725.62 1933.96 1725.27 1932.63 1724.62 1931.47C1723.97 1930.29 1723.07 1929.37 1721.92 1928.71C1720.78 1928.05 1719.46 1927.73 1717.96 1927.75C1716.36 1927.77 1714.95 1928.18 1713.75 1928.98C1712.55 1929.76 1711.61 1930.79 1710.95 1932.05C1710.31 1933.3 1709.99 1934.67 1709.99 1936.16L1710.06 1940.78C1710.08 1942.71 1710.46 1944.37 1711.19 1945.75C1711.92 1947.11 1712.92 1948.15 1714.2 1948.87C1715.48 1949.57 1716.98 1949.91 1718.68 1949.89C1719.82 1949.87 1720.85 1949.7 1721.77 1949.37C1722.69 1949.02 1723.49 1948.53 1724.16 1947.88C1724.83 1947.24 1725.33 1946.44 1725.66 1945.5L1733 1946.22C1732.57 1948.16 1731.71 1949.86 1730.43 1951.33C1729.16 1952.78 1727.53 1953.91 1725.53 1954.73C1723.54 1955.54 1721.25 1955.96 1718.66 1956ZM1757.93 1921.51L1758.02 1927.57L1738.89 1927.84L1738.8 1921.78L1757.93 1921.51ZM1743.41 1913.74L1751.26 1913.62L1751.7 1944.87C1751.71 1945.93 1751.88 1946.73 1752.21 1947.29C1752.55 1947.84 1752.99 1948.21 1753.52 1948.4C1754.06 1948.6 1754.65 1948.69 1755.3 1948.68C1755.8 1948.67 1756.24 1948.63 1756.65 1948.55C1757.06 1948.47 1757.38 1948.4 1757.6 1948.34L1759.01 1954.46C1758.59 1954.61 1757.99 1954.78 1757.21 1954.96C1756.45 1955.14 1755.51 1955.26 1754.4 1955.3C1752.44 1955.39 1750.66 1955.12 1749.08 1954.49C1747.5 1953.85 1746.23 1952.84 1745.29 1951.47C1744.36 1950.09 1743.89 1948.36 1743.87 1946.28L1743.41 1913.74ZM1771.5 1955.08C1770.18 1955.1 1769.05 1954.66 1768.1 1953.74C1767.15 1952.83 1766.67 1951.71 1766.66 1950.38C1766.63 1949.08 1767.08 1947.96 1768 1947.03C1768.93 1946.09 1770.05 1945.61 1771.36 1945.59C1772.64 1945.57 1773.75 1946.02 1774.7 1946.93C1775.67 1947.84 1776.17 1948.95 1776.2 1950.25C1776.2 1951.13 1775.98 1951.94 1775.54 1952.66C1775.12 1953.39 1774.55 1953.98 1773.83 1954.42C1773.13 1954.85 1772.35 1955.07 1771.5 1955.08ZM1786.05 1954.4L1785.58 1921.12L1793.43 1921.01L1793.9 1954.29L1786.05 1954.4ZM1789.46 1916.34C1788.22 1916.36 1787.14 1915.96 1786.24 1915.15C1785.33 1914.32 1784.87 1913.32 1784.85 1912.15C1784.83 1910.97 1785.27 1909.96 1786.15 1909.12C1787.04 1908.27 1788.1 1907.84 1789.34 1907.82C1790.6 1907.8 1791.67 1908.21 1792.57 1909.03C1793.47 1909.84 1793.94 1910.84 1793.95 1912.03C1793.97 1913.2 1793.54 1914.21 1792.65 1915.06C1791.78 1915.89 1790.72 1916.32 1789.46 1916.34ZM1811.23 1934.54L1811.5 1954.04L1803.66 1954.15L1803.19 1920.87L1810.69 1920.76L1810.77 1926.42L1811.16 1926.41C1811.9 1924.54 1813.1 1923.04 1814.76 1921.92C1816.43 1920.8 1818.51 1920.22 1821 1920.19C1823.29 1920.15 1825.3 1920.62 1827.02 1921.57C1828.75 1922.53 1830.1 1923.94 1831.07 1925.79C1832.05 1927.64 1832.55 1929.89 1832.57 1932.55L1832.87 1953.74L1825.03 1953.85L1824.74 1933.87C1824.71 1931.65 1824.11 1929.92 1822.94 1928.68C1821.78 1927.44 1820.19 1926.83 1818.16 1926.86C1816.79 1926.88 1815.58 1927.2 1814.52 1927.82C1813.47 1928.43 1812.65 1929.3 1812.06 1930.43C1811.48 1931.57 1811.21 1932.94 1811.23 1934.54ZM1860 1906.89L1846.45 1960.23L1839.58 1960.32L1853.13 1906.99L1860 1906.89ZM1867.53 1965.74L1866.89 1919.97L1874.6 1919.86L1874.68 1925.37L1875.13 1925.36C1875.53 1924.55 1876.09 1923.68 1876.81 1922.76C1877.53 1921.82 1878.52 1921.02 1879.77 1920.35C1881.02 1919.67 1882.61 1919.32 1884.56 1919.29C1887.14 1919.25 1889.46 1919.88 1891.55 1921.16C1893.65 1922.44 1895.32 1924.34 1896.57 1926.88C1897.83 1929.41 1898.49 1932.52 1898.54 1936.22C1898.6 1939.87 1898.04 1942.99 1896.88 1945.56C1895.71 1948.13 1894.11 1950.11 1892.06 1951.48C1890.01 1952.85 1887.68 1953.56 1885.07 1953.59C1883.16 1953.62 1881.58 1953.32 1880.31 1952.71C1879.04 1952.09 1878.02 1951.34 1877.24 1950.45C1876.48 1949.55 1875.88 1948.7 1875.45 1947.9L1875.13 1947.9L1875.38 1965.63L1867.53 1965.74ZM1874.81 1936.51C1874.85 1938.66 1875.18 1940.54 1875.8 1942.15C1876.45 1943.76 1877.35 1945.01 1878.52 1945.9C1879.71 1946.78 1881.13 1947.21 1882.79 1947.19C1884.52 1947.16 1885.97 1946.68 1887.13 1945.74C1888.28 1944.78 1889.15 1943.49 1889.72 1941.87C1890.3 1940.23 1890.58 1938.37 1890.55 1936.29C1890.52 1934.22 1890.2 1932.39 1889.58 1930.79C1888.97 1929.2 1888.07 1927.95 1886.88 1927.06C1885.7 1926.17 1884.24 1925.73 1882.49 1925.76C1880.81 1925.78 1879.4 1926.24 1878.24 1927.14C1877.08 1928.04 1876.21 1929.28 1875.62 1930.88C1875.05 1932.48 1874.78 1934.35 1874.81 1936.51ZM1923.34 1919.18L1923.43 1925.25L1904.29 1925.51L1904.21 1919.45L1923.34 1919.18ZM1908.82 1911.41L1916.66 1911.3L1917.1 1942.54C1917.12 1943.6 1917.29 1944.41 1917.62 1944.96C1917.96 1945.51 1918.39 1945.88 1918.93 1946.07C1919.47 1946.27 1920.06 1946.36 1920.71 1946.35C1921.2 1946.34 1921.65 1946.3 1922.05 1946.22C1922.47 1946.15 1922.79 1946.08 1923.01 1946.02L1924.41 1952.13C1924 1952.28 1923.4 1952.45 1922.62 1952.63C1921.86 1952.82 1920.92 1952.93 1919.81 1952.97C1917.84 1953.06 1916.07 1952.79 1914.49 1952.16C1912.9 1951.52 1911.64 1950.51 1910.69 1949.14C1909.77 1947.76 1909.29 1946.03 1909.28 1943.95L1908.82 1911.41ZM1949.53 1905.63L1935.97 1958.97L1929.11 1959.06L1942.66 1905.73L1949.53 1905.63ZM1957.06 1964.48L1956.42 1918.71L1964.13 1918.6L1964.21 1924.11L1964.66 1924.1C1965.06 1923.29 1965.61 1922.42 1966.34 1921.5C1967.06 1920.56 1968.05 1919.76 1969.29 1919.09C1970.54 1918.41 1972.14 1918.06 1974.09 1918.03C1976.66 1917.99 1978.99 1918.62 1981.08 1919.9C1983.17 1921.17 1984.85 1923.08 1986.1 1925.62C1987.36 1928.15 1988.02 1931.26 1988.07 1934.96C1988.12 1938.61 1987.57 1941.72 1986.4 1944.3C1985.24 1946.87 1983.64 1948.85 1981.59 1950.22C1979.54 1951.59 1977.21 1952.3 1974.6 1952.33C1972.69 1952.36 1971.1 1952.06 1969.84 1951.45C1968.57 1950.83 1967.55 1950.08 1966.77 1949.19C1966.01 1948.29 1965.41 1947.44 1964.98 1946.64L1964.65 1946.64L1964.9 1964.37L1957.06 1964.48ZM1964.34 1935.25C1964.37 1937.4 1964.7 1939.28 1965.33 1940.89C1965.98 1942.5 1966.88 1943.75 1968.05 1944.64C1969.23 1945.52 1970.66 1945.95 1972.32 1945.93C1974.05 1945.9 1975.5 1945.42 1976.65 1944.48C1977.81 1943.52 1978.67 1942.23 1979.24 1940.61C1979.83 1938.97 1980.1 1937.11 1980.07 1935.02C1980.05 1932.96 1979.72 1931.13 1979.11 1929.53C1978.49 1927.94 1977.59 1926.69 1976.41 1925.8C1975.23 1924.91 1973.76 1924.47 1972.02 1924.5C1970.34 1924.52 1968.92 1924.98 1967.76 1925.88C1966.61 1926.78 1965.74 1928.02 1965.15 1929.62C1964.58 1931.22 1964.31 1933.09 1964.34 1935.25ZM2011.46 1951.88C2008.13 1951.93 2005.23 1951.27 2002.79 1949.92C2000.35 1948.55 1998.47 1946.6 1997.13 1944.06C1995.8 1941.51 1995.1 1938.49 1995.06 1935.01C1995.01 1931.59 1995.62 1928.57 1996.88 1925.97C1998.16 1923.35 1999.96 1921.3 2002.3 1919.82C2004.63 1918.33 2007.39 1917.56 2010.57 1917.52C2012.62 1917.49 2014.56 1917.79 2016.39 1918.43C2018.23 1919.06 2019.86 1920.04 2021.28 1921.4C2022.72 1922.75 2023.86 1924.48 2024.7 1926.59C2025.53 1928.69 2025.97 1931.2 2026.02 1934.12L2026.05 1936.52L1998.77 1936.91L1998.69 1931.62L2018.46 1931.34C2018.42 1929.84 2018.08 1928.51 2017.42 1927.35C2016.77 1926.17 2015.87 1925.25 2014.72 1924.59C2013.58 1923.93 2012.26 1923.6 2010.76 1923.63C2009.16 1923.65 2007.75 1924.06 2006.55 1924.86C2005.35 1925.64 2004.42 1926.66 2003.76 1927.93C2003.11 1929.18 2002.79 1930.55 2002.8 1932.04L2002.86 1936.65C2002.89 1938.59 2003.26 1940.25 2003.99 1941.62C2004.72 1942.99 2005.72 1944.03 2007.01 1944.75C2008.29 1945.45 2009.78 1945.79 2011.48 1945.77C2012.63 1945.75 2013.66 1945.58 2014.58 1945.25C2015.5 1944.9 2016.29 1944.41 2016.96 1943.76C2017.63 1943.12 2018.13 1942.32 2018.47 1941.38L2025.8 1942.1C2025.37 1944.04 2024.51 1945.74 2023.23 1947.2C2021.96 1948.65 2020.33 1949.79 2018.34 1950.61C2016.34 1951.42 2014.05 1951.84 2011.46 1951.88ZM2050.74 1917.38L2050.82 1923.45L2031.69 1923.72L2031.6 1917.65L2050.74 1917.38ZM2036.21 1909.61L2044.06 1909.5L2044.5 1940.75C2044.51 1941.8 2044.68 1942.61 2045.01 1943.17C2045.35 1943.71 2045.79 1944.08 2046.33 1944.28C2046.86 1944.47 2047.46 1944.57 2048.11 1944.56C2048.6 1944.55 2049.05 1944.51 2049.45 1944.43C2049.87 1944.35 2050.18 1944.28 2050.4 1944.22L2051.81 1950.34C2051.39 1950.49 2050.79 1950.65 2050.02 1950.84C2049.25 1951.02 2048.32 1951.14 2047.2 1951.18C2045.24 1951.27 2043.47 1950.99 2041.88 1950.37C2040.3 1949.72 2039.03 1948.72 2038.09 1947.34C2037.16 1945.97 2036.69 1944.24 2036.67 1942.16L2036.21 1909.61ZM2078.26 1928.57L2078.35 1935.03L2058.37 1935.31L2058.28 1928.85L2078.26 1928.57ZM2088.51 1950.14L2088.04 1916.86L2095.89 1916.75L2096.35 1950.03L2088.51 1950.14ZM2091.92 1912.08C2090.68 1912.1 2089.6 1911.7 2088.69 1910.89C2087.79 1910.06 2087.32 1909.07 2087.31 1907.9C2087.29 1906.71 2087.72 1905.7 2088.61 1904.87C2089.49 1904.01 2090.56 1903.58 2091.8 1903.56C2093.06 1903.55 2094.13 1903.95 2095.02 1904.77C2095.93 1905.59 2096.39 1906.58 2096.41 1907.77C2096.43 1908.94 2095.99 1909.95 2095.11 1910.8C2094.24 1911.63 2093.17 1912.06 2091.92 1912.08ZM2118.48 1950.31C2115.86 1950.34 2113.51 1949.71 2111.43 1948.39C2109.34 1947.08 2107.68 1945.15 2106.45 1942.61C2105.21 1940.07 2104.57 1936.97 2104.52 1933.32C2104.46 1929.62 2105.03 1926.49 2106.2 1923.93C2107.4 1921.35 2109.02 1919.4 2111.09 1918.07C2113.15 1916.73 2115.46 1916.04 2118.01 1916C2119.96 1915.98 2121.57 1916.29 2122.84 1916.93C2124.1 1917.56 2125.11 1918.34 2125.86 1919.25C2126.61 1920.15 2127.19 1921 2127.61 1921.81L2127.94 1921.8L2127.7 1905.2L2135.57 1905.09L2136.19 1949.47L2128.48 1949.58L2128.4 1944.34L2127.93 1944.34C2127.54 1945.16 2126.96 1946.03 2126.21 1946.95C2125.46 1947.85 2124.46 1948.63 2123.21 1949.29C2121.96 1949.94 2120.38 1950.28 2118.48 1950.31ZM2120.57 1943.84C2122.23 1943.82 2123.64 1943.35 2124.8 1942.44C2125.96 1941.51 2126.83 1940.23 2127.41 1938.61C2128 1936.98 2128.27 1935.09 2128.24 1932.94C2128.21 1930.79 2127.88 1928.92 2127.26 1927.34C2126.64 1925.76 2125.74 1924.54 2124.56 1923.67C2123.39 1922.81 2121.96 1922.39 2120.27 1922.41C2118.52 1922.43 2117.07 1922.91 2115.91 1923.84C2114.76 1924.76 2113.89 1926.03 2113.32 1927.64C2112.75 1929.26 2112.48 1931.09 2112.51 1933.16C2112.54 1935.24 2112.86 1937.09 2113.48 1938.72C2114.11 1940.33 2115.01 1941.59 2116.2 1942.51C2117.4 1943.42 2118.85 1943.86 2120.57 1943.84Z" fill="#666666"/>
</g>
<defs>
<clipPath id="clip0_406_991">
<rect width="4148" height="4200" fill="white"/>
</clipPath>
</defs>
</svg>
