<svg width="512" height="512" viewBox="0 0 512 512" fill="none" xmlns="http://www.w3.org/2000/svg">
<path d="M443.827 195.5C439.444 183.77 432.074 175.288 422.51 170.976C418.121 169.001 413.515 168 408.822 168C388.797 168 368.45 186.667 358.19 214.454C345.492 248.874 352.875 282.589 375.363 292.877C379.885 294.948 384.728 296 389.757 296C410.153 296 430.883 278.881 441.338 253.404C449.238 234.121 450.168 212.477 443.827 195.5Z" fill="#DDDDDD"/>
<path d="M153.811 214.454C143.551 186.667 123.204 168 103.179 168C98.4857 168 93.8787 169.001 89.4897 170.976C79.9247 175.288 72.5557 183.77 68.1727 195.5C61.8317 212.477 62.7617 234.121 70.6627 253.404C81.1177 278.881 101.848 296 122.244 296C127.272 296 132.115 294.948 136.638 292.877C159.126 282.589 166.509 248.874 153.811 214.454Z" fill="#DDDDDD"/>
<path d="M198.347 210.601C200.202 210.682 202.074 210.631 203.91 210.45C214.697 209.391 224.45 203.856 232.117 194.442C244.488 179.251 247.923 155.468 245.318 131.003C241.336 93.3 221.469 65.161 194.776 64C194.776 64 190.965 64.008 189.026 64.193C177.25 65.357 166.545 71.476 158.069 81.888C145.778 96.989 139.871 119.458 142.266 141.992C146.202 179.269 170.836 209.404 198.347 210.601Z" fill="#DDDDDD"/>
<path d="M256 240C192 240 128 316.074 128 389.128C128 410.926 138.932 428.459 149.667 435.645C162.925 444.516 172.269 448 191.704 448C214.797 448 221.029 439.922 231.84 432.795C239.659 427.643 246.412 423.19 256.001 423.19C265.59 423.19 272.343 427.643 280.161 432.795C290.972 439.922 297.203 448 320.297 448C339.731 448 349.075 444.516 362.333 435.645C373.068 428.459 384 410.926 384 389.128C384 316.074 320 240 256 240Z" fill="#DDDDDD"/>
<path d="M308.281 210.264C310.117 210.446 311.99 210.496 313.844 210.415C341.355 209.219 365.99 179.083 369.925 141.808C372.32 119.274 366.411 96.804 354.121 81.704C345.645 71.292 335.338 65.476 323.561 64.312C321.622 64.126 317.415 64 317.415 64C290.722 65.161 270.854 93.115 266.873 130.817C264.269 155.283 267.703 179.065 280.073 194.256C287.741 203.67 297.494 209.205 308.281 210.264Z" fill="#DDDDDD"/>
</svg>
