<svg width="512" height="512" viewBox="0 0 512 512" fill="none" xmlns="http://www.w3.org/2000/svg">
<g clip-path="url(#clip0_420_480)">
<path d="M384 205.267L289.941 195.069L256 106.664L222.059 195.069L128 205.267L200.96 266.344L178.987 362.664L256 308.968L332.992 362.664L311.04 266.344L384 205.267Z" fill="#FED600"/>
<path opacity="0.05" d="M201.963 261.863L128 205.266L200.96 266.343L201.963 261.863ZM310.037 261.863L311.04 266.343L384 205.266L310.037 261.863ZM256 303.634L180.459 356.327L178.987 362.663L256 308.967L332.992 362.663L331.541 356.327L256 303.634Z" fill="#010101"/>
<path opacity="0.2" d="M222.059 200.403L256 111.997L289.941 200.403L384 205.267L289.941 195.069L256 106.664L222.059 195.069L128 205.267L222.059 200.403Z" fill="white"/>
<path d="M512 301.032L452.117 291.069L426.666 234.664L401.216 291.069L341.333 301.032L385.642 343.379L369.237 405.331L426.666 374.931L484.096 405.331L467.69 343.379L512 301.032Z" fill="#FED600"/>
<path opacity="0.05" d="M386.773 339.053L341.333 301.016L385.642 343.277L386.773 339.053ZM466.56 339.138L467.669 343.405L512 301.016L466.56 339.138ZM426.666 369.602L370.88 399.128L369.237 405.336L426.666 374.936L484.096 405.336L482.453 399.149L426.666 369.602Z" fill="#010101"/>
<path opacity="0.2" d="M401.216 296.403L426.666 239.997L452.117 296.403L512 301.032L452.117 291.069L426.666 234.664L401.216 291.069L341.333 301.032L401.216 296.403Z" fill="white"/>
<path d="M170.667 301.032L110.784 291.069L85.3333 234.664L59.8827 291.069L0 301.032L44.3093 343.379L27.904 405.331L85.3333 374.931L142.763 405.331L126.357 343.379L170.667 301.032Z" fill="#FED600"/>
<path opacity="0.05" d="M45.44 339.053L0 301.016L44.3093 343.277L45.44 339.053ZM125.227 339.138L126.336 343.405L170.667 301.016L125.227 339.138ZM85.3333 369.602L29.5467 399.128L27.904 405.336L85.3333 374.936L142.763 405.336L141.12 399.149L85.3333 369.602Z" fill="#010101"/>
<path opacity="0.2" d="M59.8827 296.403L85.3333 239.997L110.784 296.403L170.667 301.032L110.784 291.069L85.3333 234.664L59.8827 291.069L0 301.032L59.8827 296.403Z" fill="white"/>
<path d="M384 205.267L289.941 195.069L256 106.664L222.059 195.069L128 205.267L200.96 266.344L178.987 362.664L256 308.968L332.992 362.664L311.061 266.344L384 205.267ZM512 301.053L452.117 291.069L426.667 234.664L401.216 291.069L341.333 301.032L385.643 343.379L369.237 405.331L426.667 374.931L484.096 405.331L467.691 343.379L512 301.011V301.053ZM110.784 291.069L85.3333 234.664L59.8827 291.069L0 301.032L44.3093 343.379L27.904 405.331L85.3333 374.931L142.763 405.331L126.357 343.379L170.667 301.011L110.784 291.048V291.069Z" fill="#DDDDDD"/>
</g>
<defs>
<clipPath id="clip0_420_480">
<rect width="512" height="512" fill="white"/>
</clipPath>
</defs>
</svg>
