<svg width="662" height="676" viewBox="0 0 662 676" fill="none" xmlns="http://www.w3.org/2000/svg">
<g clip-path="url(#clip0_276_583)">
<path fill-rule="evenodd" clip-rule="evenodd" d="M340.5 0.25C163.074 0.25 19.25 144.074 19.25 321.5C19.25 382.216 36.1156 439.077 65.4457 487.522L36.7903 584.925C35.145 590.517 35.0367 596.45 36.4769 602.098C37.917 607.747 40.8524 612.904 44.9744 617.026C49.0964 621.148 54.2528 624.083 59.9015 625.523C65.5502 626.963 71.4826 626.855 77.075 625.21L174.478 596.554C224.55 626.851 281.975 642.829 340.5 642.75C517.926 642.75 661.75 498.926 661.75 321.5C661.75 144.074 517.926 0.25 340.5 0.25ZM267.833 394.199C332.822 459.156 394.855 467.733 416.765 468.536C450.078 469.757 482.525 444.314 495.15 414.791C496.744 411.118 497.322 407.085 496.825 403.112C496.328 399.14 494.773 395.374 492.323 392.207C474.718 369.72 450.914 353.561 427.655 337.498C422.799 334.141 416.831 332.794 411.004 333.74C405.176 334.686 399.942 337.852 396.397 342.574L377.123 371.968C376.109 373.549 374.53 374.682 372.708 375.136C370.887 375.59 368.961 375.33 367.324 374.41C354.25 366.925 335.199 354.203 321.514 340.518C307.829 326.833 295.878 308.65 289.164 296.41C288.332 294.855 288.091 293.051 288.487 291.332C288.883 289.614 289.888 288.096 291.317 287.062L321 265.024C325.236 261.341 327.97 256.228 328.681 250.66C329.392 245.092 328.03 239.456 324.855 234.827C310.463 213.753 293.694 186.96 269.375 169.195C266.237 166.921 262.56 165.503 258.708 165.08C254.855 164.658 250.958 165.246 247.402 166.786C217.847 179.443 192.275 211.889 193.496 245.267C194.299 267.177 202.876 329.21 267.833 394.199Z" fill="#4BB050"/>
</g>
<defs>
<clipPath id="clip0_276_583">
<rect width="662" height="676" fill="white"/>
</clipPath>
</defs>
</svg>
